ISO-10303-21;
HEADER;
FILE_DESCRIPTION (( 'STEP AP203' ),
    '1' );
FILE_NAME ('Pièce5_BagueArret_Défaut_sldprt.STEP',
    '2023-12-03T16:39:15',
    ( 'LIA INFO' ),
    ( '' ),
    'SwSTEP 2.0',
    'SolidWorks 2022',
    '' );
FILE_SCHEMA (( 'CONFIG_CONTROL_DESIGN' ));
ENDSEC;

DATA;
#1 = APPROVAL_DATE_TIME ( #326, #120 ) ;
#2 = CALENDAR_DATE ( 2023, 3, 12 ) ;
#3 = ORIENTED_EDGE ( 'NONE', *, *, #65, .F. ) ;
#4 = DIRECTION ( 'NONE',  ( 1.000000000000000000, 0.000000000000000000, -0.000000000000000000 ) ) ;
#5 = CARTESIAN_POINT ( 'NONE',  ( 0.000000000000000000, 0.000000000000000000, 0.000000000000000000 ) ) ;
#6 = DIRECTION ( 'NONE',  ( -0.000000000000000000, -0.000000000000000000, -1.000000000000000000 ) ) ;
#7 = AXIS2_PLACEMENT_3D ( 'NONE', #322, #99, #270 ) ;
#8 = LOCAL_TIME ( 17, 39, 15.00000000000000000, #182 ) ;
#9 = ORIENTED_EDGE ( 'NONE', *, *, #94, .T. ) ;
#10 = EDGE_CURVE ( 'NONE', #119, #225, #190, .T. ) ;
#11 = DIRECTION ( 'NONE',  ( 1.000000000000000000, 0.000000000000000000, 0.000000000000000000 ) ) ;
#12 = VECTOR ( 'NONE', #28, 1000.000000000000000 ) ;
#13 = CARTESIAN_POINT ( 'NONE',  ( 0.000000000000000000, 0.000000000000000000, 2.000000000000000000 ) ) ;
#14 = LINE ( 'NONE', #102, #284 ) ;
#15 = AXIS2_PLACEMENT_3D ( 'NONE', #273, #318, #198 ) ;
#16 = EDGE_LOOP ( 'NONE', ( #226, #54 ) ) ;
#17 =( GEOMETRIC_REPRESENTATION_CONTEXT ( 3 ) GLOBAL_UNCERTAINTY_ASSIGNED_CONTEXT ( ( #116 ) ) GLOBAL_UNIT_ASSIGNED_CONTEXT ( ( #160, #239, #61 ) ) REPRESENTATION_CONTEXT ( 'NONE', 'WORKASPACE' ) );
#18 = DIRECTION ( 'NONE',  ( -0.000000000000000000, -0.000000000000000000, 1.000000000000000000 ) ) ;
#19 = EDGE_LOOP ( 'NONE', ( #204, #275, #260, #9 ) ) ;
#20 = ADVANCED_FACE ( 'NONE', ( #58 ), #81, .F. ) ;
#21 = LINE ( 'NONE', #97, #166 ) ;
#22 = ORIENTED_EDGE ( 'NONE', *, *, #10, .T. ) ;
#23 = ORIENTED_EDGE ( 'NONE', *, *, #36, .F. ) ;
#24 = PERSON_AND_ORGANIZATION ( #218, #67 ) ;
#25 = CC_DESIGN_SECURITY_CLASSIFICATION ( #241, ( #135 ) ) ;
#26 = PERSON_AND_ORGANIZATION ( #218, #67 ) ;
#27 = PERSON_AND_ORGANIZATION ( #218, #67 ) ;
#28 = DIRECTION ( 'NONE',  ( -0.000000000000000000, -0.000000000000000000, -1.000000000000000000 ) ) ;
#29 = AXIS2_PLACEMENT_3D ( 'NONE', #57, #62, #287 ) ;
#30 = CARTESIAN_POINT ( 'NONE',  ( 0.000000000000000000, 0.000000000000000000, 3.000000000000000000 ) ) ;
#31 = CARTESIAN_POINT ( 'NONE',  ( 7.500000000000000000, 9.184850993605147944E-16, 3.000000000000000000 ) ) ;
#32 = ADVANCED_FACE ( 'NONE', ( #87 ), #181, .T. ) ;
#33 = DIRECTION ( 'NONE',  ( 0.000000000000000000, 0.000000000000000000, 1.000000000000000000 ) ) ;
#34 = AXIS2_PLACEMENT_3D ( 'NONE', #224, #68, #169 ) ;
#35 = PRODUCT_DEFINITION_SHAPE ( 'NONE', 'NONE',  #271 ) ;
#36 = EDGE_CURVE ( 'NONE', #301, #250, #236, .T. ) ;
#37 = FACE_BOUND ( 'NONE', #16, .T. ) ;
#38 = ORIENTED_EDGE ( 'NONE', *, *, #106, .T. ) ;
#39 = DIRECTION ( 'NONE',  ( 1.000000000000000000, 0.000000000000000000, 0.000000000000000000 ) ) ;
#40 = CIRCLE ( 'NONE', #139, 5.500000000000000000 ) ;
#41 = EDGE_LOOP ( 'NONE', ( #277, #196, #146, #105 ) ) ;
#42 = EDGE_CURVE ( 'NONE', #225, #269, #91, .T. ) ;
#43 = APPROVAL_PERSON_ORGANIZATION ( #26, #197, #79 ) ;
#44 = DIRECTION ( 'NONE',  ( -0.000000000000000000, -0.000000000000000000, 1.000000000000000000 ) ) ;
#45 = ORIENTED_EDGE ( 'NONE', *, *, #220, .F. ) ;
#46 = APPROVAL_STATUS ( 'not_yet_approved' ) ;
#47 = DIRECTION ( 'NONE',  ( 0.000000000000000000, 0.000000000000000000, 1.000000000000000000 ) ) ;
#48 = ORIENTED_EDGE ( 'NONE', *, *, #42, .F. ) ;
#49 = DATE_AND_TIME ( #281, #164 ) ;
#50 = LOCAL_TIME ( 17, 39, 15.00000000000000000, #133 ) ;
#51 = APPROVAL_ROLE ( '' ) ;
#52 = CARTESIAN_POINT ( 'NONE',  ( 0.000000000000000000, 0.000000000000000000, 2.000000000000000000 ) ) ;
#53 = PERSON_AND_ORGANIZATION_ROLE ( 'design_owner' ) ;
#54 = ORIENTED_EDGE ( 'NONE', *, *, #308, .F. ) ;
#55 = CC_DESIGN_PERSON_AND_ORGANIZATION_ASSIGNMENT ( #324, #53, ( #92 ) ) ;
#56 = CIRCLE ( 'NONE', #138, 7.500000000000000000 ) ;
#57 = CARTESIAN_POINT ( 'NONE',  ( 0.000000000000000000, 0.000000000000000000, 3.000000000000000000 ) ) ;
#58 = FACE_OUTER_BOUND ( 'NONE', #98, .T. ) ;
#59 = DATE_AND_TIME ( #212, #8 ) ;
#60 = FACE_BOUND ( 'NONE', #272, .T. ) ;
#61 =( NAMED_UNIT ( * ) SI_UNIT ( $, .STERADIAN. ) SOLID_ANGLE_UNIT ( ) );
#62 = DIRECTION ( 'NONE',  ( -0.000000000000000000, -0.000000000000000000, -1.000000000000000000 ) ) ;
#63 = CIRCLE ( 'NONE', #248, 7.500000000000000000 ) ;
#64 = CC_DESIGN_APPROVAL ( #120, ( #135 ) ) ;
#65 = EDGE_CURVE ( 'NONE', #250, #255, #286, .T. ) ;
#66 = AXIS2_PLACEMENT_3D ( 'NONE', #300, #147, #222 ) ;
#67 = ORGANIZATION ( 'UNSPECIFIED', 'UNSPECIFIED', '' ) ;
#68 = DIRECTION ( 'NONE',  ( 0.000000000000000000, 0.000000000000000000, 1.000000000000000000 ) ) ;
#69 = ORIENTED_EDGE ( 'NONE', *, *, #175, .F. ) ;
#70 = CARTESIAN_POINT ( 'NONE',  ( 0.000000000000000000, 0.000000000000000000, 2.000000000000000000 ) ) ;
#71 = VERTEX_POINT ( 'NONE', #209 ) ;
#72 = LOCAL_TIME ( 17, 39, 15.00000000000000000, #152 ) ;
#73 = PERSON_AND_ORGANIZATION ( #218, #67 ) ;
#74 = DIRECTION ( 'NONE',  ( 1.000000000000000000, 0.000000000000000000, 0.000000000000000000 ) ) ;
#75 = ORIENTED_EDGE ( 'NONE', *, *, #243, .T. ) ;
#76 = PERSON_AND_ORGANIZATION_ROLE ( 'classification_officer' ) ;
#77 = DIRECTION ( 'NONE',  ( 1.000000000000000000, 0.000000000000000000, 0.000000000000000000 ) ) ;
#78 = EDGE_LOOP ( 'NONE', ( #75, #22, #104, #111 ) ) ;
#79 = APPROVAL_ROLE ( '' ) ;
#80 = CC_DESIGN_PERSON_AND_ORGANIZATION_ASSIGNMENT ( #303, #76, ( #241 ) ) ;
#81 = CYLINDRICAL_SURFACE ( 'NONE', #213, 6.000000000000000888 ) ;
#82 = DIRECTION ( 'NONE',  ( 1.000000000000000000, 0.000000000000000000, 0.000000000000000000 ) ) ;
#83 = FACE_OUTER_BOUND ( 'NONE', #177, .T. ) ;
#84 = LINE ( 'NONE', #185, #93 ) ;
#85 = AXIS2_PLACEMENT_3D ( 'NONE', #30, #33, #238 ) ;
#86 = CARTESIAN_POINT ( 'NONE',  ( 6.000000000000000888, 0.000000000000000000, 2.000000000000000000 ) ) ;
#87 = FACE_OUTER_BOUND ( 'NONE', #293, .T. ) ;
#88 = CARTESIAN_POINT ( 'NONE',  ( 0.000000000000000000, 0.000000000000000000, 3.000000000000000000 ) ) ;
#89 = ADVANCED_FACE ( 'NONE', ( #83, #60 ), #183, .F. ) ;
#90 = SHAPE_DEFINITION_REPRESENTATION ( #35, #143 ) ;
#91 = CIRCLE ( 'NONE', #298, 5.500000000000000000 ) ;
#92 = PRODUCT ( 'Pièce5_BagueArret_Défaut_sldprt', 'Pièce5_BagueArret_Défaut_sldprt', '', ( #131 ) ) ;
#93 = VECTOR ( 'NONE', #285, 1000.000000000000000 ) ;
#94 = EDGE_CURVE ( 'NONE', #265, #170, #163, .T. ) ;
#95 = CARTESIAN_POINT ( 'NONE',  ( 5.500000000000000000, 6.735557395310442023E-16, 2.000000000000000000 ) ) ;
#96 = FACE_OUTER_BOUND ( 'NONE', #78, .T. ) ;
#97 = CARTESIAN_POINT ( 'NONE',  ( -5.500000000000000000, 0.000000000000000000, 3.000000000000000000 ) ) ;
#98 = EDGE_LOOP ( 'NONE', ( #128, #246, #321, #69 ) ) ;
#99 = DIRECTION ( 'NONE',  ( -0.000000000000000000, -0.000000000000000000, -1.000000000000000000 ) ) ;
#100 = ORIENTED_EDGE ( 'NONE', *, *, #276, .T. ) ;
#101 = APPROVAL_STATUS ( 'not_yet_approved' ) ;
#103 = AXIS2_PLACEMENT_3D ( 'NONE', #194, #296, #123 ) ;
#102 = CARTESIAN_POINT ( 'NONE',  ( 6.000000000000000888, 0.000000000000000000, 2.000000000000000000 ) ) ;
#104 = ORIENTED_EDGE ( 'NONE', *, *, #215, .F. ) ;
#105 = ORIENTED_EDGE ( 'NONE', *, *, #220, .T. ) ;
#106 = EDGE_CURVE ( 'NONE', #71, #255, #56, .T. ) ;
#107 = PERSON_AND_ORGANIZATION_ROLE ( 'design_supplier' ) ;
#108 = AXIS2_PLACEMENT_3D ( 'NONE', #259, #230, #4 ) ;
#109 = APPLICATION_PROTOCOL_DEFINITION ( 'international standard', 'config_control_design', 1994, #217 ) ;
#110 = DIRECTION ( 'NONE',  ( -0.000000000000000000, -0.000000000000000000, 1.000000000000000000 ) ) ;
#111 = ORIENTED_EDGE ( 'NONE', *, *, #244, .F. ) ;
#112 = PLANE ( 'NONE',  #108 ) ;
#113 = APPROVAL ( #280, 'UNSPECIFIED' ) ;
#114 = CC_DESIGN_APPROVAL ( #113, ( #241 ) ) ;
#115 = EDGE_CURVE ( 'NONE', #132, #170, #84, .T. ) ;
#116 = UNCERTAINTY_MEASURE_WITH_UNIT (LENGTH_MEASURE( 1.000000000000000082E-05 ), #160, 'distance_accuracy_value', 'NONE');
#117 = PLANE ( 'NONE',  #313 ) ;
#118 = DIRECTION ( 'NONE',  ( 1.000000000000000000, 0.000000000000000000, -0.000000000000000000 ) ) ;
#119 = VERTEX_POINT ( 'NONE', #95 ) ;
#120 = APPROVAL ( #101, 'UNSPECIFIED' ) ;
#121 = DIRECTION ( 'NONE',  ( 0.000000000000000000, 0.000000000000000000, 1.000000000000000000 ) ) ;
#122 = ORIENTED_EDGE ( 'NONE', *, *, #308, .T. ) ;
#123 = DIRECTION ( 'NONE',  ( -1.000000000000000000, 0.000000000000000000, 0.000000000000000000 ) ) ;
#124 = ORIENTED_EDGE ( 'NONE', *, *, #42, .T. ) ;
#125 = DATE_TIME_ROLE ( 'creation_date' ) ;
#127 = CIRCLE ( 'NONE', #34, 5.500000000000000000 ) ;
#126 = CARTESIAN_POINT ( 'NONE',  ( 0.000000000000000000, 0.000000000000000000, 3.000000000000000000 ) ) ;
#128 = ORIENTED_EDGE ( 'NONE', *, *, #206, .F. ) ;
#129 = APPROVAL_ROLE ( '' ) ;
#130 = APPLICATION_CONTEXT ( 'configuration controlled 3d designs of mechanical parts and assemblies' ) ;
#131 = MECHANICAL_CONTEXT ( 'NONE', #130, 'mechanical' ) ;
#132 = VERTEX_POINT ( 'NONE', #291 ) ;
#133 = COORDINATED_UNIVERSAL_TIME_OFFSET ( 1, 0, .AHEAD. ) ;
#134 = VECTOR ( 'NONE', #145, 1000.000000000000000 ) ;
#135 = PRODUCT_DEFINITION_FORMATION_WITH_SPECIFIED_SOURCE ( 'ANY', '', #92, .NOT_KNOWN. ) ;
#136 = CARTESIAN_POINT ( 'NONE',  ( 0.000000000000000000, 0.000000000000000000, 3.000000000000000000 ) ) ;
#137 = ORIENTED_EDGE ( 'NONE', *, *, #94, .F. ) ;
#138 = AXIS2_PLACEMENT_3D ( 'NONE', #5, #211, #311 ) ;
#139 = AXIS2_PLACEMENT_3D ( 'NONE', #210, #184, #11 ) ;
#140 = EDGE_CURVE ( 'NONE', #301, #71, #168, .T. ) ;
#141 = AXIS2_PLACEMENT_3D ( 'NONE', #13, #121, #77 ) ;
#142 = CARTESIAN_POINT ( 'NONE',  ( 0.000000000000000000, 0.000000000000000000, 2.000000000000000000 ) ) ;
#143 = ADVANCED_BREP_SHAPE_REPRESENTATION ( 'PiÞce5_BagueArret_DÚfaut_sldprt', ( #240, #216 ), #17 ) ;
#144 = EDGE_LOOP ( 'NONE', ( #100, #252 ) ) ;
#145 = DIRECTION ( 'NONE',  ( -0.000000000000000000, -0.000000000000000000, -1.000000000000000000 ) ) ;
#146 = ORIENTED_EDGE ( 'NONE', *, *, #65, .T. ) ;
#147 = DIRECTION ( 'NONE',  ( 0.000000000000000000, 0.000000000000000000, 1.000000000000000000 ) ) ;
#148 = ORIENTED_EDGE ( 'NONE', *, *, #278, .T. ) ;
#149 = ADVANCED_FACE ( 'NONE', ( #96 ), #150, .F. ) ;
#150 = CYLINDRICAL_SURFACE ( 'NONE', #103, 5.500000000000000000 ) ;
#151 = ORIENTED_EDGE ( 'NONE', *, *, #247, .F. ) ;
#152 = COORDINATED_UNIVERSAL_TIME_OFFSET ( 1, 0, .AHEAD. ) ;
#153 = CARTESIAN_POINT ( 'NONE',  ( -7.500000000000000000, 0.000000000000000000, 0.000000000000000000 ) ) ;
#154 = ORIENTED_EDGE ( 'NONE', *, *, #10, .F. ) ;
#155 = COORDINATED_UNIVERSAL_TIME_OFFSET ( 1, 0, .AHEAD. ) ;
#156 = DIRECTION ( 'NONE',  ( 1.000000000000000000, 0.000000000000000000, 0.000000000000000000 ) ) ;
#157 = DIRECTION ( 'NONE',  ( 1.000000000000000000, 0.000000000000000000, 0.000000000000000000 ) ) ;
#158 = CARTESIAN_POINT ( 'NONE',  ( 0.000000000000000000, 0.000000000000000000, 0.000000000000000000 ) ) ;
#159 = CARTESIAN_POINT ( 'NONE',  ( 0.000000000000000000, 0.000000000000000000, 3.000000000000000000 ) ) ;
#160 =( LENGTH_UNIT ( ) NAMED_UNIT ( * ) SI_UNIT ( .MILLI., .METRE. ) );
#161 = ADVANCED_FACE ( 'NONE', ( #294 ), #249, .F. ) ;
#162 = CARTESIAN_POINT ( 'NONE',  ( 0.000000000000000000, 0.000000000000000000, 0.000000000000000000 ) ) ;
#163 = CIRCLE ( 'NONE', #85, 6.000000000000000888 ) ;
#164 = LOCAL_TIME ( 17, 39, 15.00000000000000000, #208 ) ;
#165 = ADVANCED_FACE ( 'NONE', ( #251 ), #228, .F. ) ;
#166 = VECTOR ( 'NONE', #304, 1000.000000000000000 ) ;
#167 = LOCAL_TIME ( 17, 39, 15.00000000000000000, #155 ) ;
#168 = LINE ( 'NONE', #316, #134 ) ;
#169 = DIRECTION ( 'NONE',  ( 1.000000000000000000, 0.000000000000000000, 0.000000000000000000 ) ) ;
#170 = VERTEX_POINT ( 'NONE', #178 ) ;
#171 = DIRECTION ( 'NONE',  ( 0.000000000000000000, 0.000000000000000000, 1.000000000000000000 ) ) ;
#172 = ORIENTED_EDGE ( 'NONE', *, *, #36, .T. ) ;
#173 = AXIS2_PLACEMENT_3D ( 'NONE', #70, #171, #39 ) ;
#174 = DIRECTION ( 'NONE',  ( 1.000000000000000000, 0.000000000000000000, 0.000000000000000000 ) ) ;
#175 = EDGE_CURVE ( 'NONE', #328, #265, #14, .T. ) ;
#176 = CARTESIAN_POINT ( 'NONE',  ( -7.500000000000000000, 0.000000000000000000, 3.000000000000000000 ) ) ;
#177 = EDGE_LOOP ( 'NONE', ( #45, #200 ) ) ;
#178 = CARTESIAN_POINT ( 'NONE',  ( -6.000000000000000888, 7.347880794884120722E-16, 3.000000000000000000 ) ) ;
#179 = DIRECTION ( 'NONE',  ( 0.000000000000000000, 0.000000000000000000, 1.000000000000000000 ) ) ;
#180 = AXIS2_PLACEMENT_3D ( 'NONE', #136, #214, #279 ) ;
#181 = CYLINDRICAL_SURFACE ( 'NONE', #180, 7.500000000000000000 ) ;
#182 = COORDINATED_UNIVERSAL_TIME_OFFSET ( 1, 0, .AHEAD. ) ;
#183 = PLANE ( 'NONE',  #207 ) ;
#184 = DIRECTION ( 'NONE',  ( 0.000000000000000000, 0.000000000000000000, 1.000000000000000000 ) ) ;
#185 = CARTESIAN_POINT ( 'NONE',  ( -6.000000000000000888, 7.347880794884120722E-16, 2.000000000000000000 ) ) ;
#186 = APPROVAL_PERSON_ORGANIZATION ( #233, #120, #129 ) ;
#187 = APPROVAL_DATE_TIME ( #59, #113 ) ;
#188 = CC_DESIGN_PERSON_AND_ORGANIZATION_ASSIGNMENT ( #261, #305, ( #271 ) ) ;
#189 = FACE_BOUND ( 'NONE', #297, .T. ) ;
#190 = LINE ( 'NONE', #306, #193 ) ;
#191 = DIRECTION ( 'NONE',  ( 1.000000000000000000, 0.000000000000000000, 0.000000000000000000 ) ) ;
#192 = CC_DESIGN_PERSON_AND_ORGANIZATION_ASSIGNMENT ( #73, #107, ( #135 ) ) ;
#193 = VECTOR ( 'NONE', #6, 1000.000000000000000 ) ;
#194 = CARTESIAN_POINT ( 'NONE',  ( 0.000000000000000000, 0.000000000000000000, 3.000000000000000000 ) ) ;
#195 = CARTESIAN_POINT ( 'NONE',  ( -5.500000000000000000, 0.000000000000000000, 0.000000000000000000 ) ) ;
#196 = ORIENTED_EDGE ( 'NONE', *, *, #278, .F. ) ;
#197 = APPROVAL ( #46, 'UNSPECIFIED' ) ;
#198 = DIRECTION ( 'NONE',  ( 1.000000000000000000, 0.000000000000000000, 0.000000000000000000 ) ) ;
#199 = EDGE_LOOP ( 'NONE', ( #154, #122, #323, #48 ) ) ;
#200 = ORIENTED_EDGE ( 'NONE', *, *, #106, .F. ) ;
#201 = SECURITY_CLASSIFICATION_LEVEL ( 'unclassified' ) ;
#202 = CARTESIAN_POINT ( 'NONE',  ( -5.500000000000000000, 0.000000000000000000, 2.000000000000000000 ) ) ;
#203 = ORIENTED_EDGE ( 'NONE', *, *, #215, .T. ) ;
#204 = ORIENTED_EDGE ( 'NONE', *, *, #115, .F. ) ;
#205 = DATE_AND_TIME ( #235, #72 ) ;
#206 = EDGE_CURVE ( 'NONE', #132, #328, #319, .T. ) ;
#207 = AXIS2_PLACEMENT_3D ( 'NONE', #162, #282, #264 ) ;
#208 = COORDINATED_UNIVERSAL_TIME_OFFSET ( 1, 0, .AHEAD. ) ;
#209 = CARTESIAN_POINT ( 'NONE',  ( 7.500000000000000000, 9.184850993605147944E-16, 0.000000000000000000 ) ) ;
#210 = CARTESIAN_POINT ( 'NONE',  ( 0.000000000000000000, 0.000000000000000000, 2.000000000000000000 ) ) ;
#211 = DIRECTION ( 'NONE',  ( 0.000000000000000000, 0.000000000000000000, 1.000000000000000000 ) ) ;
#212 = CALENDAR_DATE ( 2023, 3, 12 ) ;
#213 = AXIS2_PLACEMENT_3D ( 'NONE', #52, #110, #82 ) ;
#214 = DIRECTION ( 'NONE',  ( -0.000000000000000000, -0.000000000000000000, -1.000000000000000000 ) ) ;
#215 = EDGE_CURVE ( 'NONE', #269, #225, #127, .T. ) ;
#216 = AXIS2_PLACEMENT_3D ( 'NONE', #310, #179, #157 ) ;
#217 = APPLICATION_CONTEXT ( 'configuration controlled 3d designs of mechanical parts and assemblies' ) ;
#218 = PERSON ( 'UNSPECIFIED', 'UNSPECIFIED', 'UNSPECIFIED', ('UNSPECIFIED'), ('UNSPECIFIED'), ('UNSPECIFIED') ) ;
#219 = ADVANCED_FACE ( 'NONE', ( #37, #268 ), #117, .T. ) ;
#220 = EDGE_CURVE ( 'NONE', #255, #71, #221, .T. ) ;
#221 = CIRCLE ( 'NONE', #15, 7.500000000000000000 ) ;
#222 = DIRECTION ( 'NONE',  ( 1.000000000000000000, 0.000000000000000000, 0.000000000000000000 ) ) ;
#223 = EDGE_LOOP ( 'NONE', ( #148, #172 ) ) ;
#224 = CARTESIAN_POINT ( 'NONE',  ( 0.000000000000000000, 0.000000000000000000, 0.000000000000000000 ) ) ;
#225 = VERTEX_POINT ( 'NONE', #254 ) ;
#226 = ORIENTED_EDGE ( 'NONE', *, *, #243, .F. ) ;
#227 = CLOSED_SHELL ( 'NONE', ( #20, #32, #149, #165, #302, #89, #325, #161, #219 ) ) ;
#228 = CYLINDRICAL_SURFACE ( 'NONE', #7, 5.500000000000000000 ) ;
#229 = CALENDAR_DATE ( 2023, 3, 12 ) ;
#230 = DIRECTION ( 'NONE',  ( 0.000000000000000000, 0.000000000000000000, 1.000000000000000000 ) ) ;
#231 = VERTEX_POINT ( 'NONE', #202 ) ;
#232 = CC_DESIGN_DATE_AND_TIME_ASSIGNMENT ( #205, #256, ( #241 ) ) ;
#233 = PERSON_AND_ORGANIZATION ( #218, #67 ) ;
#234 = DIRECTION ( 'NONE',  ( 0.000000000000000000, 0.000000000000000000, 1.000000000000000000 ) ) ;
#235 = CALENDAR_DATE ( 2023, 3, 12 ) ;
#236 = CIRCLE ( 'NONE', #263, 7.500000000000000000 ) ;
#237 = DIRECTION ( 'NONE',  ( 0.000000000000000000, 0.000000000000000000, 1.000000000000000000 ) ) ;
#238 = DIRECTION ( 'NONE',  ( 1.000000000000000000, 0.000000000000000000, 0.000000000000000000 ) ) ;
#239 =( NAMED_UNIT ( * ) PLANE_ANGLE_UNIT ( ) SI_UNIT ( $, .RADIAN. ) );
#240 = MANIFOLD_SOLID_BREP ( 'Enlèv. mat.-Extru.1', #227 ) ;
#241 = SECURITY_CLASSIFICATION ( '', '', #201 ) ;
#242 = DIRECTION ( 'NONE',  ( 0.000000000000000000, 0.000000000000000000, 1.000000000000000000 ) ) ;
#243 = EDGE_CURVE ( 'NONE', #231, #119, #266, .T. ) ;
#244 = EDGE_CURVE ( 'NONE', #231, #269, #21, .T. ) ;
#245 = DIRECTION ( 'NONE',  ( 0.000000000000000000, 0.000000000000000000, 1.000000000000000000 ) ) ;
#246 = ORIENTED_EDGE ( 'NONE', *, *, #115, .T. ) ;
#247 = EDGE_CURVE ( 'NONE', #170, #265, #257, .T. ) ;
#248 = AXIS2_PLACEMENT_3D ( 'NONE', #88, #242, #191 ) ;
#249 = CYLINDRICAL_SURFACE ( 'NONE', #267, 6.000000000000000888 ) ;
#250 = VERTEX_POINT ( 'NONE', #176 ) ;
#251 = FACE_OUTER_BOUND ( 'NONE', #199, .T. ) ;
#252 = ORIENTED_EDGE ( 'NONE', *, *, #206, .T. ) ;
#253 = DATE_AND_TIME ( #229, #50 ) ;
#254 = CARTESIAN_POINT ( 'NONE',  ( 5.500000000000000000, 6.735557395310442023E-16, 0.000000000000000000 ) ) ;
#255 = VERTEX_POINT ( 'NONE', #153 ) ;
#256 = DATE_TIME_ROLE ( 'classification_date' ) ;
#257 = CIRCLE ( 'NONE', #292, 6.000000000000000888 ) ;
#258 = CC_DESIGN_PERSON_AND_ORGANIZATION_ASSIGNMENT ( #27, #299, ( #135 ) ) ;
#259 = CARTESIAN_POINT ( 'NONE',  ( 0.000000000000000000, 0.000000000000000000, 3.000000000000000000 ) ) ;
#260 = ORIENTED_EDGE ( 'NONE', *, *, #175, .T. ) ;
#261 = PERSON_AND_ORGANIZATION ( #218, #67 ) ;
#262 = DIRECTION ( 'NONE',  ( 1.000000000000000000, 0.000000000000000000, 0.000000000000000000 ) ) ;
#263 = AXIS2_PLACEMENT_3D ( 'NONE', #159, #237, #156 ) ;
#264 = DIRECTION ( 'NONE',  ( 1.000000000000000000, 0.000000000000000000, -0.000000000000000000 ) ) ;
#265 = VERTEX_POINT ( 'NONE', #320 ) ;
#266 = CIRCLE ( 'NONE', #66, 5.500000000000000000 ) ;
#267 = AXIS2_PLACEMENT_3D ( 'NONE', #327, #18, #174 ) ;
#268 = FACE_OUTER_BOUND ( 'NONE', #144, .T. ) ;
#269 = VERTEX_POINT ( 'NONE', #195 ) ;
#270 = DIRECTION ( 'NONE',  ( -1.000000000000000000, 0.000000000000000000, 0.000000000000000000 ) ) ;
#271 = PRODUCT_DEFINITION ( 'UNKNOWN', '', #135, #317 ) ;
#272 = EDGE_LOOP ( 'NONE', ( #203, #124 ) ) ;
#273 = CARTESIAN_POINT ( 'NONE',  ( 0.000000000000000000, 0.000000000000000000, 0.000000000000000000 ) ) ;
#274 = APPLICATION_PROTOCOL_DEFINITION ( 'international standard', 'config_control_design', 1994, #130 ) ;
#275 = ORIENTED_EDGE ( 'NONE', *, *, #276, .F. ) ;
#276 = EDGE_CURVE ( 'NONE', #328, #132, #307, .T. ) ;
#277 = ORIENTED_EDGE ( 'NONE', *, *, #140, .F. ) ;
#278 = EDGE_CURVE ( 'NONE', #250, #301, #63, .T. ) ;
#279 = DIRECTION ( 'NONE',  ( -1.000000000000000000, 0.000000000000000000, 0.000000000000000000 ) ) ;
#280 = APPROVAL_STATUS ( 'not_yet_approved' ) ;
#281 = CALENDAR_DATE ( 2023, 3, 12 ) ;
#282 = DIRECTION ( 'NONE',  ( 0.000000000000000000, 0.000000000000000000, 1.000000000000000000 ) ) ;
#283 = CYLINDRICAL_SURFACE ( 'NONE', #29, 7.500000000000000000 ) ;
#284 = VECTOR ( 'NONE', #44, 1000.000000000000000 ) ;
#285 = DIRECTION ( 'NONE',  ( -0.000000000000000000, -0.000000000000000000, 1.000000000000000000 ) ) ;
#286 = LINE ( 'NONE', #314, #12 ) ;
#287 = DIRECTION ( 'NONE',  ( -1.000000000000000000, 0.000000000000000000, 0.000000000000000000 ) ) ;
#288 = PRODUCT_RELATED_PRODUCT_CATEGORY ( 'detail', '', ( #92 ) ) ;
#289 = FACE_OUTER_BOUND ( 'NONE', #41, .T. ) ;
#290 = APPROVAL_PERSON_ORGANIZATION ( #24, #113, #51 ) ;
#291 = CARTESIAN_POINT ( 'NONE',  ( -6.000000000000000888, 7.347880794884120722E-16, 2.000000000000000000 ) ) ;
#292 = AXIS2_PLACEMENT_3D ( 'NONE', #126, #47, #74 ) ;
#293 = EDGE_LOOP ( 'NONE', ( #23, #295, #38, #3 ) ) ;
#294 = FACE_OUTER_BOUND ( 'NONE', #19, .T. ) ;
#295 = ORIENTED_EDGE ( 'NONE', *, *, #140, .T. ) ;
#296 = DIRECTION ( 'NONE',  ( -0.000000000000000000, -0.000000000000000000, -1.000000000000000000 ) ) ;
#297 = EDGE_LOOP ( 'NONE', ( #137, #151 ) ) ;
#298 = AXIS2_PLACEMENT_3D ( 'NONE', #158, #234, #262 ) ;
#299 = PERSON_AND_ORGANIZATION_ROLE ( 'creator' ) ;
#300 = CARTESIAN_POINT ( 'NONE',  ( 0.000000000000000000, 0.000000000000000000, 2.000000000000000000 ) ) ;
#301 = VERTEX_POINT ( 'NONE', #31 ) ;
#302 = ADVANCED_FACE ( 'NONE', ( #189, #312 ), #112, .T. ) ;
#303 = PERSON_AND_ORGANIZATION ( #218, #67 ) ;
#304 = DIRECTION ( 'NONE',  ( -0.000000000000000000, -0.000000000000000000, -1.000000000000000000 ) ) ;
#305 = PERSON_AND_ORGANIZATION_ROLE ( 'creator' ) ;
#306 = CARTESIAN_POINT ( 'NONE',  ( 5.500000000000000000, 6.735557395310442023E-16, 3.000000000000000000 ) ) ;
#307 = CIRCLE ( 'NONE', #173, 6.000000000000000888 ) ;
#308 = EDGE_CURVE ( 'NONE', #119, #231, #40, .T. ) ;
#309 = CC_DESIGN_APPROVAL ( #197, ( #271 ) ) ;
#310 = CARTESIAN_POINT ( 'NONE',  ( 0.000000000000000000, 0.000000000000000000, 0.000000000000000000 ) ) ;
#311 = DIRECTION ( 'NONE',  ( 1.000000000000000000, 0.000000000000000000, 0.000000000000000000 ) ) ;
#312 = FACE_OUTER_BOUND ( 'NONE', #223, .T. ) ;
#313 = AXIS2_PLACEMENT_3D ( 'NONE', #142, #245, #118 ) ;
#314 = CARTESIAN_POINT ( 'NONE',  ( -7.500000000000000000, 0.000000000000000000, 3.000000000000000000 ) ) ;
#315 = CC_DESIGN_DATE_AND_TIME_ASSIGNMENT ( #49, #125, ( #271 ) ) ;
#316 = CARTESIAN_POINT ( 'NONE',  ( 7.500000000000000000, 9.184850993605147944E-16, 3.000000000000000000 ) ) ;
#317 = DESIGN_CONTEXT ( 'detailed design', #217, 'design' ) ;
#318 = DIRECTION ( 'NONE',  ( 0.000000000000000000, 0.000000000000000000, 1.000000000000000000 ) ) ;
#319 = CIRCLE ( 'NONE', #141, 6.000000000000000888 ) ;
#320 = CARTESIAN_POINT ( 'NONE',  ( 6.000000000000000888, 0.000000000000000000, 3.000000000000000000 ) ) ;
#321 = ORIENTED_EDGE ( 'NONE', *, *, #247, .T. ) ;
#322 = CARTESIAN_POINT ( 'NONE',  ( 0.000000000000000000, 0.000000000000000000, 3.000000000000000000 ) ) ;
#323 = ORIENTED_EDGE ( 'NONE', *, *, #244, .T. ) ;
#324 = PERSON_AND_ORGANIZATION ( #218, #67 ) ;
#325 = ADVANCED_FACE ( 'NONE', ( #289 ), #283, .T. ) ;
#326 = DATE_AND_TIME ( #2, #167 ) ;
#327 = CARTESIAN_POINT ( 'NONE',  ( 0.000000000000000000, 0.000000000000000000, 2.000000000000000000 ) ) ;
#328 = VERTEX_POINT ( 'NONE', #86 ) ;
#329 = APPROVAL_DATE_TIME ( #253, #197 ) ;
ENDSEC;
END-ISO-10303-21;
