ISO-10303-21;
HEADER;
FILE_DESCRIPTION (( 'STEP AP203' ),
    '1' );
FILE_NAME ('Pièce5_Capot_Défaut_sldprt.STEP',
    '2023-12-03T16:39:17',
    ( 'LIA INFO' ),
    ( '' ),
    'SwSTEP 2.0',
    'SolidWorks 2022',
    '' );
FILE_SCHEMA (( 'CONFIG_CONTROL_DESIGN' ));
ENDSEC;

DATA;
#1 = EDGE_CURVE ( 'NONE', #151, #405, #569, .T. ) ;
#2 = FACE_OUTER_BOUND ( 'NONE', #584, .T. ) ;
#3 = ORIENTED_EDGE ( 'NONE', *, *, #16, .T. ) ;
#4 = UNCERTAINTY_MEASURE_WITH_UNIT (LENGTH_MEASURE( 1.000000000000000082E-05 ), #85, 'distance_accuracy_value', 'NONE');
#5 = APPROVAL ( #279, 'UNSPECIFIED' ) ;
#6 = DIRECTION ( 'NONE',  ( 0.000000000000000000, -0.000000000000000000, -1.000000000000000000 ) ) ;
#7 = EDGE_LOOP ( 'NONE', ( #90, #294, #227, #385 ) ) ;
#8 = AXIS2_PLACEMENT_3D ( 'NONE', #46, #578, #150 ) ;
#9 = CARTESIAN_POINT ( 'NONE',  ( 9.526279441628801692, -5.500000000000044409, 6.000000000000000000 ) ) ;
#10 = AXIS2_PLACEMENT_3D ( 'NONE', #345, #449, #14 ) ;
#11 = DIRECTION ( 'NONE',  ( 0.000000000000000000, 0.000000000000000000, 1.000000000000000000 ) ) ;
#12 = VERTEX_POINT ( 'NONE', #366 ) ;
#13 = DIRECTION ( 'NONE',  ( -0.000000000000000000, -0.000000000000000000, 1.000000000000000000 ) ) ;
#14 = DIRECTION ( 'NONE',  ( 1.000000000000000000, 0.000000000000000000, 0.000000000000000000 ) ) ;
#15 = ORIENTED_EDGE ( 'NONE', *, *, #62, .T. ) ;
#16 = EDGE_CURVE ( 'NONE', #587, #555, #469, .T. ) ;
#17 = DIRECTION ( 'NONE',  ( -1.000000000000000000, 0.000000000000000000, 0.000000000000000000 ) ) ;
#18 = CYLINDRICAL_SURFACE ( 'NONE', #588, 14.00000000000000000 ) ;
#19 = ORIENTED_EDGE ( 'NONE', *, *, #118, .T. ) ;
#20 = DIRECTION ( 'NONE',  ( 1.000000000000000000, 0.000000000000000000, 0.000000000000000000 ) ) ;
#21 = CALENDAR_DATE ( 2023, 3, 12 ) ;
#22 = AXIS2_PLACEMENT_3D ( 'NONE', #323, #515, #79 ) ;
#23 = VECTOR ( 'NONE', #352, 1000.000000000000000 ) ;
#24 = FACE_OUTER_BOUND ( 'NONE', #49, .T. ) ;
#25 = CARTESIAN_POINT ( 'NONE',  ( -1.300000000000000488, 11.00000000000000000, 8.000000000000000000 ) ) ;
#26 = EDGE_CURVE ( 'NONE', #398, #627, #58, .T. ) ;
#27 = DIRECTION ( 'NONE',  ( -0.000000000000000000, -0.000000000000000000, 1.000000000000000000 ) ) ;
#28 = CARTESIAN_POINT ( 'NONE',  ( 8.000000000000000000, 0.000000000000000000, 6.000000000000000000 ) ) ;
#29 = CARTESIAN_POINT ( 'NONE',  ( 0.000000000000000000, 0.000000000000000000, 3.500000000000000000 ) ) ;
#30 = DIRECTION ( 'NONE',  ( 0.000000000000000000, -0.000000000000000000, -1.000000000000000000 ) ) ;
#31 = COORDINATED_UNIVERSAL_TIME_OFFSET ( 1, 0, .AHEAD. ) ;
#32 = AXIS2_PLACEMENT_3D ( 'NONE', #384, #89, #381 ) ;
#33 = CYLINDRICAL_SURFACE ( 'NONE', #93, 1.300000000000000711 ) ;
#34 = PERSON_AND_ORGANIZATION ( #202, #220 ) ;
#35 = ORIENTED_EDGE ( 'NONE', *, *, #159, .F. ) ;
#36 = EDGE_CURVE ( 'NONE', #590, #154, #394, .T. ) ;
#37 = CARTESIAN_POINT ( 'NONE',  ( 0.000000000000000000, 0.000000000000000000, 0.000000000000000000 ) ) ;
#38 = COORDINATED_UNIVERSAL_TIME_OFFSET ( 1, 0, .AHEAD. ) ;
#39 = EDGE_CURVE ( 'NONE', #342, #447, #71, .T. ) ;
#40 = DIRECTION ( 'NONE',  ( 0.000000000000000000, 0.000000000000000000, 1.000000000000000000 ) ) ;
#41 = AXIS2_PLACEMENT_3D ( 'NONE', #599, #165, #507 ) ;
#42 = ORIENTED_EDGE ( 'NONE', *, *, #92, .F. ) ;
#43 = ADVANCED_FACE ( 'NONE', ( #272 ), #33, .F. ) ;
#44 = CARTESIAN_POINT ( 'NONE',  ( 0.000000000000000000, 0.000000000000000000, 7.000000000000000000 ) ) ;
#45 = VERTEX_POINT ( 'NONE', #129 ) ;
#46 = CARTESIAN_POINT ( 'NONE',  ( 0.000000000000000000, 0.000000000000000000, 0.000000000000000000 ) ) ;
#47 = EDGE_LOOP ( 'NONE', ( #113, #3, #42, #106 ) ) ;
#48 = PLANE ( 'NONE',  #498 ) ;
#49 = EDGE_LOOP ( 'NONE', ( #439, #120 ) ) ;
#50 = AXIS2_PLACEMENT_3D ( 'NONE', #124, #223, #17 ) ;
#51 = CYLINDRICAL_SURFACE ( 'NONE', #428, 6.000000000000000888 ) ;
#52 = EDGE_LOOP ( 'NONE', ( #354, #505, #620, #508 ) ) ;
#53 = LINE ( 'NONE', #501, #499 ) ;
#54 = ORIENTED_EDGE ( 'NONE', *, *, #485, .T. ) ;
#55 = DIRECTION ( 'NONE',  ( -0.000000000000000000, -0.000000000000000000, -1.000000000000000000 ) ) ;
#56 = FACE_BOUND ( 'NONE', #624, .T. ) ;
#57 = ORIENTED_EDGE ( 'NONE', *, *, #285, .T. ) ;
#58 = CIRCLE ( 'NONE', #319, 8.000000000000000000 ) ;
#59 = DIRECTION ( 'NONE',  ( 0.000000000000000000, 0.000000000000000000, 1.000000000000000000 ) ) ;
#60 = VECTOR ( 'NONE', #489, 1000.000000000000000 ) ;
#61 = DIRECTION ( 'NONE',  ( 1.000000000000000000, 0.000000000000000000, -0.000000000000000000 ) ) ;
#62 = EDGE_CURVE ( 'NONE', #12, #298, #465, .T. ) ;
#63 = ORIENTED_EDGE ( 'NONE', *, *, #185, .T. ) ;
#64 = DIRECTION ( 'NONE',  ( 0.000000000000000000, 0.000000000000000000, 1.000000000000000000 ) ) ;
#65 = DIRECTION ( 'NONE',  ( -1.000000000000000000, 0.000000000000000000, 0.000000000000000000 ) ) ;
#66 = VERTEX_POINT ( 'NONE', #422 ) ;
#67 = CARTESIAN_POINT ( 'NONE',  ( -9.526279441628874523, -5.499999999999911182, 8.000000000000000000 ) ) ;
#68 = CARTESIAN_POINT ( 'NONE',  ( 8.226279441628800981, -5.500000000000044409, 3.499999999999999556 ) ) ;
#69 = EDGE_LOOP ( 'NONE', ( #204, #347 ) ) ;
#70 = LINE ( 'NONE', #493, #23 ) ;
#71 = CIRCLE ( 'NONE', #510, 1.300000000000000711 ) ;
#72 = ADVANCED_FACE ( 'NONE', ( #182, #373, #134, #375, #24 ), #462, .T. ) ;
#73 = APPROVAL_PERSON_ORGANIZATION ( #34, #535, #455 ) ;
#74 = FACE_OUTER_BOUND ( 'NONE', #238, .T. ) ;
#75 = PERSON_AND_ORGANIZATION_ROLE ( 'creator' ) ;
#76 = CC_DESIGN_PERSON_AND_ORGANIZATION_ASSIGNMENT ( #365, #128, ( #267 ) ) ;
#77 = LINE ( 'NONE', #131, #254 ) ;
#78 = PERSON_AND_ORGANIZATION_ROLE ( 'classification_officer' ) ;
#79 = DIRECTION ( 'NONE',  ( -1.000000000000000000, 0.000000000000000000, 0.000000000000000000 ) ) ;
#80 = DIRECTION ( 'NONE',  ( 1.000000000000000000, 0.000000000000000000, 0.000000000000000000 ) ) ;
#81 = CIRCLE ( 'NONE', #437, 1.300000000000000711 ) ;
#82 = CIRCLE ( 'NONE', #274, 14.00000000000000000 ) ;
#83 = AXIS2_PLACEMENT_3D ( 'NONE', #115, #64, #20 ) ;
#84 = DIRECTION ( 'NONE',  ( -1.000000000000000000, 0.000000000000000000, -0.000000000000000000 ) ) ;
#85 =( LENGTH_UNIT ( ) NAMED_UNIT ( * ) SI_UNIT ( .MILLI., .METRE. ) );
#86 = DIRECTION ( 'NONE',  ( 1.000000000000000000, 0.000000000000000000, 0.000000000000000000 ) ) ;
#87 = EDGE_CURVE ( 'NONE', #590, #199, #276, .T. ) ;
#88 = DATE_TIME_ROLE ( 'creation_date' ) ;
#89 = DIRECTION ( 'NONE',  ( 0.000000000000000000, 0.000000000000000000, 1.000000000000000000 ) ) ;
#90 = ORIENTED_EDGE ( 'NONE', *, *, #195, .F. ) ;
#91 = ADVANCED_BREP_SHAPE_REPRESENTATION ( 'PiÞce5_Capot_DÚfaut_sldprt', ( #209, #378 ), #519 ) ;
#92 = EDGE_CURVE ( 'NONE', #281, #555, #114, .T. ) ;
#93 = AXIS2_PLACEMENT_3D ( 'NONE', #231, #318, #327 ) ;
#94 = FACE_OUTER_BOUND ( 'NONE', #303, .T. ) ;
#95 = VERTEX_POINT ( 'NONE', #174 ) ;
#96 = EDGE_CURVE ( 'NONE', #450, #342, #610, .T. ) ;
#97 = CARTESIAN_POINT ( 'NONE',  ( 0.000000000000000000, 0.000000000000000000, 0.000000000000000000 ) ) ;
#98 = EDGE_LOOP ( 'NONE', ( #54, #212 ) ) ;
#99 = CARTESIAN_POINT ( 'NONE',  ( 1.300000000000000488, 11.00000000000000000, 6.000000000000000000 ) ) ;
#100 = VERTEX_POINT ( 'NONE', #271 ) ;
#101 = FACE_OUTER_BOUND ( 'NONE', #316, .T. ) ;
#102 = ORIENTED_EDGE ( 'NONE', *, *, #270, .F. ) ;
#103 = CC_DESIGN_APPROVAL ( #558, ( #153 ) ) ;
#104 = CARTESIAN_POINT ( 'NONE',  ( 0.000000000000000000, 11.00000000000000000, 8.000000000000000000 ) ) ;
#105 = VERTEX_POINT ( 'NONE', #511 ) ;
#106 = ORIENTED_EDGE ( 'NONE', *, *, #181, .F. ) ;
#107 = FACE_OUTER_BOUND ( 'NONE', #7, .T. ) ;
#108 = CARTESIAN_POINT ( 'NONE',  ( 0.000000000000000000, 0.000000000000000000, 7.000000000000000000 ) ) ;
#109 = ORIENTED_EDGE ( 'NONE', *, *, #466, .F. ) ;
#110 = CARTESIAN_POINT ( 'NONE',  ( 6.000000000000000888, 7.347880794884120722E-16, 7.000000000000000000 ) ) ;
#111 = ADVANCED_FACE ( 'NONE', ( #74 ), #268, .T. ) ;
#112 = CYLINDRICAL_SURFACE ( 'NONE', #598, 1.300000000000000488 ) ;
#113 = ORIENTED_EDGE ( 'NONE', *, *, #301, .T. ) ;
#114 = CIRCLE ( 'NONE', #376, 6.000000000000000888 ) ;
#115 = CARTESIAN_POINT ( 'NONE',  ( 0.000000000000000000, 0.000000000000000000, 6.000000000000000000 ) ) ;
#116 = AXIS2_PLACEMENT_3D ( 'NONE', #361, #122, #553 ) ;
#117 = CIRCLE ( 'NONE', #629, 14.00000000000000000 ) ;
#118 = EDGE_CURVE ( 'NONE', #95, #405, #371, .T. ) ;
#119 = CARTESIAN_POINT ( 'NONE',  ( 0.000000000000000000, 0.000000000000000000, 7.000000000000000000 ) ) ;
#120 = ORIENTED_EDGE ( 'NONE', *, *, #525, .T. ) ;
#121 = CARTESIAN_POINT ( 'NONE',  ( -14.00000000000000000, 0.000000000000000000, 3.500000000000000000 ) ) ;
#122 = DIRECTION ( 'NONE',  ( -0.000000000000000000, -0.000000000000000000, -1.000000000000000000 ) ) ;
#123 = VERTEX_POINT ( 'NONE', #176 ) ;
#124 = CARTESIAN_POINT ( 'NONE',  ( 9.526279441628801692, -5.500000000000044409, 3.499999999999999556 ) ) ;
#125 = SHAPE_DEFINITION_REPRESENTATION ( #391, #91 ) ;
#126 = DIRECTION ( 'NONE',  ( -0.000000000000000000, 0.000000000000000000, -1.000000000000000000 ) ) ;
#127 = EDGE_CURVE ( 'NONE', #190, #447, #77, .T. ) ;
#128 = PERSON_AND_ORGANIZATION_ROLE ( 'creator' ) ;
#129 = CARTESIAN_POINT ( 'NONE',  ( -1.300000000000000488, 11.00000000000000000, 6.000000000000000000 ) ) ;
#130 = SECURITY_CLASSIFICATION_LEVEL ( 'unclassified' ) ;
#131 = CARTESIAN_POINT ( 'NONE',  ( -8.226279441628873812, -5.499999999999911182, 8.000000000000000000 ) ) ;
#132 = APPLICATION_PROTOCOL_DEFINITION ( 'international standard', 'config_control_design', 1994, #471 ) ;
#133 = EDGE_CURVE ( 'NONE', #555, #281, #487, .T. ) ;
#134 = FACE_BOUND ( 'NONE', #149, .T. ) ;
#135 = LOCAL_TIME ( 17, 39, 17.00000000000000000, #461 ) ;
#136 = DIRECTION ( 'NONE',  ( 1.000000000000000000, 0.000000000000000000, 0.000000000000000000 ) ) ;
#137 = DATE_AND_TIME ( #567, #184 ) ;
#138 = CARTESIAN_POINT ( 'NONE',  ( -8.000000000000000000, 9.797174393178825657E-16, 7.000000000000000000 ) ) ;
#140 = EDGE_CURVE ( 'NONE', #587, #105, #290, .T. ) ;
#139 = ORIENTED_EDGE ( 'NONE', *, *, #118, .F. ) ;
#141 = CARTESIAN_POINT ( 'NONE',  ( -9.526279441628874523, -5.499999999999911182, 6.000000000000000000 ) ) ;
#142 = ORIENTED_EDGE ( 'NONE', *, *, #581, .F. ) ;
#143 = AXIS2_PLACEMENT_3D ( 'NONE', #29, #516, #84 ) ;
#144 = FACE_OUTER_BOUND ( 'NONE', #69, .T. ) ;
#145 = AXIS2_PLACEMENT_3D ( 'NONE', #108, #11, #198 ) ;
#146 = CIRCLE ( 'NONE', #572, 8.000000000000000000 ) ;
#147 = ORIENTED_EDGE ( 'NONE', *, *, #36, .T. ) ;
#148 = DIRECTION ( 'NONE',  ( 1.000000000000000000, 0.000000000000000000, 0.000000000000000000 ) ) ;
#149 = EDGE_LOOP ( 'NONE', ( #380, #15 ) ) ;
#150 = DIRECTION ( 'NONE',  ( -1.000000000000000000, 0.000000000000000000, 0.000000000000000000 ) ) ;
#151 = VERTEX_POINT ( 'NONE', #618 ) ;
#152 = DIRECTION ( 'NONE',  ( -1.000000000000000000, 0.000000000000000000, 0.000000000000000000 ) ) ;
#153 = PRODUCT_DEFINITION ( 'UNKNOWN', '', #267, #299 ) ;
#154 = VERTEX_POINT ( 'NONE', #630 ) ;
#155 = AXIS2_PLACEMENT_3D ( 'NONE', #207, #200, #396 ) ;
#156 = ORIENTED_EDGE ( 'NONE', *, *, #565, .T. ) ;
#157 = DIRECTION ( 'NONE',  ( -0.000000000000000000, -0.000000000000000000, 1.000000000000000000 ) ) ;
#158 = ORIENTED_EDGE ( 'NONE', *, *, #133, .T. ) ;
#159 = EDGE_CURVE ( 'NONE', #199, #100, #419, .T. ) ;
#160 = DIRECTION ( 'NONE',  ( -0.000000000000000000, -0.000000000000000000, -1.000000000000000000 ) ) ;
#161 = DIRECTION ( 'NONE',  ( -1.000000000000000000, 0.000000000000000000, 0.000000000000000000 ) ) ;
#162 = VERTEX_POINT ( 'NONE', #138 ) ;
#163 = CARTESIAN_POINT ( 'NONE',  ( 0.000000000000000000, 0.000000000000000000, 3.500000000000000000 ) ) ;
#164 = ADVANCED_FACE ( 'NONE', ( #341, #339 ), #48, .F. ) ;
#165 = DIRECTION ( 'NONE',  ( -0.000000000000000000, -0.000000000000000000, 1.000000000000000000 ) ) ;
#166 = ORIENTED_EDGE ( 'NONE', *, *, #195, .T. ) ;
#167 = CIRCLE ( 'NONE', #8, 8.000000000000000000 ) ;
#168 = CARTESIAN_POINT ( 'NONE',  ( 8.000000000000000000, 0.000000000000000000, 6.000000000000000000 ) ) ;
#169 = AXIS2_PLACEMENT_3D ( 'NONE', #186, #431, #574 ) ;
#170 = AXIS2_PLACEMENT_3D ( 'NONE', #9, #160, #544 ) ;
#171 = DIRECTION ( 'NONE',  ( 1.000000000000000000, 0.000000000000000000, 0.000000000000000000 ) ) ;
#172 = ORIENTED_EDGE ( 'NONE', *, *, #356, .F. ) ;
#173 = CARTESIAN_POINT ( 'NONE',  ( 0.000000000000000000, 11.00000000000000000, 6.000000000000000000 ) ) ;
#174 = CARTESIAN_POINT ( 'NONE',  ( 8.226279441628800981, -5.500000000000044409, 6.000000000000000000 ) ) ;
#175 = DATE_AND_TIME ( #463, #488 ) ;
#176 = CARTESIAN_POINT ( 'NONE',  ( 14.00000000000000000, 1.714505518806294638E-15, 3.500000000000000000 ) ) ;
#177 =( NAMED_UNIT ( * ) SI_UNIT ( $, .STERADIAN. ) SOLID_ANGLE_UNIT ( ) );
#178 = VECTOR ( 'NONE', #605, 1000.000000000000000 ) ;
#179 = APPROVAL_PERSON_ORGANIZATION ( #559, #5, #236 ) ;
#180 = DIRECTION ( 'NONE',  ( 1.000000000000000000, 0.000000000000000000, 0.000000000000000000 ) ) ;
#181 = EDGE_CURVE ( 'NONE', #105, #281, #286, .T. ) ;
#182 = FACE_BOUND ( 'NONE', #593, .T. ) ;
#183 = DIRECTION ( 'NONE',  ( -0.000000000000000000, -0.000000000000000000, 1.000000000000000000 ) ) ;
#184 = LOCAL_TIME ( 17, 39, 17.00000000000000000, #38 ) ;
#185 = EDGE_CURVE ( 'NONE', #154, #100, #433, .T. ) ;
#186 = CARTESIAN_POINT ( 'NONE',  ( 0.000000000000000000, 0.000000000000000000, 3.500000000000000000 ) ) ;
#187 = VERTEX_POINT ( 'NONE', #278 ) ;
#188 = CARTESIAN_POINT ( 'NONE',  ( -8.226279441628873812, -5.499999999999911182, 6.000000000000000000 ) ) ;
#189 = CC_DESIGN_PERSON_AND_ORGANIZATION_ASSIGNMENT ( #573, #75, ( #153 ) ) ;
#190 = VERTEX_POINT ( 'NONE', #188 ) ;
#191 = FACE_OUTER_BOUND ( 'NONE', #52, .T. ) ;
#192 = ORIENTED_EDGE ( 'NONE', *, *, #159, .T. ) ;
#193 = DIRECTION ( 'NONE',  ( -1.000000000000000000, 0.000000000000000000, 0.000000000000000000 ) ) ;
#194 = ORIENTED_EDGE ( 'NONE', *, *, #1, .F. ) ;
#195 = EDGE_CURVE ( 'NONE', #190, #450, #81, .T. ) ;
#196 = DIRECTION ( 'NONE',  ( 0.000000000000000000, 0.000000000000000000, -1.000000000000000000 ) ) ;
#197 = ORIENTED_EDGE ( 'NONE', *, *, #485, .F. ) ;
#198 = DIRECTION ( 'NONE',  ( 1.000000000000000000, 0.000000000000000000, 0.000000000000000000 ) ) ;
#199 = VERTEX_POINT ( 'NONE', #480 ) ;
#200 = DIRECTION ( 'NONE',  ( -0.000000000000000000, -0.000000000000000000, 1.000000000000000000 ) ) ;
#201 = EDGE_CURVE ( 'NONE', #100, #199, #167, .T. ) ;
#202 = PERSON ( 'UNSPECIFIED', 'UNSPECIFIED', 'UNSPECIFIED', ('UNSPECIFIED'), ('UNSPECIFIED'), ('UNSPECIFIED') ) ;
#203 = VECTOR ( 'NONE', #13, 1000.000000000000000 ) ;
#204 = ORIENTED_EDGE ( 'NONE', *, *, #270, .T. ) ;
#205 = LOCAL_TIME ( 17, 39, 17.00000000000000000, #612 ) ;
#206 = CARTESIAN_POINT ( 'NONE',  ( 0.000000000000000000, 0.000000000000000000, 7.000000000000000000 ) ) ;
#207 = CARTESIAN_POINT ( 'NONE',  ( 0.000000000000000000, 0.000000000000000000, 6.000000000000000000 ) ) ;
#208 = VERTEX_POINT ( 'NONE', #99 ) ;
#209 = MANIFOLD_SOLID_BREP ( 'Répétition circulaire1', #427 ) ;
#210 = DIRECTION ( 'NONE',  ( -0.000000000000000000, -0.000000000000000000, -1.000000000000000000 ) ) ;
#211 = LINE ( 'NONE', #258, #60 ) ;
#212 = ORIENTED_EDGE ( 'NONE', *, *, #1, .T. ) ;
#213 = DIRECTION ( 'NONE',  ( -1.000000000000000000, 0.000000000000000000, 0.000000000000000000 ) ) ;
#214 = CARTESIAN_POINT ( 'NONE',  ( 0.000000000000000000, 0.000000000000000000, 7.000000000000000000 ) ) ;
#215 = ORIENTED_EDGE ( 'NONE', *, *, #430, .T. ) ;
#216 = AXIS2_PLACEMENT_3D ( 'NONE', #97, #196, #389 ) ;
#217 = AXIS2_PLACEMENT_3D ( 'NONE', #248, #541, #61 ) ;
#218 = FACE_OUTER_BOUND ( 'NONE', #297, .T. ) ;
#219 = AXIS2_PLACEMENT_3D ( 'NONE', #141, #336, #86 ) ;
#220 = ORGANIZATION ( 'UNSPECIFIED', 'UNSPECIFIED', '' ) ;
#221 = ADVANCED_FACE ( 'NONE', ( #482, #144 ), #435, .T. ) ;
#222 = CARTESIAN_POINT ( 'NONE',  ( 8.000000000000000000, 9.797174393178825657E-16, 3.500000000000000000 ) ) ;
#223 = DIRECTION ( 'NONE',  ( -0.000000000000000000, -0.000000000000000000, 1.000000000000000000 ) ) ;
#224 = EDGE_CURVE ( 'NONE', #66, #579, #82, .T. ) ;
#225 = DIRECTION ( 'NONE',  ( 1.000000000000000000, 0.000000000000000000, 0.000000000000000000 ) ) ;
#226 = CARTESIAN_POINT ( 'NONE',  ( 0.000000000000000000, 0.000000000000000000, 0.000000000000000000 ) ) ;
#227 = ORIENTED_EDGE ( 'NONE', *, *, #39, .F. ) ;
#228 = EDGE_CURVE ( 'NONE', #450, #190, #527, .T. ) ;
#229 = CIRCLE ( 'NONE', #10, 14.00000000000000000 ) ;
#230 = AXIS2_PLACEMENT_3D ( 'NONE', #173, #210, #591 ) ;
#231 = CARTESIAN_POINT ( 'NONE',  ( -9.526279441628874523, -5.499999999999911182, 8.000000000000000000 ) ) ;
#232 = ADVANCED_FACE ( 'NONE', ( #94 ), #474, .T. ) ;
#233 = PERSON_AND_ORGANIZATION ( #202, #220 ) ;
#234 = ORIENTED_EDGE ( 'NONE', *, *, #127, .F. ) ;
#235 = DATE_AND_TIME ( #521, #135 ) ;
#236 = APPROVAL_ROLE ( '' ) ;
#237 = ADVANCED_FACE ( 'NONE', ( #191 ), #626, .T. ) ;
#238 = EDGE_LOOP ( 'NONE', ( #526, #256, #351, #289 ) ) ;
#239 = DIRECTION ( 'NONE',  ( -0.000000000000000000, -0.000000000000000000, -1.000000000000000000 ) ) ;
#240 = ORIENTED_EDGE ( 'NONE', *, *, #531, .T. ) ;
#241 = CARTESIAN_POINT ( 'NONE',  ( -9.526279441628874523, -5.499999999999911182, 6.000000000000000000 ) ) ;
#243 = EDGE_LOOP ( 'NONE', ( #476, #156 ) ) ;
#242 = ADVANCED_FACE ( 'NONE', ( #387 ), #112, .F. ) ;
#244 = DIRECTION ( 'NONE',  ( -0.000000000000000000, -0.000000000000000000, -1.000000000000000000 ) ) ;
#245 = CIRCLE ( 'NONE', #170, 1.300000000000000711 ) ;
#246 = ORIENTED_EDGE ( 'NONE', *, *, #565, .F. ) ;
#247 = CC_DESIGN_PERSON_AND_ORGANIZATION_ASSIGNMENT ( #321, #564, ( #267 ) ) ;
#248 = CARTESIAN_POINT ( 'NONE',  ( 0.000000000000000000, 0.000000000000000000, 6.000000000000000000 ) ) ;
#249 = EDGE_LOOP ( 'NONE', ( #393, #492, #483, #441 ) ) ;
#250 = DIRECTION ( 'NONE',  ( -1.000000000000000000, 0.000000000000000000, 0.000000000000000000 ) ) ;
#251 = ORIENTED_EDGE ( 'NONE', *, *, #494, .F. ) ;
#252 = CARTESIAN_POINT ( 'NONE',  ( -10.82627944162887523, -5.499999999999911182, 6.000000000000000000 ) ) ;
#253 = DIRECTION ( 'NONE',  ( -1.000000000000000000, 0.000000000000000000, 0.000000000000000000 ) ) ;
#254 = VECTOR ( 'NONE', #438, 1000.000000000000000 ) ;
#255 = AXIS2_PLACEMENT_3D ( 'NONE', #119, #296, #171 ) ;
#256 = ORIENTED_EDGE ( 'NONE', *, *, #26, .T. ) ;
#257 = LINE ( 'NONE', #168, #203 ) ;
#258 = CARTESIAN_POINT ( 'NONE',  ( 14.00000000000000000, 1.714505518806294638E-15, 7.000000000000000000 ) ) ;
#259 = ORIENTED_EDGE ( 'NONE', *, *, #62, .F. ) ;
#260 = CARTESIAN_POINT ( 'NONE',  ( 0.000000000000000000, 11.00000000000000000, 3.499999999999999556 ) ) ;
#261 = CYLINDRICAL_SURFACE ( 'NONE', #155, 8.000000000000000000 ) ;
#262 = ORIENTED_EDGE ( 'NONE', *, *, #228, .T. ) ;
#263 = ADVANCED_FACE ( 'NONE', ( #589, #495, #56, #504, #446 ), #292, .T. ) ;
#264 = DIRECTION ( 'NONE',  ( -1.000000000000000000, 0.000000000000000000, 0.000000000000000000 ) ) ;
#265 = CARTESIAN_POINT ( 'NONE',  ( 0.000000000000000000, 11.00000000000000000, 3.499999999999999556 ) ) ;
#266 = DIRECTION ( 'NONE',  ( -1.000000000000000000, 0.000000000000000000, 0.000000000000000000 ) ) ;
#267 = PRODUCT_DEFINITION_FORMATION_WITH_SPECIFIED_SOURCE ( 'ANY', '', #543, .NOT_KNOWN. ) ;
#268 = CYLINDRICAL_SURFACE ( 'NONE', #475, 8.000000000000000000 ) ;
#269 = COORDINATED_UNIVERSAL_TIME_OFFSET ( 1, 0, .AHEAD. ) ;
#270 = EDGE_CURVE ( 'NONE', #436, #162, #571, .T. ) ;
#271 = CARTESIAN_POINT ( 'NONE',  ( -8.000000000000000000, 0.000000000000000000, 0.000000000000000000 ) ) ;
#272 = FACE_OUTER_BOUND ( 'NONE', #631, .T. ) ;
#273 = AXIS2_PLACEMENT_3D ( 'NONE', #265, #557, #458 ) ;
#274 = AXIS2_PLACEMENT_3D ( 'NONE', #576, #280, #343 ) ;
#275 = AXIS2_PLACEMENT_3D ( 'NONE', #67, #399, #444 ) ;
#276 = LINE ( 'NONE', #222, #548 ) ;
#277 = APPROVAL_ROLE ( '' ) ;
#278 = CARTESIAN_POINT ( 'NONE',  ( 10.82627944162880240, -5.500000000000044409, 6.000000000000000000 ) ) ;
#279 = APPROVAL_STATUS ( 'not_yet_approved' ) ;
#280 = DIRECTION ( 'NONE',  ( 0.000000000000000000, 0.000000000000000000, 1.000000000000000000 ) ) ;
#281 = VERTEX_POINT ( 'NONE', #311 ) ;
#282 = VECTOR ( 'NONE', #532, 1000.000000000000000 ) ;
#283 = DIRECTION ( 'NONE',  ( 0.000000000000000000, 0.000000000000000000, 1.000000000000000000 ) ) ;
#284 = EDGE_LOOP ( 'NONE', ( #546, #496 ) ) ;
#285 = EDGE_CURVE ( 'NONE', #579, #123, #211, .T. ) ;
#286 = LINE ( 'NONE', #623, #328 ) ;
#287 = EDGE_LOOP ( 'NONE', ( #240, #524, #102, #109 ) ) ;
#288 = DIRECTION ( 'NONE',  ( 0.000000000000000000, 0.000000000000000000, 1.000000000000000000 ) ) ;
#289 = ORIENTED_EDGE ( 'NONE', *, *, #606, .F. ) ;
#290 = CIRCLE ( 'NONE', #517, 6.000000000000000888 ) ;
#291 = AXIS2_PLACEMENT_3D ( 'NONE', #545, #305, #440 ) ;
#292 = PLANE ( 'NONE',  #217 ) ;
#293 = CIRCLE ( 'NONE', #468, 1.300000000000000711 ) ;
#294 = ORIENTED_EDGE ( 'NONE', *, *, #127, .T. ) ;
#295 = ADVANCED_FACE ( 'NONE', ( #353 ), #51, .F. ) ;
#296 = DIRECTION ( 'NONE',  ( 0.000000000000000000, 0.000000000000000000, 1.000000000000000000 ) ) ;
#297 = EDGE_LOOP ( 'NONE', ( #622, #596, #536, #310 ) ) ;
#298 = VERTEX_POINT ( 'NONE', #538 ) ;
#299 = DESIGN_CONTEXT ( 'detailed design', #471, 'design' ) ;
#300 = CARTESIAN_POINT ( 'NONE',  ( -8.226279441628873812, -5.499999999999911182, 3.499999999999999556 ) ) ;
#301 = EDGE_CURVE ( 'NONE', #105, #587, #307, .T. ) ;
#302 = CYLINDRICAL_SURFACE ( 'NONE', #291, 8.000000000000000000 ) ;
#303 = EDGE_LOOP ( 'NONE', ( #575, #582, #383, #330 ) ) ;
#304 = CARTESIAN_POINT ( 'NONE',  ( 8.000000000000000000, 9.797174393178825657E-16, 3.500000000000000000 ) ) ;
#305 = DIRECTION ( 'NONE',  ( -0.000000000000000000, -0.000000000000000000, -1.000000000000000000 ) ) ;
#306 = VECTOR ( 'NONE', #520, 1000.000000000000000 ) ;
#307 = CIRCLE ( 'NONE', #145, 6.000000000000000888 ) ;
#308 = ORIENTED_EDGE ( 'NONE', *, *, #96, .T. ) ;
#309 = DIRECTION ( 'NONE',  ( -0.000000000000000000, -0.000000000000000000, -1.000000000000000000 ) ) ;
#310 = ORIENTED_EDGE ( 'NONE', *, *, #133, .F. ) ;
#311 = CARTESIAN_POINT ( 'NONE',  ( -6.000000000000000888, 0.000000000000000000, 0.000000000000000000 ) ) ;
#312 = ADVANCED_FACE ( 'NONE', ( #101 ), #302, .T. ) ;
#313 = ORIENTED_EDGE ( 'NONE', *, *, #494, .T. ) ;
#314 = CARTESIAN_POINT ( 'NONE',  ( 8.000000000000000000, 0.000000000000000000, 7.000000000000000000 ) ) ;
#315 = LINE ( 'NONE', #25, #467 ) ;
#316 = EDGE_LOOP ( 'NONE', ( #453, #147, #63, #35 ) ) ;
#317 = CARTESIAN_POINT ( 'NONE',  ( 14.00000000000000000, 1.714505518806294638E-15, 6.000000000000000000 ) ) ;
#318 = DIRECTION ( 'NONE',  ( -0.000000000000000000, 0.000000000000000000, -1.000000000000000000 ) ) ;
#319 = AXIS2_PLACEMENT_3D ( 'NONE', #563, #566, #136 ) ;
#320 = AXIS2_PLACEMENT_3D ( 'NONE', #104, #350, #161 ) ;
#321 = PERSON_AND_ORGANIZATION ( #202, #220 ) ;
#322 = ADVANCED_FACE ( 'NONE', ( #2 ), #491, .F. ) ;
#323 = CARTESIAN_POINT ( 'NONE',  ( 9.526279441628801692, -5.500000000000044409, 3.499999999999999556 ) ) ;
#324 = CALENDAR_DATE ( 2023, 3, 12 ) ;
#325 = EDGE_LOOP ( 'NONE', ( #358, #464 ) ) ;
#326 = DATE_AND_TIME ( #324, #205 ) ;
#327 = DIRECTION ( 'NONE',  ( -1.000000000000000000, 0.000000000000000000, 0.000000000000000000 ) ) ;
#328 = VECTOR ( 'NONE', #244, 1000.000000000000000 ) ;
#329 = CIRCLE ( 'NONE', #50, 1.300000000000000711 ) ;
#330 = ORIENTED_EDGE ( 'NONE', *, *, #185, .F. ) ;
#331 = ADVANCED_FACE ( 'NONE', ( #407 ), #261, .T. ) ;
#332 = MECHANICAL_CONTEXT ( 'NONE', #412, 'mechanical' ) ;
#333 = CC_DESIGN_PERSON_AND_ORGANIZATION_ASSIGNMENT ( #513, #78, ( #619 ) ) ;
#334 = EDGE_LOOP ( 'NONE', ( #340, #192 ) ) ;
#335 = EDGE_LOOP ( 'NONE', ( #172, #57, #486, #601 ) ) ;
#336 = DIRECTION ( 'NONE',  ( -0.000000000000000000, -0.000000000000000000, -1.000000000000000000 ) ) ;
#337 = ORIENTED_EDGE ( 'NONE', *, *, #92, .T. ) ;
#338 = EDGE_CURVE ( 'NONE', #398, #162, #53, .T. ) ;
#339 = FACE_OUTER_BOUND ( 'NONE', #334, .T. ) ;
#340 = ORIENTED_EDGE ( 'NONE', *, *, #201, .T. ) ;
#341 = FACE_BOUND ( 'NONE', #401, .T. ) ;
#342 = VERTEX_POINT ( 'NONE', #549 ) ;
#343 = DIRECTION ( 'NONE',  ( 1.000000000000000000, 0.000000000000000000, 0.000000000000000000 ) ) ;
#344 = EDGE_LOOP ( 'NONE', ( #490, #348 ) ) ;
#345 = CARTESIAN_POINT ( 'NONE',  ( 0.000000000000000000, 0.000000000000000000, 6.000000000000000000 ) ) ;
#346 = APPROVAL_PERSON_ORGANIZATION ( #518, #558, #277 ) ;
#347 = ORIENTED_EDGE ( 'NONE', *, *, #606, .T. ) ;
#348 = ORIENTED_EDGE ( 'NONE', *, *, #356, .T. ) ;
#349 = DIRECTION ( 'NONE',  ( 1.000000000000000000, 0.000000000000000000, 0.000000000000000000 ) ) ;
#350 = DIRECTION ( 'NONE',  ( 0.000000000000000000, 0.000000000000000000, -1.000000000000000000 ) ) ;
#351 = ORIENTED_EDGE ( 'NONE', *, *, #466, .T. ) ;
#352 = DIRECTION ( 'NONE',  ( 0.000000000000000000, -0.000000000000000000, -1.000000000000000000 ) ) ;
#353 = FACE_OUTER_BOUND ( 'NONE', #47, .T. ) ;
#354 = ORIENTED_EDGE ( 'NONE', *, *, #285, .F. ) ;
#355 = LINE ( 'NONE', #552, #550 ) ;
#356 = EDGE_CURVE ( 'NONE', #579, #66, #229, .T. ) ;
#357 = DIRECTION ( 'NONE',  ( -0.000000000000000000, -0.000000000000000000, -1.000000000000000000 ) ) ;
#358 = ORIENTED_EDGE ( 'NONE', *, *, #301, .F. ) ;
#359 = CIRCLE ( 'NONE', #83, 8.000000000000000000 ) ;
#360 = CARTESIAN_POINT ( 'NONE',  ( 0.000000000000000000, 0.000000000000000000, 3.500000000000000000 ) ) ;
#361 = CARTESIAN_POINT ( 'NONE',  ( 0.000000000000000000, 11.00000000000000000, 6.000000000000000000 ) ) ;
#362 = ORIENTED_EDGE ( 'NONE', *, *, #413, .T. ) ;
#363 = DIRECTION ( 'NONE',  ( -0.000000000000000000, -0.000000000000000000, -1.000000000000000000 ) ) ;
#364 = CARTESIAN_POINT ( 'NONE',  ( -10.82627944162887523, -5.499999999999911182, 8.000000000000000000 ) ) ;
#365 = PERSON_AND_ORGANIZATION ( #202, #220 ) ;
#366 = CARTESIAN_POINT ( 'NONE',  ( 1.300000000000000488, 11.00000000000000000, 3.499999999999999556 ) ) ;
#367 = CIRCLE ( 'NONE', #370, 8.000000000000000000 ) ;
#368 = PRODUCT_RELATED_PRODUCT_CATEGORY ( 'detail', '', ( #543 ) ) ;
#369 = APPROVAL_DATE_TIME ( #175, #5 ) ;
#370 = AXIS2_PLACEMENT_3D ( 'NONE', #360, #454, #459 ) ;
#371 = LINE ( 'NONE', #416, #178 ) ;
#372 = DATE_TIME_ROLE ( 'classification_date' ) ;
#373 = FACE_BOUND ( 'NONE', #98, .T. ) ;
#374 = ADVANCED_FACE ( 'NONE', ( #534 ), #18, .T. ) ;
#375 = FACE_BOUND ( 'NONE', #284, .T. ) ;
#376 = AXIS2_PLACEMENT_3D ( 'NONE', #512, #603, #180 ) ;
#377 = APPROVAL_STATUS ( 'not_yet_approved' ) ;
#378 = AXIS2_PLACEMENT_3D ( 'NONE', #226, #472, #80 ) ;
#379 = DIRECTION ( 'NONE',  ( -0.000000000000000000, -0.000000000000000000, -1.000000000000000000 ) ) ;
#380 = ORIENTED_EDGE ( 'NONE', *, *, #617, .T. ) ;
#381 = DIRECTION ( 'NONE',  ( 1.000000000000000000, 0.000000000000000000, -0.000000000000000000 ) ) ;
#383 = ORIENTED_EDGE ( 'NONE', *, *, #201, .F. ) ;
#382 = ADVANCED_FACE ( 'NONE', ( #592 ), #585, .F. ) ;
#384 = CARTESIAN_POINT ( 'NONE',  ( 0.000000000000000000, 0.000000000000000000, 7.000000000000000000 ) ) ;
#385 = ORIENTED_EDGE ( 'NONE', *, *, #96, .F. ) ;
#386 = AXIS2_PLACEMENT_3D ( 'NONE', #540, #403, #266 ) ;
#387 = FACE_OUTER_BOUND ( 'NONE', #434, .T. ) ;
#388 = ORIENTED_EDGE ( 'NONE', *, *, #39, .T. ) ;
#389 = DIRECTION ( 'NONE',  ( -1.000000000000000000, 0.000000000000000000, 0.000000000000000000 ) ) ;
#390 = EDGE_LOOP ( 'NONE', ( #533, #432 ) ) ;
#391 = PRODUCT_DEFINITION_SHAPE ( 'NONE', 'NONE',  #153 ) ;
#392 = CARTESIAN_POINT ( 'NONE',  ( 0.000000000000000000, 11.00000000000000000, 8.000000000000000000 ) ) ;
#393 = ORIENTED_EDGE ( 'NONE', *, *, #413, .F. ) ;
#394 = CIRCLE ( 'NONE', #608, 8.000000000000000000 ) ;
#395 = AXIS2_PLACEMENT_3D ( 'NONE', #44, #239, #193 ) ;
#396 = DIRECTION ( 'NONE',  ( 1.000000000000000000, 0.000000000000000000, 0.000000000000000000 ) ) ;
#397 = CIRCLE ( 'NONE', #230, 1.300000000000000488 ) ;
#398 = VERTEX_POINT ( 'NONE', #595 ) ;
#399 = DIRECTION ( 'NONE',  ( -0.000000000000000000, 0.000000000000000000, -1.000000000000000000 ) ) ;
#400 = DIRECTION ( 'NONE',  ( -0.000000000000000000, -0.000000000000000000, -1.000000000000000000 ) ) ;
#401 = EDGE_LOOP ( 'NONE', ( #337, #158 ) ) ;
#402 = EDGE_CURVE ( 'NONE', #447, #342, #580, .T. ) ;
#403 = DIRECTION ( 'NONE',  ( 0.000000000000000000, 0.000000000000000000, -1.000000000000000000 ) ) ;
#404 = CARTESIAN_POINT ( 'NONE',  ( 0.000000000000000000, 0.000000000000000000, 7.000000000000000000 ) ) ;
#405 = VERTEX_POINT ( 'NONE', #68 ) ;
#406 = FACE_OUTER_BOUND ( 'NONE', #551, .T. ) ;
#407 = FACE_OUTER_BOUND ( 'NONE', #287, .T. ) ;
#408 = ORIENTED_EDGE ( 'NONE', *, *, #402, .F. ) ;
#409 = CIRCLE ( 'NONE', #478, 1.300000000000000488 ) ;
#410 = CARTESIAN_POINT ( 'NONE',  ( -14.00000000000000000, 0.000000000000000000, 7.000000000000000000 ) ) ;
#411 = DATE_AND_TIME ( #21, #537 ) ;
#412 = APPLICATION_CONTEXT ( 'configuration controlled 3d designs of mechanical parts and assemblies' ) ;
#413 = EDGE_CURVE ( 'NONE', #208, #45, #477, .T. ) ;
#414 = DIRECTION ( 'NONE',  ( -0.000000000000000000, -0.000000000000000000, -1.000000000000000000 ) ) ;
#415 = DIRECTION ( 'NONE',  ( -1.000000000000000000, 0.000000000000000000, 0.000000000000000000 ) ) ;
#416 = CARTESIAN_POINT ( 'NONE',  ( 8.226279441628800981, -5.500000000000044409, 8.000000000000000000 ) ) ;
#417 = PERSON_AND_ORGANIZATION_ROLE ( 'design_owner' ) ;
#418 = DIRECTION ( 'NONE',  ( 0.000000000000000000, 0.000000000000000000, -1.000000000000000000 ) ) ;
#419 = CIRCLE ( 'NONE', #216, 8.000000000000000000 ) ;
#420 = APPLICATION_PROTOCOL_DEFINITION ( 'international standard', 'config_control_design', 1994, #412 ) ;
#421 = CC_DESIGN_SECURITY_CLASSIFICATION ( #619, ( #267 ) ) ;
#422 = CARTESIAN_POINT ( 'NONE',  ( -14.00000000000000000, 0.000000000000000000, 6.000000000000000000 ) ) ;
#423 = CARTESIAN_POINT ( 'NONE',  ( 9.526279441628801692, -5.500000000000044409, 8.000000000000000000 ) ) ;
#424 = CARTESIAN_POINT ( 'NONE',  ( 6.000000000000000888, 7.347880794884120722E-16, 7.000000000000000000 ) ) ;
#425 = CC_DESIGN_DATE_AND_TIME_ASSIGNMENT ( #137, #88, ( #153 ) ) ;
#426 = CARTESIAN_POINT ( 'NONE',  ( -8.000000000000000000, 0.000000000000000000, 3.500000000000000000 ) ) ;
#427 = CLOSED_SHELL ( 'NONE', ( #522, #322, #382, #232, #331, #295, #374, #237, #164, #221, #554, #263, #111, #72, #312, #242, #625, #43 ) ) ;
#428 = AXIS2_PLACEMENT_3D ( 'NONE', #404, #357, #65 ) ;
#429 = CC_DESIGN_APPROVAL ( #535, ( #619 ) ) ;
#430 = EDGE_CURVE ( 'NONE', #45, #298, #315, .T. ) ;
#431 = DIRECTION ( 'NONE',  ( -0.000000000000000000, -0.000000000000000000, -1.000000000000000000 ) ) ;
#432 = ORIENTED_EDGE ( 'NONE', *, *, #26, .F. ) ;
#433 = LINE ( 'NONE', #426, #282 ) ;
#434 = EDGE_LOOP ( 'NONE', ( #577, #251, #215, #259 ) ) ;
#435 = PLANE ( 'NONE',  #32 ) ;
#436 = VERTEX_POINT ( 'NONE', #314 ) ;
#437 = AXIS2_PLACEMENT_3D ( 'NONE', #241, #379, #583 ) ;
#438 = DIRECTION ( 'NONE',  ( -0.000000000000000000, 0.000000000000000000, -1.000000000000000000 ) ) ;
#439 = ORIENTED_EDGE ( 'NONE', *, *, #479, .T. ) ;
#440 = DIRECTION ( 'NONE',  ( -1.000000000000000000, 0.000000000000000000, 0.000000000000000000 ) ) ;
#441 = ORIENTED_EDGE ( 'NONE', *, *, #430, .F. ) ;
#442 = CARTESIAN_POINT ( 'NONE',  ( 9.526279441628801692, -5.500000000000044409, 8.000000000000000000 ) ) ;
#443 = ORIENTED_EDGE ( 'NONE', *, *, #581, .T. ) ;
#444 = DIRECTION ( 'NONE',  ( -1.000000000000000000, 0.000000000000000000, 0.000000000000000000 ) ) ;
#445 = VECTOR ( 'NONE', #126, 1000.000000000000000 ) ;
#446 = FACE_OUTER_BOUND ( 'NONE', #344, .T. ) ;
#447 = VERTEX_POINT ( 'NONE', #300 ) ;
#448 = DIRECTION ( 'NONE',  ( 0.000000000000000000, 0.000000000000000000, -1.000000000000000000 ) ) ;
#449 = DIRECTION ( 'NONE',  ( 0.000000000000000000, 0.000000000000000000, 1.000000000000000000 ) ) ;
#450 = VERTEX_POINT ( 'NONE', #252 ) ;
#451 = DIRECTION ( 'NONE',  ( -0.000000000000000000, -0.000000000000000000, 1.000000000000000000 ) ) ;
#452 = DIRECTION ( 'NONE',  ( 0.000000000000000000, 0.000000000000000000, -1.000000000000000000 ) ) ;
#453 = ORIENTED_EDGE ( 'NONE', *, *, #87, .F. ) ;
#454 = DIRECTION ( 'NONE',  ( 0.000000000000000000, 0.000000000000000000, -1.000000000000000000 ) ) ;
#455 = APPROVAL_ROLE ( '' ) ;
#456 = AXIS2_PLACEMENT_3D ( 'NONE', #442, #6, #152 ) ;
#457 = AXIS2_PLACEMENT_3D ( 'NONE', #206, #363, #415 ) ;
#458 = DIRECTION ( 'NONE',  ( -1.000000000000000000, 0.000000000000000000, 0.000000000000000000 ) ) ;
#459 = DIRECTION ( 'NONE',  ( -1.000000000000000000, 0.000000000000000000, 0.000000000000000000 ) ) ;
#460 = CARTESIAN_POINT ( 'NONE',  ( 0.000000000000000000, 0.000000000000000000, 6.000000000000000000 ) ) ;
#461 = COORDINATED_UNIVERSAL_TIME_OFFSET ( 1, 0, .AHEAD. ) ;
#462 = PLANE ( 'NONE',  #143 ) ;
#463 = CALENDAR_DATE ( 2023, 3, 12 ) ;
#464 = ORIENTED_EDGE ( 'NONE', *, *, #140, .F. ) ;
#465 = CIRCLE ( 'NONE', #273, 1.300000000000000488 ) ;
#466 = EDGE_CURVE ( 'NONE', #627, #436, #257, .T. ) ;
#467 = VECTOR ( 'NONE', #448, 1000.000000000000000 ) ;
#468 = AXIS2_PLACEMENT_3D ( 'NONE', #604, #309, #349 ) ;
#469 = LINE ( 'NONE', #424, #306 ) ;
#470 = DIRECTION ( 'NONE',  ( -1.000000000000000000, 0.000000000000000000, 0.000000000000000000 ) ) ;
#471 = APPLICATION_CONTEXT ( 'configuration controlled 3d designs of mechanical parts and assemblies' ) ;
#472 = DIRECTION ( 'NONE',  ( 0.000000000000000000, 0.000000000000000000, 1.000000000000000000 ) ) ;
#473 = EDGE_CURVE ( 'NONE', #154, #590, #367, .T. ) ;
#474 = CYLINDRICAL_SURFACE ( 'NONE', #169, 8.000000000000000000 ) ;
#475 = AXIS2_PLACEMENT_3D ( 'NONE', #460, #27, #225 ) ;
#476 = ORIENTED_EDGE ( 'NONE', *, *, #586, .T. ) ;
#477 = CIRCLE ( 'NONE', #116, 1.300000000000000488 ) ;
#478 = AXIS2_PLACEMENT_3D ( 'NONE', #260, #451, #213 ) ;
#479 = EDGE_CURVE ( 'NONE', #539, #123, #600, .T. ) ;
#480 = CARTESIAN_POINT ( 'NONE',  ( 8.000000000000000000, 9.797174393178825657E-16, 0.000000000000000000 ) ) ;
#481 = ORIENTED_EDGE ( 'NONE', *, *, #586, .F. ) ;
#482 = FACE_BOUND ( 'NONE', #325, .T. ) ;
#483 = ORIENTED_EDGE ( 'NONE', *, *, #617, .F. ) ;
#484 = CARTESIAN_POINT ( 'NONE',  ( 0.000000000000000000, 0.000000000000000000, 0.000000000000000000 ) ) ;
#486 = ORIENTED_EDGE ( 'NONE', *, *, #479, .F. ) ;
#485 = EDGE_CURVE ( 'NONE', #405, #151, #329, .T. ) ;
#487 = CIRCLE ( 'NONE', #561, 6.000000000000000888 ) ;
#488 = LOCAL_TIME ( 17, 39, 17.00000000000000000, #269 ) ;
#489 = DIRECTION ( 'NONE',  ( -0.000000000000000000, -0.000000000000000000, -1.000000000000000000 ) ) ;
#490 = ORIENTED_EDGE ( 'NONE', *, *, #224, .T. ) ;
#491 = CYLINDRICAL_SURFACE ( 'NONE', #456, 1.300000000000000711 ) ;
#492 = ORIENTED_EDGE ( 'NONE', *, *, #500, .T. ) ;
#493 = CARTESIAN_POINT ( 'NONE',  ( 10.82627944162880240, -5.500000000000044409, 8.000000000000000000 ) ) ;
#494 = EDGE_CURVE ( 'NONE', #45, #208, #397, .T. ) ;
#495 = FACE_BOUND ( 'NONE', #243, .T. ) ;
#496 = ORIENTED_EDGE ( 'NONE', *, *, #36, .F. ) ;
#497 = CARTESIAN_POINT ( 'NONE',  ( 0.000000000000000000, 0.000000000000000000, 7.000000000000000000 ) ) ;
#498 = AXIS2_PLACEMENT_3D ( 'NONE', #37, #40, #621 ) ;
#499 = VECTOR ( 'NONE', #157, 1000.000000000000000 ) ;
#500 = EDGE_CURVE ( 'NONE', #208, #12, #355, .T. ) ;
#501 = CARTESIAN_POINT ( 'NONE',  ( -8.000000000000000000, 9.797174393178825657E-16, 6.000000000000000000 ) ) ;
#502 = ORIENTED_EDGE ( 'NONE', *, *, #228, .F. ) ;
#503 = DIRECTION ( 'NONE',  ( 1.000000000000000000, 0.000000000000000000, 0.000000000000000000 ) ) ;
#504 = FACE_BOUND ( 'NONE', #390, .T. ) ;
#505 = ORIENTED_EDGE ( 'NONE', *, *, #224, .F. ) ;
#506 = LINE ( 'NONE', #410, #562 ) ;
#507 = DIRECTION ( 'NONE',  ( -1.000000000000000000, 0.000000000000000000, 0.000000000000000000 ) ) ;
#508 = ORIENTED_EDGE ( 'NONE', *, *, #525, .F. ) ;
#509 = CYLINDRICAL_SURFACE ( 'NONE', #275, 1.300000000000000711 ) ;
#510 = AXIS2_PLACEMENT_3D ( 'NONE', #570, #183, #614 ) ;
#511 = CARTESIAN_POINT ( 'NONE',  ( -6.000000000000000888, 0.000000000000000000, 7.000000000000000000 ) ) ;
#512 = CARTESIAN_POINT ( 'NONE',  ( 0.000000000000000000, 0.000000000000000000, 0.000000000000000000 ) ) ;
#513 = PERSON_AND_ORGANIZATION ( #202, #220 ) ;
#514 = EDGE_CURVE ( 'NONE', #66, #539, #506, .T. ) ;
#515 = DIRECTION ( 'NONE',  ( -0.000000000000000000, -0.000000000000000000, 1.000000000000000000 ) ) ;
#516 = DIRECTION ( 'NONE',  ( 0.000000000000000000, 0.000000000000000000, -1.000000000000000000 ) ) ;
#517 = AXIS2_PLACEMENT_3D ( 'NONE', #523, #288, #148 ) ;
#518 = PERSON_AND_ORGANIZATION ( #202, #220 ) ;
#519 =( GEOMETRIC_REPRESENTATION_CONTEXT ( 3 ) GLOBAL_UNCERTAINTY_ASSIGNED_CONTEXT ( ( #4 ) ) GLOBAL_UNIT_ASSIGNED_CONTEXT ( ( #85, #615, #177 ) ) REPRESENTATION_CONTEXT ( 'NONE', 'WORKASPACE' ) );
#520 = DIRECTION ( 'NONE',  ( -0.000000000000000000, -0.000000000000000000, -1.000000000000000000 ) ) ;
#522 = ADVANCED_FACE ( 'NONE', ( #107 ), #509, .F. ) ;
#521 = CALENDAR_DATE ( 2023, 3, 12 ) ;
#523 = CARTESIAN_POINT ( 'NONE',  ( 0.000000000000000000, 0.000000000000000000, 7.000000000000000000 ) ) ;
#524 = ORIENTED_EDGE ( 'NONE', *, *, #338, .T. ) ;
#525 = EDGE_CURVE ( 'NONE', #123, #539, #117, .T. ) ;
#526 = ORIENTED_EDGE ( 'NONE', *, *, #338, .F. ) ;
#527 = CIRCLE ( 'NONE', #219, 1.300000000000000711 ) ;
#528 = CC_DESIGN_APPROVAL ( #5, ( #267 ) ) ;
#529 = DIRECTION ( 'NONE',  ( 1.000000000000000000, 0.000000000000000000, 0.000000000000000000 ) ) ;
#530 = ORIENTED_EDGE ( 'NONE', *, *, #402, .T. ) ;
#531 = EDGE_CURVE ( 'NONE', #627, #398, #359, .T. ) ;
#532 = DIRECTION ( 'NONE',  ( -0.000000000000000000, -0.000000000000000000, -1.000000000000000000 ) ) ;
#533 = ORIENTED_EDGE ( 'NONE', *, *, #531, .F. ) ;
#534 = FACE_OUTER_BOUND ( 'NONE', #335, .T. ) ;
#535 = APPROVAL ( #613, 'UNSPECIFIED' ) ;
#536 = ORIENTED_EDGE ( 'NONE', *, *, #181, .T. ) ;
#537 = LOCAL_TIME ( 17, 39, 17.00000000000000000, #31 ) ;
#538 = CARTESIAN_POINT ( 'NONE',  ( -1.300000000000000488, 11.00000000000000000, 3.499999999999999556 ) ) ;
#539 = VERTEX_POINT ( 'NONE', #121 ) ;
#540 = CARTESIAN_POINT ( 'NONE',  ( 0.000000000000000000, 0.000000000000000000, 3.500000000000000000 ) ) ;
#541 = DIRECTION ( 'NONE',  ( 0.000000000000000000, 0.000000000000000000, 1.000000000000000000 ) ) ;
#542 = EDGE_LOOP ( 'NONE', ( #262, #166 ) ) ;
#543 = PRODUCT ( 'Pièce5_Capot_Défaut_sldprt', 'Pièce5_Capot_Défaut_sldprt', '', ( #332 ) ) ;
#544 = DIRECTION ( 'NONE',  ( 1.000000000000000000, 0.000000000000000000, 0.000000000000000000 ) ) ;
#545 = CARTESIAN_POINT ( 'NONE',  ( 0.000000000000000000, 0.000000000000000000, 3.500000000000000000 ) ) ;
#546 = ORIENTED_EDGE ( 'NONE', *, *, #473, .F. ) ;
#547 = DIRECTION ( 'NONE',  ( 0.000000000000000000, 0.000000000000000000, -1.000000000000000000 ) ) ;
#548 = VECTOR ( 'NONE', #414, 1000.000000000000000 ) ;
#549 = CARTESIAN_POINT ( 'NONE',  ( -10.82627944162887523, -5.499999999999911182, 3.499999999999999556 ) ) ;
#550 = VECTOR ( 'NONE', #594, 1000.000000000000000 ) ;
#551 = EDGE_LOOP ( 'NONE', ( #142, #481, #19, #194 ) ) ;
#552 = CARTESIAN_POINT ( 'NONE',  ( 1.300000000000000488, 11.00000000000000000, 8.000000000000000000 ) ) ;
#553 = DIRECTION ( 'NONE',  ( 1.000000000000000000, 0.000000000000000000, 0.000000000000000000 ) ) ;
#554 = ADVANCED_FACE ( 'NONE', ( #218 ), #602, .F. ) ;
#555 = VERTEX_POINT ( 'NONE', #556 ) ;
#556 = CARTESIAN_POINT ( 'NONE',  ( 6.000000000000000888, 7.347880794884120722E-16, 0.000000000000000000 ) ) ;
#557 = DIRECTION ( 'NONE',  ( -0.000000000000000000, -0.000000000000000000, 1.000000000000000000 ) ) ;
#558 = APPROVAL ( #377, 'UNSPECIFIED' ) ;
#559 = PERSON_AND_ORGANIZATION ( #202, #220 ) ;
#560 = APPROVAL_DATE_TIME ( #411, #535 ) ;
#561 = AXIS2_PLACEMENT_3D ( 'NONE', #484, #283, #529 ) ;
#562 = VECTOR ( 'NONE', #55, 1000.000000000000000 ) ;
#563 = CARTESIAN_POINT ( 'NONE',  ( 0.000000000000000000, 0.000000000000000000, 6.000000000000000000 ) ) ;
#564 = PERSON_AND_ORGANIZATION_ROLE ( 'design_supplier' ) ;
#565 = EDGE_CURVE ( 'NONE', #187, #95, #293, .T. ) ;
#566 = DIRECTION ( 'NONE',  ( 0.000000000000000000, 0.000000000000000000, 1.000000000000000000 ) ) ;
#567 = CALENDAR_DATE ( 2023, 3, 12 ) ;
#568 = CARTESIAN_POINT ( 'NONE',  ( 0.000000000000000000, 0.000000000000000000, 3.500000000000000000 ) ) ;
#569 = CIRCLE ( 'NONE', #22, 1.300000000000000711 ) ;
#570 = CARTESIAN_POINT ( 'NONE',  ( -9.526279441628874523, -5.499999999999911182, 3.499999999999999556 ) ) ;
#571 = CIRCLE ( 'NONE', #255, 8.000000000000000000 ) ;
#572 = AXIS2_PLACEMENT_3D ( 'NONE', #497, #59, #503 ) ;
#573 = PERSON_AND_ORGANIZATION ( #202, #220 ) ;
#574 = DIRECTION ( 'NONE',  ( -1.000000000000000000, 0.000000000000000000, 0.000000000000000000 ) ) ;
#575 = ORIENTED_EDGE ( 'NONE', *, *, #473, .T. ) ;
#576 = CARTESIAN_POINT ( 'NONE',  ( 0.000000000000000000, 0.000000000000000000, 6.000000000000000000 ) ) ;
#577 = ORIENTED_EDGE ( 'NONE', *, *, #500, .F. ) ;
#578 = DIRECTION ( 'NONE',  ( 0.000000000000000000, 0.000000000000000000, -1.000000000000000000 ) ) ;
#579 = VERTEX_POINT ( 'NONE', #317 ) ;
#580 = CIRCLE ( 'NONE', #41, 1.300000000000000711 ) ;
#581 = EDGE_CURVE ( 'NONE', #187, #151, #70, .T. ) ;
#582 = ORIENTED_EDGE ( 'NONE', *, *, #87, .T. ) ;
#583 = DIRECTION ( 'NONE',  ( 1.000000000000000000, 0.000000000000000000, 0.000000000000000000 ) ) ;
#584 = EDGE_LOOP ( 'NONE', ( #246, #443, #197, #139 ) ) ;
#585 = CYLINDRICAL_SURFACE ( 'NONE', #320, 1.300000000000000488 ) ;
#586 = EDGE_CURVE ( 'NONE', #95, #187, #245, .T. ) ;
#587 = VERTEX_POINT ( 'NONE', #110 ) ;
#588 = AXIS2_PLACEMENT_3D ( 'NONE', #214, #400, #250 ) ;
#589 = FACE_BOUND ( 'NONE', #542, .T. ) ;
#590 = VERTEX_POINT ( 'NONE', #304 ) ;
#591 = DIRECTION ( 'NONE',  ( 1.000000000000000000, 0.000000000000000000, 0.000000000000000000 ) ) ;
#592 = FACE_OUTER_BOUND ( 'NONE', #249, .T. ) ;
#593 = EDGE_LOOP ( 'NONE', ( #388, #530 ) ) ;
#594 = DIRECTION ( 'NONE',  ( 0.000000000000000000, 0.000000000000000000, -1.000000000000000000 ) ) ;
#595 = CARTESIAN_POINT ( 'NONE',  ( -8.000000000000000000, 9.797174393178825657E-16, 6.000000000000000000 ) ) ;
#596 = ORIENTED_EDGE ( 'NONE', *, *, #140, .T. ) ;
#597 = CYLINDRICAL_SURFACE ( 'NONE', #609, 1.300000000000000711 ) ;
#598 = AXIS2_PLACEMENT_3D ( 'NONE', #392, #452, #253 ) ;
#599 = CARTESIAN_POINT ( 'NONE',  ( -9.526279441628874523, -5.499999999999911182, 3.499999999999999556 ) ) ;
#600 = CIRCLE ( 'NONE', #386, 14.00000000000000000 ) ;
#601 = ORIENTED_EDGE ( 'NONE', *, *, #514, .F. ) ;
#602 = CYLINDRICAL_SURFACE ( 'NONE', #457, 6.000000000000000888 ) ;
#603 = DIRECTION ( 'NONE',  ( 0.000000000000000000, 0.000000000000000000, 1.000000000000000000 ) ) ;
#604 = CARTESIAN_POINT ( 'NONE',  ( 9.526279441628801692, -5.500000000000044409, 6.000000000000000000 ) ) ;
#605 = DIRECTION ( 'NONE',  ( 0.000000000000000000, -0.000000000000000000, -1.000000000000000000 ) ) ;
#606 = EDGE_CURVE ( 'NONE', #162, #436, #146, .T. ) ;
#607 = APPROVAL_DATE_TIME ( #235, #558 ) ;
#608 = AXIS2_PLACEMENT_3D ( 'NONE', #568, #418, #616 ) ;
#609 = AXIS2_PLACEMENT_3D ( 'NONE', #423, #30, #470 ) ;
#610 = LINE ( 'NONE', #364, #445 ) ;
#611 = CC_DESIGN_DATE_AND_TIME_ASSIGNMENT ( #326, #372, ( #619 ) ) ;
#612 = COORDINATED_UNIVERSAL_TIME_OFFSET ( 1, 0, .AHEAD. ) ;
#613 = APPROVAL_STATUS ( 'not_yet_approved' ) ;
#614 = DIRECTION ( 'NONE',  ( -1.000000000000000000, 0.000000000000000000, 0.000000000000000000 ) ) ;
#615 =( NAMED_UNIT ( * ) PLANE_ANGLE_UNIT ( ) SI_UNIT ( $, .RADIAN. ) );
#616 = DIRECTION ( 'NONE',  ( -1.000000000000000000, 0.000000000000000000, 0.000000000000000000 ) ) ;
#617 = EDGE_CURVE ( 'NONE', #298, #12, #409, .T. ) ;
#618 = CARTESIAN_POINT ( 'NONE',  ( 10.82627944162880240, -5.500000000000044409, 3.499999999999999556 ) ) ;
#619 = SECURITY_CLASSIFICATION ( '', '', #130 ) ;
#620 = ORIENTED_EDGE ( 'NONE', *, *, #514, .T. ) ;
#621 = DIRECTION ( 'NONE',  ( 1.000000000000000000, 0.000000000000000000, -0.000000000000000000 ) ) ;
#622 = ORIENTED_EDGE ( 'NONE', *, *, #16, .F. ) ;
#623 = CARTESIAN_POINT ( 'NONE',  ( -6.000000000000000888, 0.000000000000000000, 7.000000000000000000 ) ) ;
#625 = ADVANCED_FACE ( 'NONE', ( #406 ), #597, .F. ) ;
#624 = EDGE_LOOP ( 'NONE', ( #313, #362 ) ) ;
#626 = CYLINDRICAL_SURFACE ( 'NONE', #395, 14.00000000000000000 ) ;
#627 = VERTEX_POINT ( 'NONE', #28 ) ;
#628 = CC_DESIGN_PERSON_AND_ORGANIZATION_ASSIGNMENT ( #233, #417, ( #543 ) ) ;
#629 = AXIS2_PLACEMENT_3D ( 'NONE', #163, #547, #264 ) ;
#630 = CARTESIAN_POINT ( 'NONE',  ( -8.000000000000000000, 0.000000000000000000, 3.500000000000000000 ) ) ;
#631 = EDGE_LOOP ( 'NONE', ( #234, #502, #308, #408 ) ) ;
ENDSEC;
END-ISO-10303-21;
