ISO-10303-21;
HEADER;
FILE_DESCRIPTION (( 'STEP AP203' ),
    '1' );
FILE_NAME ('Pièce5_Guide_Défaut_sldprt.STEP',
    '2023-12-03T16:39:19',
    ( 'LIA INFO' ),
    ( '' ),
    'SwSTEP 2.0',
    'SolidWorks 2022',
    '' );
FILE_SCHEMA (( 'CONFIG_CONTROL_DESIGN' ));
ENDSEC;

DATA;
#1 = DIRECTION ( 'NONE',  ( 0.7071067811865469066, 8.659560562354927928E-17, -0.7071067811865482389 ) ) ;
#2 = ORIENTED_EDGE ( 'NONE', *, *, #209, .T. ) ;
#3 = DIRECTION ( 'NONE',  ( 1.000000000000000000, 0.000000000000000000, 0.000000000000000000 ) ) ;
#4 = LINE ( 'NONE', #393, #551 ) ;
#5 = VERTEX_POINT ( 'NONE', #808 ) ;
#6 = DIRECTION ( 'NONE',  ( -1.000000000000000000, 0.000000000000000000, 0.000000000000000000 ) ) ;
#7 = CARTESIAN_POINT ( 'NONE',  ( 0.1311869756547101307, 3.000000000000000444, 10.00000000000000178 ) ) ;
#8 = ORIENTED_EDGE ( 'NONE', *, *, #781, .T. ) ;
#9 = CARTESIAN_POINT ( 'NONE',  ( 0.000000000000000000, 4.000000000000000888, 1.000000000000000888 ) ) ;
#10 = ADVANCED_FACE ( 'NONE', ( #301, #298 ), #240, .F. ) ;
#11 = APPROVAL_PERSON_ORGANIZATION ( #99, #739, #109 ) ;
#12 = AXIS2_PLACEMENT_3D ( 'NONE', #540, #274, #94 ) ;
#13 = B_SPLINE_CURVE_WITH_KNOTS ( 'NONE', 3,
 ( #233, #632, #101, #103, #43, #352, #107, #620, #38, #742, #286, #810, #433, #688, #492, #365, #750, #45 ),
 .UNSPECIFIED., .F., .F.,
 ( 4, 2, 2, 2, 2, 2, 2, 2, 4 ),
 ( 2.789597456864976153E-19, 0.0003914904498596250091, 0.0007829808997192498014, 0.001174471349578874377, 0.001565961799438499169, 0.001957452249298123961, 0.002348942699157748754, 0.002740433149017373546, 0.003131923598876998338 ),
 .UNSPECIFIED. ) ;
#14 = CIRCLE ( 'NONE', #114, 6.000000000000000888 ) ;
#15 = ORIENTED_EDGE ( 'NONE', *, *, #203, .F. ) ;
#16 = CARTESIAN_POINT ( 'NONE',  ( 0.7989248838730189650, 2.893196282169685940, 8.384793181692163699 ) ) ;
#17 = CARTESIAN_POINT ( 'NONE',  ( 9.884811061103578211, -4.000000000000000000, 7.000000000000000000 ) ) ;
#18 = CARTESIAN_POINT ( 'NONE',  ( 0.1323933160975641898, 6.000000000000000888, 7.999999999999998224 ) ) ;
#19 = CIRCLE ( 'NONE', #484, 7.500000000000000000 ) ;
#20 = FACE_OUTER_BOUND ( 'NONE', #732, .T. ) ;
#21 = CARTESIAN_POINT ( 'NONE',  ( -1.000015691822936814, 2.828421576849031727, 9.131670952813829345 ) ) ;
#22 = DIRECTION ( 'NONE',  ( 0.000000000000000000, 0.000000000000000000, -1.000000000000000000 ) ) ;
#23 = CARTESIAN_POINT ( 'NONE',  ( 0.9733197772037788242, -2.838207733611165295, 8.736078016159444459 ) ) ;
#24 = AXIS2_PLACEMENT_3D ( 'NONE', #818, #234, #180 ) ;
#25 = EDGE_CURVE ( 'NONE', #457, #516, #14, .T. ) ;
#26 = CARTESIAN_POINT ( 'NONE',  ( -0.5048818755377040279, 2.959712371732154068, 9.873027021578625551 ) ) ;
#27 = FACE_OUTER_BOUND ( 'NONE', #749, .T. ) ;
#28 = EDGE_LOOP ( 'NONE', ( #2, #693, #659, #717 ) ) ;
#29 = CARTESIAN_POINT ( 'NONE',  ( -0.9739805876847927868, 5.920636045238167888, 8.738286131855780070 ) ) ;
#30 = CARTESIAN_POINT ( 'NONE',  ( -0.1311535745634514194, 3.000000000000001776, 10.00000000000000000 ) ) ;
#31 = CARTESIAN_POINT ( 'NONE',  ( -0.7988914244718224866, 5.947301735519284094, 9.615437108313814818 ) ) ;
#32 = CARTESIAN_POINT ( 'NONE',  ( -0.8727711819437010687, 2.870730265142595439, 9.505559090155328406 ) ) ;
#33 = EDGE_CURVE ( 'NONE', #302, #260, #306, .T. ) ;
#34 = PLANE ( 'NONE',  #829 ) ;
#35 = CARTESIAN_POINT ( 'NONE',  ( -0.8730844665418049377, 2.870626768165735143, 8.495292444544610078 ) ) ;
#36 = VECTOR ( 'NONE', #224, 1000.000000000000000 ) ;
#37 = CARTESIAN_POINT ( 'NONE',  ( 0.000000000000000000, -4.000000000000000000, 1.000000000000000888 ) ) ;
#38 = CARTESIAN_POINT ( 'NONE',  ( -0.9999502950802071632, -5.916088184763882651, 8.868918508099884690 ) ) ;
#39 = DIRECTION ( 'NONE',  ( 1.000000000000000000, 0.000000000000000000, 0.000000000000000000 ) ) ;
#40 = CC_DESIGN_APPROVAL ( #515, ( #472 ) ) ;
#41 = EDGE_CURVE ( 'NONE', #327, #302, #216, .T. ) ;
#42 = PERSON_AND_ORGANIZATION_ROLE ( 'creator' ) ;
#43 = CARTESIAN_POINT ( 'NONE',  ( -0.6152055445546354973, -5.969096820685154015, 8.200950313297326488 ) ) ;
#44 = CARTESIAN_POINT ( 'NONE',  ( 0.000000000000000000, 0.000000000000000000, 12.00000000000000000 ) ) ;
#45 = CARTESIAN_POINT ( 'NONE',  ( 1.224646843869674801E-15, -6.000000000000000888, 10.00000000000000178 ) ) ;
#46 = AXIS2_PLACEMENT_3D ( 'NONE', #317, #458, #588 ) ;
#47 = DIRECTION ( 'NONE',  ( 1.000000000000000000, 0.000000000000000000, -0.000000000000000000 ) ) ;
#48 = PERSON_AND_ORGANIZATION ( #307, #417 ) ;
#49 = ORIENTED_EDGE ( 'NONE', *, *, #792, .T. ) ;
#50 = CYLINDRICAL_SURFACE ( 'NONE', #338, 7.500000000000000000 ) ;
#51 = DIRECTION ( 'NONE',  ( 1.000000000000000000, 0.000000000000000000, 0.000000000000000000 ) ) ;
#52 = APPROVAL_PERSON_ORGANIZATION ( #619, #515, #691 ) ;
#53 = FACE_OUTER_BOUND ( 'NONE', #289, .T. ) ;
#54 = CARTESIAN_POINT ( 'NONE',  ( 0.000000000000000000, 0.000000000000000000, 7.000000000000000000 ) ) ;
#55 = ADVANCED_FACE ( 'NONE', ( #549 ), #412, .T. ) ;
#56 = CYLINDRICAL_SURFACE ( 'NONE', #806, 1.000000000000000888 ) ;
#57 = VERTEX_POINT ( 'NONE', #735 ) ;
#58 = CARTESIAN_POINT ( 'NONE',  ( 0.000000000000000000, 0.000000000000000000, 12.00000000000000000 ) ) ;
#59 = CIRCLE ( 'NONE', #399, 6.000000000000000888 ) ;
#60 = B_SPLINE_CURVE_WITH_KNOTS ( 'NONE', 3,
 ( #271, #545, #349, #741, #799, #31, #93, #478, #616, #733, #29, #539, #96, #343, #611, #485, #796, #346 ),
 .UNSPECIFIED., .F., .F.,
 ( 4, 2, 2, 2, 2, 2, 2, 2, 4 ),
 ( 0.003131923598876997471, 0.003523316383094314812, 0.003914709167311632154, 0.004306101951528949062, 0.004697494735746265970, 0.005088887519963582878, 0.005480280304180900654, 0.005871673088398217562, 0.006263065872615534470 ),
 .UNSPECIFIED. ) ;
#61 = CIRCLE ( 'NONE', #535, 3.000000000000000444 ) ;
#62 = EDGE_CURVE ( 'NONE', #311, #773, #60, .T. ) ;
#63 = VERTEX_POINT ( 'NONE', #83 ) ;
#64 = CARTESIAN_POINT ( 'NONE',  ( 0.8726352009032818380, 2.870773295448569851, 9.505842428803797262 ) ) ;
#65 = ORIENTED_EDGE ( 'NONE', *, *, #690, .F. ) ;
#66 = CYLINDRICAL_SURFACE ( 'NONE', #812, 1.000000000000000888 ) ;
#67 = CARTESIAN_POINT ( 'NONE',  ( 0.8731730686977328126, 2.870597771626967276, 8.495520761189867542 ) ) ;
#68 = ORIENTED_EDGE ( 'NONE', *, *, #481, .T. ) ;
#69 = FACE_BOUND ( 'NONE', #713, .T. ) ;
#70 = CARTESIAN_POINT ( 'NONE',  ( 0.5039079366032440666, 5.980031194523152571, 9.873629318901869567 ) ) ;
#71 = ORIENTED_EDGE ( 'NONE', *, *, #209, .F. ) ;
#72 = DIRECTION ( 'NONE',  ( 0.000000000000000000, -0.000000000000000000, -1.000000000000000000 ) ) ;
#73 = AXIS2_PLACEMENT_3D ( 'NONE', #251, #141, #135 ) ;
#74 = ORIENTED_EDGE ( 'NONE', *, *, #633, .T. ) ;
#75 = CARTESIAN_POINT ( 'NONE',  ( 0.5044450885602788093, 2.959777218237579888, 9.873240183666244008 ) ) ;
#76 = LINE ( 'NONE', #650, #129 ) ;
#77 = ORIENTED_EDGE ( 'NONE', *, *, #403, .T. ) ;
#78 = ORIENTED_EDGE ( 'NONE', *, *, #752, .F. ) ;
#79 = CARTESIAN_POINT ( 'NONE',  ( -6.344288770224759233, 4.000000000000000888, 1.000000000000000888 ) ) ;
#80 = VECTOR ( 'NONE', #1, 999.9999999999998863 ) ;
#81 = MANIFOLD_SOLID_BREP ( 'Chanfrein1', #520 ) ;
#82 = DIRECTION ( 'NONE',  ( 0.000000000000000000, 0.000000000000000000, 1.000000000000000000 ) ) ;
#83 = CARTESIAN_POINT ( 'NONE',  ( 1.361204311820097079E-15, 3.000000000000000444, 8.000000000000000000 ) ) ;
#84 = CC_DESIGN_PERSON_AND_ORGANIZATION_ASSIGNMENT ( #232, #499, ( #193 ) ) ;
#85 = VERTEX_POINT ( 'NONE', #730 ) ;
#86 = LINE ( 'NONE', #156, #683 ) ;
#87 = CARTESIAN_POINT ( 'NONE',  ( 4.472135954999580498, 4.000000000000000888, 1.000000000000000888 ) ) ;
#88 = DIRECTION ( 'NONE',  ( 1.000000000000000000, 0.000000000000000000, -0.000000000000000000 ) ) ;
#89 = AXIS2_PLACEMENT_3D ( 'NONE', #58, #247, #718 ) ;
#90 = DIRECTION ( 'NONE',  ( 0.000000000000000000, 0.000000000000000000, 1.000000000000000000 ) ) ;
#91 = AXIS2_PLACEMENT_3D ( 'NONE', #244, #560, #39 ) ;
#92 = ORIENTED_EDGE ( 'NONE', *, *, #468, .F. ) ;
#93 = CARTESIAN_POINT ( 'NONE',  ( -0.8730424326980901206, 5.936362132114465950, 9.504993097814367076 ) ) ;
#94 = DIRECTION ( 'NONE',  ( 0.000000000000000000, 0.000000000000000000, -1.000000000000000000 ) ) ;
#95 = EDGE_CURVE ( 'NONE', #270, #186, #546, .T. ) ;
#96 = CARTESIAN_POINT ( 'NONE',  ( -0.7995298244854581737, 5.947211616899246600, 8.385439853801416987 ) ) ;
#97 = DIRECTION ( 'NONE',  ( 1.000000000000000000, 0.000000000000000000, 0.000000000000000000 ) ) ;
#98 = CARTESIAN_POINT ( 'NONE',  ( 8.150552576869213223E-16, -6.000000000000000888, 8.000000000000000000 ) ) ;
#99 = PERSON_AND_ORGANIZATION ( #307, #417 ) ;
#100 = VECTOR ( 'NONE', #285, 999.9999999999998863 ) ;
#101 = CARTESIAN_POINT ( 'NONE',  ( -0.2622916576876601624, -5.995491482261829930, 8.026150573531866783 ) ) ;
#102 = CARTESIAN_POINT ( 'NONE',  ( -0.7989206136896840338, -2.893216697231922208, 9.615362031785387842 ) ) ;
#103 = CARTESIAN_POINT ( 'NONE',  ( -0.5044069930203322061, -5.979990686694993229, 8.126642567720955057 ) ) ;
#104 = CARTESIAN_POINT ( 'NONE',  ( -6.344288770224757457, 4.000000000000000888, 0.000000000000000000 ) ) ;
#105 = EDGE_CURVE ( 'NONE', #455, #397, #762, .T. ) ;
#106 = CALENDAR_DATE ( 2023, 3, 12 ) ;
#107 = CARTESIAN_POINT ( 'NONE',  ( -0.8737888311110032502, -5.936248257219510549, 8.496558148587832093 ) ) ;
#108 = CARTESIAN_POINT ( 'NONE',  ( -0.9999346419223610338, -2.828450232312948120, 8.867979961448074988 ) ) ;
#109 = APPROVAL_ROLE ( '' ) ;
#110 = EDGE_CURVE ( 'NONE', #507, #327, #483, .T. ) ;
#111 = CARTESIAN_POINT ( 'NONE',  ( 0.2637757798543149956, 2.990867359021171623, 8.026561429234526202 ) ) ;
#112 = VERTEX_POINT ( 'NONE', #98 ) ;
#113 = DIRECTION ( 'NONE',  ( -0.000000000000000000, 0.000000000000000000, -1.000000000000000000 ) ) ;
#114 = AXIS2_PLACEMENT_3D ( 'NONE', #767, #183, #189 ) ;
#115 = DIRECTION ( 'NONE',  ( -0.000000000000000000, 0.000000000000000000, -1.000000000000000000 ) ) ;
#116 = SHAPE_DEFINITION_REPRESENTATION ( #357, #431 ) ;
#117 = ORIENTED_EDGE ( 'NONE', *, *, #823, .T. ) ;
#118 = CARTESIAN_POINT ( 'NONE',  ( 0.1323602877612188866, -6.000000000000001776, 8.000000000000001776 ) ) ;
#119 = EDGE_CURVE ( 'NONE', #703, #603, #143, .T. ) ;
#120 = CARTESIAN_POINT ( 'NONE',  ( -6.000000000000000888, 7.347880794884120722E-16, 7.000000000000000000 ) ) ;
#121 = ORIENTED_EDGE ( 'NONE', *, *, #781, .F. ) ;
#122 = DIRECTION ( 'NONE',  ( 0.000000000000000000, 0.000000000000000000, 1.000000000000000000 ) ) ;
#123 = ORIENTED_EDGE ( 'NONE', *, *, #110, .F. ) ;
#124 = CARTESIAN_POINT ( 'NONE',  ( 4.472135954999581386, -4.000000000000000000, 7.000000000000000000 ) ) ;
#125 = ORIENTED_EDGE ( 'NONE', *, *, #95, .T. ) ;
#126 = CARTESIAN_POINT ( 'NONE',  ( 0.2635765232843322314, 2.990864999518386025, 9.973417013471303605 ) ) ;
#127 = ORIENTED_EDGE ( 'NONE', *, *, #604, .T. ) ;
#128 = DIRECTION ( 'NONE',  ( 1.000000000000000000, -0.000000000000000000, -0.000000000000000000 ) ) ;
#129 = VECTOR ( 'NONE', #715, 1000.000000000000000 ) ;
#130 = CIRCLE ( 'NONE', #712, 3.000000000000000444 ) ;
#131 = ADVANCED_FACE ( 'NONE', ( #613 ), #34, .F. ) ;
#132 = AXIS2_PLACEMENT_3D ( 'NONE', #828, #550, #355 ) ;
#133 = VERTEX_POINT ( 'NONE', #419 ) ;
#134 = CARTESIAN_POINT ( 'NONE',  ( 1.224646843869674801E-15, -6.000000000000000888, 10.00000000000000178 ) ) ;
#135 = DIRECTION ( 'NONE',  ( 1.000000000000000000, 0.000000000000000000, 0.000000000000000000 ) ) ;
#136 = ORIENTED_EDGE ( 'NONE', *, *, #166, .T. ) ;
#137 = CARTESIAN_POINT ( 'NONE',  ( 0.000000000000000000, 0.000000000000000000, 12.00000000000000000 ) ) ;
#138 = ORIENTED_EDGE ( 'NONE', *, *, #487, .T. ) ;
#139 = CARTESIAN_POINT ( 'NONE',  ( 5.500000000000001776, 7.041719095097282852E-16, 12.00000000000000000 ) ) ;
#140 = CARTESIAN_POINT ( 'NONE',  ( 0.2619456584322036874, 5.995505046955615924, 9.973928060713522115 ) ) ;
#141 = DIRECTION ( 'NONE',  ( -0.000000000000000000, -0.000000000000000000, 1.000000000000000000 ) ) ;
#142 = ORIENTED_EDGE ( 'NONE', *, *, #41, .F. ) ;
#143 = B_SPLINE_CURVE_WITH_KNOTS ( 'NONE', 3,
 ( #280, #666, #337, #608, #736, #332, #157, #153, #602, #273, #23, #214, #542, #803, #801, #480, #415, #275 ),
 .UNSPECIFIED., .F., .F.,
 ( 4, 2, 2, 2, 2, 2, 2, 2, 4 ),
 ( 0.003149157204913743610, 0.003542701630937584393, 0.003936246056961425176, 0.004329790482985265525, 0.004723334909009106741, 0.005116879335032947090, 0.005510423761056787439, 0.005903968187080627789, 0.006297512613104469005 ),
 .UNSPECIFIED. ) ;
#144 = DIRECTION ( 'NONE',  ( 0.000000000000000000, 0.000000000000000000, 1.000000000000000000 ) ) ;
#145 = B_SPLINE_CURVE_WITH_KNOTS ( 'NONE', 3,
 ( #398, #18, #774, #596, #456, #261, #770, #253, #704, #199, #528, #315, #377, #642, #70, #140, #517, #310 ),
 .UNSPECIFIED., .F., .F.,
 ( 4, 2, 2, 2, 2, 2, 2, 2, 4 ),
 ( 3.457666632453333498E-19, 0.0003914904498596248465, 0.0007829808997192495845, 0.001174471349578874377, 0.001565961799438499386, 0.001957452249298123961, 0.002348942699157748320, 0.002740433149017372678, 0.003131923598876997471 ),
 .UNSPECIFIED. ) ;
#146 = EDGE_CURVE ( 'NONE', #455, #270, #680, .T. ) ;
#147 = ORIENTED_EDGE ( 'NONE', *, *, #268, .T. ) ;
#148 = DIRECTION ( 'NONE',  ( 0.000000000000000000, 0.000000000000000000, 1.000000000000000000 ) ) ;
#149 = CARTESIAN_POINT ( 'NONE',  ( 0.000000000000000000, -4.000000000000000000, 1.000000000000000888 ) ) ;
#150 = CARTESIAN_POINT ( 'NONE',  ( 0.000000000000000000, 0.000000000000000000, 1.000000000000000888 ) ) ;
#151 = LINE ( 'NONE', #218, #277 ) ;
#152 = DIRECTION ( 'NONE',  ( -1.000000000000000000, 0.000000000000000000, 0.000000000000000000 ) ) ;
#153 = CARTESIAN_POINT ( 'NONE',  ( 0.9738553564176405386, -2.838032335265711747, 9.262536234540611702 ) ) ;
#154 = EDGE_CURVE ( 'NONE', #397, #461, #556, .T. ) ;
#155 = VECTOR ( 'NONE', #255, 1000.000000000000000 ) ;
#156 = CARTESIAN_POINT ( 'NONE',  ( 3.000000000000000444, 0.000000000000000000, 7.000000000000000000 ) ) ;
#157 = CARTESIAN_POINT ( 'NONE',  ( 0.8727711819437034002, -2.870730265142594995, 9.505559090155330182 ) ) ;
#158 = B_SPLINE_CURVE_WITH_KNOTS ( 'NONE', 3,
 ( #174, #694, #111, #368, #716, #16, #67, #783, #182, #324, #248, #64, #192, #586, #75, #126, #7, #577 ),
 .UNSPECIFIED., .F., .F.,
 ( 4, 2, 2, 2, 2, 2, 2, 2, 4 ),
 ( 2.514632577472617807E-19, 0.0003936446506142181681, 0.0007872893012284360110, 0.001180933951842653854, 0.001574578602456871805, 0.001968223253071089973, 0.002361867903685307708, 0.002755512554299525876, 0.003149157204913743610 ),
 .UNSPECIFIED. ) ;
#159 = DIRECTION ( 'NONE',  ( 1.000000000000000000, 0.000000000000000000, 0.000000000000000000 ) ) ;
#160 = DIRECTION ( 'NONE',  ( -0.000000000000000000, -0.000000000000000000, 1.000000000000000000 ) ) ;
#161 = PERSON_AND_ORGANIZATION_ROLE ( 'design_owner' ) ;
#162 = DIRECTION ( 'NONE',  ( -0.000000000000000000, 0.000000000000000000, -1.000000000000000000 ) ) ;
#163 = LOCAL_TIME ( 17, 39, 19.00000000000000000, #236 ) ;
#164 = DATE_AND_TIME ( #567, #439 ) ;
#165 = CARTESIAN_POINT ( 'NONE',  ( 4.472135954999580498, 4.000000000000000888, 1.000000000000000888 ) ) ;
#166 = EDGE_CURVE ( 'NONE', #320, #637, #61, .T. ) ;
#167 = CARTESIAN_POINT ( 'NONE',  ( -0.2637757798543127197, -2.990867359021172955, 8.026561429234526202 ) ) ;
#168 = CALENDAR_DATE ( 2023, 3, 12 ) ;
#169 = ORIENTED_EDGE ( 'NONE', *, *, #225, .F. ) ;
#170 = CARTESIAN_POINT ( 'NONE',  ( 0.000000000000000000, 0.000000000000000000, 12.00000000000000000 ) ) ;
#171 = CARTESIAN_POINT ( 'NONE',  ( 0.000000000000000000, 0.000000000000000000, 1.000000000000000888 ) ) ;
#172 = PERSON_AND_ORGANIZATION ( #307, #417 ) ;
#173 = ORIENTED_EDGE ( 'NONE', *, *, #392, .F. ) ;
#174 = CARTESIAN_POINT ( 'NONE',  ( 1.361204311820097079E-15, 3.000000000000000444, 8.000000000000000000 ) ) ;
#175 = PLANE ( 'NONE',  #276 ) ;
#176 = EDGE_CURVE ( 'NONE', #260, #85, #647, .T. ) ;
#177 = COORDINATED_UNIVERSAL_TIME_OFFSET ( 1, 0, .AHEAD. ) ;
#178 = ORIENTED_EDGE ( 'NONE', *, *, #531, .F. ) ;
#179 = DIRECTION ( 'NONE',  ( 0.000000000000000000, 0.000000000000000000, 1.000000000000000000 ) ) ;
#180 = DIRECTION ( 'NONE',  ( 1.000000000000000000, 0.000000000000000000, -0.000000000000000000 ) ) ;
#181 = AXIS2_PLACEMENT_3D ( 'NONE', #677, #669, #405 ) ;
#182 = CARTESIAN_POINT ( 'NONE',  ( 0.9999346419223632543, 2.828450232312947232, 8.867979961448074988 ) ) ;
#183 = DIRECTION ( 'NONE',  ( 0.000000000000000000, 0.000000000000000000, 1.000000000000000000 ) ) ;
#184 = CARTESIAN_POINT ( 'NONE',  ( 1.102182119232618108E-15, 7.000000000000000000, 9.000000000000001776 ) ) ;
#185 = LOCAL_TIME ( 17, 39, 19.00000000000000000, #547 ) ;
#186 = VERTEX_POINT ( 'NONE', #361 ) ;
#187 = DIRECTION ( 'NONE',  ( 1.000000000000000000, 0.000000000000000000, 0.000000000000000000 ) ) ;
#188 = EDGE_LOOP ( 'NONE', ( #378, #65, #342, #513 ) ) ;
#189 = DIRECTION ( 'NONE',  ( 1.000000000000000000, 0.000000000000000000, 0.000000000000000000 ) ) ;
#190 = CYLINDRICAL_SURFACE ( 'NONE', #73, 3.000000000000000444 ) ;
#191 = EDGE_CURVE ( 'NONE', #260, #186, #239, .T. ) ;
#192 = CARTESIAN_POINT ( 'NONE',  ( 0.7989206136896868093, 2.893216697231922652, 9.615362031785386066 ) ) ;
#193 = PRODUCT_DEFINITION_FORMATION_WITH_SPECIFIED_SOURCE ( 'ANY', '', #789, .NOT_KNOWN. ) ;
#194 = DIRECTION ( 'NONE',  ( -1.000000000000000000, 0.000000000000000000, 0.000000000000000000 ) ) ;
#195 = CIRCLE ( 'NONE', #606, 5.500000000000001776 ) ;
#196 = CARTESIAN_POINT ( 'NONE',  ( 1.102182119232618108E-15, 7.000000000000000000, 9.000000000000001776 ) ) ;
#197 = PLANE ( 'NONE',  #413 ) ;
#198 = ORIENTED_EDGE ( 'NONE', *, *, #558, .T. ) ;
#199 = CARTESIAN_POINT ( 'NONE',  ( 1.000049560716555819, 5.916071405810145123, 9.130322009884677570 ) ) ;
#200 = CARTESIAN_POINT ( 'NONE',  ( 6.000000000000000888, 0.000000000000000000, 11.50000000000000000 ) ) ;
#201 = ORIENTED_EDGE ( 'NONE', *, *, #459, .T. ) ;
#202 = ORIENTED_EDGE ( 'NONE', *, *, #146, .F. ) ;
#203 = EDGE_CURVE ( 'NONE', #637, #320, #385, .T. ) ;
#204 = CARTESIAN_POINT ( 'NONE',  ( 4.472135954999580498, 4.000000000000000888, 7.000000000000000000 ) ) ;
#205 = DIRECTION ( 'NONE',  ( 0.000000000000000000, 0.000000000000000000, 1.000000000000000000 ) ) ;
#206 = AXIS2_PLACEMENT_3D ( 'NONE', #686, #230, #825 ) ;
#207 = ORIENTED_EDGE ( 'NONE', *, *, #830, .T. ) ;
#208 = DIRECTION ( 'NONE',  ( 1.000000000000000000, 0.000000000000000000, -0.000000000000000000 ) ) ;
#209 = EDGE_CURVE ( 'NONE', #603, #703, #641, .T. ) ;
#210 = CARTESIAN_POINT ( 'NONE',  ( -4.472135954999581386, -4.000000000000000000, 1.000000000000000888 ) ) ;
#211 = DIRECTION ( 'NONE',  ( 0.000000000000000000, -1.000000000000000000, 0.000000000000000000 ) ) ;
#212 = CARTESIAN_POINT ( 'NONE',  ( 0.000000000000000000, 0.000000000000000000, 12.00000000000000000 ) ) ;
#213 = PRODUCT_RELATED_PRODUCT_CATEGORY ( 'detail', '', ( #789 ) ) ;
#214 = CARTESIAN_POINT ( 'NONE',  ( 0.8730844665418073802, -2.870626768165734699, 8.495292444544610078 ) ) ;
#215 = CARTESIAN_POINT ( 'NONE',  ( 1.458071807189003929E-15, 6.000000000000000888, 8.000000000000000000 ) ) ;
#216 = LINE ( 'NONE', #210, #442 ) ;
#217 = AXIS2_PLACEMENT_3D ( 'NONE', #802, #90, #97 ) ;
#218 = CARTESIAN_POINT ( 'NONE',  ( 1.102182119232618108E-15, 7.000000000000000000, 8.000000000000000000 ) ) ;
#219 = AXIS2_PLACEMENT_3D ( 'NONE', #697, #115, #675 ) ;
#220 = DIRECTION ( 'NONE',  ( 0.000000000000000000, 0.000000000000000000, 1.000000000000000000 ) ) ;
#221 = EDGE_CURVE ( 'NONE', #133, #237, #130, .T. ) ;
#222 = DATE_TIME_ROLE ( 'creation_date' ) ;
#223 = ORIENTED_EDGE ( 'NONE', *, *, #154, .F. ) ;
#224 = DIRECTION ( 'NONE',  ( 1.000000000000000000, 0.000000000000000000, -0.000000000000000000 ) ) ;
#225 = EDGE_CURVE ( 'NONE', #237, #133, #340, .T. ) ;
#226 = DIRECTION ( 'NONE',  ( -0.000000000000000000, -0.000000000000000000, -1.000000000000000000 ) ) ;
#227 = CARTESIAN_POINT ( 'NONE',  ( -0.7989248838730175217, -2.893196282169685052, 8.384793181692165476 ) ) ;
#228 = AXIS2_PLACEMENT_3D ( 'NONE', #212, #265, #152 ) ;
#229 = AXIS2_PLACEMENT_3D ( 'NONE', #674, #805, #409 ) ;
#230 = DIRECTION ( 'NONE',  ( -0.000000000000000000, -0.000000000000000000, 1.000000000000000000 ) ) ;
#231 = FACE_OUTER_BOUND ( 'NONE', #28, .T. ) ;
#232 = PERSON_AND_ORGANIZATION ( #307, #417 ) ;
#233 = CARTESIAN_POINT ( 'NONE',  ( 8.150552576869213223E-16, -6.000000000000000888, 8.000000000000000000 ) ) ;
#234 = DIRECTION ( 'NONE',  ( 0.000000000000000000, 0.000000000000000000, 1.000000000000000000 ) ) ;
#235 = ADVANCED_FACE ( 'NONE', ( #231 ), #300, .F. ) ;
#236 = COORDINATED_UNIVERSAL_TIME_OFFSET ( 1, 0, .AHEAD. ) ;
#237 = VERTEX_POINT ( 'NONE', #701 ) ;
#238 = PLANE ( 'NONE',  #532 ) ;
#239 = LINE ( 'NONE', #635, #747 ) ;
#240 = PLANE ( 'NONE',  #132 ) ;
#241 = EDGE_LOOP ( 'NONE', ( #387, #621 ) ) ;
#242 = DIRECTION ( 'NONE',  ( 1.000000000000000000, 0.000000000000000000, 0.000000000000000000 ) ) ;
#243 = VECTOR ( 'NONE', #128, 1000.000000000000000 ) ;
#244 = CARTESIAN_POINT ( 'NONE',  ( 0.000000000000000000, 0.000000000000000000, 12.00000000000000000 ) ) ;
#245 = CARTESIAN_POINT ( 'NONE',  ( 1.224646799147353651E-15, 7.000000000000000000, 10.00000000000000178 ) ) ;
#246 = ORIENTED_EDGE ( 'NONE', *, *, #166, .F. ) ;
#247 = DIRECTION ( 'NONE',  ( 0.000000000000000000, 0.000000000000000000, -1.000000000000000000 ) ) ;
#248 = CARTESIAN_POINT ( 'NONE',  ( 0.9738938205569875883, 2.838020848055395451, 9.262487300482417751 ) ) ;
#249 = ORIENTED_EDGE ( 'NONE', *, *, #541, .T. ) ;
#250 = ADVANCED_FACE ( 'NONE', ( #574 ), #175, .T. ) ;
#251 = CARTESIAN_POINT ( 'NONE',  ( 0.000000000000000000, 0.000000000000000000, 7.000000000000000000 ) ) ;
#252 = EDGE_LOOP ( 'NONE', ( #15, #246 ) ) ;
#253 = CARTESIAN_POINT ( 'NONE',  ( 0.9735856429312845783, 5.920699391845025694, 8.737147160932726919 ) ) ;
#254 = VERTEX_POINT ( 'NONE', #104 ) ;
#255 = DIRECTION ( 'NONE',  ( -1.000000000000000000, 0.000000000000000000, 0.000000000000000000 ) ) ;
#256 = LINE ( 'NONE', #303, #80 ) ;
#257 = DIRECTION ( 'NONE',  ( 0.000000000000000000, -1.000000000000000000, 0.000000000000000000 ) ) ;
#258 = EDGE_CURVE ( 'NONE', #5, #186, #293, .T. ) ;
#259 = CIRCLE ( 'NONE', #313, 5.500000000000001776 ) ;
#260 = VERTEX_POINT ( 'NONE', #120 ) ;
#261 = CARTESIAN_POINT ( 'NONE',  ( 0.7993282387951123891, 5.947240459526509149, 8.385156417830426534 ) ) ;
#262 = CARTESIAN_POINT ( 'NONE',  ( -4.472135954999581386, -4.000000000000000000, 1.000000000000000888 ) ) ;
#263 = ADVANCED_FACE ( 'NONE', ( #689 ), #565, .F. ) ;
#264 = LINE ( 'NONE', #329, #339 ) ;
#265 = DIRECTION ( 'NONE',  ( 0.000000000000000000, 0.000000000000000000, -1.000000000000000000 ) ) ;
#266 = CARTESIAN_POINT ( 'NONE',  ( 9.884811061103578211, 4.000000000000000888, 7.000000000000000000 ) ) ;
#267 = CIRCLE ( 'NONE', #561, 7.500000000000000000 ) ;
#268 = EDGE_CURVE ( 'NONE', #397, #302, #497, .T. ) ;
#269 = PLANE ( 'NONE',  #575 ) ;
#270 = VERTEX_POINT ( 'NONE', #200 ) ;
#271 = CARTESIAN_POINT ( 'NONE',  ( 1.224646754425075493E-15, 6.000000000000000888, 10.00000000000000178 ) ) ;
#272 = LINE ( 'NONE', #341, #737 ) ;
#273 = CARTESIAN_POINT ( 'NONE',  ( 0.9999842939873376801, -2.828432677660176253, 8.868090805909300656 ) ) ;
#274 = DIRECTION ( 'NONE',  ( 0.000000000000000000, -1.000000000000000000, 0.000000000000000000 ) ) ;
#275 = CARTESIAN_POINT ( 'NONE',  ( 8.006752325800677023E-16, -3.000000000000000444, 8.000000000000000000 ) ) ;
#276 = AXIS2_PLACEMENT_3D ( 'NONE', #171, #374, #47 ) ;
#277 = VECTOR ( 'NONE', #211, 1000.000000000000000 ) ;
#278 = DIRECTION ( 'NONE',  ( -1.000000000000000000, 0.000000000000000000, 0.000000000000000000 ) ) ;
#279 = CC_DESIGN_SECURITY_CLASSIFICATION ( #777, ( #193 ) ) ;
#280 = CARTESIAN_POINT ( 'NONE',  ( 1.224690036305342912E-15, -3.000000000000000444, 10.00000000000000178 ) ) ;
#281 = EDGE_CURVE ( 'NONE', #320, #133, #76, .T. ) ;
#282 = COORDINATED_UNIVERSAL_TIME_OFFSET ( 1, 0, .AHEAD. ) ;
#283 = FACE_OUTER_BOUND ( 'NONE', #241, .T. ) ;
#284 = ORIENTED_EDGE ( 'NONE', *, *, #617, .T. ) ;
#285 = DIRECTION ( 'NONE',  ( -0.7071067811865469066, 0.000000000000000000, -0.7071067811865482389 ) ) ;
#286 = CARTESIAN_POINT ( 'NONE',  ( -0.9740807849836122800, -5.920620690450690837, 9.261498802993310520 ) ) ;
#287 = DIRECTION ( 'NONE',  ( 1.000000000000000000, 0.000000000000000000, 0.000000000000000000 ) ) ;
#288 = VECTOR ( 'NONE', #194, 1000.000000000000000 ) ;
#289 = EDGE_LOOP ( 'NONE', ( #353, #775, #77, #202, #705, #292, #656, #178 ) ) ;
#290 = CARTESIAN_POINT ( 'NONE',  ( 0.000000000000000000, 0.000000000000000000, 12.00000000000000000 ) ) ;
#291 = ADVANCED_FACE ( 'NONE', ( #453 ), #524, .T. ) ;
#292 = ORIENTED_EDGE ( 'NONE', *, *, #558, .F. ) ;
#293 = LINE ( 'NONE', #622, #100 ) ;
#294 = COORDINATED_UNIVERSAL_TIME_OFFSET ( 1, 0, .AHEAD. ) ;
#295 = ORIENTED_EDGE ( 'NONE', *, *, #670, .T. ) ;
#296 = CARTESIAN_POINT ( 'NONE',  ( 1.224646843869674801E-15, -6.000000000000000888, 10.00000000000000178 ) ) ;
#297 = CARTESIAN_POINT ( 'NONE',  ( 0.000000000000000000, 0.000000000000000000, 7.000000000000000000 ) ) ;
#298 = FACE_BOUND ( 'NONE', #252, .T. ) ;
#299 = FACE_BOUND ( 'NONE', #504, .T. ) ;
#300 = CYLINDRICAL_SURFACE ( 'NONE', #658, 1.000000000000000888 ) ;
#301 = FACE_OUTER_BOUND ( 'NONE', #450, .T. ) ;
#302 = VERTEX_POINT ( 'NONE', #597 ) ;
#303 = CARTESIAN_POINT ( 'NONE',  ( 5.500000000000001776, 6.735557395310443995E-16, 12.00000000000000000 ) ) ;
#304 = ORIENTED_EDGE ( 'NONE', *, *, #221, .T. ) ;
#305 = LINE ( 'NONE', #644, #827 ) ;
#306 = CIRCLE ( 'NONE', #219, 6.000000000000000888 ) ;
#307 = PERSON ( 'UNSPECIFIED', 'UNSPECIFIED', 'UNSPECIFIED', ('UNSPECIFIED'), ('UNSPECIFIED'), ('UNSPECIFIED') ) ;
#308 = ADVANCED_FACE ( 'NONE', ( #510, #322 ), #190, .F. ) ;
#309 = ORIENTED_EDGE ( 'NONE', *, *, #380, .F. ) ;
#310 = CARTESIAN_POINT ( 'NONE',  ( 1.224646754425075493E-15, 6.000000000000000888, 10.00000000000000178 ) ) ;
#311 = VERTEX_POINT ( 'NONE', #710 ) ;
#312 = CARTESIAN_POINT ( 'NONE',  ( -3.000000000000000444, 3.673940397442060361E-16, 7.000000000000000000 ) ) ;
#313 = AXIS2_PLACEMENT_3D ( 'NONE', #137, #582, #187 ) ;
#314 = ORIENTED_EDGE ( 'NONE', *, *, #62, .T. ) ;
#315 = CARTESIAN_POINT ( 'NONE',  ( 0.8736516769106875691, 5.936271176698235230, 9.503932284213240322 ) ) ;
#316 = ORIENTED_EDGE ( 'NONE', *, *, #604, .F. ) ;
#317 = CARTESIAN_POINT ( 'NONE',  ( 0.000000000000000000, 0.000000000000000000, 7.000000000000000000 ) ) ;
#318 = ORIENTED_EDGE ( 'NONE', *, *, #811, .F. ) ;
#319 = CARTESIAN_POINT ( 'NONE',  ( 6.344288770224761009, -4.000000000000000000, 0.000000000000000000 ) ) ;
#320 = VERTEX_POINT ( 'NONE', #312 ) ;
#321 = CC_DESIGN_APPROVAL ( #739, ( #193 ) ) ;
#322 = FACE_BOUND ( 'NONE', #452, .T. ) ;
#323 = ADVANCED_FACE ( 'NONE', ( #20 ), #197, .F. ) ;
#324 = CARTESIAN_POINT ( 'NONE',  ( 1.000065112068122763, 2.828404104156925669, 9.131028051652425148 ) ) ;
#325 = UNCERTAINTY_MEASURE_WITH_UNIT (LENGTH_MEASURE( 1.000000000000000082E-05 ), #482, 'distance_accuracy_value', 'NONE');
#326 = DIRECTION ( 'NONE',  ( -0.000000000000000000, -0.000000000000000000, -1.000000000000000000 ) ) ;
#327 = VERTEX_POINT ( 'NONE', #262 ) ;
#328 = ORIENTED_EDGE ( 'NONE', *, *, #119, .T. ) ;
#329 = CARTESIAN_POINT ( 'NONE',  ( 0.000000000000000000, 4.000000000000000888, 1.000000000000000888 ) ) ;
#330 = LINE ( 'NONE', #600, #489 ) ;
#331 = ORIENTED_EDGE ( 'NONE', *, *, #570, .T. ) ;
#332 = CARTESIAN_POINT ( 'NONE',  ( 0.7995630649473691731, -2.893047721466610156, 9.614617129537027296 ) ) ;
#333 = EDGE_CURVE ( 'NONE', #85, #766, #390, .T. ) ;
#334 = EDGE_LOOP ( 'NONE', ( #580, #331 ) ) ;
#335 = CARTESIAN_POINT ( 'NONE',  ( -0.9733197772037766038, 2.838207733611165740, 8.736078016159444459 ) ) ;
#336 = LINE ( 'NONE', #673, #424 ) ;
#337 = CARTESIAN_POINT ( 'NONE',  ( 0.2635503551046916582, -2.990876834969141917, 9.973459346340211695 ) ) ;
#338 = AXIS2_PLACEMENT_3D ( 'NONE', #170, #226, #758 ) ;
#339 = VECTOR ( 'NONE', #278, 1000.000000000000000 ) ;
#340 = CIRCLE ( 'NONE', #91, 3.000000000000000444 ) ;
#341 = CARTESIAN_POINT ( 'NONE',  ( 9.884811061103578211, 4.000000000000000888, 0.000000000000000000 ) ) ;
#342 = ORIENTED_EDGE ( 'NONE', *, *, #258, .T. ) ;
#343 = CARTESIAN_POINT ( 'NONE',  ( -0.6156307853269481489, 5.969051238897253420, 8.201294265893189106 ) ) ;
#344 = CARTESIAN_POINT ( 'NONE',  ( -0.2635503551046894932, 2.990876834969142806, 9.973459346340211695 ) ) ;
#345 = VECTOR ( 'NONE', #523, 1000.000000000000000 ) ;
#346 = CARTESIAN_POINT ( 'NONE',  ( 1.458071807189003929E-15, 6.000000000000000888, 8.000000000000000000 ) ) ;
#347 = CARTESIAN_POINT ( 'NONE',  ( -0.9999842939873353487, 2.828432677660176253, 8.868090805909300656 ) ) ;
#348 = EDGE_CURVE ( 'NONE', #436, #5, #195, .T. ) ;
#349 = CARTESIAN_POINT ( 'NONE',  ( -0.2624013748573147398, 5.995472630654521851, 9.973714403089177338 ) ) ;
#350 = VECTOR ( 'NONE', #122, 1000.000000000000000 ) ;
#351 = DATE_AND_TIME ( #363, #359 ) ;
#352 = CARTESIAN_POINT ( 'NONE',  ( -0.7993282387951101686, -5.947240459526509149, 8.385156417830426534 ) ) ;
#353 = ORIENTED_EDGE ( 'NONE', *, *, #176, .F. ) ;
#354 = CARTESIAN_POINT ( 'NONE',  ( -0.5044450885602764778, -2.959777218237579888, 9.873240183666244008 ) ) ;
#355 = DIRECTION ( 'NONE',  ( 1.000000000000000000, 0.000000000000000000, -0.000000000000000000 ) ) ;
#356 = ADVANCED_FACE ( 'NONE', ( #384 ), #66, .F. ) ;
#357 = PRODUCT_DEFINITION_SHAPE ( 'NONE', 'NONE',  #472 ) ;
#358 = DIRECTION ( 'NONE',  ( 1.000000000000000000, 0.000000000000000000, 0.000000000000000000 ) ) ;
#359 = LOCAL_TIME ( 17, 39, 19.00000000000000000, #282 ) ;
#360 = CARTESIAN_POINT ( 'NONE',  ( 0.8738118504725678193, -5.936246475285032353, 8.496427578257570445 ) ) ;
#361 = CARTESIAN_POINT ( 'NONE',  ( -6.000000000000000888, 7.347880794884120722E-16, 11.50000000000000000 ) ) ;
#362 = CC_DESIGN_PERSON_AND_ORGANIZATION_ASSIGNMENT ( #48, #430, ( #777 ) ) ;
#363 = CALENDAR_DATE ( 2023, 3, 12 ) ;
#364 = ORIENTED_EDGE ( 'NONE', *, *, #418, .T. ) ;
#365 = CARTESIAN_POINT ( 'NONE',  ( -0.2619456584322014114, -5.995505046955617701, 9.973928060713522115 ) ) ;
#366 = DIRECTION ( 'NONE',  ( 1.000000000000000000, 0.000000000000000000, 0.000000000000000000 ) ) ;
#367 = SECURITY_CLASSIFICATION_LEVEL ( 'unclassified' ) ;
#368 = CARTESIAN_POINT ( 'NONE',  ( 0.5056087024404416486, 2.959598800735079749, 8.127348779231827081 ) ) ;
#369 = DIRECTION ( 'NONE',  ( 1.000000000000000000, 0.000000000000000000, 0.000000000000000000 ) ) ;
#370 = PERSON_AND_ORGANIZATION ( #307, #417 ) ;
#371 = ORIENTED_EDGE ( 'NONE', *, *, #375, .F. ) ;
#372 = CARTESIAN_POINT ( 'NONE',  ( 1.000079958708138150, -5.916066267613700802, 8.868472611179656795 ) ) ;
#373 = ORIENTED_EDGE ( 'NONE', *, *, #481, .F. ) ;
#374 = DIRECTION ( 'NONE',  ( 0.000000000000000000, 0.000000000000000000, 1.000000000000000000 ) ) ;
#375 = EDGE_CURVE ( 'NONE', #820, #593, #780, .T. ) ;
#376 = B_SPLINE_CURVE_WITH_KNOTS ( 'NONE', 3,
 ( #734, #30, #344, #26, #610, #800, #32, #543, #21, #347, #335, #35, #612, #406, #416, #614, #536, #679 ),
 .UNSPECIFIED., .F., .F.,
 ( 4, 2, 2, 2, 2, 2, 2, 2, 4 ),
 ( 0.003149157204913743610, 0.003542701630937584393, 0.003936246056961425176, 0.004329790482985265525, 0.004723334909009106741, 0.005116879335032947090, 0.005510423761056787439, 0.005903968187080627789, 0.006297512613104469005 ),
 .UNSPECIFIED. ) ;
#377 = CARTESIAN_POINT ( 'NONE',  ( 0.8002302970946543192, 5.947135855825866457, 9.613982267877013044 ) ) ;
#378 = ORIENTED_EDGE ( 'NONE', *, *, #670, .F. ) ;
#379 = DIRECTION ( 'NONE',  ( 1.000000000000000000, 0.000000000000000000, 0.000000000000000000 ) ) ;
#380 = EDGE_CURVE ( 'NONE', #634, #779, #449, .T. ) ;
#381 = CARTESIAN_POINT ( 'NONE',  ( 1.224690036305342912E-15, -3.000000000000000444, 10.00000000000000178 ) ) ;
#382 = AXIS2_PLACEMENT_3D ( 'NONE', #400, #653, #379 ) ;
#383 = ORIENTED_EDGE ( 'NONE', *, *, #487, .F. ) ;
#384 = FACE_OUTER_BOUND ( 'NONE', #522, .T. ) ;
#385 = CIRCLE ( 'NONE', #609, 3.000000000000000444 ) ;
#386 = LOCAL_TIME ( 17, 39, 19.00000000000000000, #177 ) ;
#387 = ORIENTED_EDGE ( 'NONE', *, *, #690, .T. ) ;
#388 = CARTESIAN_POINT ( 'NONE',  ( 0.000000000000000000, 0.000000000000000000, 1.000000000000000888 ) ) ;
#389 = ORIENTED_EDGE ( 'NONE', *, *, #531, .T. ) ;
#390 = LINE ( 'NONE', #776, #243 ) ;
#391 = ORIENTED_EDGE ( 'NONE', *, *, #752, .T. ) ;
#392 = EDGE_CURVE ( 'NONE', #634, #576, #305, .T. ) ;
#393 = CARTESIAN_POINT ( 'NONE',  ( 1.224646799147353651E-15, 7.000000000000000000, 10.00000000000000178 ) ) ;
#394 = ORIENTED_EDGE ( 'NONE', *, *, #105, .T. ) ;
#395 = CARTESIAN_POINT ( 'NONE',  ( 0.000000000000000000, 0.000000000000000000, 12.00000000000000000 ) ) ;
#396 = ORIENTED_EDGE ( 'NONE', *, *, #225, .T. ) ;
#397 = VERTEX_POINT ( 'NONE', #124 ) ;
#398 = CARTESIAN_POINT ( 'NONE',  ( 1.458071807189003929E-15, 6.000000000000000888, 8.000000000000000000 ) ) ;
#399 = AXIS2_PLACEMENT_3D ( 'NONE', #533, #727, #242 ) ;
#400 = CARTESIAN_POINT ( 'NONE',  ( 0.000000000000000000, 0.000000000000000000, 11.50000000000000000 ) ) ;
#401 = ORIENTED_EDGE ( 'NONE', *, *, #348, .F. ) ;
#402 = CARTESIAN_POINT ( 'NONE',  ( -6.344288770224761009, -4.000000000000000000, 1.000000000000000888 ) ) ;
#403 = EDGE_CURVE ( 'NONE', #186, #270, #790, .T. ) ;
#404 = ORIENTED_EDGE ( 'NONE', *, *, #392, .T. ) ;
#405 = DIRECTION ( 'NONE',  ( 1.000000000000000000, 0.000000000000000000, 0.000000000000000000 ) ) ;
#406 = CARTESIAN_POINT ( 'NONE',  ( -0.6155931879056327771, 2.937675415082904973, 8.201347210304728463 ) ) ;
#407 = FACE_OUTER_BOUND ( 'NONE', #188, .T. ) ;
#408 = ORIENTED_EDGE ( 'NONE', *, *, #526, .T. ) ;
#409 = DIRECTION ( 'NONE',  ( 1.000000000000000000, 0.000000000000000000, 0.000000000000000000 ) ) ;
#410 = ADVANCED_FACE ( 'NONE', ( #69, #591 ), #721, .F. ) ;
#411 = CARTESIAN_POINT ( 'NONE',  ( -4.472135954999580498, 4.000000000000000888, 1.000000000000000888 ) ) ;
#412 = PLANE ( 'NONE',  #618 ) ;
#413 = AXIS2_PLACEMENT_3D ( 'NONE', #17, #584, #72 ) ;
#414 = CARTESIAN_POINT ( 'NONE',  ( 0.000000000000000000, 0.000000000000000000, 1.000000000000000888 ) ) ;
#415 = CARTESIAN_POINT ( 'NONE',  ( 0.1331385214838921860, -3.000000000000000444, 8.000000000000001776 ) ) ;
#416 = CARTESIAN_POINT ( 'NONE',  ( -0.5055463730062499383, 2.959608675216975460, 8.127316047744331584 ) ) ;
#417 = ORGANIZATION ( 'UNSPECIFIED', 'UNSPECIFIED', '' ) ;
#418 = EDGE_CURVE ( 'NONE', #516, #759, #579, .T. ) ;
#419 = CARTESIAN_POINT ( 'NONE',  ( -3.000000000000000444, 3.673940397442060361E-16, 12.00000000000000000 ) ) ;
#420 = DATE_AND_TIME ( #106, #163 ) ;
#421 = DIRECTION ( 'NONE',  ( 1.000000000000000000, 0.000000000000000000, -0.000000000000000000 ) ) ;
#422 = ORIENTED_EDGE ( 'NONE', *, *, #333, .F. ) ;
#423 = CARTESIAN_POINT ( 'NONE',  ( -0.6159197602761817825, -2.937602516701900868, 8.201624619451919784 ) ) ;
#424 = VECTOR ( 'NONE', #537, 1000.000000000000000 ) ;
#425 = APPROVAL_DATE_TIME ( #420, #739 ) ;
#426 = VECTOR ( 'NONE', #696, 1000.000000000000000 ) ;
#427 = DIRECTION ( 'NONE',  ( -0.000000000000000000, -0.000000000000000000, 1.000000000000000000 ) ) ;
#428 = CARTESIAN_POINT ( 'NONE',  ( -0.2635765232843300665, -2.990864999518385581, 9.973417013471301829 ) ) ;
#429 = ADVANCED_FACE ( 'NONE', ( #462 ), #615, .T. ) ;
#430 = PERSON_AND_ORGANIZATION_ROLE ( 'classification_officer' ) ;
#431 = ADVANCED_BREP_SHAPE_REPRESENTATION ( 'PiÞce5_Guide_DÚfaut_sldprt', ( #81, #678 ), #728 ) ;
#432 = ORIENTED_EDGE ( 'NONE', *, *, #105, .F. ) ;
#433 = CARTESIAN_POINT ( 'NONE',  ( -0.8002302970946518768, -5.947135855825865569, 9.613982267877009491 ) ) ;
#434 = CARTESIAN_POINT ( 'NONE',  ( -0.8731730686977302591, -2.870597771626967720, 8.495520761189867542 ) ) ;
#435 = DATE_AND_TIME ( #168, #185 ) ;
#436 = VERTEX_POINT ( 'NONE', #139 ) ;
#437 = CARTESIAN_POINT ( 'NONE',  ( 0.2638277032948931899, -5.995407492418038053, 8.026679447184822180 ) ) ;
#438 = CARTESIAN_POINT ( 'NONE',  ( 6.000000000000000888, 0.000000000000000000, 1.000000000000000888 ) ) ;
#439 = LOCAL_TIME ( 17, 39, 19.00000000000000000, #294 ) ;
#440 = APPROVAL_DATE_TIME ( #753, #623 ) ;
#441 = EDGE_LOOP ( 'NONE', ( #599, #136, #49, #396 ) ) ;
#442 = VECTOR ( 'NONE', #160, 1000.000000000000000 ) ;
#443 = CARTESIAN_POINT ( 'NONE',  ( 0.7995298244854599501, -5.947211616899246600, 8.385439853801418764 ) ) ;
#444 = CARTESIAN_POINT ( 'NONE',  ( 1.224690036305342912E-15, -3.000000000000000444, 10.00000000000000178 ) ) ;
#445 = ORIENTED_EDGE ( 'NONE', *, *, #268, .F. ) ;
#446 = LINE ( 'NONE', #720, #350 ) ;
#447 = EDGE_LOOP ( 'NONE', ( #511, #831, #304, #816 ) ) ;
#448 = CC_DESIGN_DATE_AND_TIME_ASSIGNMENT ( #164, #698, ( #777 ) ) ;
#449 = LINE ( 'NONE', #521, #288 ) ;
#450 = EDGE_LOOP ( 'NONE', ( #791, #555, #740, #795, #394, #147 ) ) ;
#451 = FACE_BOUND ( 'NONE', #334, .T. ) ;
#452 = EDGE_LOOP ( 'NONE', ( #316, #121 ) ) ;
#453 = FACE_OUTER_BOUND ( 'NONE', #699, .T. ) ;
#454 = ADVANCED_FACE ( 'NONE', ( #27 ), #269, .F. ) ;
#455 = VERTEX_POINT ( 'NONE', #788 ) ;
#456 = CARTESIAN_POINT ( 'NONE',  ( 0.6152055445546374957, 5.969096820685152238, 8.200950313297324712 ) ) ;
#457 = VERTEX_POINT ( 'NONE', #87 ) ;
#458 = DIRECTION ( 'NONE',  ( -0.000000000000000000, -0.000000000000000000, 1.000000000000000000 ) ) ;
#459 = EDGE_CURVE ( 'NONE', #507, #779, #336, .T. ) ;
#460 = LINE ( 'NONE', #245, #345 ) ;
#461 = VERTEX_POINT ( 'NONE', #668 ) ;
#462 = FACE_OUTER_BOUND ( 'NONE', #601, .T. ) ;
#463 = ORIENTED_EDGE ( 'NONE', *, *, #380, .T. ) ;
#464 = CARTESIAN_POINT ( 'NONE',  ( 0.000000000000000000, 0.000000000000000000, 7.000000000000000000 ) ) ;
#465 = DIRECTION ( 'NONE',  ( 0.000000000000000000, 0.000000000000000000, 1.000000000000000000 ) ) ;
#466 = ORIENTED_EDGE ( 'NONE', *, *, #823, .F. ) ;
#467 = CYLINDRICAL_SURFACE ( 'NONE', #12, 1.000000000000000888 ) ;
#468 = EDGE_CURVE ( 'NONE', #593, #254, #518, .T. ) ;
#469 = CARTESIAN_POINT ( 'NONE',  ( 0.000000000000000000, 0.000000000000000000, 1.000000000000000888 ) ) ;
#470 = DIRECTION ( 'NONE',  ( 1.000000000000000000, -0.000000000000000000, -0.000000000000000000 ) ) ;
#471 = CARTESIAN_POINT ( 'NONE',  ( 1.102182119232618108E-15, 7.000000000000000000, 8.000000000000000000 ) ) ;
#472 = PRODUCT_DEFINITION ( 'UNKNOWN', '', #193, #624 ) ;
#473 = ORIENTED_EDGE ( 'NONE', *, *, #119, .F. ) ;
#474 = DIRECTION ( 'NONE',  ( 0.000000000000000000, 0.000000000000000000, 1.000000000000000000 ) ) ;
#475 = APPLICATION_PROTOCOL_DEFINITION ( 'international standard', 'config_control_design', 1994, #479 ) ;
#476 = LINE ( 'NONE', #471, #743 ) ;
#477 = ORIENTED_EDGE ( 'NONE', *, *, #541, .F. ) ;
#478 = CARTESIAN_POINT ( 'NONE',  ( -0.9737778612005462131, 5.920671847850518255, 9.262636241153495931 ) ) ;
#479 = APPLICATION_CONTEXT ( 'configuration controlled 3d designs of mechanical parts and assemblies' ) ;
#480 = CARTESIAN_POINT ( 'NONE',  ( 0.2637502104041445361, -2.990868849045562605, 8.026557530053201717 ) ) ;
#481 = EDGE_CURVE ( 'NONE', #820, #759, #267, .T. ) ;
#482 =( LENGTH_UNIT ( ) NAMED_UNIT ( * ) SI_UNIT ( .MILLI., .METRE. ) );
#483 = LINE ( 'NONE', #37, #36 ) ;
#484 = AXIS2_PLACEMENT_3D ( 'NONE', #414, #148, #159 ) ;
#485 = CARTESIAN_POINT ( 'NONE',  ( -0.2638277032948907475, 5.995407492418041606, 8.026679447184823957 ) ) ;
#486 = CARTESIAN_POINT ( 'NONE',  ( 6.344288770224761009, -4.000000000000000000, 1.000000000000000888 ) ) ;
#487 = EDGE_CURVE ( 'NONE', #461, #576, #607, .T. ) ;
#488 = CARTESIAN_POINT ( 'NONE',  ( -0.9738938205569849238, -2.838020848055395895, 9.262487300482415975 ) ) ;
#489 = VECTOR ( 'NONE', #22, 1000.000000000000000 ) ;
#490 = APPROVAL_STATUS ( 'not_yet_approved' ) ;
#491 = AXIS2_PLACEMENT_3D ( 'NONE', #297, #162, #366 ) ;
#492 = CARTESIAN_POINT ( 'NONE',  ( -0.5039079366032415130, -5.980031194523152571, 9.873629318901871343 ) ) ;
#493 = CARTESIAN_POINT ( 'NONE',  ( -0.1331724280847634556, -3.000000000000001332, 8.000000000000000000 ) ) ;
#494 = PERSON_AND_ORGANIZATION ( #307, #417 ) ;
#495 = CIRCLE ( 'NONE', #798, 6.000000000000000888 ) ;
#496 = CARTESIAN_POINT ( 'NONE',  ( 6.344288770224759233, 4.000000000000000888, 0.000000000000000000 ) ) ;
#497 = LINE ( 'NONE', #661, #672 ) ;
#498 = ADVANCED_FACE ( 'NONE', ( #407 ), #502, .T. ) ;
#499 = PERSON_AND_ORGANIZATION_ROLE ( 'design_supplier' ) ;
#500 = CARTESIAN_POINT ( 'NONE',  ( 0.9737778612005494328, -5.920671847850519143, 9.262636241153495931 ) ) ;
#501 = CARTESIAN_POINT ( 'NONE',  ( -0.6147613726084324437, -2.937864098093798670, 9.799382906928805426 ) ) ;
#502 = CONICAL_SURFACE ( 'NONE', #228, 5.500000000000001776, 0.7853981633974473908 ) ;
#503 = CC_DESIGN_DATE_AND_TIME_ASSIGNMENT ( #351, #222, ( #472 ) ) ;
#504 = EDGE_LOOP ( 'NONE', ( #74, #314 ) ) ;
#505 = CARTESIAN_POINT ( 'NONE',  ( 0.5031281619707754782, -5.980084330432667628, 9.873977272554743223 ) ) ;
#506 = DIRECTION ( 'NONE',  ( -0.000000000000000000, -0.000000000000000000, 1.000000000000000000 ) ) ;
#507 = VERTEX_POINT ( 'NONE', #402 ) ;
#508 = DIRECTION ( 'NONE',  ( 0.000000000000000000, -1.000000000000000000, 0.000000000000000000 ) ) ;
#509 = ORIENTED_EDGE ( 'NONE', *, *, #221, .F. ) ;
#510 = FACE_OUTER_BOUND ( 'NONE', #441, .T. ) ;
#511 = ORIENTED_EDGE ( 'NONE', *, *, #203, .T. ) ;
#512 = FACE_OUTER_BOUND ( 'NONE', #527, .T. ) ;
#513 = ORIENTED_EDGE ( 'NONE', *, *, #95, .F. ) ;
#514 = CARTESIAN_POINT ( 'NONE',  ( 6.344288770224759233, 4.000000000000000888, 12.00000000000000000 ) ) ;
#515 = APPROVAL ( #490, 'UNSPECIFIED' ) ;
#516 = VERTEX_POINT ( 'NONE', #411 ) ;
#517 = CARTESIAN_POINT ( 'NONE',  ( 0.1306497350717341355, 6.000000000000000888, 10.00000000000000355 ) ) ;
#518 = CIRCLE ( 'NONE', #761, 7.500000000000000000 ) ;
#519 = ORIENTED_EDGE ( 'NONE', *, *, #459, .F. ) ;
#520 = CLOSED_SHELL ( 'NONE', ( #429, #645, #235, #410, #581, #729, #308, #566, #263, #250, #291, #454, #55, #552, #323, #131, #10, #771, #356, #498 ) ) ;
#521 = CARTESIAN_POINT ( 'NONE',  ( 9.884811061103578211, -4.000000000000000000, -0.000000000000000000 ) ) ;
#522 = EDGE_LOOP ( 'NONE', ( #587, #757, #408, #127 ) ) ;
#523 = DIRECTION ( 'NONE',  ( 0.000000000000000000, -1.000000000000000000, 0.000000000000000000 ) ) ;
#524 = CYLINDRICAL_SURFACE ( 'NONE', #544, 7.500000000000000000 ) ;
#525 = ORIENTED_EDGE ( 'NONE', *, *, #25, .F. ) ;
#526 = EDGE_CURVE ( 'NONE', #773, #63, #476, .T. ) ;
#527 = EDGE_LOOP ( 'NONE', ( #824, #667, #142, #249, #223, #432, #583, #125 ) ) ;
#528 = CARTESIAN_POINT ( 'NONE',  ( 0.9740807849836146115, 5.920620690450689061, 9.261498802993310520 ) ) ;
#529 = CARTESIAN_POINT ( 'NONE',  ( 0.000000000000000000, 0.000000000000000000, 0.000000000000000000 ) ) ;
#530 = ORIENTED_EDGE ( 'NONE', *, *, #468, .T. ) ;
#531 = EDGE_CURVE ( 'NONE', #85, #516, #330, .T. ) ;
#532 = AXIS2_PLACEMENT_3D ( 'NONE', #290, #179, #421 ) ;
#533 = CARTESIAN_POINT ( 'NONE',  ( 0.000000000000000000, 0.000000000000000000, 1.000000000000000888 ) ) ;
#534 = DIRECTION ( 'NONE',  ( 0.000000000000000000, 1.000000000000000000, -0.000000000000000000 ) ) ;
#535 = AXIS2_PLACEMENT_3D ( 'NONE', #809, #113, #369 ) ;
#536 = CARTESIAN_POINT ( 'NONE',  ( -0.1331385214838899933, 3.000000000000001776, 8.000000000000001776 ) ) ;
#537 = DIRECTION ( 'NONE',  ( -0.000000000000000000, -0.000000000000000000, -1.000000000000000000 ) ) ;
#538 = ORIENTED_EDGE ( 'NONE', *, *, #711, .T. ) ;
#539 = CARTESIAN_POINT ( 'NONE',  ( -0.8738118504725669311, 5.936246475285031465, 8.496427578257568669 ) ) ;
#540 = CARTESIAN_POINT ( 'NONE',  ( 1.102182119232618108E-15, 7.000000000000000000, 9.000000000000001776 ) ) ;
#541 = EDGE_CURVE ( 'NONE', #327, #461, #59, .T. ) ;
#542 = CARTESIAN_POINT ( 'NONE',  ( 0.7988706027417821209, -2.893215784806470126, 8.384689499879252494 ) ) ;
#543 = CARTESIAN_POINT ( 'NONE',  ( -0.9738553564176380961, 2.838032335265713080, 9.262536234540611702 ) ) ;
#544 = AXIS2_PLACEMENT_3D ( 'NONE', #768, #326, #6 ) ;
#545 = CARTESIAN_POINT ( 'NONE',  ( -0.1306171417088598241, 6.000000000000000888, 10.00000000000000355 ) ) ;
#546 = CIRCLE ( 'NONE', #181, 6.000000000000000888 ) ;
#547 = COORDINATED_UNIVERSAL_TIME_OFFSET ( 1, 0, .AHEAD. ) ;
#548 = APPROVAL_PERSON_ORGANIZATION ( #494, #623, #756 ) ;
#549 = FACE_OUTER_BOUND ( 'NONE', #573, .T. ) ;
#550 = DIRECTION ( 'NONE',  ( 0.000000000000000000, -0.000000000000000000, 1.000000000000000000 ) ) ;
#551 = VECTOR ( 'NONE', #508, 1000.000000000000000 ) ;
#552 = ADVANCED_FACE ( 'NONE', ( #283, #807 ), #238, .T. ) ;
#553 = PERSON_AND_ORGANIZATION_ROLE ( 'creator' ) ;
#554 = FACE_OUTER_BOUND ( 'NONE', #639, .T. ) ;
#555 = ORIENTED_EDGE ( 'NONE', *, *, #176, .T. ) ;
#556 = LINE ( 'NONE', #746, #426 ) ;
#557 = APPLICATION_PROTOCOL_DEFINITION ( 'international standard', 'config_control_design', 1994, #594 ) ;
#558 = EDGE_CURVE ( 'NONE', #457, #766, #627, .T. ) ;
#559 = CARTESIAN_POINT ( 'NONE',  ( 0.9999196734182672630, -5.916093360767513687, 9.132740440449312658 ) ) ;
#560 = DIRECTION ( 'NONE',  ( 0.000000000000000000, 0.000000000000000000, 1.000000000000000000 ) ) ;
#561 = AXIS2_PLACEMENT_3D ( 'NONE', #469, #82, #797 ) ;
#562 = APPROVAL_DATE_TIME ( #435, #515 ) ;
#563 = ORIENTED_EDGE ( 'NONE', *, *, #418, .F. ) ;
#564 = CARTESIAN_POINT ( 'NONE',  ( 0.9739805876847941191, -5.920636045238167000, 8.738286131855776517 ) ) ;
#565 = PLANE ( 'NONE',  #24 ) ;
#566 = ADVANCED_FACE ( 'NONE', ( #554 ), #50, .T. ) ;
#567 = CALENDAR_DATE ( 2023, 3, 12 ) ;
#568 = CARTESIAN_POINT ( 'NONE',  ( 0.1306171417088624331, -6.000000000000000000, 10.00000000000000178 ) ) ;
#569 = DIRECTION ( 'NONE',  ( 0.000000000000000000, 0.000000000000000000, -1.000000000000000000 ) ) ;
#570 = EDGE_CURVE ( 'NONE', #709, #112, #692, .T. ) ;
#571 = ORIENTED_EDGE ( 'NONE', *, *, #764, .F. ) ;
#572 = CARTESIAN_POINT ( 'NONE',  ( 0.2624013748573179594, -5.995472630654520962, 9.973714403089179115 ) ) ;
#573 = EDGE_LOOP ( 'NONE', ( #466, #68, #563, #525 ) ) ;
#574 = FACE_OUTER_BOUND ( 'NONE', #631, .T. ) ;
#575 = AXIS2_PLACEMENT_3D ( 'NONE', #529, #144, #208 ) ;
#576 = VERTEX_POINT ( 'NONE', #486 ) ;
#577 = CARTESIAN_POINT ( 'NONE',  ( 1.224603561978757760E-15, 3.000000000000000444, 10.00000000000000178 ) ) ;
#578 = EDGE_LOOP ( 'NONE', ( #391, #371, #117, #198, #422, #389, #364, #654 ) ) ;
#579 = LINE ( 'NONE', #9, #155 ) ;
#580 = ORIENTED_EDGE ( 'NONE', *, *, #592, .T. ) ;
#581 = ADVANCED_FACE ( 'NONE', ( #299, #53 ), #817, .T. ) ;
#582 = DIRECTION ( 'NONE',  ( 0.000000000000000000, 0.000000000000000000, 1.000000000000000000 ) ) ;
#583 = ORIENTED_EDGE ( 'NONE', *, *, #146, .T. ) ;
#584 = DIRECTION ( 'NONE',  ( 0.000000000000000000, -1.000000000000000000, 0.000000000000000000 ) ) ;
#585 = ORIENTED_EDGE ( 'NONE', *, *, #154, .T. ) ;
#586 = CARTESIAN_POINT ( 'NONE',  ( 0.6147613726084354413, 2.937864098093798670, 9.799382906928800097 ) ) ;
#587 = ORIENTED_EDGE ( 'NONE', *, *, #711, .F. ) ;
#588 = DIRECTION ( 'NONE',  ( 1.000000000000000000, 0.000000000000000000, 0.000000000000000000 ) ) ;
#589 = DIRECTION ( 'NONE',  ( 0.000000000000000000, -1.000000000000000000, 0.000000000000000000 ) ) ;
#590 = ORIENTED_EDGE ( 'NONE', *, *, #526, .F. ) ;
#591 = FACE_OUTER_BOUND ( 'NONE', #447, .T. ) ;
#592 = EDGE_CURVE ( 'NONE', #112, #709, #13, .T. ) ;
#593 = VERTEX_POINT ( 'NONE', #496 ) ;
#594 = APPLICATION_CONTEXT ( 'configuration controlled 3d designs of mechanical parts and assemblies' ) ;
#595 = ORIENTED_EDGE ( 'NONE', *, *, #764, .T. ) ;
#596 = CARTESIAN_POINT ( 'NONE',  ( 0.5044069930203344265, 5.979990686694991453, 8.126642567720953281 ) ) ;
#597 = CARTESIAN_POINT ( 'NONE',  ( -4.472135954999581386, -4.000000000000000000, 7.000000000000000000 ) ) ;
#598 = CC_DESIGN_PERSON_AND_ORGANIZATION_ASSIGNMENT ( #819, #553, ( #193 ) ) ;
#599 = ORIENTED_EDGE ( 'NONE', *, *, #281, .F. ) ;
#600 = CARTESIAN_POINT ( 'NONE',  ( -4.472135954999580498, 4.000000000000000888, 1.000000000000000888 ) ) ;
#601 = EDGE_LOOP ( 'NONE', ( #401, #295, #663, #782 ) ) ;
#602 = CARTESIAN_POINT ( 'NONE',  ( 1.000015691822939035, -2.828421576849030394, 9.131670952813829345 ) ) ;
#603 = VERTEX_POINT ( 'NONE', #754 ) ;
#604 = EDGE_CURVE ( 'NONE', #63, #57, #158, .T. ) ;
#605 = CARTESIAN_POINT ( 'NONE',  ( -6.344288770224761009, -4.000000000000000000, 0.000000000000000000 ) ) ;
#606 = AXIS2_PLACEMENT_3D ( 'NONE', #395, #465, #3 ) ;
#607 = LINE ( 'NONE', #149, #646 ) ;
#608 = CARTESIAN_POINT ( 'NONE',  ( 0.5048818755377061374, -2.959712371732153624, 9.873027021578621998 ) ) ;
#609 = AXIS2_PLACEMENT_3D ( 'NONE', #54, #640, #287 ) ;
#610 = CARTESIAN_POINT ( 'NONE',  ( -0.6149058025954721174, 2.937842246861731788, 9.799341081568300638 ) ) ;
#611 = CARTESIAN_POINT ( 'NONE',  ( -0.5042987395407704243, 5.979983180450076041, 8.126706958200232478 ) ) ;
#612 = CARTESIAN_POINT ( 'NONE',  ( -0.7988706027417799005, 2.893215784806470570, 8.384689499879252494 ) ) ;
#613 = FACE_OUTER_BOUND ( 'NONE', #578, .T. ) ;
#614 = CARTESIAN_POINT ( 'NONE',  ( -0.2637502104041424822, 2.990868849045562605, 8.026557530053201717 ) ) ;
#615 = CONICAL_SURFACE ( 'NONE', #89, 5.500000000000001776, 0.7853981633974473908 ) ;
#616 = CARTESIAN_POINT ( 'NONE',  ( -0.9999196734182644875, 5.916093360767516351, 9.132740440449312658 ) ) ;
#617 = EDGE_CURVE ( 'NONE', #254, #759, #446, .T. ) ;
#618 = AXIS2_PLACEMENT_3D ( 'NONE', #150, #474, #88 ) ;
#619 = PERSON_AND_ORGANIZATION ( #307, #417 ) ;
#620 = CARTESIAN_POINT ( 'NONE',  ( -0.9735856429312828020, -5.920699391845025694, 8.737147160932726919 ) ) ;
#621 = ORIENTED_EDGE ( 'NONE', *, *, #348, .T. ) ;
#622 = CARTESIAN_POINT ( 'NONE',  ( -5.500000000000001776, 0.000000000000000000, 12.00000000000000000 ) ) ;
#623 = APPROVAL ( #636, 'UNSPECIFIED' ) ;
#624 = DESIGN_CONTEXT ( 'detailed design', #594, 'design' ) ;
#625 = CARTESIAN_POINT ( 'NONE',  ( 0.5042987395407724227, -5.979983180450076041, 8.126706958200230702 ) ) ;
#626 = CARTESIAN_POINT ( 'NONE',  ( -0.8726352009032797286, -2.870773295448570739, 9.505842428803797262 ) ) ;
#627 = LINE ( 'NONE', #165, #723 ) ;
#628 = CARTESIAN_POINT ( 'NONE',  ( 8.006752325800677023E-16, -3.000000000000000444, 8.000000000000000000 ) ) ;
#629 = VECTOR ( 'NONE', #784, 1000.000000000000000 ) ;
#630 = DIRECTION ( 'NONE',  ( 0.000000000000000000, 0.000000000000000000, 1.000000000000000000 ) ) ;
#631 = EDGE_LOOP ( 'NONE', ( #123, #595, #383, #477 ) ) ;
#632 = CARTESIAN_POINT ( 'NONE',  ( -0.1323933160975619971, -6.000000000000000888, 7.999999999999998224 ) ) ;
#633 = EDGE_CURVE ( 'NONE', #773, #311, #145, .T. ) ;
#634 = VERTEX_POINT ( 'NONE', #319 ) ;
#635 = CARTESIAN_POINT ( 'NONE',  ( -6.000000000000000888, 7.347880794884120722E-16, 1.000000000000000888 ) ) ;
#636 = APPROVAL_STATUS ( 'not_yet_approved' ) ;
#637 = VERTEX_POINT ( 'NONE', #660 ) ;
#638 = CARTESIAN_POINT ( 'NONE',  ( 8.150552576869213223E-16, -6.000000000000000888, 8.000000000000000000 ) ) ;
#639 = EDGE_LOOP ( 'NONE', ( #571, #201, #649, #404 ) ) ;
#640 = DIRECTION ( 'NONE',  ( -0.000000000000000000, 0.000000000000000000, -1.000000000000000000 ) ) ;
#641 = B_SPLINE_CURVE_WITH_KNOTS ( 'NONE', 3,
 ( #628, #493, #167, #822, #423, #227, #434, #813, #108, #826, #488, #626, #102, #501, #354, #428, #760, #444 ),
 .UNSPECIFIED., .F., .F.,
 ( 4, 2, 2, 2, 2, 2, 2, 2, 4 ),
 ( 2.927081389957694711E-19, 0.0003936446506142182765, 0.0007872893012284361194, 0.001180933951842653637, 0.001574578602456871588, 0.001968223253071089539, 0.002361867903685307274, 0.002755512554299525876, 0.003149157204913743610 ),
 .UNSPECIFIED. ) ;
#642 = CARTESIAN_POINT ( 'NONE',  ( 0.6139908388540976647, 5.969238533166612903, 9.800223720879879252 ) ) ;
#643 = EDGE_LOOP ( 'NONE', ( #651, #328, #207, #745 ) ) ;
#644 = CARTESIAN_POINT ( 'NONE',  ( 6.344288770224761009, -4.000000000000000000, 12.00000000000000000 ) ) ;
#645 = ADVANCED_FACE ( 'NONE', ( #778 ), #56, .F. ) ;
#646 = VECTOR ( 'NONE', #731, 1000.000000000000000 ) ;
#647 = CIRCLE ( 'NONE', #491, 6.000000000000000888 ) ;
#648 = DIRECTION ( 'NONE',  ( -0.000000000000000000, 0.000000000000000000, -1.000000000000000000 ) ) ;
#649 = ORIENTED_EDGE ( 'NONE', *, *, #811, .T. ) ;
#650 = CARTESIAN_POINT ( 'NONE',  ( -3.000000000000000444, 3.673940397442060361E-16, 7.000000000000000000 ) ) ;
#651 = ORIENTED_EDGE ( 'NONE', *, *, #682, .F. ) ;
#652 = DIRECTION ( 'NONE',  ( -0.000000000000000000, -0.000000000000000000, 1.000000000000000000 ) ) ;
#653 = DIRECTION ( 'NONE',  ( 0.000000000000000000, 0.000000000000000000, -1.000000000000000000 ) ) ;
#654 = ORIENTED_EDGE ( 'NONE', *, *, #617, .F. ) ;
#655 = DIRECTION ( 'NONE',  ( 1.000000000000000000, -1.776356839400250465E-15, 0.000000000000000000 ) ) ;
#656 = ORIENTED_EDGE ( 'NONE', *, *, #25, .T. ) ;
#657 = DIRECTION ( 'NONE',  ( 0.000000000000000000, 0.000000000000000000, 1.000000000000000000 ) ) ;
#658 = AXIS2_PLACEMENT_3D ( 'NONE', #687, #751, #569 ) ;
#659 = ORIENTED_EDGE ( 'NONE', *, *, #592, .F. ) ;
#660 = CARTESIAN_POINT ( 'NONE',  ( 3.000000000000000444, 0.000000000000000000, 7.000000000000000000 ) ) ;
#661 = CARTESIAN_POINT ( 'NONE',  ( 9.884811061103578211, -4.000000000000000000, 7.000000000000000000 ) ) ;
#662 = CC_DESIGN_PERSON_AND_ORGANIZATION_ASSIGNMENT ( #370, #42, ( #472 ) ) ;
#663 = ORIENTED_EDGE ( 'NONE', *, *, #403, .F. ) ;
#664 = DIRECTION ( 'NONE',  ( 1.000000000000000000, 0.000000000000000000, 0.000000000000000000 ) ) ;
#665 = CARTESIAN_POINT ( 'NONE',  ( 0.000000000000000000, 0.000000000000000000, 0.000000000000000000 ) ) ;
#666 = CARTESIAN_POINT ( 'NONE',  ( 0.1311535745634537786, -3.000000000000000000, 10.00000000000000000 ) ) ;
#667 = ORIENTED_EDGE ( 'NONE', *, *, #33, .F. ) ;
#668 = CARTESIAN_POINT ( 'NONE',  ( 4.472135954999581386, -4.000000000000000000, 1.000000000000000888 ) ) ;
#669 = DIRECTION ( 'NONE',  ( 0.000000000000000000, 0.000000000000000000, -1.000000000000000000 ) ) ;
#670 = EDGE_CURVE ( 'NONE', #436, #270, #256, .T. ) ;
#671 = DIRECTION ( 'NONE',  ( -0.000000000000000000, -0.000000000000000000, 1.000000000000000000 ) ) ;
#672 = VECTOR ( 'NONE', #772, 1000.000000000000000 ) ;
#673 = CARTESIAN_POINT ( 'NONE',  ( -6.344288770224761009, -4.000000000000000000, 12.00000000000000000 ) ) ;
#674 = CARTESIAN_POINT ( 'NONE',  ( 0.000000000000000000, 0.000000000000000000, 7.000000000000000000 ) ) ;
#675 = DIRECTION ( 'NONE',  ( 1.000000000000000000, 0.000000000000000000, 0.000000000000000000 ) ) ;
#676 = FACE_OUTER_BOUND ( 'NONE', #643, .T. ) ;
#677 = CARTESIAN_POINT ( 'NONE',  ( 0.000000000000000000, 0.000000000000000000, 11.50000000000000000 ) ) ;
#678 = AXIS2_PLACEMENT_3D ( 'NONE', #814, #630, #358 ) ;
#679 = CARTESIAN_POINT ( 'NONE',  ( 1.361204311820097079E-15, 3.000000000000000444, 8.000000000000000000 ) ) ;
#680 = LINE ( 'NONE', #438, #793 ) ;
#681 = CARTESIAN_POINT ( 'NONE',  ( 0.6144377077729916703, -5.969178481556066451, 9.799660331422638038 ) ) ;
#682 = EDGE_CURVE ( 'NONE', #703, #709, #460, .T. ) ;
#683 = VECTOR ( 'NONE', #671, 1000.000000000000000 ) ;
#684 = DIRECTION ( 'NONE',  ( -0.000000000000000000, -0.000000000000000000, 1.000000000000000000 ) ) ;
#685 = CALENDAR_DATE ( 2023, 3, 12 ) ;
#686 = CARTESIAN_POINT ( 'NONE',  ( 0.000000000000000000, 0.000000000000000000, 1.000000000000000888 ) ) ;
#687 = CARTESIAN_POINT ( 'NONE',  ( 1.102182119232618108E-15, 7.000000000000000000, 9.000000000000001776 ) ) ;
#688 = CARTESIAN_POINT ( 'NONE',  ( -0.6139908388540955553, -5.969238533166612903, 9.800223720879875700 ) ) ;
#689 = FACE_OUTER_BOUND ( 'NONE', #785, .T. ) ;
#690 = EDGE_CURVE ( 'NONE', #5, #436, #259, .T. ) ;
#691 = APPROVAL_ROLE ( '' ) ;
#692 = B_SPLINE_CURVE_WITH_KNOTS ( 'NONE', 3,
 ( #296, #568, #572, #505, #681, #765, #821, #500, #559, #372, #564, #360, #443, #700, #625, #437, #118, #638 ),
 .UNSPECIFIED., .F., .F.,
 ( 4, 2, 2, 2, 2, 2, 2, 2, 4 ),
 ( 0.003131923598876998338, 0.003523316383094315246, 0.003914709167311632154, 0.004306101951528949062, 0.004697494735746265970, 0.005088887519963582878, 0.005480280304180898919, 0.005871673088398215827, 0.006263065872615532735 ),
 .UNSPECIFIED. ) ;
#693 = ORIENTED_EDGE ( 'NONE', *, *, #682, .T. ) ;
#694 = CARTESIAN_POINT ( 'NONE',  ( 0.1331724280847655928, 2.999999999999999556, 8.000000000000000000 ) ) ;
#695 = EDGE_LOOP ( 'NONE', ( #169, #509 ) ) ;
#696 = DIRECTION ( 'NONE',  ( 0.000000000000000000, 0.000000000000000000, -1.000000000000000000 ) ) ;
#697 = CARTESIAN_POINT ( 'NONE',  ( 0.000000000000000000, 0.000000000000000000, 7.000000000000000000 ) ) ;
#698 = DATE_TIME_ROLE ( 'classification_date' ) ;
#699 = EDGE_LOOP ( 'NONE', ( #373, #769, #530, #284 ) ) ;
#700 = CARTESIAN_POINT ( 'NONE',  ( 0.6156307853269498143, -5.969051238897255196, 8.201294265893192659 ) ) ;
#701 = CARTESIAN_POINT ( 'NONE',  ( 3.000000000000000444, 0.000000000000000000, 12.00000000000000000 ) ) ;
#702 = AXIS2_PLACEMENT_3D ( 'NONE', #388, #652, #664 ) ;
#703 = VERTEX_POINT ( 'NONE', #381 ) ;
#704 = CARTESIAN_POINT ( 'NONE',  ( 0.9999502950802092727, 5.916088184763882651, 8.868918508099884690 ) ) ;
#705 = ORIENTED_EDGE ( 'NONE', *, *, #719, .F. ) ;
#706 = DIRECTION ( 'NONE',  ( 0.000000000000000000, 0.000000000000000000, -1.000000000000000000 ) ) ;
#707 = ORIENTED_EDGE ( 'NONE', *, *, #62, .F. ) ;
#708 = CYLINDRICAL_SURFACE ( 'NONE', #702, 6.000000000000000888 ) ;
#709 = VERTEX_POINT ( 'NONE', #134 ) ;
#710 = CARTESIAN_POINT ( 'NONE',  ( 1.224646754425075493E-15, 6.000000000000000888, 10.00000000000000178 ) ) ;
#711 = EDGE_CURVE ( 'NONE', #311, #57, #4, .T. ) ;
#712 = AXIS2_PLACEMENT_3D ( 'NONE', #44, #755, #51 ) ;
#713 = EDGE_LOOP ( 'NONE', ( #71, #473 ) ) ;
#714 = DIRECTION ( 'NONE',  ( 0.000000000000000000, 0.000000000000000000, -1.000000000000000000 ) ) ;
#715 = DIRECTION ( 'NONE',  ( -0.000000000000000000, -0.000000000000000000, 1.000000000000000000 ) ) ;
#716 = CARTESIAN_POINT ( 'NONE',  ( 0.6159197602761834478, 2.937602516701899980, 8.201624619451921561 ) ) ;
#717 = ORIENTED_EDGE ( 'NONE', *, *, #830, .F. ) ;
#718 = DIRECTION ( 'NONE',  ( -1.000000000000000000, 0.000000000000000000, 0.000000000000000000 ) ) ;
#719 = EDGE_CURVE ( 'NONE', #766, #455, #495, .T. ) ;
#720 = CARTESIAN_POINT ( 'NONE',  ( -6.344288770224759233, 4.000000000000000888, 12.00000000000000000 ) ) ;
#721 = CYLINDRICAL_SURFACE ( 'NONE', #46, 3.000000000000000444 ) ;
#722 = ORIENTED_EDGE ( 'NONE', *, *, #110, .T. ) ;
#723 = VECTOR ( 'NONE', #427, 1000.000000000000000 ) ;
#724 =( NAMED_UNIT ( * ) SI_UNIT ( $, .STERADIAN. ) SOLID_ANGLE_UNIT ( ) );
#725 = DIRECTION ( 'NONE',  ( 0.000000000000000000, -1.000000000000000000, 0.000000000000000000 ) ) ;
#726 = CARTESIAN_POINT ( 'NONE',  ( 6.344288770224759233, 4.000000000000000888, 1.000000000000000888 ) ) ;
#727 = DIRECTION ( 'NONE',  ( 0.000000000000000000, 0.000000000000000000, 1.000000000000000000 ) ) ;
#728 =( GEOMETRIC_REPRESENTATION_CONTEXT ( 3 ) GLOBAL_UNCERTAINTY_ASSIGNED_CONTEXT ( ( #325 ) ) GLOBAL_UNIT_ASSIGNED_CONTEXT ( ( #482, #787, #724 ) ) REPRESENTATION_CONTEXT ( 'NONE', 'WORKASPACE' ) );
#729 = ADVANCED_FACE ( 'NONE', ( #512, #451 ), #708, .T. ) ;
#730 = CARTESIAN_POINT ( 'NONE',  ( -4.472135954999580498, 4.000000000000000888, 7.000000000000000000 ) ) ;
#731 = DIRECTION ( 'NONE',  ( 1.000000000000000000, 0.000000000000000000, -0.000000000000000000 ) ) ;
#732 = EDGE_LOOP ( 'NONE', ( #463, #519, #722, #763, #445, #585, #138, #173 ) ) ;
#733 = CARTESIAN_POINT ( 'NONE',  ( -1.000079958708136818, 5.916066267613700802, 8.868472611179658571 ) ) ;
#734 = CARTESIAN_POINT ( 'NONE',  ( 1.224603561978757760E-15, 3.000000000000000444, 10.00000000000000178 ) ) ;
#735 = CARTESIAN_POINT ( 'NONE',  ( 1.224603561978757760E-15, 3.000000000000000444, 10.00000000000000178 ) ) ;
#736 = CARTESIAN_POINT ( 'NONE',  ( 0.6149058025954734497, -2.937842246861731343, 9.799341081568302414 ) ) ;
#737 = VECTOR ( 'NONE', #470, 1000.000000000000000 ) ;
#738 = APPROVAL_STATUS ( 'not_yet_approved' ) ;
#739 = APPROVAL ( #738, 'UNSPECIFIED' ) ;
#740 = ORIENTED_EDGE ( 'NONE', *, *, #333, .T. ) ;
#741 = CARTESIAN_POINT ( 'NONE',  ( -0.5031281619707722585, 5.980084330432670292, 9.873977272554743223 ) ) ;
#742 = CARTESIAN_POINT ( 'NONE',  ( -1.000049560716553598, -5.916071405810144235, 9.130322009884677570 ) ) ;
#743 = VECTOR ( 'NONE', #725, 1000.000000000000000 ) ;
#744 = CIRCLE ( 'NONE', #217, 7.500000000000000000 ) ;
#745 = ORIENTED_EDGE ( 'NONE', *, *, #570, .F. ) ;
#746 = CARTESIAN_POINT ( 'NONE',  ( 4.472135954999581386, -4.000000000000000000, 1.000000000000000888 ) ) ;
#747 = VECTOR ( 'NONE', #684, 1000.000000000000000 ) ;
#748 = MECHANICAL_CONTEXT ( 'NONE', #479, 'mechanical' ) ;
#749 = EDGE_LOOP ( 'NONE', ( #92, #78 ) ) ;
#750 = CARTESIAN_POINT ( 'NONE',  ( -0.1306497350717313877, -6.000000000000001776, 10.00000000000000533 ) ) ;
#751 = DIRECTION ( 'NONE',  ( 0.000000000000000000, -1.000000000000000000, 0.000000000000000000 ) ) ;
#752 = EDGE_CURVE ( 'NONE', #254, #593, #272, .T. ) ;
#753 = DATE_AND_TIME ( #685, #386 ) ;
#754 = CARTESIAN_POINT ( 'NONE',  ( 8.006752325800677023E-16, -3.000000000000000444, 8.000000000000000000 ) ) ;
#755 = DIRECTION ( 'NONE',  ( 0.000000000000000000, 0.000000000000000000, 1.000000000000000000 ) ) ;
#756 = APPROVAL_ROLE ( '' ) ;
#757 = ORIENTED_EDGE ( 'NONE', *, *, #633, .F. ) ;
#758 = DIRECTION ( 'NONE',  ( -1.000000000000000000, 0.000000000000000000, 0.000000000000000000 ) ) ;
#759 = VERTEX_POINT ( 'NONE', #79 ) ;
#760 = CARTESIAN_POINT ( 'NONE',  ( -0.1311869756547078547, -3.000000000000000888, 10.00000000000000000 ) ) ;
#761 = AXIS2_PLACEMENT_3D ( 'NONE', #665, #205, #794 ) ;
#762 = CIRCLE ( 'NONE', #229, 6.000000000000000888 ) ;
#763 = ORIENTED_EDGE ( 'NONE', *, *, #41, .T. ) ;
#764 = EDGE_CURVE ( 'NONE', #507, #576, #19, .T. ) ;
#765 = CARTESIAN_POINT ( 'NONE',  ( 0.7988914244718243740, -5.947301735519284094, 9.615437108313814818 ) ) ;
#766 = VERTEX_POINT ( 'NONE', #204 ) ;
#767 = CARTESIAN_POINT ( 'NONE',  ( 0.000000000000000000, 0.000000000000000000, 1.000000000000000888 ) ) ;
#768 = CARTESIAN_POINT ( 'NONE',  ( 0.000000000000000000, 0.000000000000000000, 12.00000000000000000 ) ) ;
#769 = ORIENTED_EDGE ( 'NONE', *, *, #375, .T. ) ;
#770 = CARTESIAN_POINT ( 'NONE',  ( 0.8737888311110054707, 5.936248257219508773, 8.496558148587832093 ) ) ;
#771 = ADVANCED_FACE ( 'NONE', ( #676 ), #467, .F. ) ;
#772 = DIRECTION ( 'NONE',  ( -1.000000000000000000, 0.000000000000000000, 0.000000000000000000 ) ) ;
#773 = VERTEX_POINT ( 'NONE', #215 ) ;
#774 = CARTESIAN_POINT ( 'NONE',  ( 0.2622916576876624384, 5.995491482261830818, 8.026150573531868559 ) ) ;
#775 = ORIENTED_EDGE ( 'NONE', *, *, #191, .T. ) ;
#776 = CARTESIAN_POINT ( 'NONE',  ( 9.884811061103578211, 4.000000000000000888, 7.000000000000000000 ) ) ;
#777 = SECURITY_CLASSIFICATION ( '', '', #367 ) ;
#778 = FACE_OUTER_BOUND ( 'NONE', #786, .T. ) ;
#779 = VERTEX_POINT ( 'NONE', #605 ) ;
#780 = LINE ( 'NONE', #514, #629 ) ;
#781 = EDGE_CURVE ( 'NONE', #57, #63, #376, .T. ) ;
#782 = ORIENTED_EDGE ( 'NONE', *, *, #258, .F. ) ;
#783 = CARTESIAN_POINT ( 'NONE',  ( 0.9731960446474745563, 2.838248092230704067, 8.735765314593297859 ) ) ;
#784 = DIRECTION ( 'NONE',  ( -0.000000000000000000, -0.000000000000000000, -1.000000000000000000 ) ) ;
#785 = EDGE_LOOP ( 'NONE', ( #318, #309 ) ) ;
#786 = EDGE_LOOP ( 'NONE', ( #707, #538, #8, #590 ) ) ;
#787 =( NAMED_UNIT ( * ) PLANE_ANGLE_UNIT ( ) SI_UNIT ( $, .RADIAN. ) );
#788 = CARTESIAN_POINT ( 'NONE',  ( 6.000000000000000888, 0.000000000000000000, 7.000000000000000000 ) ) ;
#789 = PRODUCT ( 'Pièce5_Guide_Défaut_sldprt', 'Pièce5_Guide_Défaut_sldprt', '', ( #748 ) ) ;
#790 = CIRCLE ( 'NONE', #382, 6.000000000000000888 ) ;
#791 = ORIENTED_EDGE ( 'NONE', *, *, #33, .T. ) ;
#792 = EDGE_CURVE ( 'NONE', #637, #237, #86, .T. ) ;
#793 = VECTOR ( 'NONE', #506, 1000.000000000000000 ) ;
#794 = DIRECTION ( 'NONE',  ( 1.000000000000000000, 0.000000000000000000, 0.000000000000000000 ) ) ;
#795 = ORIENTED_EDGE ( 'NONE', *, *, #719, .T. ) ;
#796 = CARTESIAN_POINT ( 'NONE',  ( -0.1323602877612166939, 6.000000000000002665, 8.000000000000001776 ) ) ;
#797 = DIRECTION ( 'NONE',  ( 1.000000000000000000, 0.000000000000000000, 0.000000000000000000 ) ) ;
#798 = AXIS2_PLACEMENT_3D ( 'NONE', #464, #648, #655 ) ;
#799 = CARTESIAN_POINT ( 'NONE',  ( -0.6144377077729898939, 5.969178481556065563, 9.799660331422636261 ) ) ;
#800 = CARTESIAN_POINT ( 'NONE',  ( -0.7995630649473677298, 2.893047721466611044, 9.614617129537023743 ) ) ;
#801 = CARTESIAN_POINT ( 'NONE',  ( 0.5055463730062520478, -2.959608675216975904, 8.127316047744331584 ) ) ;
#802 = CARTESIAN_POINT ( 'NONE',  ( 0.000000000000000000, 0.000000000000000000, 0.000000000000000000 ) ) ;
#803 = CARTESIAN_POINT ( 'NONE',  ( 0.6155931879056349976, -2.937675415082904085, 8.201347210304728463 ) ) ;
#804 = CC_DESIGN_PERSON_AND_ORGANIZATION_ASSIGNMENT ( #172, #161, ( #789 ) ) ;
#805 = DIRECTION ( 'NONE',  ( -0.000000000000000000, 0.000000000000000000, -1.000000000000000000 ) ) ;
#806 = AXIS2_PLACEMENT_3D ( 'NONE', #196, #589, #714 ) ;
#807 = FACE_BOUND ( 'NONE', #695, .T. ) ;
#808 = CARTESIAN_POINT ( 'NONE',  ( -5.500000000000001776, 0.000000000000000000, 12.00000000000000000 ) ) ;
#809 = CARTESIAN_POINT ( 'NONE',  ( 0.000000000000000000, 0.000000000000000000, 7.000000000000000000 ) ) ;
#810 = CARTESIAN_POINT ( 'NONE',  ( -0.8736516769106854596, -5.936271176698237007, 9.503932284213240322 ) ) ;
#811 = EDGE_CURVE ( 'NONE', #779, #634, #744, .T. ) ;
#812 = AXIS2_PLACEMENT_3D ( 'NONE', #184, #257, #706 ) ;
#813 = CARTESIAN_POINT ( 'NONE',  ( -0.9731960446474726689, -2.838248092230705844, 8.735765314593297859 ) ) ;
#814 = CARTESIAN_POINT ( 'NONE',  ( 0.000000000000000000, 0.000000000000000000, 0.000000000000000000 ) ) ;
#815 = CC_DESIGN_APPROVAL ( #623, ( #777 ) ) ;
#816 = ORIENTED_EDGE ( 'NONE', *, *, #792, .F. ) ;
#817 = CYLINDRICAL_SURFACE ( 'NONE', #206, 6.000000000000000888 ) ;
#818 = CARTESIAN_POINT ( 'NONE',  ( 0.000000000000000000, 0.000000000000000000, 0.000000000000000000 ) ) ;
#819 = PERSON_AND_ORGANIZATION ( #307, #417 ) ;
#820 = VERTEX_POINT ( 'NONE', #726 ) ;
#821 = CARTESIAN_POINT ( 'NONE',  ( 0.8730424326980932292, -5.936362132114464174, 9.504993097814367076 ) ) ;
#822 = CARTESIAN_POINT ( 'NONE',  ( -0.5056087024404397612, -2.959598800735080637, 8.127348779231832410 ) ) ;
#823 = EDGE_CURVE ( 'NONE', #820, #457, #264, .T. ) ;
#824 = ORIENTED_EDGE ( 'NONE', *, *, #191, .F. ) ;
#825 = DIRECTION ( 'NONE',  ( 1.000000000000000000, 0.000000000000000000, 0.000000000000000000 ) ) ;
#826 = CARTESIAN_POINT ( 'NONE',  ( -1.000065112068120321, -2.828404104156925669, 9.131028051652426925 ) ) ;
#827 = VECTOR ( 'NONE', #657, 1000.000000000000000 ) ;
#828 = CARTESIAN_POINT ( 'NONE',  ( 0.000000000000000000, 0.000000000000000000, 7.000000000000000000 ) ) ;
#829 = AXIS2_PLACEMENT_3D ( 'NONE', #266, #534, #220 ) ;
#830 = EDGE_CURVE ( 'NONE', #603, #112, #151, .T. ) ;
#831 = ORIENTED_EDGE ( 'NONE', *, *, #281, .T. ) ;
ENDSEC;
END-ISO-10303-21;
