ISO-10303-21;
HEADER;
FILE_DESCRIPTION (( 'STEP AP203' ),
    '1' );
FILE_NAME ('Pièce5_RaccordTuyau_Défaut_sldprt.STEP',
    '2023-12-03T16:39:26',
    ( 'LIA INFO' ),
    ( '' ),
    'SwSTEP 2.0',
    'SolidWorks 2022',
    '' );
FILE_SCHEMA (( 'CONFIG_CONTROL_DESIGN' ));
ENDSEC;

DATA;
#1 = DIRECTION ( 'NONE',  ( 0.000000000000000000, 0.000000000000000000, 1.000000000000000000 ) ) ;
#2 = CARTESIAN_POINT ( 'NONE',  ( 0.000000000000000000, 0.000000000000000000, 8.000000000000000000 ) ) ;
#3 = CC_DESIGN_PERSON_AND_ORGANIZATION_ASSIGNMENT ( #102, #136, ( #486 ) ) ;
#4 = CARTESIAN_POINT ( 'NONE',  ( -2.385845454112830222, -3.213341852096363027, 2.828345846934298802 ) ) ;
#5 =( LENGTH_UNIT ( ) NAMED_UNIT ( * ) SI_UNIT ( .MILLI., .METRE. ) );
#6 = ORIENTED_EDGE ( 'NONE', *, *, #320, .F. ) ;
#7 = CARTESIAN_POINT ( 'NONE',  ( -1.730832150559693972, -2.451835182840500948, -0.01016771571215938953 ) ) ;
#8 = ORIENTED_EDGE ( 'NONE', *, *, #371, .F. ) ;
#9 = EDGE_CURVE ( 'NONE', #354, #176, #254, .T. ) ;
#10 = CARTESIAN_POINT ( 'NONE',  ( -2.265846931757382166, -3.300064623202722203, 2.975193537690964174 ) ) ;
#11 = DATE_TIME_ROLE ( 'classification_date' ) ;
#12 = AXIS2_PLACEMENT_3D ( 'NONE', #324, #477, #291 ) ;
#13 = PERSON_AND_ORGANIZATION ( #84, #440 ) ;
#14 = AXIS2_PLACEMENT_3D ( 'NONE', #433, #196, #30 ) ;
#15 = CARTESIAN_POINT ( 'NONE',  ( 4.000000000000000000, 0.000000000000000000, -2.000000000000000000 ) ) ;
#16 = PERSON_AND_ORGANIZATION_ROLE ( 'design_owner' ) ;
#17 = EDGE_CURVE ( 'NONE', #218, #335, #146, .T. ) ;
#18 =( GEOMETRIC_REPRESENTATION_CONTEXT ( 3 ) GLOBAL_UNCERTAINTY_ASSIGNED_CONTEXT ( ( #101 ) ) GLOBAL_UNIT_ASSIGNED_CONTEXT ( ( #5, #91, #227 ) ) REPRESENTATION_CONTEXT ( 'NONE', 'WORKASPACE' ) );
#19 = AXIS2_PLACEMENT_3D ( 'NONE', #442, #78, #247 ) ;
#20 = DIRECTION ( 'NONE',  ( 1.000000000000000000, 0.000000000000000000, 0.000000000000000000 ) ) ;
#21 = CARTESIAN_POINT ( 'NONE',  ( 0.000000000000000000, 0.000000000000000000, 0.000000000000000000 ) ) ;
#22 = CARTESIAN_POINT ( 'NONE',  ( 2.685646574280107224, -2.966150386759913271, -0.3505683282053977390 ) ) ;
#23 = DIRECTION ( 'NONE',  ( 0.000000000000000000, 0.000000000000000000, 1.000000000000000000 ) ) ;
#24 = DIRECTION ( 'NONE',  ( 0.000000000000000000, -0.000000000000000000, 1.000000000000000000 ) ) ;
#25 = CARTESIAN_POINT ( 'NONE',  ( 0.000000000000000000, -4.000000000000000000, 4.000000000000000000 ) ) ;
#26 = DIRECTION ( 'NONE',  ( 1.000000000000000000, 0.000000000000000000, 0.000000000000000000 ) ) ;
#27 = CARTESIAN_POINT ( 'NONE',  ( 2.685938425548030306, -2.965907072160832048, 2.350177887127033571 ) ) ;
#28 = CARTESIAN_POINT ( 'NONE',  ( 0.000000000000000000, -4.000000000000000000, 4.000000000000000000 ) ) ;
#29 = ORIENTED_EDGE ( 'NONE', *, *, #82, .T. ) ;
#30 = DIRECTION ( 'NONE',  ( 0.000000000000000000, 0.000000000000000000, 1.000000000000000000 ) ) ;
#31 = EDGE_CURVE ( 'NONE', #83, #297, #223, .T. ) ;
#32 = FACE_OUTER_BOUND ( 'NONE', #251, .T. ) ;
#33 = CARTESIAN_POINT ( 'NONE',  ( 2.994569403891290449, -2.651943913659512653, 0.7924662876926440447 ) ) ;
#34 = ORIENTED_EDGE ( 'NONE', *, *, #510, .T. ) ;
#35 = DIRECTION ( 'NONE',  ( 0.000000000000000000, 0.000000000000000000, 1.000000000000000000 ) ) ;
#36 = CARTESIAN_POINT ( 'NONE',  ( -1.740444855057018403, -2.446868327774997187, 2.018606972238931263 ) ) ;
#37 = EDGE_LOOP ( 'NONE', ( #515, #367, #410, #263 ) ) ;
#38 = CIRCLE ( 'NONE', #496, 3.000000000000000444 ) ;
#39 = CARTESIAN_POINT ( 'NONE',  ( 1.931798657138282582, -2.295520904497946102, 1.534673478100342159 ) ) ;
#40 = CARTESIAN_POINT ( 'NONE',  ( -2.000092824331080710, -2.235984952929012781, 0.8647431185548082322 ) ) ;
#41 = VERTEX_POINT ( 'NONE', #276 ) ;
#42 = ADVANCED_FACE ( 'NONE', ( #183 ), #104, .F. ) ;
#43 = AXIS2_PLACEMENT_3D ( 'NONE', #236, #390, #26 ) ;
#44 = CARTESIAN_POINT ( 'NONE',  ( -1.931899877996327453, -2.295436463938312244, 1.534405376029065904 ) ) ;
#45 = DIRECTION ( 'NONE',  ( 0.000000000000000000, 0.000000000000000000, 1.000000000000000000 ) ) ;
#46 = ORIENTED_EDGE ( 'NONE', *, *, #444, .T. ) ;
#47 = CARTESIAN_POINT ( 'NONE',  ( -2.896454912868853260, -2.759383413821537623, 0.1929829888029468699 ) ) ;
#48 = CARTESIAN_POINT ( 'NONE',  ( 0.000000000000000000, 0.000000000000000000, 8.000000000000000000 ) ) ;
#49 = AXIS2_PLACEMENT_3D ( 'NONE', #470, #398, #321 ) ;
#50 = CARTESIAN_POINT ( 'NONE',  ( -2.684644148446669210, -2.967097031896712700, -0.3528460019958097327 ) ) ;
#51 = DIRECTION ( 'NONE',  ( 1.000000000000000000, 0.000000000000000000, 0.000000000000000000 ) ) ;
#52 = EDGE_CURVE ( 'NONE', #526, #76, #309, .T. ) ;
#53 = LINE ( 'NONE', #15, #359 ) ;
#54 = APPROVAL_ROLE ( '' ) ;
#55 = CARTESIAN_POINT ( 'NONE',  ( -1.003797306398060307, -3.876658733347191355, 3.833973092834038532 ) ) ;
#56 = CARTESIAN_POINT ( 'NONE',  ( 0.000000000000000000, -18.00000000000000000, 3.000000000000000000 ) ) ;
#57 = CALENDAR_DATE ( 2023, 3, 12 ) ;
#58 = VECTOR ( 'NONE', #397, 1000.000000000000000 ) ;
#59 = CARTESIAN_POINT ( 'NONE',  ( 0.000000000000000000, -4.000000000000000000, -2.000000000000000000 ) ) ;
#60 = DIRECTION ( 'NONE',  ( 0.000000000000000000, 1.000000000000000000, 0.000000000000000000 ) ) ;
#61 = CARTESIAN_POINT ( 'NONE',  ( 2.386247517545416308, -3.213060004730075470, -0.8278875263866762868 ) ) ;
#62 = AXIS2_PLACEMENT_3D ( 'NONE', #119, #230, #147 ) ;
#63 = DIRECTION ( 'NONE',  ( 1.000000000000000000, 0.000000000000000000, 0.000000000000000000 ) ) ;
#64 = CARTESIAN_POINT ( 'NONE',  ( 3.673940397442060361E-16, -20.49999999999999645, -2.000000000000000444 ) ) ;
#65 = EDGE_CURVE ( 'NONE', #295, #135, #70, .T. ) ;
#66 = DIRECTION ( 'NONE',  ( 0.000000000000000000, 0.000000000000000000, 1.000000000000000000 ) ) ;
#67 = CARTESIAN_POINT ( 'NONE',  ( 0.000000000000000000, 0.000000000000000000, -0.9999999999999991118 ) ) ;
#68 = CARTESIAN_POINT ( 'NONE',  ( -3.000000000000000444, 3.673940397442060361E-16, -0.9999999999999991118 ) ) ;
#69 = CARTESIAN_POINT ( 'NONE',  ( 1.019583818158797062, -2.823728472616795049, -0.7253364584499338852 ) ) ;
#70 = B_SPLINE_CURVE_WITH_KNOTS ( 'NONE', 3,
 ( #192, #350, #208, #113, #155, #356, #198, #74, #523, #322, #202, #365, #39, #326, #475, #281, #527, #514, #168, #160, #333, #69, #471, #439, #284, #164, #519, #436 ),
 .UNSPECIFIED., .F., .F.,
 ( 4, 2, 2, 2, 2, 2, 2, 2, 2, 2, 2, 2, 2, 4 ),
 ( 0.000000000000000000, 0.0004039965906148613789, 0.0008079931812297229746, 0.001615986362459445949, 0.002019982953074307436, 0.002423979543689169791, 0.002827976134304032146, 0.003231972724918894067, 0.004039965906148619210, 0.004847959087378343919, 0.005251955677993206707, 0.005655952268608068628, 0.006059948859222930549, 0.006463945449837792470 ),
 .UNSPECIFIED. ) ;
#71 = CARTESIAN_POINT ( 'NONE',  ( -0.2055087850641008906, -4.000000000000004441, -2.000000000000006217 ) ) ;
#72 = EDGE_LOOP ( 'NONE', ( #73, #495, #338, #8, #95, #174, #329 ) ) ;
#73 = ORIENTED_EDGE ( 'NONE', *, *, #412, .F. ) ;
#74 = CARTESIAN_POINT ( 'NONE',  ( 1.507121100215363718, -2.595924975184000338, 2.320824000293971068 ) ) ;
#75 = CARTESIAN_POINT ( 'NONE',  ( 2.835675755220790961, -2.823063699258566039, 0.002164671728348411053 ) ) ;
#76 = VERTEX_POINT ( 'NONE', #479 ) ;
#77 = CC_DESIGN_DATE_AND_TIME_ASSIGNMENT ( #419, #11, ( #504 ) ) ;
#78 = DIRECTION ( 'NONE',  ( 0.000000000000000000, 1.000000000000000000, 0.000000000000000000 ) ) ;
#79 = CARTESIAN_POINT ( 'NONE',  ( -1.891698196200747084, -2.329282327505954431, 1.661932812933377024 ) ) ;
#80 = CARTESIAN_POINT ( 'NONE',  ( -0.2714339884583574225, -2.990647674529897770, -0.9860485051406413515 ) ) ;
#81 = AXIS2_PLACEMENT_3D ( 'NONE', #391, #381, #193 ) ;
#82 = EDGE_CURVE ( 'NONE', #76, #526, #409, .T. ) ;
#83 = VERTEX_POINT ( 'NONE', #330 ) ;
#84 = PERSON ( 'UNSPECIFIED', 'UNSPECIFIED', 'UNSPECIFIED', ('UNSPECIFIED'), ('UNSPECIFIED'), ('UNSPECIFIED') ) ;
#85 = APPROVAL ( #269, 'UNSPECIFIED' ) ;
#86 = CARTESIAN_POINT ( 'NONE',  ( -1.588724654224042077, -2.546218700403856783, -0.2215452182948097759 ) ) ;
#87 = ORIENTED_EDGE ( 'NONE', *, *, #52, .T. ) ;
#88 = CIRCLE ( 'NONE', #228, 4.000000000000000000 ) ;
#89 = CARTESIAN_POINT ( 'NONE',  ( 0.000000000000000000, 0.000000000000000000, -2.000000000000000000 ) ) ;
#90 = LOCAL_TIME ( 17, 39, 26.00000000000000000, #184 ) ;
#91 =( NAMED_UNIT ( * ) PLANE_ANGLE_UNIT ( ) SI_UNIT ( $, .RADIAN. ) );
#92 = VERTEX_POINT ( 'NONE', #481 ) ;
#93 = CARTESIAN_POINT ( 'NONE',  ( -1.856323840416855830, -3.547521686181032141, 3.364585318493304555 ) ) ;
#94 = CALENDAR_DATE ( 2023, 3, 12 ) ;
#95 = ORIENTED_EDGE ( 'NONE', *, *, #31, .T. ) ;
#96 = PERSON_AND_ORGANIZATION_ROLE ( 'creator' ) ;
#97 = EDGE_CURVE ( 'NONE', #335, #218, #88, .T. ) ;
#98 = AXIS2_PLACEMENT_3D ( 'NONE', #363, #484, #166 ) ;
#99 = CARTESIAN_POINT ( 'NONE',  ( -2.836303033456273326, -2.822474818822299891, 0.003560533041903491368 ) ) ;
#100 = DATE_AND_TIME ( #94, #403 ) ;
#101 = UNCERTAINTY_MEASURE_WITH_UNIT (LENGTH_MEASURE( 1.000000000000000082E-05 ), #5, 'distance_accuracy_value', 'NONE');
#102 = PERSON_AND_ORGANIZATION ( #84, #440 ) ;
#103 = CARTESIAN_POINT ( 'NONE',  ( 0.000000000000000000, -3.000000000000000444, -0.9999999999999991118 ) ) ;
#104 = CYLINDRICAL_SURFACE ( 'NONE', #255, 3.000000000000000444 ) ;
#105 = APPROVAL_DATE_TIME ( #181, #507 ) ;
#106 = CARTESIAN_POINT ( 'NONE',  ( 1.004521175270992606, -3.876505749244687493, -1.833769068875409580 ) ) ;
#107 = EDGE_CURVE ( 'NONE', #280, #41, #285, .T. ) ;
#108 = APPROVAL_PERSON_ORGANIZATION ( #190, #85, #134 ) ;
#109 = CARTESIAN_POINT ( 'NONE',  ( 2.266827533074523782, -3.299393512667947004, 2.974078935272419510 ) ) ;
#110 = ADVANCED_FACE ( 'NONE', ( #323 ), #476, .T. ) ;
#111 = CARTESIAN_POINT ( 'NONE',  ( 2.449293598294706414E-16, -18.00000000000000000, -1.000000000000000000 ) ) ;
#112 = ORIENTED_EDGE ( 'NONE', *, *, #165, .T. ) ;
#113 = CARTESIAN_POINT ( 'NONE',  ( 0.5327362374410499202, -2.955279181703919456, 2.932377639043373563 ) ) ;
#114 = AXIS2_PLACEMENT_3D ( 'NONE', #443, #131, #406 ) ;
#115 = PLANE ( 'NONE',  #235 ) ;
#116 = CARTESIAN_POINT ( 'NONE',  ( 0.000000000000000000, 0.000000000000000000, -2.000000000000000000 ) ) ;
#117 = CARTESIAN_POINT ( 'NONE',  ( 0.2076584939606455904, -4.000000000000000888, 4.000000000000000888 ) ) ;
#118 = VECTOR ( 'NONE', #232, 1000.000000000000000 ) ;
#119 = CARTESIAN_POINT ( 'NONE',  ( 0.000000000000000000, 0.000000000000000000, -2.000000000000000000 ) ) ;
#120 = EDGE_LOOP ( 'NONE', ( #132, #456, #353, #127 ) ) ;
#121 = CARTESIAN_POINT ( 'NONE',  ( 0.000000000000000000, 0.000000000000000000, 8.000000000000000000 ) ) ;
#122 = DIRECTION ( 'NONE',  ( -0.000000000000000000, -0.000000000000000000, 1.000000000000000000 ) ) ;
#123 = B_SPLINE_CURVE_WITH_KNOTS ( 'NONE', 3,
 ( #257, #343, #375, #370, #55, #302, #379, #93, #307, #10, #4, #133, #137, #499, #411, #268, #310, #457, #490, #47, #99, #50, #420, #220, #422, #195, #319, #238, #282, #194, #241, #511, #71, #394 ),
 .UNSPECIFIED., .F., .F.,
 ( 4, 2, 2, 2, 2, 2, 2, 2, 2, 2, 2, 2, 2, 2, 2, 2, 4 ),
 ( 0.000000000000000000, 0.0006141119181786239278, 0.001228223836357247856, 0.001842335754535871567, 0.002456447672714495711, 0.003070559590893119639, 0.003684671509071743133, 0.004298783427250367495, 0.004912895345428991423, 0.005527007263607616218, 0.006141119181786241880, 0.006755231099964865808, 0.007369343018143488869, 0.007983454936322112797, 0.008597566854500736724, 0.009211678772679360652, 0.009825790690857984580 ),
 .UNSPECIFIED. ) ;
#124 = ORIENTED_EDGE ( 'NONE', *, *, #388, .T. ) ;
#125 = CC_DESIGN_DATE_AND_TIME_ASSIGNMENT ( #100, #347, ( #486 ) ) ;
#126 = CARTESIAN_POINT ( 'NONE',  ( 0.000000000000000000, -20.49999999999999645, 1.000000000000000000 ) ) ;
#127 = ORIENTED_EDGE ( 'NONE', *, *, #144, .F. ) ;
#128 = CARTESIAN_POINT ( 'NONE',  ( -1.932680250227926999, -2.294777248259544322, 0.4682959407342079383 ) ) ;
#129 = ORIENTED_EDGE ( 'NONE', *, *, #172, .T. ) ;
#130 = CC_DESIGN_PERSON_AND_ORGANIZATION_ASSIGNMENT ( #186, #16, ( #466 ) ) ;
#131 = DIRECTION ( 'NONE',  ( 0.000000000000000000, 1.000000000000000000, 0.000000000000000000 ) ) ;
#132 = ORIENTED_EDGE ( 'NONE', *, *, #344, .T. ) ;
#133 = CARTESIAN_POINT ( 'NONE',  ( -2.594800335240888600, -3.047102822285248536, 2.517273306674355560 ) ) ;
#134 = APPROVAL_ROLE ( '' ) ;
#135 = VERTEX_POINT ( 'NONE', #262 ) ;
#136 = PERSON_AND_ORGANIZATION_ROLE ( 'creator' ) ;
#137 = CARTESIAN_POINT ( 'NONE',  ( -2.685008189805507595, -2.966757177573026372, 2.352051933962142183 ) ) ;
#138 = CALENDAR_DATE ( 2023, 3, 12 ) ;
#139 = CALENDAR_DATE ( 2023, 3, 12 ) ;
#140 = CARTESIAN_POINT ( 'NONE',  ( 2.978630652422670888, -2.670477765132021286, 1.411024062008230384 ) ) ;
#141 = MECHANICAL_CONTEXT ( 'NONE', #143, 'mechanical' ) ;
#142 = CARTESIAN_POINT ( 'NONE',  ( 1.540863664449035664, -3.695382031298931391, 3.581096119047796567 ) ) ;
#143 = APPLICATION_CONTEXT ( 'configuration controlled 3d designs of mechanical parts and assemblies' ) ;
#144 = EDGE_CURVE ( 'NONE', #297, #335, #53, .T. ) ;
#145 = CARTESIAN_POINT ( 'NONE',  ( 0.000000000000000000, 0.000000000000000000, -0.9999999999999991118 ) ) ;
#146 = CIRCLE ( 'NONE', #316, 4.000000000000000000 ) ;
#147 = DIRECTION ( 'NONE',  ( 1.000000000000000000, 0.000000000000000000, 0.000000000000000000 ) ) ;
#148 = DIRECTION ( 'NONE',  ( 0.000000000000000000, 0.000000000000000000, 1.000000000000000000 ) ) ;
#149 = FACE_OUTER_BOUND ( 'NONE', #407, .T. ) ;
#150 = ORIENTED_EDGE ( 'NONE', *, *, #107, .T. ) ;
#151 = AXIS2_PLACEMENT_3D ( 'NONE', #317, #431, #226 ) ;
#152 = EDGE_CURVE ( 'NONE', #176, #83, #123, .T. ) ;
#153 = VERTEX_POINT ( 'NONE', #469 ) ;
#154 = FACE_OUTER_BOUND ( 'NONE', #451, .T. ) ;
#155 = CARTESIAN_POINT ( 'NONE',  ( 0.6619398875823222506, -2.928731392965191027, 2.891834530189353991 ) ) ;
#156 = ADVANCED_BREP_SHAPE_REPRESENTATION ( 'PiÞce5_RaccordTuyau_DÚfaut_sldprt', ( #472, #259 ), #18 ) ;
#157 = ORIENTED_EDGE ( 'NONE', *, *, #206, .T. ) ;
#158 = CARTESIAN_POINT ( 'NONE',  ( 0.000000000000000000, -20.49999999999999645, 1.000000000000000000 ) ) ;
#159 = CARTESIAN_POINT ( 'NONE',  ( 1.372335412785070208, -3.762054661624014695, 3.675075195734065492 ) ) ;
#160 = CARTESIAN_POINT ( 'NONE',  ( 1.328316807419515966, -2.691828758537344601, -0.5005881161943557256 ) ) ;
#161 = CARTESIAN_POINT ( 'NONE',  ( 2.266334035939713498, -3.299706237335507719, -0.9745817431603515102 ) ) ;
#162 = CIRCLE ( 'NONE', #151, 3.000000000000000000 ) ;
#163 = ORIENTED_EDGE ( 'NONE', *, *, #31, .F. ) ;
#164 = CARTESIAN_POINT ( 'NONE',  ( 0.2708941675171432362, -2.990721859692120788, -0.9861611193497394900 ) ) ;
#165 = EDGE_CURVE ( 'NONE', #76, #135, #352, .T. ) ;
#166 = DIRECTION ( 'NONE',  ( 1.000000000000000000, 0.000000000000000000, -0.000000000000000000 ) ) ;
#167 = ORIENTED_EDGE ( 'NONE', *, *, #97, .T. ) ;
#168 = CARTESIAN_POINT ( 'NONE',  ( 1.597502116485206347, -2.547441346227736769, -0.2299381810352603139 ) ) ;
#169 = CYLINDRICAL_SURFACE ( 'NONE', #474, 3.000000000000000000 ) ;
#170 = ORIENTED_EDGE ( 'NONE', *, *, #289, .F. ) ;
#171 = CARTESIAN_POINT ( 'NONE',  ( -1.026867128382462635, -2.830067735300035192, -0.7365760404343342227 ) ) ;
#172 = EDGE_CURVE ( 'NONE', #41, #438, #492, .T. ) ;
#173 = DIRECTION ( 'NONE',  ( 0.000000000000000000, 0.000000000000000000, 1.000000000000000000 ) ) ;
#174 = ORIENTED_EDGE ( 'NONE', *, *, #144, .T. ) ;
#175 = CARTESIAN_POINT ( 'NONE',  ( -1.986342283178199608, -2.248488359500476985, 0.7309154587880986043 ) ) ;
#176 = VERTEX_POINT ( 'NONE', #28 ) ;
#177 = PERSON_AND_ORGANIZATION ( #84, #440 ) ;
#178 = AXIS2_PLACEMENT_3D ( 'NONE', #158, #404, #288 ) ;
#179 = DIRECTION ( 'NONE',  ( 0.000000000000000000, 0.000000000000000000, 1.000000000000000000 ) ) ;
#180 = ADVANCED_FACE ( 'NONE', ( #149 ), #279, .F. ) ;
#181 = DATE_AND_TIME ( #341, #216 ) ;
#182 = B_SPLINE_CURVE_WITH_KNOTS ( 'NONE', 3,
 ( #103, #221, #80, #494, #337, #171, #524, #373, #86, #7, #339, #336, #128, #175, #40, #294, #250, #44, #79, #36, #491, #402, #217, #334, #331, #210, #300, #213, #292, #368 ),
 .UNSPECIFIED., .F., .F.,
 ( 4, 2, 2, 2, 2, 2, 2, 2, 2, 2, 2, 2, 2, 2, 4 ),
 ( 0.006463945449837792470, 0.006867408290837856595, 0.007270871131837920720, 0.008077796813838050705, 0.008481259654838113962, 0.008884722495838178954, 0.009288185336838242212, 0.009691648177838307204, 0.01009511101883837220, 0.01049857385983843719, 0.01130549954183856717, 0.01170896238283863217, 0.01211242522383869716, 0.01251588806483876042, 0.01291935090583882541 ),
 .UNSPECIFIED. ) ;
#183 = FACE_OUTER_BOUND ( 'NONE', #211, .T. ) ;
#184 = COORDINATED_UNIVERSAL_TIME_OFFSET ( 1, 0, .AHEAD. ) ;
#185 = CARTESIAN_POINT ( 'NONE',  ( 0.8104314718496963277, -3.922189138425641985, -1.895571480639656414 ) ) ;
#186 = PERSON_AND_ORGANIZATION ( #84, #440 ) ;
#187 = LOCAL_TIME ( 17, 39, 26.00000000000000000, #376 ) ;
#188 = CARTESIAN_POINT ( 'NONE',  ( 2.973407895514605048, -2.675649065705175467, 0.5884642866562914687 ) ) ;
#189 = AXIS2_PLACEMENT_3D ( 'NONE', #89, #253, #258 ) ;
#190 = PERSON_AND_ORGANIZATION ( #84, #440 ) ;
#191 = LINE ( 'NONE', #463, #405 ) ;
#192 = CARTESIAN_POINT ( 'NONE',  ( 0.000000000000000000, -3.000000000000000444, 3.000000000000000000 ) ) ;
#193 = DIRECTION ( 'NONE',  ( 0.000000000000000000, 0.000000000000000000, 1.000000000000000000 ) ) ;
#194 = CARTESIAN_POINT ( 'NONE',  ( -1.002901189561804518, -3.876894307663103501, -1.834294898276659813 ) ) ;
#195 = CARTESIAN_POINT ( 'NONE',  ( -1.999868463145142661, -3.467704713905103375, -1.244079855392056677 ) ) ;
#196 = DIRECTION ( 'NONE',  ( -0.000000000000000000, 1.000000000000000000, -0.000000000000000000 ) ) ;
#197 = EDGE_LOOP ( 'NONE', ( #266, #340, #124, #531 ) ) ;
#198 = CARTESIAN_POINT ( 'NONE',  ( 1.239585568405023874, -2.739414092209440987, 2.589776028398261154 ) ) ;
#199 = VECTOR ( 'NONE', #392, 1000.000000000000000 ) ;
#200 = EDGE_LOOP ( 'NONE', ( #163, #454, #299 ) ) ;
#201 = CARTESIAN_POINT ( 'NONE',  ( 0.000000000000000000, -20.49999999999999645, 1.000000000000000000 ) ) ;
#202 = CARTESIAN_POINT ( 'NONE',  ( 1.790575700568342921, -2.407888703989436774, 1.900301039919444213 ) ) ;
#203 = APPLICATION_CONTEXT ( 'configuration controlled 3d designs of mechanical parts and assemblies' ) ;
#204 = CARTESIAN_POINT ( 'NONE',  ( 2.836798011293536703, -2.821958013445648117, 1.994898284169440261 ) ) ;
#205 = PRODUCT_DEFINITION_SHAPE ( 'NONE', 'NONE',  #486 ) ;
#206 = EDGE_CURVE ( 'NONE', #135, #395, #362, .T. ) ;
#207 = DIRECTION ( 'NONE',  ( -0.000000000000000000, -0.000000000000000000, 1.000000000000000000 ) ) ;
#208 = CARTESIAN_POINT ( 'NONE',  ( 0.2706715192424006267, -2.990688861979201807, 2.986108800450949730 ) ) ;
#209 = DIRECTION ( 'NONE',  ( 1.000000000000000000, 0.000000000000000000, 0.000000000000000000 ) ) ;
#210 = CARTESIAN_POINT ( 'NONE',  ( -0.6632029818106772723, -2.928426303792047491, 2.891360200549625503 ) ) ;
#211 = EDGE_LOOP ( 'NONE', ( #448, #222, #34, #364 ) ) ;
#212 = ADVANCED_FACE ( 'NONE', ( #154 ), #401, .T. ) ;
#213 = CARTESIAN_POINT ( 'NONE',  ( -0.2711443143958584545, -2.990657811188890847, 2.986062850360574394 ) ) ;
#214 = CARTESIAN_POINT ( 'NONE',  ( 4.000000000000000000, 0.000000000000000000, -2.000000000000000000 ) ) ;
#215 = CARTESIAN_POINT ( 'NONE',  ( 0.000000000000000000, -20.49999999999999645, 4.000000000000000000 ) ) ;
#216 = LOCAL_TIME ( 17, 39, 26.00000000000000000, #378 ) ;
#217 = CARTESIAN_POINT ( 'NONE',  ( -1.228706102645598763, -2.739228265043352817, 2.583261393816653761 ) ) ;
#218 = VERTEX_POINT ( 'NONE', #513 ) ;
#219 = CIRCLE ( 'NONE', #49, 4.000000000000000000 ) ;
#220 = CARTESIAN_POINT ( 'NONE',  ( -2.384767974171264626, -3.214152853984630465, -0.8297797126121349010 ) ) ;
#221 = CARTESIAN_POINT ( 'NONE',  ( -0.1346613466946391946, -3.000000000000001332, -1.000000000000000444 ) ) ;
#222 = ORIENTED_EDGE ( 'NONE', *, *, #357, .F. ) ;
#223 = CIRCLE ( 'NONE', #43, 4.000000000000000000 ) ;
#224 = PERSON_AND_ORGANIZATION ( #84, #440 ) ;
#225 = DATE_AND_TIME ( #138, #187 ) ;
#226 = DIRECTION ( 'NONE',  ( 0.000000000000000000, 0.000000000000000000, 1.000000000000000000 ) ) ;
#227 =( NAMED_UNIT ( * ) SI_UNIT ( $, .STERADIAN. ) SOLID_ANGLE_UNIT ( ) );
#228 = AXIS2_PLACEMENT_3D ( 'NONE', #121, #293, #209 ) ;
#229 = EDGE_CURVE ( 'NONE', #92, #83, #219, .T. ) ;
#230 = DIRECTION ( 'NONE',  ( 0.000000000000000000, 0.000000000000000000, 1.000000000000000000 ) ) ;
#231 = APPLICATION_PROTOCOL_DEFINITION ( 'international standard', 'config_control_design', 1994, #203 ) ;
#232 = DIRECTION ( 'NONE',  ( 0.000000000000000000, 1.000000000000000000, 0.000000000000000000 ) ) ;
#233 = CARTESIAN_POINT ( 'NONE',  ( 2.002046876449303792, -3.466455382756232773, 3.242164804801511035 ) ) ;
#234 = DIRECTION ( 'NONE',  ( 0.000000000000000000, 1.000000000000000000, 0.000000000000000000 ) ) ;
#235 = AXIS2_PLACEMENT_3D ( 'NONE', #201, #60, #24 ) ;
#236 = CARTESIAN_POINT ( 'NONE',  ( 0.000000000000000000, 0.000000000000000000, -2.000000000000000000 ) ) ;
#237 = FACE_OUTER_BOUND ( 'NONE', #197, .T. ) ;
#238 = CARTESIAN_POINT ( 'NONE',  ( -1.539281854796727966, -3.696091896142991828, -1.582126046684398268 ) ) ;
#239 = AXIS2_PLACEMENT_3D ( 'NONE', #116, #290, #418 ) ;
#240 = ORIENTED_EDGE ( 'NONE', *, *, #444, .F. ) ;
#241 = CARTESIAN_POINT ( 'NONE',  ( -0.8103038827345675488, -3.922333027804645766, -1.895768299617778485 ) ) ;
#242 = CARTESIAN_POINT ( 'NONE',  ( -3.000000000000000444, 3.673940397442060361E-16, -0.9999999999999991118 ) ) ;
#243 = ORIENTED_EDGE ( 'NONE', *, *, #320, .T. ) ;
#244 = CARTESIAN_POINT ( 'NONE',  ( 2.896380578250226989, -2.759458768059921852, 0.1928764331095152718 ) ) ;
#245 = CLOSED_SHELL ( 'NONE', ( #449, #529, #212, #180, #426, #517, #252, #468, #432, #110, #42, #303 ) ) ;
#246 = CARTESIAN_POINT ( 'NONE',  ( 0.000000000000000000, 0.000000000000000000, -0.9999999999999991118 ) ) ;
#247 = DIRECTION ( 'NONE',  ( 0.000000000000000000, 0.000000000000000000, 1.000000000000000000 ) ) ;
#248 = PLANE ( 'NONE',  #98 ) ;
#249 = DIRECTION ( 'NONE',  ( 1.000000000000000000, 0.000000000000000000, 0.000000000000000000 ) ) ;
#250 = CARTESIAN_POINT ( 'NONE',  ( -1.985791558986839567, -2.248977008071996853, 1.272870168372456146 ) ) ;
#251 = EDGE_LOOP ( 'NONE', ( #417, #400 ) ) ;
#252 = ADVANCED_FACE ( 'NONE', ( #473, #32 ), #115, .F. ) ;
#253 = DIRECTION ( 'NONE',  ( 0.000000000000000000, 0.000000000000000000, 1.000000000000000000 ) ) ;
#254 = LINE ( 'NONE', #215, #500 ) ;
#255 = AXIS2_PLACEMENT_3D ( 'NONE', #145, #273, #386 ) ;
#256 = DIRECTION ( 'NONE',  ( 1.000000000000000000, 0.000000000000000000, 0.000000000000000000 ) ) ;
#257 = CARTESIAN_POINT ( 'NONE',  ( 0.000000000000000000, -4.000000000000000000, 4.000000000000000000 ) ) ;
#258 = DIRECTION ( 'NONE',  ( 1.000000000000000000, 0.000000000000000000, 0.000000000000000000 ) ) ;
#259 = AXIS2_PLACEMENT_3D ( 'NONE', #21, #23, #423 ) ;
#260 = CC_DESIGN_PERSON_AND_ORGANIZATION_ASSIGNMENT ( #224, #505, ( #318 ) ) ;
#261 = EDGE_LOOP ( 'NONE', ( #167, #305 ) ) ;
#262 = CARTESIAN_POINT ( 'NONE',  ( 0.000000000000000000, -3.000000000000000444, -0.9999999999999991118 ) ) ;
#263 = ORIENTED_EDGE ( 'NONE', *, *, #152, .T. ) ;
#264 = CIRCLE ( 'NONE', #498, 3.000000000000000444 ) ;
#265 = COORDINATED_UNIVERSAL_TIME_OFFSET ( 1, 0, .AHEAD. ) ;
#266 = ORIENTED_EDGE ( 'NONE', *, *, #165, .F. ) ;
#267 = DIRECTION ( 'NONE',  ( 1.000000000000000000, 0.000000000000000000, -0.000000000000000000 ) ) ;
#268 = CARTESIAN_POINT ( 'NONE',  ( -2.978171510440843939, -2.670976466909178448, 1.413333768683967318 ) ) ;
#269 = APPROVAL_STATUS ( 'not_yet_approved' ) ;
#270 = EDGE_CURVE ( 'NONE', #153, #83, #467, .T. ) ;
#271 = PERSON_AND_ORGANIZATION ( #84, #440 ) ;
#272 = CARTESIAN_POINT ( 'NONE',  ( 2.957753114797702310, -2.693066059081445029, 0.4883226226631874334 ) ) ;
#273 = DIRECTION ( 'NONE',  ( -0.000000000000000000, -0.000000000000000000, 1.000000000000000000 ) ) ;
#274 = DIRECTION ( 'NONE',  ( -0.000000000000000000, 1.000000000000000000, -0.000000000000000000 ) ) ;
#275 = LOCAL_TIME ( 17, 39, 26.00000000000000000, #265 ) ;
#276 = CARTESIAN_POINT ( 'NONE',  ( -3.000000000000000444, 3.673940397442060361E-16, 8.000000000000000000 ) ) ;
#277 = CARTESIAN_POINT ( 'NONE',  ( 3.000000000000000444, 0.000000000000000000, -0.9999999999999991118 ) ) ;
#278 = VECTOR ( 'NONE', #274, 1000.000000000000000 ) ;
#279 = CYLINDRICAL_SURFACE ( 'NONE', #14, 2.000000000000000000 ) ;
#280 = VERTEX_POINT ( 'NONE', #68 ) ;
#281 = CARTESIAN_POINT ( 'NONE',  ( 2.000235098268967171, -2.235857699358653417, 0.7303683674846535023 ) ) ;
#282 = CARTESIAN_POINT ( 'NONE',  ( -1.365961781132855712, -3.764341732799961537, -1.678280563889068100 ) ) ;
#283 = ORIENTED_EDGE ( 'NONE', *, *, #65, .F. ) ;
#284 = CARTESIAN_POINT ( 'NONE',  ( 0.5353142941609528860, -2.954867086435880363, -0.9317500481372782417 ) ) ;
#285 = LINE ( 'NONE', #242, #58 ) ;
#286 = CC_DESIGN_APPROVAL ( #507, ( #504 ) ) ;
#287 = ORIENTED_EDGE ( 'NONE', *, *, #388, .F. ) ;
#288 = DIRECTION ( 'NONE',  ( 0.000000000000000000, 0.000000000000000000, 1.000000000000000000 ) ) ;
#289 = EDGE_CURVE ( 'NONE', #438, #41, #306, .T. ) ;
#290 = DIRECTION ( 'NONE',  ( 0.000000000000000000, 0.000000000000000000, 1.000000000000000000 ) ) ;
#291 = DIRECTION ( 'NONE',  ( 1.000000000000000000, 0.000000000000000000, -0.000000000000000000 ) ) ;
#292 = CARTESIAN_POINT ( 'NONE',  ( -0.1366659433905258181, -3.000000000000001332, 3.000000000000000444 ) ) ;
#293 = DIRECTION ( 'NONE',  ( 0.000000000000000000, 0.000000000000000000, 1.000000000000000000 ) ) ;
#294 = CARTESIAN_POINT ( 'NONE',  ( -1.999906243143271700, -2.236151836146687444, 1.137988218901178517 ) ) ;
#295 = VERTEX_POINT ( 'NONE', #525 ) ;
#296 = DIRECTION ( 'NONE',  ( 0.000000000000000000, 1.000000000000000000, 0.000000000000000000 ) ) ;
#297 = VERTEX_POINT ( 'NONE', #214 ) ;
#298 = CARTESIAN_POINT ( 'NONE',  ( 0.000000000000000000, -20.49999999999999645, 3.000000000000000000 ) ) ;
#299 = ORIENTED_EDGE ( 'NONE', *, *, #344, .F. ) ;
#300 = CARTESIAN_POINT ( 'NONE',  ( -0.5337277124044753629, -2.955112199539268847, 2.932123084542766378 ) ) ;
#301 = B_SPLINE_CURVE_WITH_KNOTS ( 'NONE', 3,
 ( #59, #427, #385, #185, #106, #503, #459, #161, #61, #441, #22, #75, #244, #272, #188, #33, #506, #424, #140, #462, #204, #27, #348, #520, #109, #233, #508, #142, #159, #516, #389, #399, #117, #25 ),
 .UNSPECIFIED., .F., .F.,
 ( 4, 2, 2, 2, 2, 2, 2, 2, 2, 2, 2, 2, 2, 2, 2, 2, 4 ),
 ( 0.009825790690857984580, 0.01043861737600073995, 0.01105144406114349359, 0.01227709743142900434, 0.01288992411657175798, 0.01350275080171451335, 0.01411557748685726699, 0.01442199082942864641, 0.01472840417200002236, 0.01534123085714277773, 0.01595405754228553311, 0.01656688422742828848, 0.01717971091257104038, 0.01779253759771379922, 0.01840536428285655113, 0.01901819096799930650, 0.01963101765314206187 ),
 .UNSPECIFIED. ) ;
#302 = CARTESIAN_POINT ( 'NONE',  ( -1.366691683710728356, -3.764073034472760426, 3.677903352422423389 ) ) ;
#303 = ADVANCED_FACE ( 'NONE', ( #387 ), #351, .T. ) ;
#304 = APPROVAL_DATE_TIME ( #461, #85 ) ;
#305 = ORIENTED_EDGE ( 'NONE', *, *, #17, .T. ) ;
#306 = CIRCLE ( 'NONE', #416, 3.000000000000000444 ) ;
#307 = CARTESIAN_POINT ( 'NONE',  ( -2.001104084561370122, -3.466997444218884450, 3.242996716948622016 ) ) ;
#308 = COORDINATED_UNIVERSAL_TIME_OFFSET ( 1, 0, .AHEAD. ) ;
#309 = CIRCLE ( 'NONE', #501, 2.000000000000000000 ) ;
#310 = CARTESIAN_POINT ( 'NONE',  ( -2.999997368936834885, -2.645754294409797591, 1.204895706807275202 ) ) ;
#311 = APPROVAL ( #312, 'UNSPECIFIED' ) ;
#312 = APPROVAL_STATUS ( 'not_yet_approved' ) ;
#313 = PLANE ( 'NONE',  #12 ) ;
#314 = APPROVAL_STATUS ( 'not_yet_approved' ) ;
#315 = DIRECTION ( 'NONE',  ( 0.000000000000000000, 0.000000000000000000, 1.000000000000000000 ) ) ;
#316 = AXIS2_PLACEMENT_3D ( 'NONE', #2, #430, #63 ) ;
#317 = CARTESIAN_POINT ( 'NONE',  ( 0.000000000000000000, -20.49999999999999645, 1.000000000000000000 ) ) ;
#318 = PRODUCT_DEFINITION_FORMATION_WITH_SPECIFIED_SOURCE ( 'ANY', '', #466, .NOT_KNOWN. ) ;
#319 = CARTESIAN_POINT ( 'NONE',  ( -1.855476336094508349, -3.547913682635706056, -1.365157735895378588 ) ) ;
#320 = EDGE_CURVE ( 'NONE', #280, #135, #264, .T. ) ;
#321 = DIRECTION ( 'NONE',  ( 1.000000000000000000, 0.000000000000000000, 0.000000000000000000 ) ) ;
#322 = CARTESIAN_POINT ( 'NONE',  ( 1.729890891528428565, -2.452484503347715172, 2.011688312865279826 ) ) ;
#323 = FACE_OUTER_BOUND ( 'NONE', #72, .T. ) ;
#324 = CARTESIAN_POINT ( 'NONE',  ( 0.000000000000000000, 0.000000000000000000, -2.000000000000000000 ) ) ;
#325 = CC_DESIGN_APPROVAL ( #311, ( #486 ) ) ;
#326 = CARTESIAN_POINT ( 'NONE',  ( 1.985620179892434223, -2.249127558835265273, 1.273923860058096658 ) ) ;
#327 = LINE ( 'NONE', #56, #278 ) ;
#328 = PRODUCT_RELATED_PRODUCT_CATEGORY ( 'detail', '', ( #466 ) ) ;
#329 = ORIENTED_EDGE ( 'NONE', *, *, #17, .F. ) ;
#330 = CARTESIAN_POINT ( 'NONE',  ( 0.000000000000000000, -4.000000000000000000, -2.000000000000000000 ) ) ;
#331 = CARTESIAN_POINT ( 'NONE',  ( -0.9037060147868827276, -2.863360656756626543, 2.788965355210576202 ) ) ;
#332 = ORIENTED_EDGE ( 'NONE', *, *, #206, .F. ) ;
#333 = CARTESIAN_POINT ( 'NONE',  ( 1.230918635016139406, -2.738217113979104500, -0.5815107875312883756 ) ) ;
#334 = CARTESIAN_POINT ( 'NONE',  ( -1.016506249356585512, -2.824854902417107461, 2.727179890123723638 ) ) ;
#335 = VERTEX_POINT ( 'NONE', #349 ) ;
#336 = CARTESIAN_POINT ( 'NONE',  ( -1.892878168963183727, -2.328317370701048272, 0.3414438575427333755 ) ) ;
#337 = CARTESIAN_POINT ( 'NONE',  ( -0.6612984083846050742, -2.928928009784923070, -0.8921475962405119864 ) ) ;
#338 = ORIENTED_EDGE ( 'NONE', *, *, #152, .F. ) ;
#339 = CARTESIAN_POINT ( 'NONE',  ( -1.792443416822955271, -2.406490419414486936, 0.1034340220632611052 ) ) ;
#340 = ORIENTED_EDGE ( 'NONE', *, *, #52, .F. ) ;
#341 = CALENDAR_DATE ( 2023, 3, 12 ) ;
#342 = CARTESIAN_POINT ( 'NONE',  ( 0.000000000000000000, 0.000000000000000000, -0.9999999999999991118 ) ) ;
#343 = CARTESIAN_POINT ( 'NONE',  ( -0.2080939997293849431, -4.000000000000000888, 4.000000000000001776 ) ) ;
#344 = EDGE_CURVE ( 'NONE', #297, #92, #522, .T. ) ;
#345 = PERSON_AND_ORGANIZATION ( #84, #440 ) ;
#346 = CARTESIAN_POINT ( 'NONE',  ( 3.000000000000000444, 0.000000000000000000, 8.000000000000000000 ) ) ;
#347 = DATE_TIME_ROLE ( 'creation_date' ) ;
#348 = CARTESIAN_POINT ( 'NONE',  ( 2.593875623842718525, -3.047894944329757383, 2.518857761532675266 ) ) ;
#349 = CARTESIAN_POINT ( 'NONE',  ( 4.000000000000000000, 0.000000000000000000, 8.000000000000000000 ) ) ;
#350 = CARTESIAN_POINT ( 'NONE',  ( 0.1368467416877366394, -3.000000000000000444, 3.000000000000000444 ) ) ;
#351 = PLANE ( 'NONE',  #478 ) ;
#352 = LINE ( 'NONE', #111, #199 ) ;
#353 = ORIENTED_EDGE ( 'NONE', *, *, #97, .F. ) ;
#354 = VERTEX_POINT ( 'NONE', #425 ) ;
#355 = DIRECTION ( 'NONE',  ( 0.000000000000000000, 0.000000000000000000, 1.000000000000000000 ) ) ;
#356 = CARTESIAN_POINT ( 'NONE',  ( 1.024035089885775740, -2.830879736465665708, 2.737861142968481598 ) ) ;
#357 = EDGE_CURVE ( 'NONE', #395, #280, #38, .T. ) ;
#358 = FACE_OUTER_BOUND ( 'NONE', #200, .T. ) ;
#359 = VECTOR ( 'NONE', #179, 1000.000000000000000 ) ;
#360 = CC_DESIGN_PERSON_AND_ORGANIZATION_ASSIGNMENT ( #271, #421, ( #504 ) ) ;
#361 = CYLINDRICAL_SURFACE ( 'NONE', #81, 2.000000000000000000 ) ;
#362 = CIRCLE ( 'NONE', #464, 3.000000000000000444 ) ;
#363 = CARTESIAN_POINT ( 'NONE',  ( 0.000000000000000000, 0.000000000000000000, 8.000000000000000000 ) ) ;
#364 = ORIENTED_EDGE ( 'NONE', *, *, #289, .T. ) ;
#365 = CARTESIAN_POINT ( 'NONE',  ( 1.891555798120970744, -2.329400354782467542, 1.662359392279434189 ) ) ;
#366 = CARTESIAN_POINT ( 'NONE',  ( 0.000000000000000000, 0.000000000000000000, -0.9999999999999991118 ) ) ;
#367 = ORIENTED_EDGE ( 'NONE', *, *, #396, .T. ) ;
#368 = CARTESIAN_POINT ( 'NONE',  ( 0.000000000000000000, -3.000000000000000444, 3.000000000000000000 ) ) ;
#369 = DIRECTION ( 'NONE',  ( 0.000000000000000000, 1.000000000000000000, 0.000000000000000000 ) ) ;
#370 = CARTESIAN_POINT ( 'NONE',  ( -0.8086898690402867240, -3.922555576869149796, 3.896067145983618918 ) ) ;
#371 = EDGE_CURVE ( 'NONE', #83, #176, #301, .T. ) ;
#372 = ORIENTED_EDGE ( 'NONE', *, *, #357, .T. ) ;
#373 = CARTESIAN_POINT ( 'NONE',  ( -1.508818876411066379, -2.594938781802918815, -0.3188956412419199360 ) ) ;
#374 = ORIENTED_EDGE ( 'NONE', *, *, #172, .F. ) ;
#375 = CARTESIAN_POINT ( 'NONE',  ( -0.4112906537673070018, -3.983875193331150921, 3.978594335665358805 ) ) ;
#376 = COORDINATED_UNIVERSAL_TIME_OFFSET ( 1, 0, .AHEAD. ) ;
#377 = APPROVAL_PERSON_ORGANIZATION ( #177, #507, #54 ) ;
#378 = COORDINATED_UNIVERSAL_TIME_OFFSET ( 1, 0, .AHEAD. ) ;
#379 = CARTESIAN_POINT ( 'NONE',  ( -1.538241227827397584, -3.696574392520290075, 3.582830976650644317 ) ) ;
#380 = APPROVAL_ROLE ( '' ) ;
#381 = DIRECTION ( 'NONE',  ( -0.000000000000000000, 1.000000000000000000, -0.000000000000000000 ) ) ;
#382 = APPROVAL_PERSON_ORGANIZATION ( #13, #311, #380 ) ;
#383 = APPLICATION_PROTOCOL_DEFINITION ( 'international standard', 'config_control_design', 1994, #143 ) ;
#384 = AXIS2_PLACEMENT_3D ( 'NONE', #366, #207, #51 ) ;
#385 = CARTESIAN_POINT ( 'NONE',  ( 0.4133308372350432691, -3.983657167370095120, -1.978303374246615398 ) ) ;
#386 = DIRECTION ( 'NONE',  ( 1.000000000000000000, 0.000000000000000000, 0.000000000000000000 ) ) ;
#387 = FACE_OUTER_BOUND ( 'NONE', #483, .T. ) ;
#388 = EDGE_CURVE ( 'NONE', #526, #295, #327, .T. ) ;
#389 = CARTESIAN_POINT ( 'NONE',  ( 0.8138338779014741009, -3.921501729773926304, 3.894642133170118203 ) ) ;
#390 = DIRECTION ( 'NONE',  ( 0.000000000000000000, 0.000000000000000000, 1.000000000000000000 ) ) ;
#391 = CARTESIAN_POINT ( 'NONE',  ( 0.000000000000000000, -18.00000000000000000, 1.000000000000000000 ) ) ;
#392 = DIRECTION ( 'NONE',  ( -0.000000000000000000, 1.000000000000000000, -0.000000000000000000 ) ) ;
#393 = VECTOR ( 'NONE', #122, 1000.000000000000000 ) ;
#394 = CARTESIAN_POINT ( 'NONE',  ( 0.000000000000000000, -4.000000000000000000, -2.000000000000000000 ) ) ;
#395 = VERTEX_POINT ( 'NONE', #277 ) ;
#396 = EDGE_CURVE ( 'NONE', #153, #354, #162, .T. ) ;
#397 = DIRECTION ( 'NONE',  ( -0.000000000000000000, -0.000000000000000000, 1.000000000000000000 ) ) ;
#398 = DIRECTION ( 'NONE',  ( 0.000000000000000000, 0.000000000000000000, 1.000000000000000000 ) ) ;
#399 = CARTESIAN_POINT ( 'NONE',  ( 0.4161201418851676048, -3.983383665297319798, 3.977939335759086870 ) ) ;
#400 = ORIENTED_EDGE ( 'NONE', *, *, #396, .F. ) ;
#401 = CYLINDRICAL_SURFACE ( 'NONE', #178, 3.000000000000000000 ) ;
#402 = CARTESIAN_POINT ( 'NONE',  ( -1.328068351912740974, -2.691928529611089971, 2.500739927930800022 ) ) ;
#403 = LOCAL_TIME ( 17, 39, 26.00000000000000000, #308 ) ;
#404 = DIRECTION ( 'NONE',  ( 0.000000000000000000, 1.000000000000000000, 0.000000000000000000 ) ) ;
#405 = VECTOR ( 'NONE', #66, 1000.000000000000000 ) ;
#406 = DIRECTION ( 'NONE',  ( 0.000000000000000000, 0.000000000000000000, 1.000000000000000000 ) ) ;
#407 = EDGE_LOOP ( 'NONE', ( #512, #112, #46, #287 ) ) ;
#408 = CYLINDRICAL_SURFACE ( 'NONE', #384, 3.000000000000000444 ) ;
#409 = CIRCLE ( 'NONE', #19, 2.000000000000000000 ) ;
#410 = ORIENTED_EDGE ( 'NONE', *, *, #9, .T. ) ;
#411 = CARTESIAN_POINT ( 'NONE',  ( -2.896481260030561611, -2.759350855305628070, 1.806688700942162384 ) ) ;
#412 = EDGE_CURVE ( 'NONE', #92, #218, #191, .T. ) ;
#413 = CARTESIAN_POINT ( 'NONE',  ( 3.000000000000000444, 0.000000000000000000, -0.9999999999999991118 ) ) ;
#414 = ORIENTED_EDGE ( 'NONE', *, *, #270, .T. ) ;
#415 = FACE_OUTER_BOUND ( 'NONE', #493, .T. ) ;
#416 = AXIS2_PLACEMENT_3D ( 'NONE', #48, #45, #485 ) ;
#417 = ORIENTED_EDGE ( 'NONE', *, *, #460, .F. ) ;
#418 = DIRECTION ( 'NONE',  ( 1.000000000000000000, 0.000000000000000000, 0.000000000000000000 ) ) ;
#419 = DATE_AND_TIME ( #57, #275 ) ;
#420 = CARTESIAN_POINT ( 'NONE',  ( -2.594192048942200124, -3.047632601317872503, -0.5183476876278833023 ) ) ;
#421 = PERSON_AND_ORGANIZATION_ROLE ( 'classification_officer' ) ;
#422 = CARTESIAN_POINT ( 'NONE',  ( -2.264465001747828943, -3.301007135493859934, -0.9767565664790777147 ) ) ;
#423 = DIRECTION ( 'NONE',  ( 1.000000000000000000, 0.000000000000000000, 0.000000000000000000 ) ) ;
#424 = CARTESIAN_POINT ( 'NONE',  ( 2.999972751268388915, -2.645782208221425069, 1.206877836822574546 ) ) ;
#425 = CARTESIAN_POINT ( 'NONE',  ( 0.000000000000000000, -20.49999999999999645, 4.000000000000000000 ) ) ;
#426 = ADVANCED_FACE ( 'NONE', ( #237 ), #361, .F. ) ;
#427 = CARTESIAN_POINT ( 'NONE',  ( 0.2050786897151778421, -4.000000000000003553, -2.000000000000005329 ) ) ;
#428 = CC_DESIGN_SECURITY_CLASSIFICATION ( #504, ( #318 ) ) ;
#429 = CARTESIAN_POINT ( 'NONE',  ( 0.000000000000000000, -20.49999999999999645, 1.000000000000000000 ) ) ;
#430 = DIRECTION ( 'NONE',  ( 0.000000000000000000, 0.000000000000000000, 1.000000000000000000 ) ) ;
#431 = DIRECTION ( 'NONE',  ( 0.000000000000000000, 1.000000000000000000, 0.000000000000000000 ) ) ;
#432 = ADVANCED_FACE ( 'NONE', ( #358 ), #313, .F. ) ;
#433 = CARTESIAN_POINT ( 'NONE',  ( 0.000000000000000000, -18.00000000000000000, 1.000000000000000000 ) ) ;
#434 = CARTESIAN_POINT ( 'NONE',  ( 0.000000000000000000, 0.000000000000000000, 8.000000000000000000 ) ) ;
#435 = ORIENTED_EDGE ( 'NONE', *, *, #460, .T. ) ;
#436 = CARTESIAN_POINT ( 'NONE',  ( 0.000000000000000000, -3.000000000000000444, -0.9999999999999991118 ) ) ;
#437 = CC_DESIGN_PERSON_AND_ORGANIZATION_ASSIGNMENT ( #345, #96, ( #318 ) ) ;
#438 = VERTEX_POINT ( 'NONE', #346 ) ;
#439 = CARTESIAN_POINT ( 'NONE',  ( 0.6617313837602543103, -2.928800829990314547, -0.8919458627964804709 ) ) ;
#440 = ORGANIZATION ( 'UNSPECIFIED', 'UNSPECIFIED', '' ) ;
#441 = CARTESIAN_POINT ( 'NONE',  ( 2.595793912147568605, -3.046274080683697427, -0.5156529912117998604 ) ) ;
#442 = CARTESIAN_POINT ( 'NONE',  ( 0.000000000000000000, -20.49999999999999645, 1.000000000000000000 ) ) ;
#443 = CARTESIAN_POINT ( 'NONE',  ( 0.000000000000000000, -20.49999999999999645, 1.000000000000000000 ) ) ;
#444 = EDGE_CURVE ( 'NONE', #135, #295, #182, .T. ) ;
#445 = FACE_BOUND ( 'NONE', #521, .T. ) ;
#446 = ORIENTED_EDGE ( 'NONE', *, *, #510, .F. ) ;
#447 = FACE_OUTER_BOUND ( 'NONE', #120, .T. ) ;
#448 = ORIENTED_EDGE ( 'NONE', *, *, #107, .F. ) ;
#449 = ADVANCED_FACE ( 'NONE', ( #415 ), #408, .F. ) ;
#450 = CYLINDRICAL_SURFACE ( 'NONE', #189, 4.000000000000000000 ) ;
#451 = EDGE_LOOP ( 'NONE', ( #435, #414, #487, #489 ) ) ;
#452 = CIRCLE ( 'NONE', #114, 3.000000000000000000 ) ;
#453 = CC_DESIGN_APPROVAL ( #85, ( #318 ) ) ;
#454 = ORIENTED_EDGE ( 'NONE', *, *, #229, .F. ) ;
#455 = SECURITY_CLASSIFICATION_LEVEL ( 'unclassified' ) ;
#456 = ORIENTED_EDGE ( 'NONE', *, *, #412, .T. ) ;
#457 = CARTESIAN_POINT ( 'NONE',  ( -3.000002630568400885, -2.645748328280394190, 0.7951813463605816867 ) ) ;
#458 = APPROVAL_DATE_TIME ( #225, #311 ) ;
#459 = CARTESIAN_POINT ( 'NONE',  ( 1.870568952631181503, -3.549407930082264517, -1.375277643766330771 ) ) ;
#460 = EDGE_CURVE ( 'NONE', #354, #153, #452, .T. ) ;
#461 = DATE_AND_TIME ( #139, #90 ) ;
#462 = CARTESIAN_POINT ( 'NONE',  ( 2.896142836070912274, -2.759718958642628728, 1.808416981623211850 ) ) ;
#463 = CARTESIAN_POINT ( 'NONE',  ( -4.000000000000000000, 4.898587196589412829E-16, -2.000000000000000000 ) ) ;
#464 = AXIS2_PLACEMENT_3D ( 'NONE', #246, #355, #249 ) ;
#465 = DIRECTION ( 'NONE',  ( 0.000000000000000000, 0.000000000000000000, 1.000000000000000000 ) ) ;
#466 = PRODUCT ( 'Pièce5_RaccordTuyau_Défaut_sldprt', 'Pièce5_RaccordTuyau_Défaut_sldprt', '', ( #141 ) ) ;
#467 = LINE ( 'NONE', #64, #118 ) ;
#468 = ADVANCED_FACE ( 'NONE', ( #445, #530 ), #248, .T. ) ;
#469 = CARTESIAN_POINT ( 'NONE',  ( 3.673940397442060361E-16, -20.49999999999999645, -2.000000000000000444 ) ) ;
#470 = CARTESIAN_POINT ( 'NONE',  ( 0.000000000000000000, 0.000000000000000000, -2.000000000000000000 ) ) ;
#471 = CARTESIAN_POINT ( 'NONE',  ( 0.9041289487027943661, -2.863269734084233242, -0.7888259882178477733 ) ) ;
#472 = MANIFOLD_SOLID_BREP ( 'Enlèv. mat.-Extru.3', #245 ) ;
#473 = FACE_BOUND ( 'NONE', #518, .T. ) ;
#474 = AXIS2_PLACEMENT_3D ( 'NONE', #126, #296, #1 ) ;
#475 = CARTESIAN_POINT ( 'NONE',  ( 1.999881317805502601, -2.236174130009700001, 1.137423182514865294 ) ) ;
#476 = CYLINDRICAL_SURFACE ( 'NONE', #239, 4.000000000000000000 ) ;
#477 = DIRECTION ( 'NONE',  ( 0.000000000000000000, 0.000000000000000000, 1.000000000000000000 ) ) ;
#478 = AXIS2_PLACEMENT_3D ( 'NONE', #342, #173, #267 ) ;
#479 = CARTESIAN_POINT ( 'NONE',  ( 2.449293598294706414E-16, -20.49999999999999645, -1.000000000000000000 ) ) ;
#480 = CARTESIAN_POINT ( 'NONE',  ( 0.000000000000000000, 0.000000000000000000, -0.9999999999999991118 ) ) ;
#481 = CARTESIAN_POINT ( 'NONE',  ( -4.000000000000000000, 4.898587196589412829E-16, -2.000000000000000000 ) ) ;
#482 = LINE ( 'NONE', #413, #393 ) ;
#483 = EDGE_LOOP ( 'NONE', ( #157, #372, #243 ) ) ;
#484 = DIRECTION ( 'NONE',  ( 0.000000000000000000, 0.000000000000000000, 1.000000000000000000 ) ) ;
#485 = DIRECTION ( 'NONE',  ( 1.000000000000000000, 0.000000000000000000, 0.000000000000000000 ) ) ;
#486 = PRODUCT_DEFINITION ( 'UNKNOWN', '', #318, #502 ) ;
#487 = ORIENTED_EDGE ( 'NONE', *, *, #371, .T. ) ;
#488 = FACE_OUTER_BOUND ( 'NONE', #37, .T. ) ;
#489 = ORIENTED_EDGE ( 'NONE', *, *, #9, .F. ) ;
#490 = CARTESIAN_POINT ( 'NONE',  ( -2.978445735337013733, -2.670675736290026858, 0.5881887321887624420 ) ) ;
#491 = CARTESIAN_POINT ( 'NONE',  ( -1.595695729707131916, -2.548476831705517753, 2.231949127499301966 ) ) ;
#492 = CIRCLE ( 'NONE', #528, 3.000000000000000444 ) ;
#493 = EDGE_LOOP ( 'NONE', ( #6, #150, #129, #446, #332, #283, #240 ) ) ;
#494 = CARTESIAN_POINT ( 'NONE',  ( -0.5347307211705889518, -2.954947204113445469, -0.9318716651729663791 ) ) ;
#495 = ORIENTED_EDGE ( 'NONE', *, *, #229, .T. ) ;
#496 = AXIS2_PLACEMENT_3D ( 'NONE', #480, #315, #20 ) ;
#497 = SHAPE_DEFINITION_REPRESENTATION ( #205, #156 ) ;
#498 = AXIS2_PLACEMENT_3D ( 'NONE', #67, #35, #256 ) ;
#499 = CARTESIAN_POINT ( 'NONE',  ( -2.836231850605434701, -2.822535388549624269, 1.996545182650881545 ) ) ;
#500 = VECTOR ( 'NONE', #369, 1000.000000000000000 ) ;
#501 = AXIS2_PLACEMENT_3D ( 'NONE', #429, #234, #148 ) ;
#502 = DESIGN_CONTEXT ( 'detailed design', #203, 'design' ) ;
#503 = CARTESIAN_POINT ( 'NONE',  ( 1.550816310562256772, -3.706805529411250077, -1.598501198773122134 ) ) ;
#504 = SECURITY_CLASSIFICATION ( '', '', #455 ) ;
#505 = PERSON_AND_ORGANIZATION_ROLE ( 'design_supplier' ) ;
#506 = CARTESIAN_POINT ( 'NONE',  ( 3.000013585256702697, -2.645735906831727213, 0.8971543622435190768 ) ) ;
#507 = APPROVAL ( #314, 'UNSPECIFIED' ) ;
#508 = CARTESIAN_POINT ( 'NONE',  ( 1.855084427753079135, -3.548065804854014793, 3.365370959086741998 ) ) ;
#509 = DIRECTION ( 'NONE',  ( 1.000000000000000000, 0.000000000000000000, 0.000000000000000000 ) ) ;
#510 = EDGE_CURVE ( 'NONE', #395, #438, #482, .T. ) ;
#511 = CARTESIAN_POINT ( 'NONE',  ( -0.4086563877605177697, -3.984255102290063633, -1.979104963607104084 ) ) ;
#512 = ORIENTED_EDGE ( 'NONE', *, *, #82, .F. ) ;
#513 = CARTESIAN_POINT ( 'NONE',  ( -4.000000000000000000, 4.898587196589412829E-16, 8.000000000000000000 ) ) ;
#514 = CARTESIAN_POINT ( 'NONE',  ( 1.741723136264542227, -2.445976512264761205, -0.01686476385693198854 ) ) ;
#515 = ORIENTED_EDGE ( 'NONE', *, *, #270, .F. ) ;
#516 = CARTESIAN_POINT ( 'NONE',  ( 1.008246845225453825, -3.875538422119417348, 3.832449485358659924 ) ) ;
#517 = ADVANCED_FACE ( 'NONE', ( #488 ), #169, .T. ) ;
#518 = EDGE_LOOP ( 'NONE', ( #87, #29 ) ) ;
#519 = CARTESIAN_POINT ( 'NONE',  ( 0.1348394930680408832, -3.000000000000001332, -1.000000000000000000 ) ) ;
#520 = CARTESIAN_POINT ( 'NONE',  ( 2.384689975051541566, -3.214204110899777422, 2.829856107627640061 ) ) ;
#521 = EDGE_LOOP ( 'NONE', ( #170, #374 ) ) ;
#522 = CIRCLE ( 'NONE', #62, 4.000000000000000000 ) ;
#523 = CARTESIAN_POINT ( 'NONE',  ( 1.588475361503766337, -2.546359904186599632, 2.221794485532120778 ) ) ;
#524 = CARTESIAN_POINT ( 'NONE',  ( -1.241361363678809004, -2.738610723933236901, -0.5884276571410593792 ) ) ;
#525 = CARTESIAN_POINT ( 'NONE',  ( 0.000000000000000000, -3.000000000000000444, 3.000000000000000000 ) ) ;
#526 = VERTEX_POINT ( 'NONE', #298 ) ;
#527 = CARTESIAN_POINT ( 'NONE',  ( 1.943835915235843315, -2.288646437654649368, 0.4623055086647810397 ) ) ;
#528 = AXIS2_PLACEMENT_3D ( 'NONE', #434, #465, #509 ) ;
#529 = ADVANCED_FACE ( 'NONE', ( #447 ), #450, .T. ) ;
#530 = FACE_OUTER_BOUND ( 'NONE', #261, .T. ) ;
#531 = ORIENTED_EDGE ( 'NONE', *, *, #65, .T. ) ;
ENDSEC;
END-ISO-10303-21;
