ISO-10303-21;
HEADER;
FILE_DESCRIPTION (( 'STEP AP203' ),
    '1' );
FILE_NAME ('Pièce5_ViceTcyM3_10_Défaut_sldprt.STEP',
    '2023-12-03T16:39:33',
    ( 'LIA INFO' ),
    ( '' ),
    'SwSTEP 2.0',
    'SolidWorks 2022',
    '' );
FILE_SCHEMA (( 'CONFIG_CONTROL_DESIGN' ));
ENDSEC;

DATA;
#1 = CARTESIAN_POINT ( 'NONE',  ( 2.725331093067386856, -0.3675192963098981025, 2.500000000000000000 ) ) ;
#2 = ADVANCED_FACE ( 'NONE', ( #176 ), #28, .F. ) ;
#3 = CARTESIAN_POINT ( 'NONE',  ( 0.000000000000000000, 0.000000000000000000, 2.500000000000000000 ) ) ;
#4 =( NAMED_UNIT ( * ) PLANE_ANGLE_UNIT ( ) SI_UNIT ( $, .RADIAN. ) );
#5 = CARTESIAN_POINT ( 'NONE',  ( 2.725331093067386856, -0.3675192963098981025, 0.7500000000000000000 ) ) ;
#6 = CYLINDRICAL_SURFACE ( 'NONE', #332, 2.750000000000000000 ) ;
#7 = CARTESIAN_POINT ( 'NONE',  ( 0.000000000000000000, 0.000000000000000000, 12.50000000000000000 ) ) ;
#8 = CIRCLE ( 'NONE', #299, 2.750000000000000000 ) ;
#9 = ORIENTED_EDGE ( 'NONE', *, *, #182, .F. ) ;
#10 = ADVANCED_FACE ( 'NONE', ( #272 ), #296, .F. ) ;
#11 = CC_DESIGN_PERSON_AND_ORGANIZATION_ASSIGNMENT ( #285, #138, ( #192 ) ) ;
#12 = ORIENTED_EDGE ( 'NONE', *, *, #41, .F. ) ;
#13 = DATE_AND_TIME ( #385, #369 ) ;
#14 = APPROVAL_DATE_TIME ( #165, #123 ) ;
#15 = DIRECTION ( 'NONE',  ( 0.000000000000000000, 0.000000000000000000, 1.000000000000000000 ) ) ;
#16 = ORIENTED_EDGE ( 'NONE', *, *, #352, .T. ) ;
#17 = SECURITY_CLASSIFICATION_LEVEL ( 'unclassified' ) ;
#18 = FACE_OUTER_BOUND ( 'NONE', #134, .T. ) ;
#19 = DIRECTION ( 'NONE',  ( 0.000000000000000000, 0.000000000000000000, 1.000000000000000000 ) ) ;
#20 = DATE_TIME_ROLE ( 'creation_date' ) ;
#21 = DIRECTION ( 'NONE',  ( 0.000000000000000000, 0.000000000000000000, 1.000000000000000000 ) ) ;
#22 = CARTESIAN_POINT ( 'NONE',  ( 3.693342064150884951, 0.3675192963098981025, 0.7500000000000000000 ) ) ;
#23 = VECTOR ( 'NONE', #357, 1000.000000000000000 ) ;
#24 = ORGANIZATION ( 'UNSPECIFIED', 'UNSPECIFIED', '' ) ;
#25 = CARTESIAN_POINT ( 'NONE',  ( 2.725331093067386856, 0.3675192963098981025, 2.500000000000000000 ) ) ;
#26 = EDGE_CURVE ( 'NONE', #331, #128, #312, .T. ) ;
#27 = FACE_OUTER_BOUND ( 'NONE', #46, .T. ) ;
#28 = PLANE ( 'NONE',  #131 ) ;
#29 = ORIENTED_EDGE ( 'NONE', *, *, #267, .F. ) ;
#30 = AXIS2_PLACEMENT_3D ( 'NONE', #3, #344, #122 ) ;
#31 = CIRCLE ( 'NONE', #126, 2.750000000000000000 ) ;
#32 = CARTESIAN_POINT ( 'NONE',  ( -1.500000000000000222, 0.000000000000000000, 12.50000000000000000 ) ) ;
#33 = CARTESIAN_POINT ( 'NONE',  ( 2.725331093067386856, 0.3675192963098981025, 0.000000000000000000 ) ) ;
#34 = CIRCLE ( 'NONE', #30, 1.500000000000000222 ) ;
#35 = DIRECTION ( 'NONE',  ( 1.000000000000000000, 0.000000000000000000, 0.000000000000000000 ) ) ;
#36 = LINE ( 'NONE', #278, #298 ) ;
#37 =( NAMED_UNIT ( * ) SI_UNIT ( $, .STERADIAN. ) SOLID_ANGLE_UNIT ( ) );
#38 = ORIENTED_EDGE ( 'NONE', *, *, #152, .T. ) ;
#39 = ADVANCED_FACE ( 'NONE', ( #27 ), #116, .T. ) ;
#40 = AXIS2_PLACEMENT_3D ( 'NONE', #208, #303, #361 ) ;
#41 = EDGE_CURVE ( 'NONE', #258, #331, #150, .T. ) ;
#42 = APPROVAL_PERSON_ORGANIZATION ( #48, #224, #102 ) ;
#43 = ORIENTED_EDGE ( 'NONE', *, *, #282, .F. ) ;
#44 = DATE_TIME_ROLE ( 'classification_date' ) ;
#45 = MANIFOLD_SOLID_BREP ( 'Enlèv. mat.-Extru.1', #215 ) ;
#46 = EDGE_LOOP ( 'NONE', ( #166, #283, #16, #88 ) ) ;
#47 = ORIENTED_EDGE ( 'NONE', *, *, #72, .F. ) ;
#48 = PERSON_AND_ORGANIZATION ( #288, #24 ) ;
#49 = VECTOR ( 'NONE', #236, 1000.000000000000000 ) ;
#50 = AXIS2_PLACEMENT_3D ( 'NONE', #171, #52, #115 ) ;
#51 = CALENDAR_DATE ( 2023, 3, 12 ) ;
#52 = DIRECTION ( 'NONE',  ( 0.000000000000000000, 0.000000000000000000, 1.000000000000000000 ) ) ;
#53 = CARTESIAN_POINT ( 'NONE',  ( 0.000000000000000000, 0.000000000000000000, 0.7500000000000000000 ) ) ;
#54 = DIRECTION ( 'NONE',  ( 1.000000000000000000, 0.000000000000000000, -0.000000000000000000 ) ) ;
#55 = ORIENTED_EDGE ( 'NONE', *, *, #135, .T. ) ;
#56 = EDGE_CURVE ( 'NONE', #388, #289, #75, .T. ) ;
#57 = CARTESIAN_POINT ( 'NONE',  ( 1.500000000000000222, 1.836970198721030181E-16, 12.50000000000000000 ) ) ;
#58 = ORIENTED_EDGE ( 'NONE', *, *, #182, .T. ) ;
#59 = VECTOR ( 'NONE', #281, 1000.000000000000000 ) ;
#60 = ORIENTED_EDGE ( 'NONE', *, *, #389, .T. ) ;
#61 = DESIGN_CONTEXT ( 'detailed design', #280, 'design' ) ;
#62 = ADVANCED_BREP_SHAPE_REPRESENTATION ( 'PiÞce5_ViceTcyM3_10_DÚfaut_sldprt', ( #45, #265 ), #156 ) ;
#63 = DIRECTION ( 'NONE',  ( 1.000000000000000000, 0.000000000000000000, -0.000000000000000000 ) ) ;
#64 = ORIENTED_EDGE ( 'NONE', *, *, #214, .F. ) ;
#65 = CIRCLE ( 'NONE', #108, 1.500000000000000222 ) ;
#66 = CARTESIAN_POINT ( 'NONE',  ( 2.750000000000000000, 3.367778697655221012E-16, 2.500000000000000000 ) ) ;
#67 = DIRECTION ( 'NONE',  ( -1.000000000000000000, 0.000000000000000000, 0.000000000000000000 ) ) ;
#68 = EDGE_CURVE ( 'NONE', #128, #127, #274, .T. ) ;
#69 = LINE ( 'NONE', #184, #207 ) ;
#70 =( LENGTH_UNIT ( ) NAMED_UNIT ( * ) SI_UNIT ( .MILLI., .METRE. ) );
#71 = PLANE ( 'NONE',  #338 ) ;
#72 = EDGE_CURVE ( 'NONE', #178, #85, #384, .T. ) ;
#73 = DIRECTION ( 'NONE',  ( 1.000000000000000000, 0.000000000000000000, 0.000000000000000000 ) ) ;
#74 = EDGE_LOOP ( 'NONE', ( #203, #158 ) ) ;
#75 = CIRCLE ( 'NONE', #241, 1.500000000000000222 ) ;
#76 = CC_DESIGN_APPROVAL ( #183, ( #192 ) ) ;
#77 = ORIENTED_EDGE ( 'NONE', *, *, #135, .F. ) ;
#78 = ORIENTED_EDGE ( 'NONE', *, *, #339, .F. ) ;
#79 = EDGE_LOOP ( 'NONE', ( #205, #101, #172, #55, #9, #145 ) ) ;
#80 = CARTESIAN_POINT ( 'NONE',  ( 2.750000000000000000, 3.367778697655221012E-16, 2.500000000000000000 ) ) ;
#81 = AXIS2_PLACEMENT_3D ( 'NONE', #242, #133, #261 ) ;
#82 = CARTESIAN_POINT ( 'NONE',  ( -2.725331093067386856, 0.3675192963098981025, 0.7500000000000000000 ) ) ;
#83 = COORDINATED_UNIVERSAL_TIME_OFFSET ( 1, 0, .AHEAD. ) ;
#84 = CARTESIAN_POINT ( 'NONE',  ( 0.000000000000000000, 0.000000000000000000, 2.500000000000000000 ) ) ;
#85 = VERTEX_POINT ( 'NONE', #82 ) ;
#86 = CC_DESIGN_PERSON_AND_ORGANIZATION_ASSIGNMENT ( #188, #190, ( #333 ) ) ;
#87 = PLANE ( 'NONE',  #50 ) ;
#88 = ORIENTED_EDGE ( 'NONE', *, *, #214, .T. ) ;
#89 = DIRECTION ( 'NONE',  ( 0.000000000000000000, -0.000000000000000000, 1.000000000000000000 ) ) ;
#90 = VERTEX_POINT ( 'NONE', #201 ) ;
#91 = DIRECTION ( 'NONE',  ( 1.000000000000000000, 0.000000000000000000, -0.000000000000000000 ) ) ;
#92 = DIRECTION ( 'NONE',  ( 0.000000000000000000, -0.000000000000000000, 1.000000000000000000 ) ) ;
#93 = LOCAL_TIME ( 17, 39, 33.00000000000000000, #83 ) ;
#94 = DIRECTION ( 'NONE',  ( 0.000000000000000000, 0.000000000000000000, 1.000000000000000000 ) ) ;
#95 = CARTESIAN_POINT ( 'NONE',  ( 0.000000000000000000, 0.000000000000000000, 2.500000000000000000 ) ) ;
#96 = CC_DESIGN_APPROVAL ( #123, ( #300 ) ) ;
#97 = DIRECTION ( 'NONE',  ( 1.000000000000000000, 0.000000000000000000, 0.000000000000000000 ) ) ;
#98 = CARTESIAN_POINT ( 'NONE',  ( 1.500000000000000222, 1.836970198721030181E-16, 2.500000000000000000 ) ) ;
#99 = EDGE_LOOP ( 'NONE', ( #382, #60 ) ) ;
#100 = LOCAL_TIME ( 17, 39, 33.00000000000000000, #228 ) ;
#101 = ORIENTED_EDGE ( 'NONE', *, *, #378, .F. ) ;
#102 = APPROVAL_ROLE ( '' ) ;
#103 = PERSON_AND_ORGANIZATION ( #288, #24 ) ;
#104 = DIRECTION ( 'NONE',  ( 1.000000000000000000, 0.000000000000000000, -0.000000000000000000 ) ) ;
#105 = VERTEX_POINT ( 'NONE', #326 ) ;
#106 = CYLINDRICAL_SURFACE ( 'NONE', #112, 2.750000000000000000 ) ;
#107 = DATE_AND_TIME ( #167, #142 ) ;
#108 = AXIS2_PLACEMENT_3D ( 'NONE', #7, #94, #248 ) ;
#109 = LINE ( 'NONE', #235, #23 ) ;
#110 = CIRCLE ( 'NONE', #155, 2.750000000000000000 ) ;
#111 = PRODUCT_DEFINITION ( 'UNKNOWN', '', #192, #61 ) ;
#112 = AXIS2_PLACEMENT_3D ( 'NONE', #363, #271, #202 ) ;
#113 = CARTESIAN_POINT ( 'NONE',  ( 0.000000000000000000, 0.000000000000000000, 0.000000000000000000 ) ) ;
#114 = EDGE_CURVE ( 'NONE', #127, #222, #234, .T. ) ;
#115 = DIRECTION ( 'NONE',  ( 1.000000000000000000, 0.000000000000000000, -0.000000000000000000 ) ) ;
#116 = CYLINDRICAL_SURFACE ( 'NONE', #168, 1.500000000000000222 ) ;
#117 = LINE ( 'NONE', #325, #216 ) ;
#118 = DIRECTION ( 'NONE',  ( -0.000000000000000000, -0.000000000000000000, -1.000000000000000000 ) ) ;
#119 = AXIS2_PLACEMENT_3D ( 'NONE', #22, #391, #143 ) ;
#120 = ORIENTED_EDGE ( 'NONE', *, *, #376, .F. ) ;
#121 = DIRECTION ( 'NONE',  ( 0.000000000000000000, 0.000000000000000000, 1.000000000000000000 ) ) ;
#122 = DIRECTION ( 'NONE',  ( 1.000000000000000000, 0.000000000000000000, 0.000000000000000000 ) ) ;
#123 = APPROVAL ( #129, 'UNSPECIFIED' ) ;
#124 = CARTESIAN_POINT ( 'NONE',  ( 2.725331093067386856, -0.3675192963098981025, 0.000000000000000000 ) ) ;
#125 = LINE ( 'NONE', #220, #59 ) ;
#126 = AXIS2_PLACEMENT_3D ( 'NONE', #84, #328, #173 ) ;
#127 = VERTEX_POINT ( 'NONE', #5 ) ;
#128 = VERTEX_POINT ( 'NONE', #124 ) ;
#129 = APPROVAL_STATUS ( 'not_yet_approved' ) ;
#130 = EDGE_CURVE ( 'NONE', #346, #196, #65, .T. ) ;
#131 = AXIS2_PLACEMENT_3D ( 'NONE', #362, #19, #329 ) ;
#132 = ORIENTED_EDGE ( 'NONE', *, *, #41, .T. ) ;
#133 = DIRECTION ( 'NONE',  ( 0.000000000000000000, -1.000000000000000000, 0.000000000000000000 ) ) ;
#134 = EDGE_LOOP ( 'NONE', ( #160, #211 ) ) ;
#135 = EDGE_CURVE ( 'NONE', #127, #258, #36, .T. ) ;
#136 = DIRECTION ( 'NONE',  ( 0.000000000000000000, 0.000000000000000000, 1.000000000000000000 ) ) ;
#137 = CARTESIAN_POINT ( 'NONE',  ( 0.000000000000000000, 0.000000000000000000, 12.50000000000000000 ) ) ;
#138 = PERSON_AND_ORGANIZATION_ROLE ( 'creator' ) ;
#139 = AXIS2_PLACEMENT_3D ( 'NONE', #113, #244, #270 ) ;
#140 = LINE ( 'NONE', #25, #337 ) ;
#141 = VECTOR ( 'NONE', #175, 1000.000000000000000 ) ;
#142 = LOCAL_TIME ( 17, 39, 33.00000000000000000, #194 ) ;
#143 = DIRECTION ( 'NONE',  ( 0.000000000000000000, 0.000000000000000000, 1.000000000000000000 ) ) ;
#144 = DIRECTION ( 'NONE',  ( -0.000000000000000000, -0.000000000000000000, -1.000000000000000000 ) ) ;
#145 = ORIENTED_EDGE ( 'NONE', *, *, #327, .F. ) ;
#146 = PRODUCT_DEFINITION_SHAPE ( 'NONE', 'NONE',  #111 ) ;
#148 = DIRECTION ( 'NONE',  ( -0.000000000000000000, -0.000000000000000000, -1.000000000000000000 ) ) ;
#147 = CC_DESIGN_SECURITY_CLASSIFICATION ( #300, ( #192 ) ) ;
#149 = VERTEX_POINT ( 'NONE', #66 ) ;
#150 = LINE ( 'NONE', #366, #353 ) ;
#151 = CARTESIAN_POINT ( 'NONE',  ( 0.000000000000000000, 0.000000000000000000, 0.7500000000000000000 ) ) ;
#152 = EDGE_CURVE ( 'NONE', #346, #388, #69, .T. ) ;
#153 = ADVANCED_FACE ( 'NONE', ( #370 ), #6, .T. ) ;
#154 = DIRECTION ( 'NONE',  ( -1.000000000000000000, 0.000000000000000000, 0.000000000000000000 ) ) ;
#155 = AXIS2_PLACEMENT_3D ( 'NONE', #151, #372, #97 ) ;
#156 =( GEOMETRIC_REPRESENTATION_CONTEXT ( 3 ) GLOBAL_UNCERTAINTY_ASSIGNED_CONTEXT ( ( #359 ) ) GLOBAL_UNIT_ASSIGNED_CONTEXT ( ( #70, #4, #37 ) ) REPRESENTATION_CONTEXT ( 'NONE', 'WORKASPACE' ) );
#157 = CARTESIAN_POINT ( 'NONE',  ( 0.000000000000000000, 0.000000000000000000, 12.50000000000000000 ) ) ;
#158 = ORIENTED_EDGE ( 'NONE', *, *, #339, .T. ) ;
#159 = AXIS2_PLACEMENT_3D ( 'NONE', #294, #21, #204 ) ;
#160 = ORIENTED_EDGE ( 'NONE', *, *, #350, .T. ) ;
#161 = PERSON_AND_ORGANIZATION ( #288, #24 ) ;
#162 = ADVANCED_FACE ( 'NONE', ( #310 ), #342, .T. ) ;
#163 = CC_DESIGN_DATE_AND_TIME_ASSIGNMENT ( #107, #20, ( #111 ) ) ;
#164 = VERTEX_POINT ( 'NONE', #33 ) ;
#165 = DATE_AND_TIME ( #348, #100 ) ;
#166 = ORIENTED_EDGE ( 'NONE', *, *, #152, .F. ) ;
#167 = CALENDAR_DATE ( 2023, 3, 12 ) ;
#168 = AXIS2_PLACEMENT_3D ( 'NONE', #137, #239, #262 ) ;
#169 = ORIENTED_EDGE ( 'NONE', *, *, #368, .T. ) ;
#170 = COORDINATED_UNIVERSAL_TIME_OFFSET ( 1, 0, .AHEAD. ) ;
#171 = CARTESIAN_POINT ( 'NONE',  ( 0.000000000000000000, 0.000000000000000000, 12.50000000000000000 ) ) ;
#172 = ORIENTED_EDGE ( 'NONE', *, *, #114, .F. ) ;
#173 = DIRECTION ( 'NONE',  ( 1.000000000000000000, 0.000000000000000000, 0.000000000000000000 ) ) ;
#174 = ORIENTED_EDGE ( 'NONE', *, *, #26, .T. ) ;
#175 = DIRECTION ( 'NONE',  ( -0.000000000000000000, -0.000000000000000000, -1.000000000000000000 ) ) ;
#176 = FACE_OUTER_BOUND ( 'NONE', #74, .T. ) ;
#177 = CARTESIAN_POINT ( 'NONE',  ( -2.725331093067386856, -0.3675192963098981025, 0.7500000000000000000 ) ) ;
#178 = VERTEX_POINT ( 'NONE', #181 ) ;
#179 = FACE_OUTER_BOUND ( 'NONE', #305, .T. ) ;
#180 = DIRECTION ( 'NONE',  ( 1.000000000000000000, 0.000000000000000000, 0.000000000000000000 ) ) ;
#181 = CARTESIAN_POINT ( 'NONE',  ( -2.725331093067386856, 0.3675192963098981025, 0.000000000000000000 ) ) ;
#182 = EDGE_CURVE ( 'NONE', #105, #258, #110, .T. ) ;
#183 = APPROVAL ( #260, 'UNSPECIFIED' ) ;
#184 = CARTESIAN_POINT ( 'NONE',  ( 1.500000000000000222, 1.836970198721030181E-16, 12.50000000000000000 ) ) ;
#185 = FACE_OUTER_BOUND ( 'NONE', #99, .T. ) ;
#186 = CIRCLE ( 'NONE', #40, 2.750000000000000000 ) ;
#187 = DIRECTION ( 'NONE',  ( 0.000000000000000000, -0.000000000000000000, 1.000000000000000000 ) ) ;
#188 = PERSON_AND_ORGANIZATION ( #288, #24 ) ;
#189 = ORIENTED_EDGE ( 'NONE', *, *, #114, .T. ) ;
#190 = PERSON_AND_ORGANIZATION_ROLE ( 'design_owner' ) ;
#191 = CC_DESIGN_DATE_AND_TIME_ASSIGNMENT ( #315, #44, ( #300 ) ) ;
#192 = PRODUCT_DEFINITION_FORMATION_WITH_SPECIFIED_SOURCE ( 'ANY', '', #333, .NOT_KNOWN. ) ;
#193 = ORIENTED_EDGE ( 'NONE', *, *, #352, .F. ) ;
#194 = COORDINATED_UNIVERSAL_TIME_OFFSET ( 1, 0, .AHEAD. ) ;
#195 = PLANE ( 'NONE',  #81 ) ;
#196 = VERTEX_POINT ( 'NONE', #32 ) ;
#197 = APPROVAL_DATE_TIME ( #320, #224 ) ;
#198 = VECTOR ( 'NONE', #246, 1000.000000000000000 ) ;
#199 = AXIS2_PLACEMENT_3D ( 'NONE', #291, #136, #383 ) ;
#200 = CARTESIAN_POINT ( 'NONE',  ( 0.000000000000000000, 0.000000000000000000, 2.500000000000000000 ) ) ;
#201 = CARTESIAN_POINT ( 'NONE',  ( 2.725331093067386856, 0.3675192963098981025, 0.7500000000000000000 ) ) ;
#202 = DIRECTION ( 'NONE',  ( -1.000000000000000000, 0.000000000000000000, 0.000000000000000000 ) ) ;
#203 = ORIENTED_EDGE ( 'NONE', *, *, #26, .F. ) ;
#204 = DIRECTION ( 'NONE',  ( 1.000000000000000000, 0.000000000000000000, 0.000000000000000000 ) ) ;
#205 = ORIENTED_EDGE ( 'NONE', *, *, #206, .T. ) ;
#206 = EDGE_CURVE ( 'NONE', #85, #90, #277, .T. ) ;
#207 = VECTOR ( 'NONE', #367, 1000.000000000000000 ) ;
#208 = CARTESIAN_POINT ( 'NONE',  ( 0.000000000000000000, 0.000000000000000000, 0.000000000000000000 ) ) ;
#209 = ORIENTED_EDGE ( 'NONE', *, *, #254, .T. ) ;
#210 = DIRECTION ( 'NONE',  ( 1.000000000000000000, 0.000000000000000000, 0.000000000000000000 ) ) ;
#211 = ORIENTED_EDGE ( 'NONE', *, *, #130, .T. ) ;
#212 = SHAPE_DEFINITION_REPRESENTATION ( #146, #62 ) ;
#213 = CARTESIAN_POINT ( 'NONE',  ( -2.750000000000000000, 0.000000000000000000, 2.500000000000000000 ) ) ;
#214 = EDGE_CURVE ( 'NONE', #289, #388, #34, .T. ) ;
#215 = CLOSED_SHELL ( 'NONE', ( #162, #153, #2, #295, #349, #249, #39, #308, #223, #250, #10 ) ) ;
#216 = VECTOR ( 'NONE', #148, 1000.000000000000000 ) ;
#217 = FACE_OUTER_BOUND ( 'NONE', #79, .T. ) ;
#218 = APPLICATION_PROTOCOL_DEFINITION ( 'international standard', 'config_control_design', 1994, #276 ) ;
#219 = DIRECTION ( 'NONE',  ( -0.000000000000000000, -0.000000000000000000, -1.000000000000000000 ) ) ;
#220 = CARTESIAN_POINT ( 'NONE',  ( 0.000000000000000000, 0.3675192963098981025, 0.000000000000000000 ) ) ;
#221 = CARTESIAN_POINT ( 'NONE',  ( 3.693342064150884951, 0.3675192963098981025, 0.7500000000000000000 ) ) ;
#222 = VERTEX_POINT ( 'NONE', #275 ) ;
#223 = ADVANCED_FACE ( 'NONE', ( #217 ), #71, .F. ) ;
#224 = APPROVAL ( #360, 'UNSPECIFIED' ) ;
#225 = AXIS2_PLACEMENT_3D ( 'NONE', #53, #92, #245 ) ;
#226 = EDGE_LOOP ( 'NONE', ( #120, #255, #380, #209, #259, #302, #268, #29 ) ) ;
#227 = AXIS2_PLACEMENT_3D ( 'NONE', #390, #89, #210 ) ;
#228 = COORDINATED_UNIVERSAL_TIME_OFFSET ( 1, 0, .AHEAD. ) ;
#229 = ORIENTED_EDGE ( 'NONE', *, *, #56, .F. ) ;
#230 = ORIENTED_EDGE ( 'NONE', *, *, #130, .F. ) ;
#231 = APPROVAL_ROLE ( '' ) ;
#232 = CARTESIAN_POINT ( 'NONE',  ( -2.725331093067386412, -0.3675192963098981025, 0.000000000000000000 ) ) ;
#233 = COORDINATED_UNIVERSAL_TIME_OFFSET ( 1, 0, .AHEAD. ) ;
#234 = CIRCLE ( 'NONE', #225, 2.750000000000000000 ) ;
#235 = CARTESIAN_POINT ( 'NONE',  ( -1.500000000000000222, 0.000000000000000000, 12.50000000000000000 ) ) ;
#236 = DIRECTION ( 'NONE',  ( 0.000000000000000000, 0.000000000000000000, 1.000000000000000000 ) ) ;
#237 = PERSON_AND_ORGANIZATION_ROLE ( 'classification_officer' ) ;
#238 = CARTESIAN_POINT ( 'NONE',  ( 0.000000000000000000, -0.3675192963098981025, 0.000000000000000000 ) ) ;
#239 = DIRECTION ( 'NONE',  ( -0.000000000000000000, -0.000000000000000000, -1.000000000000000000 ) ) ;
#240 = VERTEX_POINT ( 'NONE', #213 ) ;
#241 = AXIS2_PLACEMENT_3D ( 'NONE', #364, #335, #180 ) ;
#242 = CARTESIAN_POINT ( 'NONE',  ( 3.693342064150884951, -0.3675192963098981025, 0.7500000000000000000 ) ) ;
#243 = CIRCLE ( 'NONE', #227, 2.750000000000000000 ) ;
#244 = DIRECTION ( 'NONE',  ( 0.000000000000000000, 0.000000000000000000, 1.000000000000000000 ) ) ;
#245 = DIRECTION ( 'NONE',  ( 1.000000000000000000, 0.000000000000000000, 0.000000000000000000 ) ) ;
#246 = DIRECTION ( 'NONE',  ( 1.000000000000000000, -0.000000000000000000, -0.000000000000000000 ) ) ;
#247 = APPROVAL_PERSON_ORGANIZATION ( #287, #183, #231 ) ;
#248 = DIRECTION ( 'NONE',  ( 1.000000000000000000, 0.000000000000000000, 0.000000000000000000 ) ) ;
#249 = ADVANCED_FACE ( 'NONE', ( #185 ), #307, .F. ) ;
#250 = ADVANCED_FACE ( 'NONE', ( #351 ), #195, .F. ) ;
#251 = LOCAL_TIME ( 17, 39, 33.00000000000000000, #233 ) ;
#252 = DIRECTION ( 'NONE',  ( -1.000000000000000000, 0.000000000000000000, 0.000000000000000000 ) ) ;
#253 = AXIS2_PLACEMENT_3D ( 'NONE', #336, #374, #104 ) ;
#254 = EDGE_CURVE ( 'NONE', #90, #164, #140, .T. ) ;
#255 = ORIENTED_EDGE ( 'NONE', *, *, #282, .T. ) ;
#256 = ORIENTED_EDGE ( 'NONE', *, *, #389, .F. ) ;
#257 = APPROVAL_ROLE ( '' ) ;
#258 = VERTEX_POINT ( 'NONE', #177 ) ;
#259 = ORIENTED_EDGE ( 'NONE', *, *, #318, .T. ) ;
#260 = APPROVAL_STATUS ( 'not_yet_approved' ) ;
#261 = DIRECTION ( 'NONE',  ( 0.000000000000000000, -0.000000000000000000, -1.000000000000000000 ) ) ;
#262 = DIRECTION ( 'NONE',  ( -1.000000000000000000, 0.000000000000000000, 0.000000000000000000 ) ) ;
#263 = PERSON_AND_ORGANIZATION_ROLE ( 'design_supplier' ) ;
#264 = AXIS2_PLACEMENT_3D ( 'NONE', #200, #15, #54 ) ;
#265 = AXIS2_PLACEMENT_3D ( 'NONE', #309, #373, #73 ) ;
#266 = CARTESIAN_POINT ( 'NONE',  ( -1.500000000000000222, 0.000000000000000000, 2.500000000000000000 ) ) ;
#267 = EDGE_CURVE ( 'NONE', #240, #105, #117, .T. ) ;
#268 = ORIENTED_EDGE ( 'NONE', *, *, #327, .T. ) ;
#269 = CC_DESIGN_PERSON_AND_ORGANIZATION_ASSIGNMENT ( #377, #237, ( #300 ) ) ;
#270 = DIRECTION ( 'NONE',  ( 1.000000000000000000, 0.000000000000000000, 0.000000000000000000 ) ) ;
#271 = DIRECTION ( 'NONE',  ( -0.000000000000000000, -0.000000000000000000, -1.000000000000000000 ) ) ;
#272 = FACE_OUTER_BOUND ( 'NONE', #375, .T. ) ;
#273 = CARTESIAN_POINT ( 'NONE',  ( 0.000000000000000000, 0.000000000000000000, 0.7500000000000000000 ) ) ;
#274 = LINE ( 'NONE', #1, #297 ) ;
#275 = CARTESIAN_POINT ( 'NONE',  ( 2.750000000000000000, 3.367778697655221012E-16, 0.7500000000000000000 ) ) ;
#276 = APPLICATION_CONTEXT ( 'configuration controlled 3d designs of mechanical parts and assemblies' ) ;
#277 = LINE ( 'NONE', #221, #198 ) ;
#278 = CARTESIAN_POINT ( 'NONE',  ( 3.693342064150884951, -0.3675192963098981025, 0.7500000000000000000 ) ) ;
#279 = APPROVAL_PERSON_ORGANIZATION ( #161, #123, #257 ) ;
#280 = APPLICATION_CONTEXT ( 'configuration controlled 3d designs of mechanical parts and assemblies' ) ;
#281 = DIRECTION ( 'NONE',  ( -1.000000000000000000, 0.000000000000000000, 0.000000000000000000 ) ) ;
#282 = EDGE_CURVE ( 'NONE', #149, #222, #330, .T. ) ;
#283 = ORIENTED_EDGE ( 'NONE', *, *, #350, .F. ) ;
#284 = EDGE_LOOP ( 'NONE', ( #230, #38, #316, #193 ) ) ;
#285 = PERSON_AND_ORGANIZATION ( #288, #24 ) ;
#286 = ORIENTED_EDGE ( 'NONE', *, *, #267, .T. ) ;
#287 = PERSON_AND_ORGANIZATION ( #288, #24 ) ;
#288 = PERSON ( 'UNSPECIFIED', 'UNSPECIFIED', 'UNSPECIFIED', ('UNSPECIFIED'), ('UNSPECIFIED'), ('UNSPECIFIED') ) ;
#289 = VERTEX_POINT ( 'NONE', #266 ) ;
#290 = APPROVAL_DATE_TIME ( #13, #183 ) ;
#291 = CARTESIAN_POINT ( 'NONE',  ( 0.000000000000000000, 0.000000000000000000, 12.50000000000000000 ) ) ;
#292 = ORIENTED_EDGE ( 'NONE', *, *, #68, .F. ) ;
#293 = CC_DESIGN_PERSON_AND_ORGANIZATION_ASSIGNMENT ( #103, #324, ( #111 ) ) ;
#294 = CARTESIAN_POINT ( 'NONE',  ( 0.000000000000000000, 0.000000000000000000, 2.500000000000000000 ) ) ;
#295 = ADVANCED_FACE ( 'NONE', ( #386 ), #106, .T. ) ;
#296 = PLANE ( 'NONE',  #119 ) ;
#297 = VECTOR ( 'NONE', #121, 1000.000000000000000 ) ;
#298 = VECTOR ( 'NONE', #67, 1000.000000000000000 ) ;
#299 = AXIS2_PLACEMENT_3D ( 'NONE', #273, #371, #35 ) ;
#300 = SECURITY_CLASSIFICATION ( '', '', #17 ) ;
#301 = FACE_BOUND ( 'NONE', #311, .T. ) ;
#302 = ORIENTED_EDGE ( 'NONE', *, *, #72, .T. ) ;
#303 = DIRECTION ( 'NONE',  ( 0.000000000000000000, 0.000000000000000000, 1.000000000000000000 ) ) ;
#304 = ORIENTED_EDGE ( 'NONE', *, *, #368, .F. ) ;
#305 = EDGE_LOOP ( 'NONE', ( #169, #321 ) ) ;
#306 = DIRECTION ( 'NONE',  ( -0.000000000000000000, -0.000000000000000000, -1.000000000000000000 ) ) ;
#307 = PLANE ( 'NONE',  #253 ) ;
#308 = ADVANCED_FACE ( 'NONE', ( #18 ), #87, .T. ) ;
#309 = CARTESIAN_POINT ( 'NONE',  ( 0.000000000000000000, 0.000000000000000000, 0.000000000000000000 ) ) ;
#310 = FACE_OUTER_BOUND ( 'NONE', #284, .T. ) ;
#311 = EDGE_LOOP ( 'NONE', ( #64, #229 ) ) ;
#312 = CIRCLE ( 'NONE', #139, 2.750000000000000000 ) ;
#313 = ORIENTED_EDGE ( 'NONE', *, *, #68, .T. ) ;
#314 = CC_DESIGN_APPROVAL ( #224, ( #111 ) ) ;
#315 = DATE_AND_TIME ( #356, #251 ) ;
#316 = ORIENTED_EDGE ( 'NONE', *, *, #56, .T. ) ;
#317 = PERSON_AND_ORGANIZATION ( #288, #24 ) ;
#318 = EDGE_CURVE ( 'NONE', #164, #178, #186, .T. ) ;
#319 = PRODUCT_RELATED_PRODUCT_CATEGORY ( 'detail', '', ( #333 ) ) ;
#320 = DATE_AND_TIME ( #51, #93 ) ;
#321 = ORIENTED_EDGE ( 'NONE', *, *, #376, .T. ) ;
#322 = AXIS2_PLACEMENT_3D ( 'NONE', #157, #306, #252 ) ;
#323 = VECTOR ( 'NONE', #63, 1000.000000000000000 ) ;
#324 = PERSON_AND_ORGANIZATION_ROLE ( 'creator' ) ;
#325 = CARTESIAN_POINT ( 'NONE',  ( -2.750000000000000000, 0.000000000000000000, 2.500000000000000000 ) ) ;
#326 = CARTESIAN_POINT ( 'NONE',  ( -2.750000000000000000, 0.000000000000000000, 0.7500000000000000000 ) ) ;
#327 = EDGE_CURVE ( 'NONE', #85, #105, #243, .T. ) ;
#328 = DIRECTION ( 'NONE',  ( 0.000000000000000000, 0.000000000000000000, 1.000000000000000000 ) ) ;
#329 = DIRECTION ( 'NONE',  ( 1.000000000000000000, 0.000000000000000000, -0.000000000000000000 ) ) ;
#330 = LINE ( 'NONE', #80, #141 ) ;
#331 = VERTEX_POINT ( 'NONE', #232 ) ;
#332 = AXIS2_PLACEMENT_3D ( 'NONE', #95, #219, #154 ) ;
#333 = PRODUCT ( 'Pièce5_ViceTcyM3_10_Défaut_sldprt', 'Pièce5_ViceTcyM3_10_Défaut_sldprt', '', ( #345 ) ) ;
#334 = ORIENTED_EDGE ( 'NONE', *, *, #254, .F. ) ;
#335 = DIRECTION ( 'NONE',  ( 0.000000000000000000, 0.000000000000000000, 1.000000000000000000 ) ) ;
#336 = CARTESIAN_POINT ( 'NONE',  ( 0.000000000000000000, 0.000000000000000000, 0.000000000000000000 ) ) ;
#337 = VECTOR ( 'NONE', #144, 1000.000000000000000 ) ;
#338 = AXIS2_PLACEMENT_3D ( 'NONE', #341, #187, #91 ) ;
#339 = EDGE_CURVE ( 'NONE', #331, #128, #365, .T. ) ;
#340 = CC_DESIGN_PERSON_AND_ORGANIZATION_ASSIGNMENT ( #317, #263, ( #192 ) ) ;
#341 = CARTESIAN_POINT ( 'NONE',  ( 0.000000000000000000, 0.000000000000000000, 0.7500000000000000000 ) ) ;
#342 = CYLINDRICAL_SURFACE ( 'NONE', #322, 1.500000000000000222 ) ;
#343 = CIRCLE ( 'NONE', #199, 1.500000000000000222 ) ;
#344 = DIRECTION ( 'NONE',  ( 0.000000000000000000, 0.000000000000000000, 1.000000000000000000 ) ) ;
#345 = MECHANICAL_CONTEXT ( 'NONE', #276, 'mechanical' ) ;
#346 = VERTEX_POINT ( 'NONE', #57 ) ;
#347 = ORIENTED_EDGE ( 'NONE', *, *, #206, .F. ) ;
#348 = CALENDAR_DATE ( 2023, 3, 12 ) ;
#349 = ADVANCED_FACE ( 'NONE', ( #301, #179 ), #381, .T. ) ;
#350 = EDGE_CURVE ( 'NONE', #196, #346, #343, .T. ) ;
#351 = FACE_OUTER_BOUND ( 'NONE', #358, .T. ) ;
#352 = EDGE_CURVE ( 'NONE', #196, #289, #109, .T. ) ;
#353 = VECTOR ( 'NONE', #118, 1000.000000000000000 ) ;
#354 = CARTESIAN_POINT ( 'NONE',  ( -2.725331093067386856, 0.3675192963098981025, 2.500000000000000000 ) ) ;
#355 = CIRCLE ( 'NONE', #159, 2.750000000000000000 ) ;
#356 = CALENDAR_DATE ( 2023, 3, 12 ) ;
#357 = DIRECTION ( 'NONE',  ( -0.000000000000000000, -0.000000000000000000, -1.000000000000000000 ) ) ;
#358 = EDGE_LOOP ( 'NONE', ( #77, #292, #78, #12 ) ) ;
#359 = UNCERTAINTY_MEASURE_WITH_UNIT (LENGTH_MEASURE( 1.000000000000000082E-05 ), #70, 'distance_accuracy_value', 'NONE');
#360 = APPROVAL_STATUS ( 'not_yet_approved' ) ;
#361 = DIRECTION ( 'NONE',  ( 1.000000000000000000, 0.000000000000000000, 0.000000000000000000 ) ) ;
#362 = CARTESIAN_POINT ( 'NONE',  ( 0.000000000000000000, 0.000000000000000000, 0.000000000000000000 ) ) ;
#363 = CARTESIAN_POINT ( 'NONE',  ( 0.000000000000000000, 0.000000000000000000, 2.500000000000000000 ) ) ;
#364 = CARTESIAN_POINT ( 'NONE',  ( 0.000000000000000000, 0.000000000000000000, 2.500000000000000000 ) ) ;
#365 = LINE ( 'NONE', #238, #323 ) ;
#366 = CARTESIAN_POINT ( 'NONE',  ( -2.725331093067386856, -0.3675192963098981025, 2.500000000000000000 ) ) ;
#367 = DIRECTION ( 'NONE',  ( -0.000000000000000000, -0.000000000000000000, -1.000000000000000000 ) ) ;
#368 = EDGE_CURVE ( 'NONE', #240, #149, #31, .T. ) ;
#369 = LOCAL_TIME ( 17, 39, 33.00000000000000000, #170 ) ;
#370 = FACE_OUTER_BOUND ( 'NONE', #226, .T. ) ;
#371 = DIRECTION ( 'NONE',  ( 0.000000000000000000, -0.000000000000000000, 1.000000000000000000 ) ) ;
#372 = DIRECTION ( 'NONE',  ( 0.000000000000000000, -0.000000000000000000, 1.000000000000000000 ) ) ;
#373 = DIRECTION ( 'NONE',  ( 0.000000000000000000, 0.000000000000000000, 1.000000000000000000 ) ) ;
#374 = DIRECTION ( 'NONE',  ( 0.000000000000000000, 0.000000000000000000, 1.000000000000000000 ) ) ;
#375 = EDGE_LOOP ( 'NONE', ( #347, #47, #256, #334 ) ) ;
#376 = EDGE_CURVE ( 'NONE', #149, #240, #355, .T. ) ;
#377 = PERSON_AND_ORGANIZATION ( #288, #24 ) ;
#378 = EDGE_CURVE ( 'NONE', #222, #90, #8, .T. ) ;
#379 = APPLICATION_PROTOCOL_DEFINITION ( 'international standard', 'config_control_design', 1994, #280 ) ;
#380 = ORIENTED_EDGE ( 'NONE', *, *, #378, .T. ) ;
#381 = PLANE ( 'NONE',  #264 ) ;
#382 = ORIENTED_EDGE ( 'NONE', *, *, #318, .F. ) ;
#383 = DIRECTION ( 'NONE',  ( 1.000000000000000000, 0.000000000000000000, 0.000000000000000000 ) ) ;
#384 = LINE ( 'NONE', #354, #49 ) ;
#385 = CALENDAR_DATE ( 2023, 3, 12 ) ;
#386 = FACE_OUTER_BOUND ( 'NONE', #387, .T. ) ;
#387 = EDGE_LOOP ( 'NONE', ( #43, #304, #286, #58, #132, #174, #313, #189 ) ) ;
#388 = VERTEX_POINT ( 'NONE', #98 ) ;
#389 = EDGE_CURVE ( 'NONE', #164, #178, #125, .T. ) ;
#390 = CARTESIAN_POINT ( 'NONE',  ( 0.000000000000000000, 0.000000000000000000, 0.7500000000000000000 ) ) ;
#391 = DIRECTION ( 'NONE',  ( 0.000000000000000000, 1.000000000000000000, -0.000000000000000000 ) ) ;
ENDSEC;
END-ISO-10303-21;
