ISO-10303-21;
HEADER;
FILE_DESCRIPTION (( 'STEP AP203' ),
    '1' );
FILE_NAME ('Pièce5_ViceTcyM2.5_10_Défaut_sldprt.STEP',
    '2023-12-03T16:39:31',
    ( 'LIA INFO' ),
    ( '' ),
    'SwSTEP 2.0',
    'SolidWorks 2022',
    '' );
FILE_SCHEMA (( 'CONFIG_CONTROL_DESIGN' ));
ENDSEC;

DATA;
#1 = DIRECTION ( 'NONE',  ( 0.000000000000000000, 0.000000000000000000, 1.000000000000000000 ) ) ;
#2 = ORIENTED_EDGE ( 'NONE', *, *, #336, .F. ) ;
#3 = CARTESIAN_POINT ( 'NONE',  ( 1.986229832567095510, -0.2342883954029484905, 0.5000000000000000000 ) ) ;
#4 = DIRECTION ( 'NONE',  ( 0.000000000000000000, 1.000000000000000000, -0.000000000000000000 ) ) ;
#5 = CC_DESIGN_DATE_AND_TIME_ASSIGNMENT ( #142, #259, ( #339 ) ) ;
#6 = VERTEX_POINT ( 'NONE', #379 ) ;
#7 = AXIS2_PLACEMENT_3D ( 'NONE', #312, #166, #139 ) ;
#8 = DIRECTION ( 'NONE',  ( 0.000000000000000000, 0.000000000000000000, 1.000000000000000000 ) ) ;
#9 = CIRCLE ( 'NONE', #121, 2.000000000000000000 ) ;
#10 = AXIS2_PLACEMENT_3D ( 'NONE', #99, #131, #124 ) ;
#11 = PERSON_AND_ORGANIZATION ( #64, #249 ) ;
#12 = ORIENTED_EDGE ( 'NONE', *, *, #219, .F. ) ;
#13 = ADVANCED_FACE ( 'NONE', ( #206 ), #204, .T. ) ;
#14 = AXIS2_PLACEMENT_3D ( 'NONE', #138, #254, #371 ) ;
#15 = CLOSED_SHELL ( 'NONE', ( #104, #13, #225, #98, #235, #136, #273, #116, #27, #25, #155 ) ) ;
#16 = CARTESIAN_POINT ( 'NONE',  ( 0.000000000000000000, 0.000000000000000000, 0.000000000000000000 ) ) ;
#17 = CIRCLE ( 'NONE', #95, 1.300000000000000044 ) ;
#18 = CARTESIAN_POINT ( 'NONE',  ( 0.000000000000000000, 0.2342883954029484905, 0.000000000000000000 ) ) ;
#19 = DIRECTION ( 'NONE',  ( -1.000000000000000000, 0.000000000000000000, 0.000000000000000000 ) ) ;
#20 = CALENDAR_DATE ( 2023, 3, 12 ) ;
#21 = CARTESIAN_POINT ( 'NONE',  ( 0.000000000000000000, 0.000000000000000000, 9.500000000000000000 ) ) ;
#22 = PERSON_AND_ORGANIZATION_ROLE ( 'design_supplier' ) ;
#23 = DIRECTION ( 'NONE',  ( -1.000000000000000000, 0.000000000000000000, 0.000000000000000000 ) ) ;
#24 = SECURITY_CLASSIFICATION_LEVEL ( 'unclassified' ) ;
#25 = ADVANCED_FACE ( 'NONE', ( #260 ), #143, .F. ) ;
#26 = DIRECTION ( 'NONE',  ( 0.000000000000000000, -0.000000000000000000, 1.000000000000000000 ) ) ;
#27 = ADVANCED_FACE ( 'NONE', ( #180 ), #28, .F. ) ;
#28 = PLANE ( 'NONE',  #179 ) ;
#29 = LOCAL_TIME ( 17, 39, 31.00000000000000000, #59 ) ;
#30 = CARTESIAN_POINT ( 'NONE',  ( 0.000000000000000000, 0.000000000000000000, 0.000000000000000000 ) ) ;
#31 = AXIS2_PLACEMENT_3D ( 'NONE', #270, #365, #391 ) ;
#32 = CARTESIAN_POINT ( 'NONE',  ( 1.986229832567095510, -0.2342883954029484905, 0.000000000000000000 ) ) ;
#33 = CC_DESIGN_PERSON_AND_ORGANIZATION_ASSIGNMENT ( #373, #51, ( #369 ) ) ;
#34 = CIRCLE ( 'NONE', #7, 1.300000000000000044 ) ;
#35 = DIRECTION ( 'NONE',  ( 0.000000000000000000, 0.000000000000000000, 1.000000000000000000 ) ) ;
#36 = CARTESIAN_POINT ( 'NONE',  ( -1.986229832567095510, 0.2342883954029484905, 0.5000000000000000000 ) ) ;
#37 = ORIENTED_EDGE ( 'NONE', *, *, #336, .T. ) ;
#38 = FACE_OUTER_BOUND ( 'NONE', #145, .T. ) ;
#39 = CARTESIAN_POINT ( 'NONE',  ( 2.527674801107508085, 0.2342883954029484905, 0.5000000000000000000 ) ) ;
#40 = AXIS2_PLACEMENT_3D ( 'NONE', #30, #56, #327 ) ;
#41 = VERTEX_POINT ( 'NONE', #209 ) ;
#42 = EDGE_CURVE ( 'NONE', #79, #91, #298, .T. ) ;
#43 = CARTESIAN_POINT ( 'NONE',  ( -1.986229832567095510, -0.2342883954029484905, 0.5000000000000000000 ) ) ;
#44 = ORIENTED_EDGE ( 'NONE', *, *, #291, .F. ) ;
#45 = ADVANCED_BREP_SHAPE_REPRESENTATION ( 'PiÞce5_ViceTcyM2.5_10_DÚfaut_sldprt', ( #217, #167 ), #72 ) ;
#46 = DIRECTION ( 'NONE',  ( -1.000000000000000000, 0.000000000000000000, 0.000000000000000000 ) ) ;
#47 = DIRECTION ( 'NONE',  ( 1.000000000000000000, 0.000000000000000000, 0.000000000000000000 ) ) ;
#48 = EDGE_LOOP ( 'NONE', ( #63, #211 ) ) ;
#49 = MECHANICAL_CONTEXT ( 'NONE', #241, 'mechanical' ) ;
#50 = CYLINDRICAL_SURFACE ( 'NONE', #52, 2.000000000000000000 ) ;
#51 = PERSON_AND_ORGANIZATION_ROLE ( 'design_owner' ) ;
#52 = AXIS2_PLACEMENT_3D ( 'NONE', #117, #168, #171 ) ;
#53 = CARTESIAN_POINT ( 'NONE',  ( 2.000000000000000000, 2.449293598294706414E-16, 0.5000000000000000000 ) ) ;
#54 = APPROVAL ( #374, 'UNSPECIFIED' ) ;
#55 = PERSON_AND_ORGANIZATION ( #64, #249 ) ;
#56 = DIRECTION ( 'NONE',  ( 0.000000000000000000, 0.000000000000000000, 1.000000000000000000 ) ) ;
#57 = UNCERTAINTY_MEASURE_WITH_UNIT (LENGTH_MEASURE( 1.000000000000000082E-05 ), #313, 'distance_accuracy_value', 'NONE');
#58 = CARTESIAN_POINT ( 'NONE',  ( 1.300000000000000044, 1.592040838891559095E-16, 2.000000000000000000 ) ) ;
#59 = COORDINATED_UNIVERSAL_TIME_OFFSET ( 1, 0, .AHEAD. ) ;
#60 = ORIENTED_EDGE ( 'NONE', *, *, #303, .T. ) ;
#61 = APPROVAL_DATE_TIME ( #378, #54 ) ;
#62 = ORIENTED_EDGE ( 'NONE', *, *, #383, .F. ) ;
#63 = ORIENTED_EDGE ( 'NONE', *, *, #253, .F. ) ;
#64 = PERSON ( 'UNSPECIFIED', 'UNSPECIFIED', 'UNSPECIFIED', ('UNSPECIFIED'), ('UNSPECIFIED'), ('UNSPECIFIED') ) ;
#65 = ORIENTED_EDGE ( 'NONE', *, *, #42, .T. ) ;
#66 = LOCAL_TIME ( 17, 39, 31.00000000000000000, #285 ) ;
#67 = AXIS2_PLACEMENT_3D ( 'NONE', #216, #214, #159 ) ;
#68 = EDGE_CURVE ( 'NONE', #74, #152, #146, .T. ) ;
#69 = DIRECTION ( 'NONE',  ( 0.000000000000000000, 0.000000000000000000, 1.000000000000000000 ) ) ;
#70 = CARTESIAN_POINT ( 'NONE',  ( 0.000000000000000000, 0.000000000000000000, 0.000000000000000000 ) ) ;
#71 = FACE_OUTER_BOUND ( 'NONE', #252, .T. ) ;
#72 =( GEOMETRIC_REPRESENTATION_CONTEXT ( 3 ) GLOBAL_UNCERTAINTY_ASSIGNED_CONTEXT ( ( #57 ) ) GLOBAL_UNIT_ASSIGNED_CONTEXT ( ( #313, #227, #223 ) ) REPRESENTATION_CONTEXT ( 'NONE', 'WORKASPACE' ) );
#73 = FACE_OUTER_BOUND ( 'NONE', #307, .T. ) ;
#74 = VERTEX_POINT ( 'NONE', #350 ) ;
#75 = DIRECTION ( 'NONE',  ( 0.000000000000000000, 0.000000000000000000, 1.000000000000000000 ) ) ;
#76 = EDGE_CURVE ( 'NONE', #6, #290, #380, .T. ) ;
#77 = DATE_AND_TIME ( #333, #385 ) ;
#78 = AXIS2_PLACEMENT_3D ( 'NONE', #251, #372, #201 ) ;
#79 = VERTEX_POINT ( 'NONE', #118 ) ;
#80 = LINE ( 'NONE', #18, #100 ) ;
#81 = APPLICATION_PROTOCOL_DEFINITION ( 'international standard', 'config_control_design', 1994, #241 ) ;
#82 = CC_DESIGN_PERSON_AND_ORGANIZATION_ASSIGNMENT ( #286, #381, ( #231 ) ) ;
#83 = COORDINATED_UNIVERSAL_TIME_OFFSET ( 1, 0, .AHEAD. ) ;
#84 = LOCAL_TIME ( 17, 39, 31.00000000000000000, #203 ) ;
#85 = SHAPE_DEFINITION_REPRESENTATION ( #348, #45 ) ;
#86 = EDGE_CURVE ( 'NONE', #120, #88, #265, .T. ) ;
#87 = ORIENTED_EDGE ( 'NONE', *, *, #332, .T. ) ;
#88 = VERTEX_POINT ( 'NONE', #53 ) ;
#89 = VECTOR ( 'NONE', #304, 1000.000000000000000 ) ;
#90 = DIRECTION ( 'NONE',  ( 0.000000000000000000, 0.000000000000000000, 1.000000000000000000 ) ) ;
#91 = VERTEX_POINT ( 'NONE', #58 ) ;
#92 = AXIS2_PLACEMENT_3D ( 'NONE', #39, #4, #75 ) ;
#93 = EDGE_LOOP ( 'NONE', ( #389, #363, #181, #222, #173, #294 ) ) ;
#94 = CARTESIAN_POINT ( 'NONE',  ( 1.986229832567095510, -0.2342883954029484905, 2.000000000000000000 ) ) ;
#95 = AXIS2_PLACEMENT_3D ( 'NONE', #246, #280, #198 ) ;
#96 = DIRECTION ( 'NONE',  ( 0.000000000000000000, 0.000000000000000000, 1.000000000000000000 ) ) ;
#97 = CARTESIAN_POINT ( 'NONE',  ( 1.986229832567095510, 0.2342883954029484905, 0.5000000000000000000 ) ) ;
#98 = ADVANCED_FACE ( 'NONE', ( #337 ), #50, .T. ) ;
#99 = CARTESIAN_POINT ( 'NONE',  ( 0.000000000000000000, 0.000000000000000000, 0.5000000000000000000 ) ) ;
#100 = VECTOR ( 'NONE', #46, 1000.000000000000000 ) ;
#101 = ORIENTED_EDGE ( 'NONE', *, *, #263, .F. ) ;
#102 = DIRECTION ( 'NONE',  ( 0.000000000000000000, 0.000000000000000000, 1.000000000000000000 ) ) ;
#103 = DIRECTION ( 'NONE',  ( -0.000000000000000000, -0.000000000000000000, -1.000000000000000000 ) ) ;
#104 = ADVANCED_FACE ( 'NONE', ( #343 ), #283, .T. ) ;
#105 = ORIENTED_EDGE ( 'NONE', *, *, #68, .F. ) ;
#106 = CARTESIAN_POINT ( 'NONE',  ( 2.527674801107508085, 0.2342883954029484905, 0.5000000000000000000 ) ) ;
#107 = LINE ( 'NONE', #106, #289 ) ;
#108 = APPROVAL ( #169, 'UNSPECIFIED' ) ;
#109 = VECTOR ( 'NONE', #90, 1000.000000000000000 ) ;
#110 = DIRECTION ( 'NONE',  ( -0.000000000000000000, -0.000000000000000000, -1.000000000000000000 ) ) ;
#111 = DIRECTION ( 'NONE',  ( 0.000000000000000000, 0.000000000000000000, 1.000000000000000000 ) ) ;
#112 = CALENDAR_DATE ( 2023, 3, 12 ) ;
#113 = CC_DESIGN_APPROVAL ( #123, ( #231 ) ) ;
#114 = CARTESIAN_POINT ( 'NONE',  ( 2.527674801107508085, -0.2342883954029484905, 0.5000000000000000000 ) ) ;
#115 = CIRCLE ( 'NONE', #367, 2.000000000000000000 ) ;
#116 = ADVANCED_FACE ( 'NONE', ( #38 ), #387, .T. ) ;
#117 = CARTESIAN_POINT ( 'NONE',  ( 0.000000000000000000, 0.000000000000000000, 2.000000000000000000 ) ) ;
#118 = CARTESIAN_POINT ( 'NONE',  ( 1.300000000000000044, 1.592040838891559095E-16, 9.500000000000000000 ) ) ;
#119 = DIRECTION ( 'NONE',  ( -0.000000000000000000, -0.000000000000000000, -1.000000000000000000 ) ) ;
#120 = VERTEX_POINT ( 'NONE', #282 ) ;
#121 = AXIS2_PLACEMENT_3D ( 'NONE', #130, #191, #245 ) ;
#122 = ORIENTED_EDGE ( 'NONE', *, *, #360, .F. ) ;
#123 = APPROVAL ( #174, 'UNSPECIFIED' ) ;
#124 = DIRECTION ( 'NONE',  ( 1.000000000000000000, 0.000000000000000000, 0.000000000000000000 ) ) ;
#125 = ORIENTED_EDGE ( 'NONE', *, *, #186, .T. ) ;
#126 = CARTESIAN_POINT ( 'NONE',  ( 1.986229832567095510, 0.2342883954029484905, 2.000000000000000000 ) ) ;
#127 = EDGE_CURVE ( 'NONE', #41, #205, #258, .T. ) ;
#128 = DIRECTION ( 'NONE',  ( 1.000000000000000000, 0.000000000000000000, 0.000000000000000000 ) ) ;
#129 = FACE_OUTER_BOUND ( 'NONE', #153, .T. ) ;
#130 = CARTESIAN_POINT ( 'NONE',  ( 0.000000000000000000, 0.000000000000000000, 0.5000000000000000000 ) ) ;
#131 = DIRECTION ( 'NONE',  ( 0.000000000000000000, -0.000000000000000000, 1.000000000000000000 ) ) ;
#132 = CIRCLE ( 'NONE', #190, 2.000000000000000000 ) ;
#133 = APPROVAL_ROLE ( '' ) ;
#134 = AXIS2_PLACEMENT_3D ( 'NONE', #359, #35, #156 ) ;
#135 = ORIENTED_EDGE ( 'NONE', *, *, #377, .T. ) ;
#136 = ADVANCED_FACE ( 'NONE', ( #129 ), #188, .F. ) ;
#137 = DATE_TIME_ROLE ( 'creation_date' ) ;
#138 = CARTESIAN_POINT ( 'NONE',  ( 0.000000000000000000, 0.000000000000000000, 0.5000000000000000000 ) ) ;
#139 = DIRECTION ( 'NONE',  ( 1.000000000000000000, 0.000000000000000000, 0.000000000000000000 ) ) ;
#140 = CIRCLE ( 'NONE', #14, 2.000000000000000000 ) ;
#141 = PERSON_AND_ORGANIZATION ( #64, #249 ) ;
#142 = DATE_AND_TIME ( #112, #281 ) ;
#143 = PLANE ( 'NONE',  #364 ) ;
#144 = CC_DESIGN_APPROVAL ( #108, ( #344 ) ) ;
#145 = EDGE_LOOP ( 'NONE', ( #238, #60 ) ) ;
#146 = LINE ( 'NONE', #236, #162 ) ;
#147 = CARTESIAN_POINT ( 'NONE',  ( -1.986229832567095510, 0.2342883954029484905, 2.000000000000000000 ) ) ;
#148 = ORIENTED_EDGE ( 'NONE', *, *, #42, .F. ) ;
#149 = EDGE_CURVE ( 'NONE', #74, #79, #220, .T. ) ;
#150 = CC_DESIGN_DATE_AND_TIME_ASSIGNMENT ( #77, #137, ( #344 ) ) ;
#151 = FACE_OUTER_BOUND ( 'NONE', #48, .T. ) ;
#152 = VERTEX_POINT ( 'NONE', #325 ) ;
#153 = EDGE_LOOP ( 'NONE', ( #2, #87 ) ) ;
#154 = CARTESIAN_POINT ( 'NONE',  ( 0.000000000000000000, 0.000000000000000000, 9.500000000000000000 ) ) ;
#155 = ADVANCED_FACE ( 'NONE', ( #73 ), #300, .F. ) ;
#156 = DIRECTION ( 'NONE',  ( 1.000000000000000000, 0.000000000000000000, -0.000000000000000000 ) ) ;
#157 = LINE ( 'NONE', #362, #89 ) ;
#158 = VECTOR ( 'NONE', #196, 1000.000000000000000 ) ;
#159 = DIRECTION ( 'NONE',  ( 1.000000000000000000, 0.000000000000000000, -0.000000000000000000 ) ) ;
#160 = VERTEX_POINT ( 'NONE', #97 ) ;
#161 = DIRECTION ( 'NONE',  ( 1.000000000000000000, 0.000000000000000000, 0.000000000000000000 ) ) ;
#162 = VECTOR ( 'NONE', #262, 1000.000000000000000 ) ;
#163 = DIRECTION ( 'NONE',  ( 1.000000000000000000, 0.000000000000000000, 0.000000000000000000 ) ) ;
#164 = APPROVAL_DATE_TIME ( #230, #108 ) ;
#165 = EDGE_CURVE ( 'NONE', #277, #207, #215, .T. ) ;
#166 = DIRECTION ( 'NONE',  ( 0.000000000000000000, 0.000000000000000000, 1.000000000000000000 ) ) ;
#167 = AXIS2_PLACEMENT_3D ( 'NONE', #16, #8, #47 ) ;
#168 = DIRECTION ( 'NONE',  ( -0.000000000000000000, -0.000000000000000000, -1.000000000000000000 ) ) ;
#169 = APPROVAL_STATUS ( 'not_yet_approved' ) ;
#170 = AXIS2_PLACEMENT_3D ( 'NONE', #21, #292, #19 ) ;
#171 = DIRECTION ( 'NONE',  ( -1.000000000000000000, 0.000000000000000000, 0.000000000000000000 ) ) ;
#172 = APPROVAL_DATE_TIME ( #293, #123 ) ;
#173 = ORIENTED_EDGE ( 'NONE', *, *, #200, .F. ) ;
#174 = APPROVAL_STATUS ( 'not_yet_approved' ) ;
#175 = ORIENTED_EDGE ( 'NONE', *, *, #328, .F. ) ;
#176 = ORIENTED_EDGE ( 'NONE', *, *, #127, .T. ) ;
#177 = AXIS2_PLACEMENT_3D ( 'NONE', #226, #111, #163 ) ;
#178 = EDGE_CURVE ( 'NONE', #41, #120, #193, .T. ) ;
#179 = AXIS2_PLACEMENT_3D ( 'NONE', #182, #26, #296 ) ;
#180 = FACE_OUTER_BOUND ( 'NONE', #93, .T. ) ;
#181 = ORIENTED_EDGE ( 'NONE', *, *, #210, .F. ) ;
#182 = CARTESIAN_POINT ( 'NONE',  ( 0.000000000000000000, 0.000000000000000000, 0.5000000000000000000 ) ) ;
#183 = APPROVAL_PERSON_ORGANIZATION ( #11, #108, #133 ) ;
#184 = CIRCLE ( 'NONE', #279, 2.000000000000000000 ) ;
#185 = CARTESIAN_POINT ( 'NONE',  ( 0.000000000000000000, -0.2342883954029484905, 0.000000000000000000 ) ) ;
#186 = EDGE_CURVE ( 'NONE', #160, #355, #213, .T. ) ;
#187 = CYLINDRICAL_SURFACE ( 'NONE', #351, 1.300000000000000044 ) ;
#188 = PLANE ( 'NONE',  #40 ) ;
#189 = ORIENTED_EDGE ( 'NONE', *, *, #76, .F. ) ;
#190 = AXIS2_PLACEMENT_3D ( 'NONE', #271, #1, #128 ) ;
#191 = DIRECTION ( 'NONE',  ( 0.000000000000000000, -0.000000000000000000, 1.000000000000000000 ) ) ;
#192 = ORIENTED_EDGE ( 'NONE', *, *, #86, .F. ) ;
#193 = CIRCLE ( 'NONE', #31, 2.000000000000000000 ) ;
#194 = DIRECTION ( 'NONE',  ( 1.000000000000000000, 0.000000000000000000, -0.000000000000000000 ) ) ;
#195 = FACE_OUTER_BOUND ( 'NONE', #197, .T. ) ;
#196 = DIRECTION ( 'NONE',  ( -0.000000000000000000, -0.000000000000000000, -1.000000000000000000 ) ) ;
#197 = EDGE_LOOP ( 'NONE', ( #311, #346 ) ) ;
#198 = DIRECTION ( 'NONE',  ( 1.000000000000000000, 0.000000000000000000, 0.000000000000000000 ) ) ;
#199 = DIRECTION ( 'NONE',  ( 1.000000000000000000, -0.000000000000000000, -0.000000000000000000 ) ) ;
#200 = EDGE_CURVE ( 'NONE', #205, #237, #267, .T. ) ;
#201 = DIRECTION ( 'NONE',  ( 1.000000000000000000, 0.000000000000000000, 0.000000000000000000 ) ) ;
#202 = VECTOR ( 'NONE', #96, 1000.000000000000000 ) ;
#203 = COORDINATED_UNIVERSAL_TIME_OFFSET ( 1, 0, .AHEAD. ) ;
#204 = CYLINDRICAL_SURFACE ( 'NONE', #370, 2.000000000000000000 ) ;
#205 = VERTEX_POINT ( 'NONE', #357 ) ;
#206 = FACE_OUTER_BOUND ( 'NONE', #218, .T. ) ;
#207 = VERTEX_POINT ( 'NONE', #32 ) ;
#208 = EDGE_LOOP ( 'NONE', ( #302, #62 ) ) ;
#209 = CARTESIAN_POINT ( 'NONE',  ( -2.000000000000000000, 0.000000000000000000, 2.000000000000000000 ) ) ;
#210 = EDGE_CURVE ( 'NONE', #276, #88, #9, .T. ) ;
#211 = ORIENTED_EDGE ( 'NONE', *, *, #165, .T. ) ;
#212 = ORIENTED_EDGE ( 'NONE', *, *, #328, .T. ) ;
#213 = LINE ( 'NONE', #126, #386 ) ;
#214 = DIRECTION ( 'NONE',  ( 0.000000000000000000, 0.000000000000000000, 1.000000000000000000 ) ) ;
#215 = LINE ( 'NONE', #185, #305 ) ;
#216 = CARTESIAN_POINT ( 'NONE',  ( 0.000000000000000000, 0.000000000000000000, 0.000000000000000000 ) ) ;
#217 = MANIFOLD_SOLID_BREP ( 'Enlèv. mat.-Extru.1', #15 ) ;
#218 = EDGE_LOOP ( 'NONE', ( #44, #269, #233, #125, #37, #321, #353, #224 ) ) ;
#219 = EDGE_CURVE ( 'NONE', #207, #276, #361, .T. ) ;
#220 = CIRCLE ( 'NONE', #354, 1.300000000000000044 ) ;
#221 = DIRECTION ( 'NONE',  ( 1.000000000000000000, 0.000000000000000000, 0.000000000000000000 ) ) ;
#222 = ORIENTED_EDGE ( 'NONE', *, *, #263, .T. ) ;
#223 =( NAMED_UNIT ( * ) SI_UNIT ( $, .STERADIAN. ) SOLID_ANGLE_UNIT ( ) );
#224 = ORIENTED_EDGE ( 'NONE', *, *, #127, .F. ) ;
#225 = ADVANCED_FACE ( 'NONE', ( #151 ), #247, .F. ) ;
#226 = CARTESIAN_POINT ( 'NONE',  ( 0.000000000000000000, 0.000000000000000000, 2.000000000000000000 ) ) ;
#227 =( NAMED_UNIT ( * ) PLANE_ANGLE_UNIT ( ) SI_UNIT ( $, .RADIAN. ) );
#228 = CARTESIAN_POINT ( 'NONE',  ( 1.986229832567095510, 0.2342883954029484905, 0.000000000000000000 ) ) ;
#229 = VECTOR ( 'NONE', #119, 1000.000000000000000 ) ;
#230 = DATE_AND_TIME ( #20, #66 ) ;
#231 = PRODUCT_DEFINITION_FORMATION_WITH_SPECIFIED_SOURCE ( 'ANY', '', #369, .NOT_KNOWN. ) ;
#232 = APPROVAL_ROLE ( '' ) ;
#233 = ORIENTED_EDGE ( 'NONE', *, *, #314, .T. ) ;
#234 = PERSON_AND_ORGANIZATION ( #64, #249 ) ;
#235 = ADVANCED_FACE ( 'NONE', ( #248, #195 ), #366, .T. ) ;
#236 = CARTESIAN_POINT ( 'NONE',  ( -1.300000000000000044, 0.000000000000000000, 9.500000000000000000 ) ) ;
#237 = VERTEX_POINT ( 'NONE', #43 ) ;
#238 = ORIENTED_EDGE ( 'NONE', *, *, #149, .T. ) ;
#239 = DESIGN_CONTEXT ( 'detailed design', #326, 'design' ) ;
#240 = ORIENTED_EDGE ( 'NONE', *, *, #303, .F. ) ;
#241 = APPLICATION_CONTEXT ( 'configuration controlled 3d designs of mechanical parts and assemblies' ) ;
#242 = ORIENTED_EDGE ( 'NONE', *, *, #149, .F. ) ;
#243 = DIRECTION ( 'NONE',  ( -0.000000000000000000, -0.000000000000000000, -1.000000000000000000 ) ) ;
#244 = ORIENTED_EDGE ( 'NONE', *, *, #165, .F. ) ;
#245 = DIRECTION ( 'NONE',  ( 1.000000000000000000, 0.000000000000000000, 0.000000000000000000 ) ) ;
#246 = CARTESIAN_POINT ( 'NONE',  ( 0.000000000000000000, 0.000000000000000000, 9.500000000000000000 ) ) ;
#247 = PLANE ( 'NONE',  #67 ) ;
#248 = FACE_BOUND ( 'NONE', #208, .T. ) ;
#249 = ORGANIZATION ( 'UNSPECIFIED', 'UNSPECIFIED', '' ) ;
#250 = CARTESIAN_POINT ( 'NONE',  ( -2.000000000000000000, 0.000000000000000000, 2.000000000000000000 ) ) ;
#251 = CARTESIAN_POINT ( 'NONE',  ( 0.000000000000000000, 0.000000000000000000, 0.000000000000000000 ) ) ;
#252 = EDGE_LOOP ( 'NONE', ( #148, #242, #334, #135 ) ) ;
#253 = EDGE_CURVE ( 'NONE', #277, #207, #115, .T. ) ;
#254 = DIRECTION ( 'NONE',  ( 0.000000000000000000, -0.000000000000000000, 1.000000000000000000 ) ) ;
#255 = CARTESIAN_POINT ( 'NONE',  ( -1.986229832567095510, -0.2342883954029484905, 2.000000000000000000 ) ) ;
#256 = EDGE_CURVE ( 'NONE', #290, #205, #184, .T. ) ;
#257 = APPLICATION_PROTOCOL_DEFINITION ( 'international standard', 'config_control_design', 1994, #326 ) ;
#258 = LINE ( 'NONE', #250, #158 ) ;
#259 = DATE_TIME_ROLE ( 'classification_date' ) ;
#260 = FACE_OUTER_BOUND ( 'NONE', #368, .T. ) ;
#261 = PERSON_AND_ORGANIZATION ( #64, #249 ) ;
#262 = DIRECTION ( 'NONE',  ( -0.000000000000000000, -0.000000000000000000, -1.000000000000000000 ) ) ;
#263 = EDGE_CURVE ( 'NONE', #276, #237, #157, .T. ) ;
#264 = APPROVAL_ROLE ( '' ) ;
#265 = LINE ( 'NONE', #382, #341 ) ;
#266 = APPROVAL_PERSON_ORGANIZATION ( #234, #123, #264 ) ;
#267 = CIRCLE ( 'NONE', #10, 2.000000000000000000 ) ;
#268 = DIRECTION ( 'NONE',  ( 1.000000000000000000, 0.000000000000000000, 0.000000000000000000 ) ) ;
#269 = ORIENTED_EDGE ( 'NONE', *, *, #86, .T. ) ;
#270 = CARTESIAN_POINT ( 'NONE',  ( 0.000000000000000000, 0.000000000000000000, 2.000000000000000000 ) ) ;
#271 = CARTESIAN_POINT ( 'NONE',  ( 0.000000000000000000, 0.000000000000000000, 2.000000000000000000 ) ) ;
#272 = ORIENTED_EDGE ( 'NONE', *, *, #178, .F. ) ;
#273 = ADVANCED_FACE ( 'NONE', ( #71 ), #187, .T. ) ;
#274 = CARTESIAN_POINT ( 'NONE',  ( -1.986229832567095066, -0.2342883954029484905, 0.000000000000000000 ) ) ;
#275 = DIRECTION ( 'NONE',  ( 1.000000000000000000, 0.000000000000000000, -0.000000000000000000 ) ) ;
#276 = VERTEX_POINT ( 'NONE', #3 ) ;
#277 = VERTEX_POINT ( 'NONE', #274 ) ;
#278 = VECTOR ( 'NONE', #103, 1000.000000000000000 ) ;
#279 = AXIS2_PLACEMENT_3D ( 'NONE', #331, #308, #268 ) ;
#280 = DIRECTION ( 'NONE',  ( 0.000000000000000000, 0.000000000000000000, 1.000000000000000000 ) ) ;
#281 = LOCAL_TIME ( 17, 39, 31.00000000000000000, #316 ) ;
#282 = CARTESIAN_POINT ( 'NONE',  ( 2.000000000000000000, 2.449293598294706414E-16, 2.000000000000000000 ) ) ;
#283 = CYLINDRICAL_SURFACE ( 'NONE', #170, 1.300000000000000044 ) ;
#284 = CC_DESIGN_PERSON_AND_ORGANIZATION_ASSIGNMENT ( #141, #338, ( #344 ) ) ;
#285 = COORDINATED_UNIVERSAL_TIME_OFFSET ( 1, 0, .AHEAD. ) ;
#286 = PERSON_AND_ORGANIZATION ( #64, #249 ) ;
#287 = ORIENTED_EDGE ( 'NONE', *, *, #210, .T. ) ;
#288 = CALENDAR_DATE ( 2023, 3, 12 ) ;
#289 = VECTOR ( 'NONE', #199, 1000.000000000000000 ) ;
#290 = VERTEX_POINT ( 'NONE', #36 ) ;
#291 = EDGE_CURVE ( 'NONE', #120, #41, #132, .T. ) ;
#292 = DIRECTION ( 'NONE',  ( -0.000000000000000000, -0.000000000000000000, -1.000000000000000000 ) ) ;
#293 = DATE_AND_TIME ( #288, #84 ) ;
#294 = ORIENTED_EDGE ( 'NONE', *, *, #256, .F. ) ;
#295 = DIRECTION ( 'NONE',  ( 0.000000000000000000, -0.000000000000000000, -1.000000000000000000 ) ) ;
#296 = DIRECTION ( 'NONE',  ( 1.000000000000000000, 0.000000000000000000, -0.000000000000000000 ) ) ;
#297 = CIRCLE ( 'NONE', #78, 2.000000000000000000 ) ;
#298 = LINE ( 'NONE', #347, #229 ) ;
#299 = AXIS2_PLACEMENT_3D ( 'NONE', #329, #306, #194 ) ;
#300 = PLANE ( 'NONE',  #92 ) ;
#301 = DIRECTION ( 'NONE',  ( -1.000000000000000000, 0.000000000000000000, 0.000000000000000000 ) ) ;
#302 = ORIENTED_EDGE ( 'NONE', *, *, #377, .F. ) ;
#303 = EDGE_CURVE ( 'NONE', #79, #74, #17, .T. ) ;
#304 = DIRECTION ( 'NONE',  ( -1.000000000000000000, 0.000000000000000000, 0.000000000000000000 ) ) ;
#305 = VECTOR ( 'NONE', #275, 1000.000000000000000 ) ;
#306 = DIRECTION ( 'NONE',  ( 0.000000000000000000, 0.000000000000000000, 1.000000000000000000 ) ) ;
#307 = EDGE_LOOP ( 'NONE', ( #122, #189, #319, #384 ) ) ;
#308 = DIRECTION ( 'NONE',  ( 0.000000000000000000, -0.000000000000000000, 1.000000000000000000 ) ) ;
#309 = ORIENTED_EDGE ( 'NONE', *, *, #383, .T. ) ;
#310 = CC_DESIGN_APPROVAL ( #54, ( #339 ) ) ;
#311 = ORIENTED_EDGE ( 'NONE', *, *, #178, .T. ) ;
#312 = CARTESIAN_POINT ( 'NONE',  ( 0.000000000000000000, 0.000000000000000000, 2.000000000000000000 ) ) ;
#313 =( LENGTH_UNIT ( ) NAMED_UNIT ( * ) SI_UNIT ( .MILLI., .METRE. ) );
#314 = EDGE_CURVE ( 'NONE', #88, #160, #140, .T. ) ;
#315 = PERSON_AND_ORGANIZATION_ROLE ( 'classification_officer' ) ;
#316 = COORDINATED_UNIVERSAL_TIME_OFFSET ( 1, 0, .AHEAD. ) ;
#317 = PRODUCT_RELATED_PRODUCT_CATEGORY ( 'detail', '', ( #369 ) ) ;
#318 = DIRECTION ( 'NONE',  ( 0.000000000000000000, -1.000000000000000000, 0.000000000000000000 ) ) ;
#319 = ORIENTED_EDGE ( 'NONE', *, *, #332, .F. ) ;
#320 = ORIENTED_EDGE ( 'NONE', *, *, #200, .T. ) ;
#321 = ORIENTED_EDGE ( 'NONE', *, *, #76, .T. ) ;
#322 = CIRCLE ( 'NONE', #177, 1.300000000000000044 ) ;
#323 = EDGE_LOOP ( 'NONE', ( #192, #272, #176, #320, #212, #349, #356, #287 ) ) ;
#324 = CC_DESIGN_PERSON_AND_ORGANIZATION_ASSIGNMENT ( #55, #315, ( #339 ) ) ;
#325 = CARTESIAN_POINT ( 'NONE',  ( -1.300000000000000044, 0.000000000000000000, 2.000000000000000000 ) ) ;
#326 = APPLICATION_CONTEXT ( 'configuration controlled 3d designs of mechanical parts and assemblies' ) ;
#327 = DIRECTION ( 'NONE',  ( 1.000000000000000000, 0.000000000000000000, -0.000000000000000000 ) ) ;
#328 = EDGE_CURVE ( 'NONE', #237, #277, #335, .T. ) ;
#329 = CARTESIAN_POINT ( 'NONE',  ( 0.000000000000000000, 0.000000000000000000, 2.000000000000000000 ) ) ;
#330 = DIRECTION ( 'NONE',  ( -0.000000000000000000, -0.000000000000000000, -1.000000000000000000 ) ) ;
#331 = CARTESIAN_POINT ( 'NONE',  ( 0.000000000000000000, 0.000000000000000000, 0.5000000000000000000 ) ) ;
#332 = EDGE_CURVE ( 'NONE', #355, #6, #80, .T. ) ;
#333 = CALENDAR_DATE ( 2023, 3, 12 ) ;
#334 = ORIENTED_EDGE ( 'NONE', *, *, #68, .T. ) ;
#335 = LINE ( 'NONE', #255, #278 ) ;
#336 = EDGE_CURVE ( 'NONE', #355, #6, #297, .T. ) ;
#337 = FACE_OUTER_BOUND ( 'NONE', #323, .T. ) ;
#338 = PERSON_AND_ORGANIZATION_ROLE ( 'creator' ) ;
#339 = SECURITY_CLASSIFICATION ( '', '', #24 ) ;
#340 = CALENDAR_DATE ( 2023, 3, 12 ) ;
#341 = VECTOR ( 'NONE', #110, 1000.000000000000000 ) ;
#342 = CARTESIAN_POINT ( 'NONE',  ( 0.000000000000000000, 0.000000000000000000, 2.000000000000000000 ) ) ;
#343 = FACE_OUTER_BOUND ( 'NONE', #352, .T. ) ;
#344 = PRODUCT_DEFINITION ( 'UNKNOWN', '', #231, #239 ) ;
#345 = PERSON_AND_ORGANIZATION ( #64, #249 ) ;
#346 = ORIENTED_EDGE ( 'NONE', *, *, #291, .T. ) ;
#347 = CARTESIAN_POINT ( 'NONE',  ( 1.300000000000000044, 1.592040838891559095E-16, 9.500000000000000000 ) ) ;
#348 = PRODUCT_DEFINITION_SHAPE ( 'NONE', 'NONE',  #344 ) ;
#349 = ORIENTED_EDGE ( 'NONE', *, *, #253, .T. ) ;
#350 = CARTESIAN_POINT ( 'NONE',  ( -1.300000000000000044, 0.000000000000000000, 9.500000000000000000 ) ) ;
#351 = AXIS2_PLACEMENT_3D ( 'NONE', #388, #243, #301 ) ;
#352 = EDGE_LOOP ( 'NONE', ( #240, #65, #309, #105 ) ) ;
#353 = ORIENTED_EDGE ( 'NONE', *, *, #256, .T. ) ;
#354 = AXIS2_PLACEMENT_3D ( 'NONE', #154, #69, #161 ) ;
#355 = VERTEX_POINT ( 'NONE', #228 ) ;
#356 = ORIENTED_EDGE ( 'NONE', *, *, #219, .T. ) ;
#357 = CARTESIAN_POINT ( 'NONE',  ( -2.000000000000000000, 0.000000000000000000, 0.5000000000000000000 ) ) ;
#358 = CC_DESIGN_SECURITY_CLASSIFICATION ( #339, ( #231 ) ) ;
#359 = CARTESIAN_POINT ( 'NONE',  ( 0.000000000000000000, 0.000000000000000000, 9.500000000000000000 ) ) ;
#360 = EDGE_CURVE ( 'NONE', #290, #160, #107, .T. ) ;
#361 = LINE ( 'NONE', #94, #202 ) ;
#362 = CARTESIAN_POINT ( 'NONE',  ( 2.527674801107508085, -0.2342883954029484905, 0.5000000000000000000 ) ) ;
#363 = ORIENTED_EDGE ( 'NONE', *, *, #314, .F. ) ;
#364 = AXIS2_PLACEMENT_3D ( 'NONE', #114, #318, #295 ) ;
#365 = DIRECTION ( 'NONE',  ( 0.000000000000000000, 0.000000000000000000, 1.000000000000000000 ) ) ;
#366 = PLANE ( 'NONE',  #299 ) ;
#367 = AXIS2_PLACEMENT_3D ( 'NONE', #70, #102, #221 ) ;
#368 = EDGE_LOOP ( 'NONE', ( #101, #12, #244, #175 ) ) ;
#369 = PRODUCT ( 'Pièce5_ViceTcyM2.5_10_Défaut_sldprt', 'Pièce5_ViceTcyM2.5_10_Défaut_sldprt', '', ( #49 ) ) ;
#370 = AXIS2_PLACEMENT_3D ( 'NONE', #342, #375, #23 ) ;
#371 = DIRECTION ( 'NONE',  ( 1.000000000000000000, 0.000000000000000000, 0.000000000000000000 ) ) ;
#372 = DIRECTION ( 'NONE',  ( 0.000000000000000000, 0.000000000000000000, 1.000000000000000000 ) ) ;
#373 = PERSON_AND_ORGANIZATION ( #64, #249 ) ;
#374 = APPROVAL_STATUS ( 'not_yet_approved' ) ;
#375 = DIRECTION ( 'NONE',  ( -0.000000000000000000, -0.000000000000000000, -1.000000000000000000 ) ) ;
#376 = APPROVAL_PERSON_ORGANIZATION ( #345, #54, #232 ) ;
#377 = EDGE_CURVE ( 'NONE', #152, #91, #322, .T. ) ;
#378 = DATE_AND_TIME ( #340, #29 ) ;
#379 = CARTESIAN_POINT ( 'NONE',  ( -1.986229832567095510, 0.2342883954029484905, 0.000000000000000000 ) ) ;
#380 = LINE ( 'NONE', #147, #109 ) ;
#381 = PERSON_AND_ORGANIZATION_ROLE ( 'creator' ) ;
#382 = CARTESIAN_POINT ( 'NONE',  ( 2.000000000000000000, 2.449293598294706414E-16, 2.000000000000000000 ) ) ;
#383 = EDGE_CURVE ( 'NONE', #91, #152, #34, .T. ) ;
#384 = ORIENTED_EDGE ( 'NONE', *, *, #186, .F. ) ;
#385 = LOCAL_TIME ( 17, 39, 31.00000000000000000, #83 ) ;
#386 = VECTOR ( 'NONE', #330, 1000.000000000000000 ) ;
#387 = PLANE ( 'NONE',  #134 ) ;
#388 = CARTESIAN_POINT ( 'NONE',  ( 0.000000000000000000, 0.000000000000000000, 9.500000000000000000 ) ) ;
#389 = ORIENTED_EDGE ( 'NONE', *, *, #360, .T. ) ;
#390 = CC_DESIGN_PERSON_AND_ORGANIZATION_ASSIGNMENT ( #261, #22, ( #231 ) ) ;
#391 = DIRECTION ( 'NONE',  ( 1.000000000000000000, 0.000000000000000000, 0.000000000000000000 ) ) ;
ENDSEC;
END-ISO-10303-21;
