ISO-10303-21;
HEADER;
FILE_DESCRIPTION (( 'STEP AP203' ),
    '1' );
FILE_NAME ('Pièce4_Tube_Défaut_sldprt.STEP',
    '2023-12-03T16:39:13',
    ( 'LIA INFO' ),
    ( '' ),
    'SwSTEP 2.0',
    'SolidWorks 2022',
    '' );
FILE_SCHEMA (( 'CONFIG_CONTROL_DESIGN' ));
ENDSEC;

DATA;
#1 = EDGE_CURVE ( 'NONE', #548, #473, #220, .T. ) ;
#2 = ORIENTED_EDGE ( 'NONE', *, *, #299, .T. ) ;
#3 = CARTESIAN_POINT ( 'NONE',  ( 1.000065112068120765, -2.828404104156927001, 5.131028051652427813 ) ) ;
#4 = CARTESIAN_POINT ( 'NONE',  ( -3.111729519356368257E-16, 3.000000000000000444, 6.000000000000004441 ) ) ;
#5 = CARTESIAN_POINT ( 'NONE',  ( -0.9999346419223621441, 2.828450232312947676, 4.867979961448080317 ) ) ;
#6 = CC_DESIGN_DATE_AND_TIME_ASSIGNMENT ( #457, #61, ( #282 ) ) ;
#7 = DIRECTION ( 'NONE',  ( 0.000000000000000000, -1.000000000000000000, 0.000000000000000000 ) ) ;
#8 = CARTESIAN_POINT ( 'NONE',  ( -0.6157855475276647894, -3.446674497211068999, 308.2014876292120107 ) ) ;
#9 = B_SPLINE_CURVE_WITH_KNOTS ( 'NONE', 3,
 ( #255, #619, #681, #555, #494, #76, #512, #246, #263, #727, #562, #259, #197, #432, #96, #442, #675, #669 ),
 .UNSPECIFIED., .F., .F.,
 ( 4, 2, 2, 2, 2, 2, 2, 2, 4 ),
 ( 0.003149157204913756187, 0.003542701630937597403, 0.003936246056961439053, 0.004329790482985280270, 0.004723334909009121486, 0.005116879335032962703, 0.005510423761056803919, 0.005903968187080645136, 0.006297512613104486352 ),
 .UNSPECIFIED. ) ;
#10 = CARTESIAN_POINT ( 'NONE',  ( -3.957782542836896586E-16, 3.500000000000000000, 4.000000000000004441 ) ) ;
#11 = VERTEX_POINT ( 'NONE', #635 ) ;
#12 = CARTESIAN_POINT ( 'NONE',  ( 0.9999346419223612559, -2.828450232312947676, 4.867979961448080317 ) ) ;
#13 = CARTESIAN_POINT ( 'NONE',  ( -4.363626074222733167E-16, 3.000000000000000444, 4.000000000000004441 ) ) ;
#14 = CARTESIAN_POINT ( 'NONE',  ( -3.112594261991131053E-16, -3.000000000000000444, 6.000000000000004441 ) ) ;
#15 = ORIENTED_EDGE ( 'NONE', *, *, #30, .F. ) ;
#16 = CARTESIAN_POINT ( 'NONE',  ( -0.7989248838730164115, 2.893196282169685940, 308.3847931816922596 ) ) ;
#17 = EDGE_CURVE ( 'NONE', #195, #710, #287, .T. ) ;
#18 = CARTESIAN_POINT ( 'NONE',  ( -4.336808689942017736E-16, 10.00000000000000000, 4.000000000000004441 ) ) ;
#19 = PERSON ( 'UNSPECIFIED', 'UNSPECIFIED', 'UNSPECIFIED', ('UNSPECIFIED'), ('UNSPECIFIED'), ('UNSPECIFIED') ) ;
#20 = VERTEX_POINT ( 'NONE', #697 ) ;
#21 = CARTESIAN_POINT ( 'NONE',  ( -4.336808689942017736E-16, 10.00000000000000000, 5.000000000000004441 ) ) ;
#22 = CARTESIAN_POINT ( 'NONE',  ( 1.000019739161279730, 3.354096081168897125, 308.8683063645290758 ) ) ;
#23 = CARTESIAN_POINT ( 'NONE',  ( 0.5056087024404427588, -2.959598800735080637, 308.1273487792317951 ) ) ;
#24 = ORIENTED_EDGE ( 'NONE', *, *, #523, .F. ) ;
#25 = CYLINDRICAL_SURFACE ( 'NONE', #604, 1.000000000000000000 ) ;
#26 = DIRECTION ( 'NONE',  ( 0.000000000000000000, -1.000000000000000000, 0.000000000000000000 ) ) ;
#27 = CARTESIAN_POINT ( 'NONE',  ( 0.6155931879056334433, 2.937675415082904973, 4.201347210304730240 ) ) ;
#28 = CARTESIAN_POINT ( 'NONE',  ( -0.5051656851811499038, 3.465489561667690399, 308.1270891764037856 ) ) ;
#29 = LINE ( 'NONE', #738, #696 ) ;
#30 = EDGE_CURVE ( 'NONE', #477, #65, #406, .T. ) ;
#31 = AXIS2_PLACEMENT_3D ( 'NONE', #41, #407, #170 ) ;
#32 = CARTESIAN_POINT ( 'NONE',  ( -0.6147613726084456554, 2.937864098093796450, 309.7993829069287131 ) ) ;
#33 = B_SPLINE_CURVE_WITH_KNOTS ( 'NONE', 3,
 ( #13, #654, #353, #595, #77, #70, #298, #541, #5, #306, #551, #248, #490, #724, #194, #603, #36, #617 ),
 .UNSPECIFIED., .F., .F.,
 ( 4, 2, 2, 2, 2, 2, 2, 2, 4 ),
 ( 2.603478392381930299E-21, 0.0003936446506142177344, 0.0007872893012284352520, 0.001180933951842652770, 0.001574578602456870287, 0.001968223253071087805, 0.002361867903685305539, 0.002755512554299523274, 0.003149157204913741008 ),
 .UNSPECIFIED. ) ;
#34 = FACE_BOUND ( 'NONE', #233, .T. ) ;
#35 = CARTESIAN_POINT ( 'NONE',  ( 0.000000000000000000, 0.000000000000000000, 314.0000000000000000 ) ) ;
#36 = CARTESIAN_POINT ( 'NONE',  ( -0.1311869756547092425, 3.000000000000000888, 6.000000000000004441 ) ) ;
#37 = CARTESIAN_POINT ( 'NONE',  ( -3.000000000000000444, 0.000000000000000000, 0.000000000000000000 ) ) ;
#38 = CARTESIAN_POINT ( 'NONE',  ( -0.7989206136896929156, 2.893216697231920875, 309.6153620317854802 ) ) ;
#39 = AXIS2_PLACEMENT_3D ( 'NONE', #449, #750, #94 ) ;
#40 = PERSON_AND_ORGANIZATION_ROLE ( 'creator' ) ;
#41 = CARTESIAN_POINT ( 'NONE',  ( 0.000000000000000000, 0.000000000000000000, 314.0000000000000000 ) ) ;
#42 = B_SPLINE_CURVE_WITH_KNOTS ( 'NONE', 3,
 ( #493, #538, #412, #245, #123, #722, #72, #192, #668, #422, #139, #425, #135, #301, #417, #609, #365, #125 ),
 .UNSPECIFIED., .F., .F.,
 ( 4, 2, 2, 2, 2, 2, 2, 2, 4 ),
 ( 2.184962152920065248E-20, 0.0003928641330506886693, 0.0007857282661013773387, 0.001178592399152066008, 0.001571456532202754677, 0.001964320665253443347, 0.002357184798304132016, 0.002750048931354820685, 0.003142913064405509355 ),
 .UNSPECIFIED. ) ;
#43 = CARTESIAN_POINT ( 'NONE',  ( -4.336808689942017736E-16, 10.00000000000000000, 5.000000000000004441 ) ) ;
#44 = ADVANCED_FACE ( 'NONE', ( #292, #576 ), #766, .T. ) ;
#45 = ORIENTED_EDGE ( 'NONE', *, *, #504, .T. ) ;
#46 = DIRECTION ( 'NONE',  ( -1.000000000000000000, 0.000000000000000000, 0.000000000000000000 ) ) ;
#47 = EDGE_LOOP ( 'NONE', ( #227, #230 ) ) ;
#48 = PERSON_AND_ORGANIZATION_ROLE ( 'classification_officer' ) ;
#49 = ORIENTED_EDGE ( 'NONE', *, *, #144, .F. ) ;
#50 = ORIENTED_EDGE ( 'NONE', *, *, #335, .F. ) ;
#51 = ADVANCED_FACE ( 'NONE', ( #179 ), #757, .F. ) ;
#52 = PRODUCT_DEFINITION_FORMATION_WITH_SPECIFIED_SOURCE ( 'ANY', '', #167, .NOT_KNOWN. ) ;
#53 = CARTESIAN_POINT ( 'NONE',  ( -4.241963967036231516E-16, -3.000000000000000444, 4.000000000000004441 ) ) ;
#54 = AXIS2_PLACEMENT_3D ( 'NONE', #222, #638, #352 ) ;
#55 = CARTESIAN_POINT ( 'NONE',  ( 0.9740305859285207646, 3.362146498450965915, 5.262115076156057114 ) ) ;
#56 = CARTESIAN_POINT ( 'NONE',  ( -0.2631358747190490344, -3.492199905233664303, 309.9735452106493767 ) ) ;
#57 = ORGANIZATION ( 'UNSPECIFIED', 'UNSPECIFIED', '' ) ;
#58 = ORIENTED_EDGE ( 'NONE', *, *, #79, .F. ) ;
#59 = B_SPLINE_CURVE_WITH_KNOTS ( 'NONE', 3,
 ( #308, #606, #241, #660, #554, #16, #726, #431, #254, #318, #567, #516, #38, #32, #108, #734, #334, #448 ),
 .UNSPECIFIED., .F., .F.,
 ( 4, 2, 2, 2, 2, 2, 2, 2, 4 ),
 ( 4.956183871250326715E-18, 0.0003936446506142238602, 0.0007872893012284428414, 0.001180933951842661660, 0.001574578602456880696, 0.001968223253071099514, 0.002361867903685318116, 0.002755512554299537151, 0.003149157204913756187 ),
 .UNSPECIFIED. ) ;
#60 = CARTESIAN_POINT ( 'NONE',  ( -0.9733197772037750495, -2.838207733611167072, 308.7360780161594107 ) ) ;
#61 = DATE_TIME_ROLE ( 'classification_date' ) ;
#62 = ORIENTED_EDGE ( 'NONE', *, *, #547, .T. ) ;
#63 = DIRECTION ( 'NONE',  ( 1.000000000000000000, 0.000000000000000000, 0.000000000000000000 ) ) ;
#64 = COORDINATED_UNIVERSAL_TIME_OFFSET ( 1, 0, .AHEAD. ) ;
#65 = VERTEX_POINT ( 'NONE', #502 ) ;
#66 = CARTESIAN_POINT ( 'NONE',  ( 0.9739600134667182330, -3.362163090603724314, 309.2621342971542617 ) ) ;
#67 = CYLINDRICAL_SURFACE ( 'NONE', #526, 3.000000000000000444 ) ;
#68 = DIRECTION ( 'NONE',  ( 0.000000000000000000, 0.000000000000000000, -1.000000000000000000 ) ) ;
#69 = CARTESIAN_POINT ( 'NONE',  ( 1.224599980436652086E-16, -3.500000000000000000, 310.0000000000000000 ) ) ;
#70 = CARTESIAN_POINT ( 'NONE',  ( -0.7989248838730180768, 2.893196282169686384, 4.384793181692171693 ) ) ;
#71 = EDGE_CURVE ( 'NONE', #226, #578, #235, .T. ) ;
#72 = CARTESIAN_POINT ( 'NONE',  ( 0.8733955994180273574, -3.389670191559907231, 4.495895237837421732 ) ) ;
#73 = CARTESIAN_POINT ( 'NONE',  ( 0.6149058025954715623, 2.937842246861731788, 5.799341081568304190 ) ) ;
#74 = EDGE_LOOP ( 'NONE', ( #293, #651 ) ) ;
#75 = CARTESIAN_POINT ( 'NONE',  ( -4.241963967036231516E-16, -3.000000000000000444, 4.000000000000004441 ) ) ;
#76 = CARTESIAN_POINT ( 'NONE',  ( 0.7995630649473691731, 2.893047721466610156, 309.6146171295371232 ) ) ;
#77 = CARTESIAN_POINT ( 'NONE',  ( -0.6159197602761823376, 2.937602516701900868, 4.201624619451923337 ) ) ;
#78 = AXIS2_PLACEMENT_3D ( 'NONE', #644, #413, #116 ) ;
#79 = EDGE_CURVE ( 'NONE', #579, #699, #89, .T. ) ;
#80 = ORIENTED_EDGE ( 'NONE', *, *, #399, .T. ) ;
#81 = CARTESIAN_POINT ( 'NONE',  ( 3.000000000000000444, 3.673940397442060361E-16, 0.000000000000000000 ) ) ;
#82 = CARTESIAN_POINT ( 'NONE',  ( 0.7989248838730161895, -2.893196282169685052, 308.3847931816920891 ) ) ;
#83 = CARTESIAN_POINT ( 'NONE',  ( -0.6155931879056337763, -2.937675415082904973, 4.201347210304730240 ) ) ;
#84 = CARTESIAN_POINT ( 'NONE',  ( -0.1311535745634538064, -3.000000000000000000, 309.9999999999998863 ) ) ;
#85 = ORIENTED_EDGE ( 'NONE', *, *, #132, .F. ) ;
#86 = FACE_OUTER_BOUND ( 'NONE', #763, .T. ) ;
#87 = CARTESIAN_POINT ( 'NONE',  ( 0.7992185073637469994, 3.408830337340925443, 309.6150344307886257 ) ) ;
#88 = CARTESIAN_POINT ( 'NONE',  ( -0.8734111625493800046, -3.389667611133828640, 4.495839534846101770 ) ) ;
#89 = LINE ( 'NONE', #560, #692 ) ;
#90 = CARTESIAN_POINT ( 'NONE',  ( 0.2640922853737918685, 3.492127742916199651, 4.026706661041318469 ) ) ;
#91 = DATE_TIME_ROLE ( 'creation_date' ) ;
#92 = CARTESIAN_POINT ( 'NONE',  ( 0.8727711819437009577, 2.870730265142595439, 5.505559090155332846 ) ) ;
#93 = CARTESIAN_POINT ( 'NONE',  ( 0.6147613726084458774, -2.937864098093796450, 309.7993829069286562 ) ) ;
#94 = DIRECTION ( 'NONE',  ( 1.000000000000000000, 0.000000000000000000, 0.000000000000000000 ) ) ;
#95 = APPROVAL_STATUS ( 'not_yet_approved' ) ;
#96 = CARTESIAN_POINT ( 'NONE',  ( 0.5055463730062637051, 2.959608675216973239, 308.1273160477442161 ) ) ;
#97 = CARTESIAN_POINT ( 'NONE',  ( 0.8726352009032875001, -2.870773295448568518, 309.5058424288039305 ) ) ;
#98 = LOCAL_TIME ( 17, 39, 13.00000000000000000, #267 ) ;
#99 = CC_DESIGN_PERSON_AND_ORGANIZATION_ASSIGNMENT ( #272, #517, ( #52 ) ) ;
#100 = CIRCLE ( 'NONE', #323, 3.000000000000000444 ) ;
#101 = AXIS2_PLACEMENT_3D ( 'NONE', #21, #7, #68 ) ;
#102 = CALENDAR_DATE ( 2023, 3, 12 ) ;
#103 = CARTESIAN_POINT ( 'NONE',  ( 0.1328548843624562381, 3.500000000000000000, 308.0000000000000000 ) ) ;
#104 = FACE_OUTER_BOUND ( 'NONE', #234, .T. ) ;
#105 = APPLICATION_CONTEXT ( 'configuration controlled 3d designs of mechanical parts and assemblies' ) ;
#106 = AXIS2_PLACEMENT_3D ( 'NONE', #35, #752, #460 ) ;
#107 = ADVANCED_FACE ( 'NONE', ( #148 ), #377, .F. ) ;
#108 = CARTESIAN_POINT ( 'NONE',  ( -0.5044450885602751455, 2.959777218237579888, 309.8732401836663257 ) ) ;
#109 = CC_DESIGN_APPROVAL ( #566, ( #282 ) ) ;
#110 = DIRECTION ( 'NONE',  ( -0.000000000000000000, -0.000000000000000000, -1.000000000000000000 ) ) ;
#111 = APPROVAL_DATE_TIME ( #288, #566 ) ;
#112 = ADVANCED_FACE ( 'NONE', ( #683, #621, #154 ), #380, .T. ) ;
#113 = ORIENTED_EDGE ( 'NONE', *, *, #368, .T. ) ;
#114 = EDGE_LOOP ( 'NONE', ( #733, #393, #725, #389 ) ) ;
#115 = ORIENTED_EDGE ( 'NONE', *, *, #368, .F. ) ;
#116 = DIRECTION ( 'NONE',  ( 1.000000000000000000, 0.000000000000000000, 0.000000000000000000 ) ) ;
#117 = DIRECTION ( 'NONE',  ( 0.000000000000000000, -1.000000000000000000, 0.000000000000000000 ) ) ;
#118 = CARTESIAN_POINT ( 'NONE',  ( -0.2640922853737848186, -3.492127742916199651, 308.0267066610414304 ) ) ;
#119 = CARTESIAN_POINT ( 'NONE',  ( -0.9733372090092317075, 3.362335283428866006, 4.736264977911755381 ) ) ;
#120 = ORIENTED_EDGE ( 'NONE', *, *, #79, .T. ) ;
#121 = ORIENTED_EDGE ( 'NONE', *, *, #671, .T. ) ;
#122 = EDGE_CURVE ( 'NONE', #710, #699, #433, .T. ) ;
#123 = CARTESIAN_POINT ( 'NONE',  ( 0.6156588278258805502, -3.446698552862746734, 4.201380318553482596 ) ) ;
#124 = CARTESIAN_POINT ( 'NONE',  ( 0.9999413755384422009, -3.354119444685284890, 308.8683311196643331 ) ) ;
#125 = CARTESIAN_POINT ( 'NONE',  ( -3.112208710483553172E-16, -3.500000000000000000, 6.000000000000004441 ) ) ;
#126 = CARTESIAN_POINT ( 'NONE',  ( 0.2635503551046902704, 2.990876834969142806, 5.973459346340212583 ) ) ;
#127 = CARTESIAN_POINT ( 'NONE',  ( -1.000058425548311591, 3.354084547118552528, 5.130776886537227632 ) ) ;
#128 = EDGE_LOOP ( 'NONE', ( #2, #45 ) ) ;
#129 = CARTESIAN_POINT ( 'NONE',  ( 0.000000000000000000, 10.00000000000000000, 308.0000000000000000 ) ) ;
#130 = CARTESIAN_POINT ( 'NONE',  ( 0.8730028039647189653, -3.389779470691245411, 309.5051520581432669 ) ) ;
#131 = CARTESIAN_POINT ( 'NONE',  ( -0.5041961542674733288, 3.465618008019302643, 5.873407587601187529 ) ) ;
#132 = EDGE_CURVE ( 'NONE', #579, #195, #765, .T. ) ;
#133 = VERTEX_POINT ( 'NONE', #302 ) ;
#134 = MANIFOLD_SOLID_BREP ( 'Enlèv. mat.-Extru.1', #602 ) ;
#135 = CARTESIAN_POINT ( 'NONE',  ( 0.7993212302589762785, -3.408810867278970314, 5.614947691983730671 ) ) ;
#136 = CARTESIAN_POINT ( 'NONE',  ( -1.000015691822937480, -2.828421576849030394, 5.131670952813832898 ) ) ;
#137 = CIRCLE ( 'NONE', #632, 3.000000000000000444 ) ;
#138 = ORIENTED_EDGE ( 'NONE', *, *, #598, .T. ) ;
#139 = CARTESIAN_POINT ( 'NONE',  ( 0.9739600134667202314, -3.362163090603724314, 5.262134297154296370 ) ) ;
#140 = CARTESIAN_POINT ( 'NONE',  ( -3.112208710483553172E-16, -3.500000000000000000, 6.000000000000004441 ) ) ;
#141 = FACE_BOUND ( 'NONE', #74, .T. ) ;
#142 = CARTESIAN_POINT ( 'NONE',  ( -0.5055463730062508265, -2.959608675216975016, 4.127316047744334249 ) ) ;
#143 = ORIENTED_EDGE ( 'NONE', *, *, #518, .F. ) ;
#144 = EDGE_CURVE ( 'NONE', #65, #648, #163, .T. ) ;
#145 = PERSON_AND_ORGANIZATION ( #19, #57 ) ;
#146 = CARTESIAN_POINT ( 'NONE',  ( 0.6146929329460403268, 3.446886579142803164, 309.7994811891186373 ) ) ;
#147 = CARTESIAN_POINT ( 'NONE',  ( 0.7989206136896932486, -2.893216697231920431, 309.6153620317854234 ) ) ;
#148 = FACE_OUTER_BOUND ( 'NONE', #409, .T. ) ;
#149 = CARTESIAN_POINT ( 'NONE',  ( -0.2637502104041536954, -2.990868849045560829, 308.0265575300531964 ) ) ;
#150 = CYLINDRICAL_SURFACE ( 'NONE', #231, 1.000000000000000000 ) ;
#151 = APPROVAL_STATUS ( 'not_yet_approved' ) ;
#152 = CARTESIAN_POINT ( 'NONE',  ( 0.5041672621904123019, 3.465619142146693754, 309.8734106350840420 ) ) ;
#153 = CARTESIAN_POINT ( 'NONE',  ( -0.7993212302589783880, 3.408810867278969869, 309.6149476919837298 ) ) ;
#154 = FACE_BOUND ( 'NONE', #339, .T. ) ;
#155 = DIRECTION ( 'NONE',  ( -0.000000000000000000, -0.000000000000000000, -1.000000000000000000 ) ) ;
#156 = LOCAL_TIME ( 17, 39, 13.00000000000000000, #64 ) ;
#157 = CARTESIAN_POINT ( 'NONE',  ( -0.9999802383981544196, -3.354107858020956012, 5.131993239027329956 ) ) ;
#158 = DIRECTION ( 'NONE',  ( 0.000000000000000000, 0.000000000000000000, 1.000000000000000000 ) ) ;
#159 = VECTOR ( 'NONE', #26, 1000.000000000000000 ) ;
#160 = PERSON_AND_ORGANIZATION ( #19, #57 ) ;
#161 = EDGE_CURVE ( 'NONE', #648, #65, #322, .T. ) ;
#162 = PERSON_AND_ORGANIZATION ( #19, #57 ) ;
#163 = B_SPLINE_CURVE_WITH_KNOTS ( 'NONE', 3,
 ( #468, #474, #56, #291, #649, #764, #347, #545, #769, #529, #762, #242, #718, #8, #175, #118, #708, #479 ),
 .UNSPECIFIED., .F., .F.,
 ( 4, 2, 2, 2, 2, 2, 2, 2, 4 ),
 ( 0.003142913064405481599, 0.003535670621078435515, 0.003928428177751389430, 0.004321185734424343346, 0.004713943291097297261, 0.005106700847770251177, 0.005499458404443205092, 0.005892215961116159008, 0.006284973517789112923 ),
 .UNSPECIFIED. ) ;
#164 = APPROVAL_PERSON_ORGANIZATION ( #391, #566, #647 ) ;
#165 = EDGE_LOOP ( 'NONE', ( #533, #711, #186, #355 ) ) ;
#166 = CYLINDRICAL_SURFACE ( 'NONE', #472, 3.500000000000000000 ) ;
#167 = PRODUCT ( 'Pièce4_Tube_Défaut_sldprt', 'Pièce4_Tube_Défaut_sldprt', '', ( #215 ) ) ;
#168 = ORIENTED_EDGE ( 'NONE', *, *, #299, .F. ) ;
#169 = EDGE_CURVE ( 'NONE', #311, #340, #297, .T. ) ;
#170 = DIRECTION ( 'NONE',  ( 1.000000000000000000, 0.000000000000000000, 0.000000000000000000 ) ) ;
#171 = DIRECTION ( 'NONE',  ( 0.000000000000000000, 0.000000000000000000, -1.000000000000000000 ) ) ;
#172 = B_SPLINE_CURVE_WITH_KNOTS ( 'NONE', 3,
 ( #453, #682, #198, #28, #728, #446, #670, #251, #327, #315, #626, #748, #153, #372, #611, #394, #379, #571 ),
 .UNSPECIFIED., .F., .F.,
 ( 4, 2, 2, 2, 2, 2, 2, 2, 4 ),
 ( 9.066440340960574796E-18, 0.0003928641330506931688, 0.0007857282661013773387, 0.001178592399152061454, 0.001571456532202745570, 0.001964320665253429469, 0.002357184798304113801, 0.002750048931354798134, 0.003142913064405482033 ),
 .UNSPECIFIED. ) ;
#173 = ORIENTED_EDGE ( 'NONE', *, *, #451, .F. ) ;
#174 = AXIS2_PLACEMENT_3D ( 'NONE', #470, #597, #709 ) ;
#175 = CARTESIAN_POINT ( 'NONE',  ( -0.5051183550947806467, -3.465480681721553324, 308.1271311059491609 ) ) ;
#176 = FACE_OUTER_BOUND ( 'NONE', #289, .T. ) ;
#177 = CARTESIAN_POINT ( 'NONE',  ( 3.500000000000000000, 4.286263797015736595E-16, 314.0000000000000000 ) ) ;
#178 = CARTESIAN_POINT ( 'NONE',  ( 0.1328909350815284662, -3.499999999999999556, 308.0000000000000568 ) ) ;
#179 = FACE_OUTER_BOUND ( 'NONE', #599, .T. ) ;
#180 = EDGE_CURVE ( 'NONE', #473, #200, #437, .T. ) ;
#181 = DIRECTION ( 'NONE',  ( -0.000000000000000000, -0.000000000000000000, -1.000000000000000000 ) ) ;
#182 = ORIENTED_EDGE ( 'NONE', *, *, #17, .T. ) ;
#183 = CARTESIAN_POINT ( 'NONE',  ( 0.2635765232843312322, -2.990864999518385581, 5.973417013471304493 ) ) ;
#184 = CARTESIAN_POINT ( 'NONE',  ( 0.8733955994180540028, -3.389670191559900125, 308.4958952378373738 ) ) ;
#185 = CARTESIAN_POINT ( 'NONE',  ( -0.7993212302589771667, 3.408810867278969425, 5.614947691983729783 ) ) ;
#186 = ORIENTED_EDGE ( 'NONE', *, *, #753, .F. ) ;
#187 = CARTESIAN_POINT ( 'NONE',  ( -5.085583658606969685E-15, -3.000000000000000444, 308.0000000000000000 ) ) ;
#188 = ORIENTED_EDGE ( 'NONE', *, *, #180, .T. ) ;
#189 = LOCAL_TIME ( 17, 39, 13.00000000000000000, #397 ) ;
#190 = CARTESIAN_POINT ( 'NONE',  ( -3.112594261991131053E-16, -3.000000000000000444, 6.000000000000004441 ) ) ;
#191 = ORIENTED_EDGE ( 'NONE', *, *, #144, .T. ) ;
#192 = CARTESIAN_POINT ( 'NONE',  ( 0.9733372090092315965, -3.362335283428866894, 4.736264977911754492 ) ) ;
#193 = CARTESIAN_POINT ( 'NONE',  ( 0.7988706027417808997, 2.893215784806471014, 4.384689499879256935 ) ) ;
#194 = CARTESIAN_POINT ( 'NONE',  ( -0.5044450885602778101, 2.959777218237579888, 5.873240183666248448 ) ) ;
#195 = VERTEX_POINT ( 'NONE', #723 ) ;
#196 = CARTESIAN_POINT ( 'NONE',  ( 0.1331724280847640107, -3.000000000000000888, 4.000000000000004441 ) ) ;
#197 = CARTESIAN_POINT ( 'NONE',  ( 0.7988706027417694644, 2.893215784806474122, 308.3846894998792436 ) ) ;
#198 = CARTESIAN_POINT ( 'NONE',  ( -0.2632416658389463149, 3.492207625110312019, 308.0264141019910085 ) ) ;
#199 = CARTESIAN_POINT ( 'NONE',  ( -0.7995630649473682849, -2.893047721466610156, 5.614617129537026408 ) ) ;
#200 = VERTEX_POINT ( 'NONE', #309 ) ;
#201 = CARTESIAN_POINT ( 'NONE',  ( 0.6157855475276743373, 3.446674497211066335, 4.201487629212044439 ) ) ;
#202 = PERSON_AND_ORGANIZATION ( #19, #57 ) ;
#203 = CARTESIAN_POINT ( 'NONE',  ( 0.5055463730062499383, 2.959608675216975460, 4.127316047744334249 ) ) ;
#204 = CARTESIAN_POINT ( 'NONE',  ( 0.9731960446474784421, -2.838248092230703179, 308.7357653145933796 ) ) ;
#205 = CARTESIAN_POINT ( 'NONE',  ( -0.7988706027417812328, -2.893215784806471014, 4.384689499879256047 ) ) ;
#206 = CARTESIAN_POINT ( 'NONE',  ( 0.9999802383981477583, 3.354107858020957789, 309.1319932390273948 ) ) ;
#207 = CARTESIAN_POINT ( 'NONE',  ( -0.1328548843624559328, -3.500000000000000000, 4.000000000000004441 ) ) ;
#208 = DIRECTION ( 'NONE',  ( 0.000000000000000000, -1.000000000000000000, 0.000000000000000000 ) ) ;
#209 =( NAMED_UNIT ( * ) SI_UNIT ( $, .STERADIAN. ) SOLID_ANGLE_UNIT ( ) );
#210 = CARTESIAN_POINT ( 'NONE',  ( -3.112594261991131053E-16, -3.000000000000000444, 6.000000000000004441 ) ) ;
#211 = CYLINDRICAL_SURFACE ( 'NONE', #392, 3.000000000000000444 ) ;
#212 = CARTESIAN_POINT ( 'NONE',  ( -0.8725956800019867288, -3.389888115943094249, 5.505980903507660784 ) ) ;
#213 = CALENDAR_DATE ( 2023, 3, 12 ) ;
#214 = CARTESIAN_POINT ( 'NONE',  ( 3.000000000000000444, 3.673940397442060361E-16, 314.0000000000000000 ) ) ;
#215 = MECHANICAL_CONTEXT ( 'NONE', #105, 'mechanical' ) ;
#216 = FACE_OUTER_BOUND ( 'NONE', #577, .T. ) ;
#217 = ORIENTED_EDGE ( 'NONE', *, *, #658, .F. ) ;
#218 = SHAPE_DEFINITION_REPRESENTATION ( #414, #590 ) ;
#219 = DIRECTION ( 'NONE',  ( 0.000000000000000000, 0.000000000000000000, -1.000000000000000000 ) ) ;
#220 = LINE ( 'NONE', #452, #464 ) ;
#221 = FACE_OUTER_BOUND ( 'NONE', #165, .T. ) ;
#222 = CARTESIAN_POINT ( 'NONE',  ( -4.336808689942017736E-16, 10.00000000000000000, 5.000000000000004441 ) ) ;
#223 = LOCAL_TIME ( 17, 39, 13.00000000000000000, #746 ) ;
#224 = CARTESIAN_POINT ( 'NONE',  ( 0.000000000000000000, 10.00000000000000000, 309.0000000000000000 ) ) ;
#225 = CC_DESIGN_PERSON_AND_ORGANIZATION_ASSIGNMENT ( #162, #386, ( #167 ) ) ;
#226 = VERTEX_POINT ( 'NONE', #210 ) ;
#227 = ORIENTED_EDGE ( 'NONE', *, *, #451, .T. ) ;
#228 = CARTESIAN_POINT ( 'NONE',  ( 0.9735322132565754627, 3.362280268298187380, 4.736827312887889718 ) ) ;
#229 = DIRECTION ( 'NONE',  ( 1.000000000000000000, 0.000000000000000000, 0.000000000000000000 ) ) ;
#230 = ORIENTED_EDGE ( 'NONE', *, *, #575, .T. ) ;
#231 = AXIS2_PLACEMENT_3D ( 'NONE', #43, #618, #271 ) ;
#232 = EDGE_CURVE ( 'NONE', #226, #244, #362, .T. ) ;
#233 = EDGE_LOOP ( 'NONE', ( #430, #277 ) ) ;
#234 = EDGE_LOOP ( 'NONE', ( #532, #182, #641, #58 ) ) ;
#235 = B_SPLINE_CURVE_WITH_KNOTS ( 'NONE', 3,
 ( #14, #537, #491, #591, #427, #199, #666, #729, #136, #257, #737, #441, #205, #83, #142, #435, #373, #612 ),
 .UNSPECIFIED., .F., .F.,
 ( 4, 2, 2, 2, 2, 2, 2, 2, 4 ),
 ( 0.003149157204913741008, 0.003542701630937581357, 0.003936246056961421706, 0.004329790482985262055, 0.004723334909009102404, 0.005116879335032942754, 0.005510423761056783103, 0.005903968187080623452, 0.006297512613104463801 ),
 .UNSPECIFIED. ) ;
#236 = CARTESIAN_POINT ( 'NONE',  ( 0.9731960446474726689, -2.838248092230704955, 4.735765314593303188 ) ) ;
#237 = CARTESIAN_POINT ( 'NONE',  ( 0.1311535745634520578, 3.000000000000000888, 6.000000000000004441 ) ) ;
#238 = CARTESIAN_POINT ( 'NONE',  ( -0.6156588278258824376, 3.446698552862746734, 4.201380318553482596 ) ) ;
#239 = EDGE_CURVE ( 'NONE', #695, #461, #9, .T. ) ;
#240 = CARTESIAN_POINT ( 'NONE',  ( -3.957782542836896586E-16, 3.500000000000000000, 4.000000000000004441 ) ) ;
#241 = CARTESIAN_POINT ( 'NONE',  ( -0.2637757798543143850, 2.990867359021172067, 308.0265614292346754 ) ) ;
#242 = CARTESIAN_POINT ( 'NONE',  ( -0.8734111625493938824, -3.389667611133825087, 308.4958395348460840 ) ) ;
#243 = CARTESIAN_POINT ( 'NONE',  ( -0.7990559721432048956, 3.408852631013602696, 4.384907534385311223 ) ) ;
#244 = VERTEX_POINT ( 'NONE', #140 ) ;
#245 = CARTESIAN_POINT ( 'NONE',  ( 0.5051656851811443527, -3.465489561667690843, 4.127089176403885951 ) ) ;
#246 = CARTESIAN_POINT ( 'NONE',  ( 0.9738553564176362087, 2.838032335265713080, 309.2625362345405051 ) ) ;
#247 = AXIS2_PLACEMENT_3D ( 'NONE', #528, #767, #462 ) ;
#248 = CARTESIAN_POINT ( 'NONE',  ( -0.8726352009032806167, 2.870773295448569851, 5.505842428803797262 ) ) ;
#249 = DIRECTION ( 'NONE',  ( 0.000000000000000000, 0.000000000000000000, -1.000000000000000000 ) ) ;
#250 = CARTESIAN_POINT ( 'NONE',  ( 0.9733197772037772699, 2.838207733611166628, 4.736078016159448012 ) ) ;
#251 = CARTESIAN_POINT ( 'NONE',  ( -0.9733372090092491380, 3.362335283428859789, 308.7362649779117874 ) ) ;
#252 = ORIENTED_EDGE ( 'NONE', *, *, #390, .F. ) ;
#253 = AXIS2_PLACEMENT_3D ( 'NONE', #471, #280, #522 ) ;
#254 = CARTESIAN_POINT ( 'NONE',  ( -0.9999346419223610338, 2.828450232312948565, 308.8679799614480999 ) ) ;
#255 = CARTESIAN_POINT ( 'NONE',  ( 1.225079153546253927E-16, 3.000000000000000444, 310.0000000000000000 ) ) ;
#256 = CARTESIAN_POINT ( 'NONE',  ( 0.2637757798543142740, -2.990867359021172511, 308.0265614292345617 ) ) ;
#257 = CARTESIAN_POINT ( 'NONE',  ( -0.9999842939873369030, -2.828432677660176253, 4.868090805909305985 ) ) ;
#258 = EDGE_CURVE ( 'NONE', #11, #642, #269, .T. ) ;
#259 = CARTESIAN_POINT ( 'NONE',  ( 0.8730844665417945016, 2.870626768165738252, 308.4952924445445888 ) ) ;
#260 = CARTESIAN_POINT ( 'NONE',  ( 1.224214444864064491E-16, -3.000000000000000444, 310.0000000000000000 ) ) ;
#261 = AXIS2_PLACEMENT_3D ( 'NONE', #374, #503, #270 ) ;
#262 = APPROVAL_DATE_TIME ( #320, #279 ) ;
#263 = CARTESIAN_POINT ( 'NONE',  ( 1.000015691822934150, 2.828421576849031727, 309.1316709528137494 ) ) ;
#264 = CARTESIAN_POINT ( 'NONE',  ( 0.000000000000000000, 0.000000000000000000, 314.0000000000000000 ) ) ;
#265 = DIRECTION ( 'NONE',  ( 0.000000000000000000, 0.000000000000000000, 1.000000000000000000 ) ) ;
#266 = ADVANCED_FACE ( 'NONE', ( #176, #404 ), #359, .F. ) ;
#267 = COORDINATED_UNIVERSAL_TIME_OFFSET ( 1, 0, .AHEAD. ) ;
#268 = CARTESIAN_POINT ( 'NONE',  ( 0.2640922853737848186, 3.492127742916199651, 308.0267066610414304 ) ) ;
#269 = B_SPLINE_CURVE_WITH_KNOTS ( 'NONE', 3,
 ( #370, #610, #747, #152, #146, #87, #558, #508, #206, #22, #500, #735, #439, #751, #624, #268, #103, #703 ),
 .UNSPECIFIED., .F., .F.,
 ( 4, 2, 2, 2, 2, 2, 2, 2, 4 ),
 ( 0.003142913064405482033, 0.003535670621078435948, 0.003928428177751389430, 0.004321185734424343346, 0.004713943291097297261, 0.005106700847770251177, 0.005499458404443205092, 0.005892215961116159008, 0.006284973517789112923 ),
 .UNSPECIFIED. ) ;
#270 = DIRECTION ( 'NONE',  ( 1.000000000000000000, 0.000000000000000000, 0.000000000000000000 ) ) ;
#271 = DIRECTION ( 'NONE',  ( 0.000000000000000000, 0.000000000000000000, -1.000000000000000000 ) ) ;
#272 = PERSON_AND_ORGANIZATION ( #19, #57 ) ;
#273 = CC_DESIGN_PERSON_AND_ORGANIZATION_ASSIGNMENT ( #145, #689, ( #329 ) ) ;
#274 = CC_DESIGN_DATE_AND_TIME_ASSIGNMENT ( #614, #91, ( #329 ) ) ;
#275 = EDGE_CURVE ( 'NONE', #548, #527, #540, .T. ) ;
#276 = CARTESIAN_POINT ( 'NONE',  ( -0.6149058025954697859, -2.937842246861731788, 309.7993410815682864 ) ) ;
#277 = ORIENTED_EDGE ( 'NONE', *, *, #71, .T. ) ;
#278 = CARTESIAN_POINT ( 'NONE',  ( 0.6159197602761827817, -2.937602516701900424, 308.2016246194519340 ) ) ;
#279 = APPROVAL ( #95, 'UNSPECIFIED' ) ;
#280 = DIRECTION ( 'NONE',  ( 0.000000000000000000, 0.000000000000000000, 1.000000000000000000 ) ) ;
#281 = EDGE_LOOP ( 'NONE', ( #411, #715, #396, #143 ) ) ;
#282 = SECURITY_CLASSIFICATION ( '', '', #450 ) ;
#283 = B_SPLINE_CURVE_WITH_KNOTS ( 'NONE', 3,
 ( #405, #650, #338, #324, #569, #749, #212, #686, #157, #383, #627, #88, #495, #568, #443, #556, #207, #736 ),
 .UNSPECIFIED., .F., .F.,
 ( 4, 2, 2, 2, 2, 2, 2, 2, 4 ),
 ( 0.003142913064405509355, 0.003535670621078465005, 0.003928428177751420655, 0.004321185734424376305, 0.004713943291097331956, 0.005106700847770287606, 0.005499458404443243256, 0.005892215961116198907, 0.006284973517789154557 ),
 .UNSPECIFIED. ) ;
#284 = ORIENTED_EDGE ( 'NONE', *, *, #761, .F. ) ;
#285 = AXIS2_PLACEMENT_3D ( 'NONE', #717, #357, #249 ) ;
#286 = CARTESIAN_POINT ( 'NONE',  ( 1.000019739161273069, 3.354096081168901122, 4.868306364528990571 ) ) ;
#287 = LINE ( 'NONE', #177, #429 ) ;
#288 = DATE_AND_TIME ( #408, #156 ) ;
#289 = EDGE_LOOP ( 'NONE', ( #50, #402 ) ) ;
#290 = ADVANCED_FACE ( 'NONE', ( #561 ), #25, .F. ) ;
#291 = CARTESIAN_POINT ( 'NONE',  ( -0.5041672621904118579, -3.465619142146693754, 309.8734106350840420 ) ) ;
#292 = FACE_OUTER_BOUND ( 'NONE', #458, .T. ) ;
#293 = ORIENTED_EDGE ( 'NONE', *, *, #536, .F. ) ;
#294 = CIRCLE ( 'NONE', #388, 3.500000000000000000 ) ;
#295 = CARTESIAN_POINT ( 'NONE',  ( 0.7993212302589784990, -3.408810867278969869, 309.6149476919837298 ) ) ;
#296 = CARTESIAN_POINT ( 'NONE',  ( 3.500000000000000000, 4.286263797015736595E-16, 0.000000000000000000 ) ) ;
#297 = LINE ( 'NONE', #657, #333 ) ;
#298 = CARTESIAN_POINT ( 'NONE',  ( -0.8731730686977313693, 2.870597771626967276, 4.495520761189871983 ) ) ;
#299 = EDGE_CURVE ( 'NONE', #340, #664, #137, .T. ) ;
#300 = ORIENTED_EDGE ( 'NONE', *, *, #258, .F. ) ;
#301 = CARTESIAN_POINT ( 'NONE',  ( 0.6144681256160778871, -3.446931226558457517, 5.799689949680940870 ) ) ;
#302 = CARTESIAN_POINT ( 'NONE',  ( 3.000000000000000444, 3.673940397442060361E-16, 314.0000000000000000 ) ) ;
#303 = CARTESIAN_POINT ( 'NONE',  ( -3.112115071116381628E-16, 3.500000000000000000, 6.000000000000004441 ) ) ;
#304 = CARTESIAN_POINT ( 'NONE',  ( 0.7989248838730172997, -2.893196282169687272, 4.384793181692172581 ) ) ;
#305 = CARTESIAN_POINT ( 'NONE',  ( 0.8730844665418056039, 2.870626768165735587, 4.495292444544615407 ) ) ;
#306 = CARTESIAN_POINT ( 'NONE',  ( -1.000065112068121209, 2.828404104156925669, 5.131028051652426925 ) ) ;
#307 = ORIENTED_EDGE ( 'NONE', *, *, #628, .F. ) ;
#308 = CARTESIAN_POINT ( 'NONE',  ( 5.085583658606969685E-15, 3.000000000000000444, 308.0000000000000000 ) ) ;
#309 = CARTESIAN_POINT ( 'NONE',  ( -4.363626074222733167E-16, 3.000000000000000444, 4.000000000000004441 ) ) ;
#310 = DIRECTION ( 'NONE',  ( 0.000000000000000000, -1.000000000000000000, 0.000000000000000000 ) ) ;
#311 = VERTEX_POINT ( 'NONE', #325 ) ;
#312 = CARTESIAN_POINT ( 'NONE',  ( 0.2637757798543131638, -2.990867359021172955, 4.026561429234529754 ) ) ;
#313 = CARTESIAN_POINT ( 'NONE',  ( 0.9738553564176384292, 2.838032335265713080, 5.262536234540615254 ) ) ;
#314 = ADVANCED_FACE ( 'NONE', ( #216 ), #150, .F. ) ;
#315 = CARTESIAN_POINT ( 'NONE',  ( -1.000058425548314256, 3.354084547118552084, 309.1307768865372054 ) ) ;
#316 = LINE ( 'NONE', #745, #758 ) ;
#317 = CARTESIAN_POINT ( 'NONE',  ( 0.1328548843624549614, 3.500000000000000000, 4.000000000000004441 ) ) ;
#318 = CARTESIAN_POINT ( 'NONE',  ( -1.000065112068121875, 2.828404104156926113, 309.1310280516523790 ) ) ;
#319 = CARTESIAN_POINT ( 'NONE',  ( 0.2635765232843303441, -2.990864999518386025, 309.9734170134713054 ) ) ;
#320 = DATE_AND_TIME ( #680, #454 ) ;
#321 = CARTESIAN_POINT ( 'NONE',  ( 0.5044450885602755896, -2.959777218237579888, 309.8732401836663257 ) ) ;
#322 = B_SPLINE_CURVE_WITH_KNOTS ( 'NONE', 3,
 ( #423, #178, #702, #588, #661, #713, #184, #653, #124, #584, #66, #130, #295, #535, #351, #418, #594, #69 ),
 .UNSPECIFIED., .F., .F.,
 ( 4, 2, 2, 2, 2, 2, 2, 2, 4 ),
 ( 9.066440340960574796E-18, 0.0003928641330506932230, 0.0007857282661013772302, 0.001178592399152061237, 0.001571456532202745353, 0.001964320665253429469, 0.002357184798304113368, 0.002750048931354797700, 0.003142913064405481599 ),
 .UNSPECIFIED. ) ;
#323 = AXIS2_PLACEMENT_3D ( 'NONE', #637, #525, #63 ) ;
#324 = CARTESIAN_POINT ( 'NONE',  ( -0.5041672621904198515, -3.465619142146691978, 5.873410635084075793 ) ) ;
#325 = CARTESIAN_POINT ( 'NONE',  ( -3.000000000000000444, 0.000000000000000000, 314.0000000000000000 ) ) ;
#326 = APPLICATION_PROTOCOL_DEFINITION ( 'international standard', 'config_control_design', 1994, #105 ) ;
#327 = CARTESIAN_POINT ( 'NONE',  ( -0.9999413755384424229, 3.354119444685285334, 308.8683311196643899 ) ) ;
#328 = CARTESIAN_POINT ( 'NONE',  ( 0.000000000000000000, 0.000000000000000000, 314.0000000000000000 ) ) ;
#329 = PRODUCT_DEFINITION ( 'UNKNOWN', '', #52, #387 ) ;
#330 = PRODUCT_RELATED_PRODUCT_CATEGORY ( 'detail', '', ( #167 ) ) ;
#331 = CARTESIAN_POINT ( 'NONE',  ( 0.000000000000000000, 0.000000000000000000, 0.000000000000000000 ) ) ;
#332 = VECTOR ( 'NONE', #585, 1000.000000000000000 ) ;
#333 = VECTOR ( 'NONE', #539, 1000.000000000000000 ) ;
#334 = CARTESIAN_POINT ( 'NONE',  ( -0.1311869756547100752, 3.000000000000000888, 310.0000000000000568 ) ) ;
#335 = EDGE_CURVE ( 'NONE', #699, #710, #366, .T. ) ;
#336 = CARTESIAN_POINT ( 'NONE',  ( 1.224646799147353454E-16, 10.00000000000000000, 310.0000000000000000 ) ) ;
#337 = ORIENTED_EDGE ( 'NONE', *, *, #169, .T. ) ;
#338 = CARTESIAN_POINT ( 'NONE',  ( -0.2631358747190586378, -3.492199905233663415, 5.973545210649403359 ) ) ;
#339 = EDGE_LOOP ( 'NONE', ( #398, #252 ) ) ;
#340 = VERTEX_POINT ( 'NONE', #37 ) ;
#341 = APPROVAL_PERSON_ORGANIZATION ( #511, #663, #573 ) ;
#342 = ORIENTED_EDGE ( 'NONE', *, *, #169, .F. ) ;
#343 = EDGE_CURVE ( 'NONE', #195, #579, #294, .T. ) ;
#344 = ORIENTED_EDGE ( 'NONE', *, *, #335, .T. ) ;
#345 = ORIENTED_EDGE ( 'NONE', *, *, #390, .T. ) ;
#346 = CARTESIAN_POINT ( 'NONE',  ( -0.8730844665417947237, -2.870626768165738252, 308.4952924445447024 ) ) ;
#347 = CARTESIAN_POINT ( 'NONE',  ( -0.8725956800019708526, -3.389888115943098246, 309.5059809035077478 ) ) ;
#348 = ORIENTED_EDGE ( 'NONE', *, *, #132, .T. ) ;
#349 = ORIENTED_EDGE ( 'NONE', *, *, #598, .F. ) ;
#350 = CARTESIAN_POINT ( 'NONE',  ( 0.5044450885602775880, -2.959777218237579888, 5.873240183666247560 ) ) ;
#351 = CARTESIAN_POINT ( 'NONE',  ( 0.5041961542674701091, -3.465618008019301755, 309.8734075876011502 ) ) ;
#352 = DIRECTION ( 'NONE',  ( 0.000000000000000000, 0.000000000000000000, -1.000000000000000000 ) ) ;
#353 = CARTESIAN_POINT ( 'NONE',  ( -0.2637757798543139409, 2.990867359021172511, 4.026561429234529754 ) ) ;
#354 = B_SPLINE_CURVE_WITH_KNOTS ( 'NONE', 3,
 ( #620, #559, #256, #23, #278, #82, #501, #204, #440, #616, #676, #97, #147, #93, #321, #319, #564, #260 ),
 .UNSPECIFIED., .F., .F.,
 ( 4, 2, 2, 2, 2, 2, 2, 2, 4 ),
 ( 4.956183871250326715E-18, 0.0003936446506142239144, 0.0007872893012284427330, 0.001180933951842661443, 0.001574578602456880262, 0.001968223253071098647, 0.002361867903685317682, 0.002755512554299536718, 0.003149157204913755753 ),
 .UNSPECIFIED. ) ;
#355 = ORIENTED_EDGE ( 'NONE', *, *, #671, .F. ) ;
#356 = CIRCLE ( 'NONE', #31, 3.000000000000000444 ) ;
#357 = DIRECTION ( 'NONE',  ( 0.000000000000000000, -1.000000000000000000, 0.000000000000000000 ) ) ;
#358 = CARTESIAN_POINT ( 'NONE',  ( 0.5048818755377044720, 2.959712371732154068, 5.873027021578626439 ) ) ;
#359 = PLANE ( 'NONE',  #174 ) ;
#360 = EDGE_LOOP ( 'NONE', ( #115, #138, #337, #436 ) ) ;
#361 = CARTESIAN_POINT ( 'NONE',  ( -9.325837744892456670E-15, 3.500000000000000000, 308.0000000000000000 ) ) ;
#362 = LINE ( 'NONE', #601, #732 ) ;
#363 = CARTESIAN_POINT ( 'NONE',  ( -3.112115071116381628E-16, 3.500000000000000000, 6.000000000000004441 ) ) ;
#364 = EDGE_LOOP ( 'NONE', ( #552, #85, #120, #344 ) ) ;
#365 = CARTESIAN_POINT ( 'NONE',  ( 0.1309641947749974611, -3.500000000000000000, 6.000000000000007105 ) ) ;
#366 = CIRCLE ( 'NONE', #39, 3.500000000000000000 ) ;
#367 = CARTESIAN_POINT ( 'NONE',  ( -0.6155931879056221190, -2.937675415082906749, 308.2013472103047320 ) ) ;
#368 = EDGE_CURVE ( 'NONE', #133, #664, #514, .T. ) ;
#369 = CARTESIAN_POINT ( 'NONE',  ( 0.7989206136896845889, -2.893216697231923096, 5.615362031785390506 ) ) ;
#370 = CARTESIAN_POINT ( 'NONE',  ( 1.224693617879003022E-16, 3.500000000000000000, 310.0000000000000000 ) ) ;
#371 = CIRCLE ( 'NONE', #261, 3.000000000000000444 ) ;
#372 = CARTESIAN_POINT ( 'NONE',  ( -0.6144681256160837712, 3.446931226558457517, 309.7996899496808396 ) ) ;
#373 = CARTESIAN_POINT ( 'NONE',  ( -0.1331385214838914366, -3.000000000000000444, 4.000000000000004441 ) ) ;
#374 = CARTESIAN_POINT ( 'NONE',  ( 0.000000000000000000, 0.000000000000000000, 0.000000000000000000 ) ) ;
#375 = EDGE_LOOP ( 'NONE', ( #24, #349 ) ) ;
#376 = FACE_BOUND ( 'NONE', #424, .T. ) ;
#377 = CYLINDRICAL_SURFACE ( 'NONE', #401, 1.000000000000000888 ) ;
#378 =( LENGTH_UNIT ( ) NAMED_UNIT ( * ) SI_UNIT ( .MILLI., .METRE. ) );
#379 = CARTESIAN_POINT ( 'NONE',  ( -0.1309641947749975444, 3.500000000000000000, 310.0000000000000000 ) ) ;
#380 = CYLINDRICAL_SURFACE ( 'NONE', #106, 3.500000000000000000 ) ;
#381 = DATE_AND_TIME ( #213, #223 ) ;
#382 = LINE ( 'NONE', #18, #608 ) ;
#383 = CARTESIAN_POINT ( 'NONE',  ( -1.000019739161273957, -3.354096081168900234, 4.868306364528990571 ) ) ;
#384 = CARTESIAN_POINT ( 'NONE',  ( -1.000015691822933928, -2.828421576849031283, 309.1316709528138063 ) ) ;
#385 = LINE ( 'NONE', #631, #159 ) ;
#386 = PERSON_AND_ORGANIZATION_ROLE ( 'design_owner' ) ;
#387 = DESIGN_CONTEXT ( 'detailed design', #731, 'design' ) ;
#388 = AXIS2_PLACEMENT_3D ( 'NONE', #328, #265, #572 ) ;
#389 = ORIENTED_EDGE ( 'NONE', *, *, #180, .F. ) ;
#390 = EDGE_CURVE ( 'NONE', #244, #20, #283, .T. ) ;
#391 = PERSON_AND_ORGANIZATION ( #19, #57 ) ;
#392 = AXIS2_PLACEMENT_3D ( 'NONE', #685, #155, #46 ) ;
#393 = ORIENTED_EDGE ( 'NONE', *, *, #275, .T. ) ;
#394 = CARTESIAN_POINT ( 'NONE',  ( -0.2629899886636575257, 3.492213940374856662, 309.9735968580065446 ) ) ;
#395 = ORIENTED_EDGE ( 'NONE', *, *, #239, .F. ) ;
#396 = ORIENTED_EDGE ( 'NONE', *, *, #547, .F. ) ;
#397 = COORDINATED_UNIVERSAL_TIME_OFFSET ( 1, 0, .AHEAD. ) ;
#398 = ORIENTED_EDGE ( 'NONE', *, *, #730, .F. ) ;
#399 = EDGE_CURVE ( 'NONE', #578, #20, #382, .T. ) ;
#400 = B_SPLINE_CURVE_WITH_KNOTS ( 'NONE', 3,
 ( #75, #196, #312, #656, #665, #304, #488, #236, #12, #3, #596, #593, #369, #499, #350, #183, #652, #190 ),
 .UNSPECIFIED., .F., .F.,
 ( 4, 2, 2, 2, 2, 2, 2, 2, 4 ),
 ( 9.207690956430522076E-21, 0.0003936446506142176260, 0.0007872893012284352520, 0.001180933951842652770, 0.001574578602456870504, 0.001968223253071088238, 0.002361867903685305539, 0.002755512554299523274, 0.003149157204913741008 ),
 .UNSPECIFIED. ) ;
#401 = AXIS2_PLACEMENT_3D ( 'NONE', #565, #208, #444 ) ;
#402 = ORIENTED_EDGE ( 'NONE', *, *, #122, .F. ) ;
#403 = PERSON_AND_ORGANIZATION ( #19, #57 ) ;
#404 = FACE_BOUND ( 'NONE', #128, .T. ) ;
#405 = CARTESIAN_POINT ( 'NONE',  ( -3.112208710483553172E-16, -3.500000000000000000, 6.000000000000004441 ) ) ;
#406 = LINE ( 'NONE', #336, #332 ) ;
#407 = DIRECTION ( 'NONE',  ( 0.000000000000000000, 0.000000000000000000, 1.000000000000000000 ) ) ;
#408 = CALENDAR_DATE ( 2023, 3, 12 ) ;
#409 = EDGE_LOOP ( 'NONE', ( #15, #173, #739, #691 ) ) ;
#410 = CARTESIAN_POINT ( 'NONE',  ( -0.2632416658389380992, 3.492207625110312463, 4.026414101990935634 ) ) ;
#411 = ORIENTED_EDGE ( 'NONE', *, *, #536, .T. ) ;
#412 = CARTESIAN_POINT ( 'NONE',  ( 0.2632416658389373221, -3.492207625110312463, 4.026414101990936523 ) ) ;
#413 = DIRECTION ( 'NONE',  ( 0.000000000000000000, 0.000000000000000000, 1.000000000000000000 ) ) ;
#414 = PRODUCT_DEFINITION_SHAPE ( 'NONE', 'NONE',  #329 ) ;
#415 = ORIENTED_EDGE ( 'NONE', *, *, #161, .F. ) ;
#416 = ADVANCED_FACE ( 'NONE', ( #141, #376, #104 ), #166, .T. ) ;
#417 = CARTESIAN_POINT ( 'NONE',  ( 0.5041961542674725516, -3.465618008019302643, 5.873407587601186641 ) ) ;
#418 = CARTESIAN_POINT ( 'NONE',  ( 0.2629899886636580808, -3.492213940374857106, 309.9735968580066015 ) ) ;
#419 = CARTESIAN_POINT ( 'NONE',  ( -3.957782542836896586E-16, 3.500000000000000000, 4.000000000000004441 ) ) ;
#420 = CC_DESIGN_APPROVAL ( #279, ( #329 ) ) ;
#421 = VECTOR ( 'NONE', #549, 1000.000000000000000 ) ;
#422 = CARTESIAN_POINT ( 'NONE',  ( 1.000058425548310703, -3.354084547118553417, 5.130776886537228521 ) ) ;
#423 = CARTESIAN_POINT ( 'NONE',  ( 9.325837744892456670E-15, -3.500000000000000000, 308.0000000000000000 ) ) ;
#424 = EDGE_LOOP ( 'NONE', ( #754, #300 ) ) ;
#425 = CARTESIAN_POINT ( 'NONE',  ( 0.8730028039647148574, -3.389779470691246743, 5.505152058143305993 ) ) ;
#426 = CARTESIAN_POINT ( 'NONE',  ( 0.2637502104041427597, 2.990868849045563493, 4.026557530053207046 ) ) ;
#427 = CARTESIAN_POINT ( 'NONE',  ( -0.6149058025954726725, -2.937842246861731343, 5.799341081568304190 ) ) ;
#428 = EDGE_CURVE ( 'NONE', #642, #11, #172, .T. ) ;
#429 = VECTOR ( 'NONE', #110, 1000.000000000000000 ) ;
#430 = ORIENTED_EDGE ( 'NONE', *, *, #658, .T. ) ;
#431 = CARTESIAN_POINT ( 'NONE',  ( -0.9731960446474786641, 2.838248092230703179, 308.7357653145933796 ) ) ;
#432 = CARTESIAN_POINT ( 'NONE',  ( 0.6155931879056218969, 2.937675415082907637, 308.2013472103047320 ) ) ;
#433 = CIRCLE ( 'NONE', #531, 3.500000000000000000 ) ;
#434 = DIRECTION ( 'NONE',  ( -1.000000000000000000, 0.000000000000000000, 0.000000000000000000 ) ) ;
#435 = CARTESIAN_POINT ( 'NONE',  ( -0.2637502104041434814, -2.990868849045562161, 4.026557530053207046 ) ) ;
#436 = ORIENTED_EDGE ( 'NONE', *, *, #504, .F. ) ;
#437 = B_SPLINE_CURVE_WITH_KNOTS ( 'NONE', 3,
 ( #4, #237, #126, #358, #73, #483, #92, #313, #550, #615, #250, #305, #193, #27, #203, #426, #741, #607 ),
 .UNSPECIFIED., .F., .F.,
 ( 4, 2, 2, 2, 2, 2, 2, 2, 4 ),
 ( 0.003149157204913741008, 0.003542701630937581357, 0.003936246056961420839, 0.004329790482985261188, 0.004723334909009101537, 0.005116879335032941886, 0.005510423761056782235, 0.005903968187080621717, 0.006297512613104462066 ),
 .UNSPECIFIED. ) ;
#438 = APPLICATION_PROTOCOL_DEFINITION ( 'international standard', 'config_control_design', 1994, #731 ) ;
#439 = CARTESIAN_POINT ( 'NONE',  ( 0.7990795749240104939, 3.408845664328084446, 308.3849506688203519 ) ) ;
#440 = CARTESIAN_POINT ( 'NONE',  ( 0.9999346419223612559, -2.828450232312949009, 308.8679799614480999 ) ) ;
#441 = CARTESIAN_POINT ( 'NONE',  ( -0.8730844665418061590, -2.870626768165735143, 4.495292444544612742 ) ) ;
#442 = CARTESIAN_POINT ( 'NONE',  ( 0.2637502104041538620, 2.990868849045561717, 308.0265575300533101 ) ) ;
#443 = CARTESIAN_POINT ( 'NONE',  ( -0.5051183550947868639, -3.465480681721552436, 4.127131105949107592 ) ) ;
#444 = DIRECTION ( 'NONE',  ( 0.000000000000000000, 0.000000000000000000, -1.000000000000000000 ) ) ;
#445 = CARTESIAN_POINT ( 'NONE',  ( -0.1331385214838906872, -3.000000000000000888, 308.0000000000001137 ) ) ;
#446 = CARTESIAN_POINT ( 'NONE',  ( -0.7990559721432100027, 3.408852631013603141, 308.3849075343852633 ) ) ;
#447 = CC_DESIGN_PERSON_AND_ORGANIZATION_ASSIGNMENT ( #160, #40, ( #52 ) ) ;
#448 = CARTESIAN_POINT ( 'NONE',  ( 1.225079153546253927E-16, 3.000000000000000444, 310.0000000000000000 ) ) ;
#449 = CARTESIAN_POINT ( 'NONE',  ( 0.000000000000000000, 0.000000000000000000, 0.000000000000000000 ) ) ;
#450 = SECURITY_CLASSIFICATION_LEVEL ( 'unclassified' ) ;
#451 = EDGE_CURVE ( 'NONE', #667, #477, #354, .T. ) ;
#452 = CARTESIAN_POINT ( 'NONE',  ( -3.112161890794664282E-16, 10.00000000000000000, 6.000000000000004441 ) ) ;
#453 = CARTESIAN_POINT ( 'NONE',  ( -9.325837744892456670E-15, 3.500000000000000000, 308.0000000000000000 ) ) ;
#454 = LOCAL_TIME ( 17, 39, 13.00000000000000000, #674 ) ;
#455 = DIRECTION ( 'NONE',  ( 0.000000000000000000, -1.000000000000000000, 0.000000000000000000 ) ) ;
#456 = CARTESIAN_POINT ( 'NONE',  ( 1.224214444864064491E-16, -3.000000000000000444, 310.0000000000000000 ) ) ;
#457 = DATE_AND_TIME ( #530, #189 ) ;
#458 = EDGE_LOOP ( 'NONE', ( #348, #643 ) ) ;
#459 = ADVANCED_FACE ( 'NONE', ( #513, #34, #509 ), #211, .F. ) ;
#460 = DIRECTION ( 'NONE',  ( -1.000000000000000000, 0.000000000000000000, 0.000000000000000000 ) ) ;
#461 = VERTEX_POINT ( 'NONE', #520 ) ;
#462 = DIRECTION ( 'NONE',  ( 0.000000000000000000, 0.000000000000000000, -1.000000000000000000 ) ) ;
#463 = CARTESIAN_POINT ( 'NONE',  ( 0.8734111625493786724, 3.389667611133829972, 4.495839534846099994 ) ) ;
#464 = VECTOR ( 'NONE', #640, 1000.000000000000000 ) ;
#465 = AXIS2_PLACEMENT_3D ( 'NONE', #224, #455, #171 ) ;
#466 = FACE_BOUND ( 'NONE', #760, .T. ) ;
#467 = UNCERTAINTY_MEASURE_WITH_UNIT (LENGTH_MEASURE( 1.000000000000000082E-05 ), #378, 'distance_accuracy_value', 'NONE');
#468 = CARTESIAN_POINT ( 'NONE',  ( 1.224599980436652086E-16, -3.500000000000000000, 310.0000000000000000 ) ) ;
#469 = CARTESIAN_POINT ( 'NONE',  ( -0.1328909350815290769, 3.500000000000000444, 4.000000000000005329 ) ) ;
#470 = CARTESIAN_POINT ( 'NONE',  ( 0.000000000000000000, 0.000000000000000000, 0.000000000000000000 ) ) ;
#471 = CARTESIAN_POINT ( 'NONE',  ( 0.000000000000000000, 0.000000000000000000, 314.0000000000000000 ) ) ;
#472 = AXIS2_PLACEMENT_3D ( 'NONE', #264, #742, #434 ) ;
#473 = VERTEX_POINT ( 'NONE', #755 ) ;
#474 = CARTESIAN_POINT ( 'NONE',  ( -0.1309286667429955253, -3.500000000000000000, 310.0000000000000000 ) ) ;
#475 = CARTESIAN_POINT ( 'NONE',  ( -0.8733955994180283566, 3.389670191559906787, 4.495895237837420844 ) ) ;
#476 = ADVANCED_FACE ( 'NONE', ( #221 ), #694, .F. ) ;
#477 = VERTEX_POINT ( 'NONE', #456 ) ;
#478 = CYLINDRICAL_SURFACE ( 'NONE', #285, 1.000000000000000888 ) ;
#479 = CARTESIAN_POINT ( 'NONE',  ( 9.325837744892456670E-15, -3.500000000000000000, 308.0000000000000000 ) ) ;
#480 = CARTESIAN_POINT ( 'NONE',  ( -0.1309641947749981550, 3.500000000000000000, 6.000000000000006217 ) ) ;
#481 = DIRECTION ( 'NONE',  ( 0.000000000000000000, -1.000000000000000000, 0.000000000000000000 ) ) ;
#482 = LINE ( 'NONE', #129, #421 ) ;
#483 = CARTESIAN_POINT ( 'NONE',  ( 0.7995630649473675078, 2.893047721466611044, 5.614617129537026408 ) ) ;
#484 = CARTESIAN_POINT ( 'NONE',  ( -0.9999413755384456426, 3.354119444685283558, 4.868331119664448536 ) ) ;
#485 = CARTESIAN_POINT ( 'NONE',  ( 0.1309286667429943873, 3.500000000000000000, 6.000000000000004441 ) ) ;
#486 = ORIENTED_EDGE ( 'NONE', *, *, #730, .T. ) ;
#487 = APPROVAL_PERSON_ORGANIZATION ( #202, #279, #623 ) ;
#488 = CARTESIAN_POINT ( 'NONE',  ( 0.8731730686977305922, -2.870597771626967720, 4.495520761189872871 ) ) ;
#489 = ADVANCED_FACE ( 'NONE', ( #583, #592, #466 ), #67, .F. ) ;
#490 = CARTESIAN_POINT ( 'NONE',  ( -0.7989206136896853661, 2.893216697231922208, 5.615362031785392283 ) ) ;
#491 = CARTESIAN_POINT ( 'NONE',  ( -0.2635503551046907700, -2.990876834969142806, 5.973459346340213472 ) ) ;
#492 = ORIENTED_EDGE ( 'NONE', *, *, #30, .T. ) ;
#493 = CARTESIAN_POINT ( 'NONE',  ( -4.561813799416700443E-16, -3.500000000000000000, 4.000000000000004441 ) ) ;
#494 = CARTESIAN_POINT ( 'NONE',  ( 0.6149058025954698969, 2.937842246861732232, 309.7993410815682864 ) ) ;
#495 = CARTESIAN_POINT ( 'NONE',  ( -0.7990795749240169332, -3.408845664328083114, 4.384950668820287056 ) ) ;
#496 = CARTESIAN_POINT ( 'NONE',  ( -0.2635503551046967652, -2.990876834969142362, 309.9734593463402348 ) ) ;
#497 = ORIENTED_EDGE ( 'NONE', *, *, #71, .F. ) ;
#498 = CARTESIAN_POINT ( 'NONE',  ( 0.7990795749240160450, 3.408845664328082670, 4.384950668820286168 ) ) ;
#499 = CARTESIAN_POINT ( 'NONE',  ( 0.6147613726084336649, -2.937864098093799115, 5.799382906928804537 ) ) ;
#500 = CARTESIAN_POINT ( 'NONE',  ( 0.9735322132565830122, 3.362280268298184716, 308.7368273128880105 ) ) ;
#501 = CARTESIAN_POINT ( 'NONE',  ( 0.8731730686977487998, -2.870597771626961503, 308.4955207611898231 ) ) ;
#502 = CARTESIAN_POINT ( 'NONE',  ( 1.224599980436652086E-16, -3.500000000000000000, 310.0000000000000000 ) ) ;
#503 = DIRECTION ( 'NONE',  ( 0.000000000000000000, 0.000000000000000000, 1.000000000000000000 ) ) ;
#504 = EDGE_CURVE ( 'NONE', #664, #340, #371, .T. ) ;
#505 = CARTESIAN_POINT ( 'NONE',  ( 1.224214444864064491E-16, -3.000000000000000444, 310.0000000000000000 ) ) ;
#506 = CARTESIAN_POINT ( 'NONE',  ( -4.336808689942017736E-16, 10.00000000000000000, 5.000000000000004441 ) ) ;
#507 = DIRECTION ( 'NONE',  ( 1.000000000000000000, 0.000000000000000000, 0.000000000000000000 ) ) ;
#508 = CARTESIAN_POINT ( 'NONE',  ( 0.9740305859285138812, 3.362146498450968135, 309.2621150761560216 ) ) ;
#509 = FACE_OUTER_BOUND ( 'NONE', #655, .T. ) ;
#510 = B_SPLINE_CURVE_WITH_KNOTS ( 'NONE', 3,
 ( #10, #469, #410, #659, #238, #243, #475, #119, #484, #127, #589, #719, #185, #662, #131, #714, #480, #363 ),
 .UNSPECIFIED., .F., .F.,
 ( 4, 2, 2, 2, 2, 2, 2, 2, 4 ),
 ( 3.680617690528433952E-20, 0.0003928641330506889404, 0.0007857282661013776639, 0.001178592399152066442, 0.001571456532202754894, 0.001964320665253443780, 0.002357184798304132883, 0.002750048931354821553, 0.003142913064405509788 ),
 .UNSPECIFIED. ) ;
#511 = PERSON_AND_ORGANIZATION ( #19, #57 ) ;
#512 = CARTESIAN_POINT ( 'NONE',  ( 0.8727711819437027341, 2.870730265142594995, 309.5055590901553160 ) ) ;
#513 = FACE_BOUND ( 'NONE', #47, .T. ) ;
#514 = LINE ( 'NONE', #214, #581 ) ;
#515 = CARTESIAN_POINT ( 'NONE',  ( -0.5055463730062637051, -2.959608675216973683, 308.1273160477442730 ) ) ;
#516 = CARTESIAN_POINT ( 'NONE',  ( -0.8726352009032875001, 2.870773295448568074, 309.5058424288038736 ) ) ;
#517 = PERSON_AND_ORGANIZATION_ROLE ( 'design_supplier' ) ;
#518 = EDGE_CURVE ( 'NONE', #527, #200, #29, .T. ) ;
#519 = APPROVAL_STATUS ( 'not_yet_approved' ) ;
#520 = CARTESIAN_POINT ( 'NONE',  ( 5.085583658606969685E-15, 3.000000000000000444, 308.0000000000000000 ) ) ;
#521 = CARTESIAN_POINT ( 'NONE',  ( -0.8727711819437026231, -2.870730265142594995, 309.5055590901553728 ) ) ;
#522 = DIRECTION ( 'NONE',  ( 1.000000000000000000, 0.000000000000000000, -0.000000000000000000 ) ) ;
#523 = EDGE_CURVE ( 'NONE', #311, #133, #100, .T. ) ;
#524 = CC_DESIGN_APPROVAL ( #663, ( #52 ) ) ;
#525 = DIRECTION ( 'NONE',  ( 0.000000000000000000, 0.000000000000000000, 1.000000000000000000 ) ) ;
#526 = AXIS2_PLACEMENT_3D ( 'NONE', #706, #181, #743 ) ;
#527 = VERTEX_POINT ( 'NONE', #419 ) ;
#528 = CARTESIAN_POINT ( 'NONE',  ( 0.000000000000000000, 10.00000000000000000, 309.0000000000000000 ) ) ;
#529 = CARTESIAN_POINT ( 'NONE',  ( -1.000019739161279730, -3.354096081168897125, 308.8683063645290758 ) ) ;
#530 = CALENDAR_DATE ( 2023, 3, 12 ) ;
#531 = AXIS2_PLACEMENT_3D ( 'NONE', #645, #563, #229 ) ;
#532 = ORIENTED_EDGE ( 'NONE', *, *, #343, .F. ) ;
#533 = ORIENTED_EDGE ( 'NONE', *, *, #428, .T. ) ;
#534 = CARTESIAN_POINT ( 'NONE',  ( 0.5041672621904192964, 3.465619142146693310, 5.873410635084075793 ) ) ;
#535 = CARTESIAN_POINT ( 'NONE',  ( 0.6144681256160838823, -3.446931226558456629, 309.7996899496808965 ) ) ;
#536 = EDGE_CURVE ( 'NONE', #527, #548, #510, .T. ) ;
#537 = CARTESIAN_POINT ( 'NONE',  ( -0.1311535745634525574, -3.000000000000000888, 6.000000000000003553 ) ) ;
#538 = CARTESIAN_POINT ( 'NONE',  ( 0.1328909350815281332, -3.500000000000000000, 4.000000000000004441 ) ) ;
#539 = DIRECTION ( 'NONE',  ( -0.000000000000000000, -0.000000000000000000, -1.000000000000000000 ) ) ;
#540 = B_SPLINE_CURVE_WITH_KNOTS ( 'NONE', 3,
 ( #303, #485, #546, #534, #580, #712, #698, #55, #701, #286, #228, #463, #498, #201, #673, #90, #317, #240 ),
 .UNSPECIFIED., .F., .F.,
 ( 4, 2, 2, 2, 2, 2, 2, 2, 4 ),
 ( 0.003142913064405509788, 0.003535670621078465439, 0.003928428177751420655, 0.004321185734424376305, 0.004713943291097331956, 0.005106700847770286739, 0.005499458404443243256, 0.005892215961116198039, 0.006284973517789153689 ),
 .UNSPECIFIED. ) ;
#541 = CARTESIAN_POINT ( 'NONE',  ( -0.9731960446474734461, 2.838248092230705399, 4.735765314593303188 ) ) ;
#542 = DIRECTION ( 'NONE',  ( 0.000000000000000000, -1.000000000000000000, 0.000000000000000000 ) ) ;
#543 = EDGE_LOOP ( 'NONE', ( #415, #49 ) ) ;
#544 = CARTESIAN_POINT ( 'NONE',  ( 1.225079153546253927E-16, 3.000000000000000444, 310.0000000000000000 ) ) ;
#545 = CARTESIAN_POINT ( 'NONE',  ( -0.9740305859285138812, -3.362146498450968135, 309.2621150761560216 ) ) ;
#546 = CARTESIAN_POINT ( 'NONE',  ( 0.2631358747190580272, 3.492199905233663415, 5.973545210649403359 ) ) ;
#547 = EDGE_CURVE ( 'NONE', #200, #473, #33, .T. ) ;
#548 = VERTEX_POINT ( 'NONE', #744 ) ;
#549 = DIRECTION ( 'NONE',  ( 0.000000000000000000, -1.000000000000000000, 0.000000000000000000 ) ) ;
#550 = CARTESIAN_POINT ( 'NONE',  ( 1.000015691822936592, 2.828421576849031727, 5.131670952813834674 ) ) ;
#551 = CARTESIAN_POINT ( 'NONE',  ( -0.9738938205569861450, 2.838020848055395451, 5.262487300482419528 ) ) ;
#552 = ORIENTED_EDGE ( 'NONE', *, *, #17, .F. ) ;
#553 = CC_DESIGN_PERSON_AND_ORGANIZATION_ASSIGNMENT ( #403, #48, ( #282 ) ) ;
#554 = CARTESIAN_POINT ( 'NONE',  ( -0.6159197602761828927, 2.937602516701899980, 308.2016246194519340 ) ) ;
#555 = CARTESIAN_POINT ( 'NONE',  ( 0.5048818755377136869, 2.959712371732153180, 309.8730270215786504 ) ) ;
#556 = CARTESIAN_POINT ( 'NONE',  ( -0.2640922853737923681, -3.492127742916199651, 4.026706661041318469 ) ) ;
#557 = CYLINDRICAL_SURFACE ( 'NONE', #101, 1.000000000000000000 ) ;
#558 = CARTESIAN_POINT ( 'NONE',  ( 0.8725956800019708526, 3.389888115943098246, 309.5059809035077478 ) ) ;
#559 = CARTESIAN_POINT ( 'NONE',  ( 0.1331724280847642328, -3.000000000000000444, 308.0000000000000568 ) ) ;
#560 = CARTESIAN_POINT ( 'NONE',  ( -3.500000000000000000, 0.000000000000000000, 314.0000000000000000 ) ) ;
#561 = FACE_OUTER_BOUND ( 'NONE', #281, .T. ) ;
#562 = CARTESIAN_POINT ( 'NONE',  ( 0.9733197772037750495, 2.838207733611167072, 308.7360780161593539 ) ) ;
#563 = DIRECTION ( 'NONE',  ( 0.000000000000000000, 0.000000000000000000, 1.000000000000000000 ) ) ;
#564 = CARTESIAN_POINT ( 'NONE',  ( 0.1311869756547104915, -3.000000000000000444, 310.0000000000000000 ) ) ;
#565 = CARTESIAN_POINT ( 'NONE',  ( 0.000000000000000000, 10.00000000000000000, 309.0000000000000000 ) ) ;
#566 = APPROVAL ( #519, 'UNSPECIFIED' ) ;
#567 = CARTESIAN_POINT ( 'NONE',  ( -0.9738938205569914741, 2.838020848055394119, 309.2624873004824053 ) ) ;
#568 = CARTESIAN_POINT ( 'NONE',  ( -0.6157855475276753365, -3.446674497211066335, 4.201487629212044439 ) ) ;
#569 = CARTESIAN_POINT ( 'NONE',  ( -0.6146929329460451008, -3.446886579142802276, 5.799481189118592006 ) ) ;
#570 = DIRECTION ( 'NONE',  ( 0.000000000000000000, 0.000000000000000000, 1.000000000000000000 ) ) ;
#571 = CARTESIAN_POINT ( 'NONE',  ( 1.224693617879003022E-16, 3.500000000000000000, 310.0000000000000000 ) ) ;
#572 = DIRECTION ( 'NONE',  ( 1.000000000000000000, 0.000000000000000000, 0.000000000000000000 ) ) ;
#573 = APPROVAL_ROLE ( '' ) ;
#574 = FACE_OUTER_BOUND ( 'NONE', #613, .T. ) ;
#575 = EDGE_CURVE ( 'NONE', #477, #667, #720, .T. ) ;
#576 = FACE_BOUND ( 'NONE', #375, .T. ) ;
#577 = EDGE_LOOP ( 'NONE', ( #586, #217, #80, #486 ) ) ;
#578 = VERTEX_POINT ( 'NONE', #53 ) ;
#579 = VERTEX_POINT ( 'NONE', #646 ) ;
#580 = CARTESIAN_POINT ( 'NONE',  ( 0.6146929329460443236, 3.446886579142801832, 5.799481189118592006 ) ) ;
#581 = VECTOR ( 'NONE', #688, 1000.000000000000000 ) ;
#582 = ORIENTED_EDGE ( 'NONE', *, *, #753, .T. ) ;
#583 = FACE_OUTER_BOUND ( 'NONE', #360, .T. ) ;
#584 = CARTESIAN_POINT ( 'NONE',  ( 1.000058425548314256, -3.354084547118551640, 309.1307768865372054 ) ) ;
#585 = DIRECTION ( 'NONE',  ( 0.000000000000000000, -1.000000000000000000, 0.000000000000000000 ) ) ;
#586 = ORIENTED_EDGE ( 'NONE', *, *, #232, .F. ) ;
#587 = ADVANCED_FACE ( 'NONE', ( #636 ), #756, .F. ) ;
#588 = CARTESIAN_POINT ( 'NONE',  ( 0.5051656851811500148, -3.465489561667690843, 308.1270891764037856 ) ) ;
#589 = CARTESIAN_POINT ( 'NONE',  ( -0.9739600134667213416, 3.362163090603724758, 5.262134297154295481 ) ) ;
#590 = ADVANCED_BREP_SHAPE_REPRESENTATION ( 'PiÞce4_Tube_DÚfaut_sldprt', ( #134, #721 ), #625 ) ;
#591 = CARTESIAN_POINT ( 'NONE',  ( -0.5048818755377053602, -2.959712371732153624, 5.873027021578628215 ) ) ;
#592 = FACE_BOUND ( 'NONE', #759, .T. ) ;
#593 = CARTESIAN_POINT ( 'NONE',  ( 0.8726352009032796175, -2.870773295448570739, 5.505842428803797262 ) ) ;
#594 = CARTESIAN_POINT ( 'NONE',  ( 0.1309641947749978497, -3.499999999999999556, 310.0000000000000000 ) ) ;
#595 = CARTESIAN_POINT ( 'NONE',  ( -0.5056087024404408714, 2.959598800735080637, 4.127348779231834186 ) ) ;
#596 = CARTESIAN_POINT ( 'NONE',  ( 0.9738938205569854789, -2.838020848055396339, 5.262487300482421304 ) ) ;
#597 = DIRECTION ( 'NONE',  ( 0.000000000000000000, 0.000000000000000000, 1.000000000000000000 ) ) ;
#598 = EDGE_CURVE ( 'NONE', #133, #311, #356, .T. ) ;
#599 = EDGE_LOOP ( 'NONE', ( #284, #605, #121, #395 ) ) ;
#600 = CARTESIAN_POINT ( 'NONE',  ( 9.325837744892456670E-15, -3.500000000000000000, 308.0000000000000000 ) ) ;
#601 = CARTESIAN_POINT ( 'NONE',  ( -3.112161890794664282E-16, 10.00000000000000000, 6.000000000000004441 ) ) ;
#602 = CLOSED_SHELL ( 'NONE', ( #290, #704, #476, #633, #459, #416, #112, #489, #44, #266, #107, #51, #314, #587 ) ) ;
#603 = CARTESIAN_POINT ( 'NONE',  ( -0.2635765232843311212, 2.990864999518386025, 5.973417013471304493 ) ) ;
#604 = AXIS2_PLACEMENT_3D ( 'NONE', #506, #481, #219 ) ;
#605 = ORIENTED_EDGE ( 'NONE', *, *, #258, .T. ) ;
#606 = CARTESIAN_POINT ( 'NONE',  ( -0.1331724280847642605, 3.000000000000000888, 308.0000000000000000 ) ) ;
#607 = CARTESIAN_POINT ( 'NONE',  ( -4.363626074222733167E-16, 3.000000000000000444, 4.000000000000004441 ) ) ;
#608 = VECTOR ( 'NONE', #310, 1000.000000000000000 ) ;
#609 = CARTESIAN_POINT ( 'NONE',  ( 0.2629899886636608008, -3.492213940374856662, 5.973596858006495758 ) ) ;
#610 = CARTESIAN_POINT ( 'NONE',  ( 0.1309286667429959139, 3.500000000000000000, 310.0000000000000000 ) ) ;
#611 = CARTESIAN_POINT ( 'NONE',  ( -0.5041961542674696650, 3.465618008019302643, 309.8734075876012071 ) ) ;
#612 = CARTESIAN_POINT ( 'NONE',  ( -4.241963967036231516E-16, -3.000000000000000444, 4.000000000000004441 ) ) ;
#613 = EDGE_LOOP ( 'NONE', ( #672, #492, #191, #307 ) ) ;
#614 = DATE_AND_TIME ( #102, #98 ) ;
#615 = CARTESIAN_POINT ( 'NONE',  ( 0.9999842939873357928, 2.828432677660176697, 4.868090805909306873 ) ) ;
#616 = CARTESIAN_POINT ( 'NONE',  ( 1.000065112068121875, -2.828404104156925669, 309.1310280516522653 ) ) ;
#617 = CARTESIAN_POINT ( 'NONE',  ( -3.111729519356368257E-16, 3.000000000000000444, 6.000000000000004441 ) ) ;
#618 = DIRECTION ( 'NONE',  ( 0.000000000000000000, -1.000000000000000000, 0.000000000000000000 ) ) ;
#619 = CARTESIAN_POINT ( 'NONE',  ( 0.1311535745634541950, 3.000000000000001332, 310.0000000000000000 ) ) ;
#620 = CARTESIAN_POINT ( 'NONE',  ( -5.085583658606969685E-15, -3.000000000000000444, 308.0000000000000000 ) ) ;
#621 = FACE_BOUND ( 'NONE', #543, .T. ) ;
#622 = CC_DESIGN_SECURITY_CLASSIFICATION ( #282, ( #52 ) ) ;
#623 = APPROVAL_ROLE ( '' ) ;
#624 = CARTESIAN_POINT ( 'NONE',  ( 0.5051183550947806467, 3.465480681721553324, 308.1271311059491609 ) ) ;
#625 =( GEOMETRIC_REPRESENTATION_CONTEXT ( 3 ) GLOBAL_UNCERTAINTY_ASSIGNED_CONTEXT ( ( #467 ) ) GLOBAL_UNIT_ASSIGNED_CONTEXT ( ( #378, #740, #209 ) ) REPRESENTATION_CONTEXT ( 'NONE', 'WORKASPACE' ) );
#626 = CARTESIAN_POINT ( 'NONE',  ( -0.9739600134667183440, 3.362163090603724758, 309.2621342971543186 ) ) ;
#627 = CARTESIAN_POINT ( 'NONE',  ( -0.9735322132565766839, -3.362280268298186936, 4.736827312887891495 ) ) ;
#628 = EDGE_CURVE ( 'NONE', #667, #648, #316, .T. ) ;
#629 = CARTESIAN_POINT ( 'NONE',  ( -0.9999842939873396785, -2.828432677660174921, 308.8680908059093326 ) ) ;
#630 = CARTESIAN_POINT ( 'NONE',  ( 0.000000000000000000, 0.000000000000000000, 0.000000000000000000 ) ) ;
#631 = CARTESIAN_POINT ( 'NONE',  ( 1.224646799147353454E-16, 10.00000000000000000, 310.0000000000000000 ) ) ;
#632 = AXIS2_PLACEMENT_3D ( 'NONE', #630, #158, #679 ) ;
#633 = ADVANCED_FACE ( 'NONE', ( #574 ), #478, .F. ) ;
#634 = CARTESIAN_POINT ( 'NONE',  ( -0.7995630649473688401, -2.893047721466609712, 309.6146171295370095 ) ) ;
#635 = CARTESIAN_POINT ( 'NONE',  ( 1.224693617879003022E-16, 3.500000000000000000, 310.0000000000000000 ) ) ;
#636 = FACE_OUTER_BOUND ( 'NONE', #114, .T. ) ;
#637 = CARTESIAN_POINT ( 'NONE',  ( 0.000000000000000000, 0.000000000000000000, 314.0000000000000000 ) ) ;
#638 = DIRECTION ( 'NONE',  ( 0.000000000000000000, -1.000000000000000000, 0.000000000000000000 ) ) ;
#639 = CARTESIAN_POINT ( 'NONE',  ( -0.9738553564176363198, -2.838032335265713080, 309.2625362345405051 ) ) ;
#640 = DIRECTION ( 'NONE',  ( 0.000000000000000000, -1.000000000000000000, 0.000000000000000000 ) ) ;
#641 = ORIENTED_EDGE ( 'NONE', *, *, #122, .T. ) ;
#642 = VERTEX_POINT ( 'NONE', #361 ) ;
#643 = ORIENTED_EDGE ( 'NONE', *, *, #343, .T. ) ;
#644 = CARTESIAN_POINT ( 'NONE',  ( 0.000000000000000000, 0.000000000000000000, 314.0000000000000000 ) ) ;
#645 = CARTESIAN_POINT ( 'NONE',  ( 0.000000000000000000, 0.000000000000000000, 0.000000000000000000 ) ) ;
#646 = CARTESIAN_POINT ( 'NONE',  ( -3.500000000000000000, 0.000000000000000000, 314.0000000000000000 ) ) ;
#647 = APPROVAL_ROLE ( '' ) ;
#648 = VERTEX_POINT ( 'NONE', #600 ) ;
#649 = CARTESIAN_POINT ( 'NONE',  ( -0.6146929329460402158, -3.446886579142803164, 309.7994811891186373 ) ) ;
#650 = CARTESIAN_POINT ( 'NONE',  ( -0.1309286667429949980, -3.500000000000000000, 6.000000000000004441 ) ) ;
#651 = ORIENTED_EDGE ( 'NONE', *, *, #275, .F. ) ;
#652 = CARTESIAN_POINT ( 'NONE',  ( 0.1311869756547089372, -3.000000000000000888, 6.000000000000007105 ) ) ;
#653 = CARTESIAN_POINT ( 'NONE',  ( 0.9733372090092485829, -3.362335283428859789, 308.7362649779117874 ) ) ;
#654 = CARTESIAN_POINT ( 'NONE',  ( -0.1331724280847648711, 3.000000000000000444, 4.000000000000003553 ) ) ;
#655 = EDGE_LOOP ( 'NONE', ( #705, #113, #168, #342 ) ) ;
#656 = CARTESIAN_POINT ( 'NONE',  ( 0.5056087024404400943, -2.959598800735079749, 4.127348779231832410 ) ) ;
#657 = CARTESIAN_POINT ( 'NONE',  ( -3.000000000000000444, 0.000000000000000000, 314.0000000000000000 ) ) ;
#658 = EDGE_CURVE ( 'NONE', #578, #226, #400, .T. ) ;
#659 = CARTESIAN_POINT ( 'NONE',  ( -0.5051656851811453519, 3.465489561667691731, 4.127089176403886839 ) ) ;
#660 = CARTESIAN_POINT ( 'NONE',  ( -0.5056087024404429808, 2.959598800735079749, 308.1273487792317951 ) ) ;
#661 = CARTESIAN_POINT ( 'NONE',  ( 0.6156588278258861013, -3.446698552862746290, 308.2013803185535608 ) ) ;
#662 = CARTESIAN_POINT ( 'NONE',  ( -0.6144681256160785532, 3.446931226558457517, 5.799689949680939094 ) ) ;
#663 = APPROVAL ( #151, 'UNSPECIFIED' ) ;
#664 = VERTEX_POINT ( 'NONE', #81 ) ;
#665 = CARTESIAN_POINT ( 'NONE',  ( 0.6159197602761816714, -2.937602516701900868, 4.201624619451923337 ) ) ;
#666 = CARTESIAN_POINT ( 'NONE',  ( -0.8727711819437021790, -2.870730265142594995, 5.505559090155331070 ) ) ;
#667 = VERTEX_POINT ( 'NONE', #187 ) ;
#668 = CARTESIAN_POINT ( 'NONE',  ( 0.9999413755384447544, -3.354119444685284446, 4.868331119664448536 ) ) ;
#669 = CARTESIAN_POINT ( 'NONE',  ( 5.085583658606969685E-15, 3.000000000000000444, 308.0000000000000000 ) ) ;
#670 = CARTESIAN_POINT ( 'NONE',  ( -0.8733955994180540028, 3.389670191559900569, 308.4958952378374306 ) ) ;
#671 = EDGE_CURVE ( 'NONE', #642, #461, #482, .T. ) ;
#672 = ORIENTED_EDGE ( 'NONE', *, *, #575, .F. ) ;
#673 = CARTESIAN_POINT ( 'NONE',  ( 0.5051183550947861978, 3.465480681721552436, 4.127131105949107592 ) ) ;
#674 = COORDINATED_UNIVERSAL_TIME_OFFSET ( 1, 0, .AHEAD. ) ;
#675 = CARTESIAN_POINT ( 'NONE',  ( 0.1331385214838906039, 3.000000000000001332, 308.0000000000000000 ) ) ;
#676 = CARTESIAN_POINT ( 'NONE',  ( 0.9738938205569912521, -2.838020848055393675, 309.2624873004823485 ) ) ;
#677 = CARTESIAN_POINT ( 'NONE',  ( -5.085583658606969685E-15, -3.000000000000000444, 308.0000000000000000 ) ) ;
#678 = DIRECTION ( 'NONE',  ( -0.000000000000000000, -0.000000000000000000, -1.000000000000000000 ) ) ;
#679 = DIRECTION ( 'NONE',  ( 1.000000000000000000, 0.000000000000000000, 0.000000000000000000 ) ) ;
#680 = CALENDAR_DATE ( 2023, 3, 12 ) ;
#681 = CARTESIAN_POINT ( 'NONE',  ( 0.2635503551046971538, 2.990876834969141917, 309.9734593463402348 ) ) ;
#682 = CARTESIAN_POINT ( 'NONE',  ( -0.1328909350815285495, 3.499999999999999556, 308.0000000000000000 ) ) ;
#683 = FACE_OUTER_BOUND ( 'NONE', #364, .T. ) ;
#684 = DIRECTION ( 'NONE',  ( 0.000000000000000000, -1.000000000000000000, 0.000000000000000000 ) ) ;
#685 = CARTESIAN_POINT ( 'NONE',  ( 0.000000000000000000, 0.000000000000000000, 314.0000000000000000 ) ) ;
#686 = CARTESIAN_POINT ( 'NONE',  ( -0.9740305859285213197, -3.362146498450966359, 5.262115076156056226 ) ) ;
#687 = APPROVAL_DATE_TIME ( #381, #663 ) ;
#688 = DIRECTION ( 'NONE',  ( -0.000000000000000000, -0.000000000000000000, -1.000000000000000000 ) ) ;
#689 = PERSON_AND_ORGANIZATION_ROLE ( 'creator' ) ;
#690 = CARTESIAN_POINT ( 'NONE',  ( -0.5048818755377134648, -2.959712371732152292, 309.8730270215785936 ) ) ;
#691 = ORIENTED_EDGE ( 'NONE', *, *, #161, .T. ) ;
#692 = VECTOR ( 'NONE', #678, 1000.000000000000000 ) ;
#693 = CARTESIAN_POINT ( 'NONE',  ( -0.7988706027417693534, -2.893215784806474122, 308.3846894998792436 ) ) ;
#694 = CYLINDRICAL_SURFACE ( 'NONE', #247, 1.000000000000000888 ) ;
#695 = VERTEX_POINT ( 'NONE', #544 ) ;
#696 = VECTOR ( 'NONE', #117, 1000.000000000000000 ) ;
#697 = CARTESIAN_POINT ( 'NONE',  ( -4.561813799416700443E-16, -3.500000000000000000, 4.000000000000004441 ) ) ;
#698 = CARTESIAN_POINT ( 'NONE',  ( 0.8725956800019866177, 3.389888115943094249, 5.505980903507658120 ) ) ;
#699 = VERTEX_POINT ( 'NONE', #716 ) ;
#700 = ORIENTED_EDGE ( 'NONE', *, *, #232, .T. ) ;
#701 = CARTESIAN_POINT ( 'NONE',  ( 0.9999802383981535314, 3.354107858020956012, 5.131993239027329068 ) ) ;
#702 = CARTESIAN_POINT ( 'NONE',  ( 0.2632416658389462039, -3.492207625110311575, 308.0264141019910085 ) ) ;
#703 = CARTESIAN_POINT ( 'NONE',  ( -9.325837744892456670E-15, 3.500000000000000000, 308.0000000000000000 ) ) ;
#704 = ADVANCED_FACE ( 'NONE', ( #86 ), #557, .F. ) ;
#705 = ORIENTED_EDGE ( 'NONE', *, *, #523, .T. ) ;
#706 = CARTESIAN_POINT ( 'NONE',  ( 0.000000000000000000, 0.000000000000000000, 314.0000000000000000 ) ) ;
#707 = ORIENTED_EDGE ( 'NONE', *, *, #399, .F. ) ;
#708 = CARTESIAN_POINT ( 'NONE',  ( -0.1328548843624562381, -3.500000000000000000, 308.0000000000000000 ) ) ;
#709 = DIRECTION ( 'NONE',  ( 1.000000000000000000, 0.000000000000000000, -0.000000000000000000 ) ) ;
#710 = VERTEX_POINT ( 'NONE', #296 ) ;
#711 = ORIENTED_EDGE ( 'NONE', *, *, #761, .T. ) ;
#712 = CARTESIAN_POINT ( 'NONE',  ( 0.7992185073637478876, 3.408830337340924110, 5.615034430788673703 ) ) ;
#713 = CARTESIAN_POINT ( 'NONE',  ( 0.7990559721432103357, -3.408852631013603141, 308.3849075343853769 ) ) ;
#714 = CARTESIAN_POINT ( 'NONE',  ( -0.2629899886636616335, 3.492213940374855774, 5.973596858006498422 ) ) ;
#715 = ORIENTED_EDGE ( 'NONE', *, *, #1, .T. ) ;
#716 = CARTESIAN_POINT ( 'NONE',  ( -3.500000000000000000, 0.000000000000000000, 0.000000000000000000 ) ) ;
#717 = CARTESIAN_POINT ( 'NONE',  ( 0.000000000000000000, 10.00000000000000000, 309.0000000000000000 ) ) ;
#718 = CARTESIAN_POINT ( 'NONE',  ( -0.7990795749240104939, -3.408845664328084446, 308.3849506688203519 ) ) ;
#719 = CARTESIAN_POINT ( 'NONE',  ( -0.8730028039647155236, 3.389779470691246299, 5.505152058143308658 ) ) ;
#720 = B_SPLINE_CURVE_WITH_KNOTS ( 'NONE', 3,
 ( #505, #84, #496, #690, #276, #634, #521, #639, #384, #629, #60, #346, #693, #367, #515, #149, #445, #677 ),
 .UNSPECIFIED., .F., .F.,
 ( 4, 2, 2, 2, 2, 2, 2, 2, 4 ),
 ( 0.003149157204913755753, 0.003542701630937596970, 0.003936246056961438186, 0.004329790482985280270, 0.004723334909009120619, 0.005116879335032962703, 0.005510423761056803919, 0.005903968187080645136, 0.006297512613104486352 ),
 .UNSPECIFIED. ) ;
#721 = AXIS2_PLACEMENT_3D ( 'NONE', #331, #570, #507 ) ;
#722 = CARTESIAN_POINT ( 'NONE',  ( 0.7990559721432036744, -3.408852631013604029, 4.384907534385311223 ) ) ;
#723 = CARTESIAN_POINT ( 'NONE',  ( 3.500000000000000000, 4.286263797015736595E-16, 314.0000000000000000 ) ) ;
#724 = CARTESIAN_POINT ( 'NONE',  ( -0.6147613726084341090, 2.937864098093798670, 5.799382906928804537 ) ) ;
#725 = ORIENTED_EDGE ( 'NONE', *, *, #518, .T. ) ;
#726 = CARTESIAN_POINT ( 'NONE',  ( -0.8731730686977490219, 2.870597771626961947, 308.4955207611899368 ) ) ;
#727 = CARTESIAN_POINT ( 'NONE',  ( 0.9999842939873399006, 2.828432677660174033, 308.8680908059093326 ) ) ;
#728 = CARTESIAN_POINT ( 'NONE',  ( -0.6156588278258862124, 3.446698552862746290, 308.2013803185535608 ) ) ;
#729 = CARTESIAN_POINT ( 'NONE',  ( -0.9738553564176392063, -2.838032335265711747, 5.262536234540614366 ) ) ;
#730 = EDGE_CURVE ( 'NONE', #20, #244, #42, .T. ) ;
#731 = APPLICATION_CONTEXT ( 'configuration controlled 3d designs of mechanical parts and assemblies' ) ;
#732 = VECTOR ( 'NONE', #684, 1000.000000000000000 ) ;
#733 = ORIENTED_EDGE ( 'NONE', *, *, #1, .F. ) ;
#734 = CARTESIAN_POINT ( 'NONE',  ( -0.2635765232843300110, 2.990864999518386025, 309.9734170134713054 ) ) ;
#735 = CARTESIAN_POINT ( 'NONE',  ( 0.8734111625493938824, 3.389667611133825087, 308.4958395348460840 ) ) ;
#736 = CARTESIAN_POINT ( 'NONE',  ( -4.561813799416700443E-16, -3.500000000000000000, 4.000000000000004441 ) ) ;
#737 = CARTESIAN_POINT ( 'NONE',  ( -0.9733197772037777140, -2.838207733611165295, 4.736078016159447124 ) ) ;
#738 = CARTESIAN_POINT ( 'NONE',  ( -4.336808689942017736E-16, 10.00000000000000000, 4.000000000000004441 ) ) ;
#739 = ORIENTED_EDGE ( 'NONE', *, *, #628, .T. ) ;
#740 =( NAMED_UNIT ( * ) PLANE_ANGLE_UNIT ( ) SI_UNIT ( $, .RADIAN. ) );
#741 = CARTESIAN_POINT ( 'NONE',  ( 0.1331385214838904651, 3.000000000000000444, 4.000000000000004441 ) ) ;
#742 = DIRECTION ( 'NONE',  ( -0.000000000000000000, -0.000000000000000000, -1.000000000000000000 ) ) ;
#743 = DIRECTION ( 'NONE',  ( -1.000000000000000000, 0.000000000000000000, 0.000000000000000000 ) ) ;
#744 = CARTESIAN_POINT ( 'NONE',  ( -3.112115071116381628E-16, 3.500000000000000000, 6.000000000000004441 ) ) ;
#745 = CARTESIAN_POINT ( 'NONE',  ( 0.000000000000000000, 10.00000000000000000, 308.0000000000000000 ) ) ;
#746 = COORDINATED_UNIVERSAL_TIME_OFFSET ( 1, 0, .AHEAD. ) ;
#747 = CARTESIAN_POINT ( 'NONE',  ( 0.2631358747190492564, 3.492199905233664303, 309.9735452106493767 ) ) ;
#748 = CARTESIAN_POINT ( 'NONE',  ( -0.8730028039647191873, 3.389779470691245411, 309.5051520581432669 ) ) ;
#749 = CARTESIAN_POINT ( 'NONE',  ( -0.7992185073637483317, -3.408830337340924110, 5.615034430788673703 ) ) ;
#750 = DIRECTION ( 'NONE',  ( 0.000000000000000000, 0.000000000000000000, 1.000000000000000000 ) ) ;
#751 = CARTESIAN_POINT ( 'NONE',  ( 0.6157855475276647894, 3.446674497211068999, 308.2014876292120107 ) ) ;
#752 = DIRECTION ( 'NONE',  ( -0.000000000000000000, -0.000000000000000000, -1.000000000000000000 ) ) ;
#753 = EDGE_CURVE ( 'NONE', #461, #695, #59, .T. ) ;
#754 = ORIENTED_EDGE ( 'NONE', *, *, #428, .F. ) ;
#755 = CARTESIAN_POINT ( 'NONE',  ( -3.111729519356368257E-16, 3.000000000000000444, 6.000000000000004441 ) ) ;
#756 = CYLINDRICAL_SURFACE ( 'NONE', #54, 1.000000000000000000 ) ;
#757 = CYLINDRICAL_SURFACE ( 'NONE', #465, 1.000000000000000888 ) ;
#758 = VECTOR ( 'NONE', #542, 1000.000000000000000 ) ;
#759 = EDGE_LOOP ( 'NONE', ( #582, #768 ) ) ;
#760 = EDGE_LOOP ( 'NONE', ( #62, #188 ) ) ;
#761 = EDGE_CURVE ( 'NONE', #11, #695, #385, .T. ) ;
#762 = CARTESIAN_POINT ( 'NONE',  ( -0.9735322132565830122, -3.362280268298184716, 308.7368273128880105 ) ) ;
#763 = EDGE_LOOP ( 'NONE', ( #497, #700, #345, #707 ) ) ;
#764 = CARTESIAN_POINT ( 'NONE',  ( -0.7992185073637469994, -3.408830337340925443, 309.6150344307886257 ) ) ;
#765 = CIRCLE ( 'NONE', #78, 3.500000000000000000 ) ;
#766 = PLANE ( 'NONE',  #253 ) ;
#767 = DIRECTION ( 'NONE',  ( 0.000000000000000000, -1.000000000000000000, 0.000000000000000000 ) ) ;
#768 = ORIENTED_EDGE ( 'NONE', *, *, #239, .T. ) ;
#769 = CARTESIAN_POINT ( 'NONE',  ( -0.9999802383981477583, -3.354107858020957789, 309.1319932390273948 ) ) ;
ENDSEC;
END-ISO-10303-21;
