ISO-10303-21;
HEADER;
FILE_DESCRIPTION (( 'STEP AP203' ),
    '1' );
FILE_NAME ('Pièce1_arbre_Défaut_sldprt.STEP',
    '2023-12-03T16:39:03',
    ( 'LIA INFO' ),
    ( '' ),
    'SwSTEP 2.0',
    'SolidWorks 2022',
    '' );
FILE_SCHEMA (( 'CONFIG_CONTROL_DESIGN' ));
ENDSEC;

DATA;
#1 = VERTEX_POINT ( 'NONE', #71 ) ;
#2 = CARTESIAN_POINT ( 'NONE',  ( 3.850000000000000089, 0.000000000000000000, 42.50000000000000000 ) ) ;
#3 = ADVANCED_FACE ( 'NONE', ( #769, #431 ), #235, .F. ) ;
#4 = DIRECTION ( 'NONE',  ( 1.000000000000000000, 0.000000000000000000, 0.000000000000000000 ) ) ;
#5 = DIRECTION ( 'NONE',  ( -1.000000000000000000, 0.000000000000000000, 0.000000000000000000 ) ) ;
#6 = CC_DESIGN_APPROVAL ( #718, ( #547 ) ) ;
#7 = VECTOR ( 'NONE', #899, 1000.000000000000000 ) ;
#8 = EDGE_LOOP ( 'NONE', ( #92, #32, #1068, #456 ) ) ;
#9 = AXIS2_PLACEMENT_3D ( 'NONE', #837, #405, #1016 ) ;
#10 = ADVANCED_FACE ( 'NONE', ( #932 ), #247, .F. ) ;
#11 = VECTOR ( 'NONE', #67, 1000.000000000000000 ) ;
#12 = DIRECTION ( 'NONE',  ( -0.000000000000000000, -0.000000000000000000, 1.000000000000000000 ) ) ;
#13 = DIRECTION ( 'NONE',  ( 0.000000000000000000, 0.000000000000000000, -1.000000000000000000 ) ) ;
#14 = VERTEX_POINT ( 'NONE', #798 ) ;
#15 = EDGE_LOOP ( 'NONE', ( #778, #136, #817, #1004 ) ) ;
#16 = ADVANCED_FACE ( 'NONE', ( #533 ), #368, .T. ) ;
#17 = VECTOR ( 'NONE', #593, 1000.000000000000000 ) ;
#18 = DIRECTION ( 'NONE',  ( -0.000000000000000000, -0.000000000000000000, 1.000000000000000000 ) ) ;
#19 = DIRECTION ( 'NONE',  ( 0.000000000000000000, 0.000000000000000000, -1.000000000000000000 ) ) ;
#20 = ORIENTED_EDGE ( 'NONE', *, *, #688, .F. ) ;
#21 = AXIS2_PLACEMENT_3D ( 'NONE', #651, #997, #902 ) ;
#22 = DIRECTION ( 'NONE',  ( 0.000000000000000000, 0.000000000000000000, 1.000000000000000000 ) ) ;
#23 = DIRECTION ( 'NONE',  ( -0.000000000000000000, -0.000000000000000000, 1.000000000000000000 ) ) ;
#24 = DIRECTION ( 'NONE',  ( -0.000000000000000000, -0.000000000000000000, 1.000000000000000000 ) ) ;
#25 = ORIENTED_EDGE ( 'NONE', *, *, #1073, .T. ) ;
#26 = AXIS2_PLACEMENT_3D ( 'NONE', #786, #622, #290 ) ;
#27 = CALENDAR_DATE ( 2023, 3, 12 ) ;
#28 = CARTESIAN_POINT ( 'NONE',  ( 5.000000000000000000, 0.000000000000000000, 42.50000000000000000 ) ) ;
#29 = DIRECTION ( 'NONE',  ( -0.000000000000000000, -0.000000000000000000, 1.000000000000000000 ) ) ;
#30 = EDGE_CURVE ( 'NONE', #109, #775, #1060, .T. ) ;
#31 = ORIENTED_EDGE ( 'NONE', *, *, #709, .T. ) ;
#32 = ORIENTED_EDGE ( 'NONE', *, *, #681, .T. ) ;
#33 = DIRECTION ( 'NONE',  ( -0.000000000000000000, -0.000000000000000000, 1.000000000000000000 ) ) ;
#34 = CARTESIAN_POINT ( 'NONE',  ( 4.930366417598831319, 0.8315569663069778406, 78.00000000000000000 ) ) ;
#35 = CARTESIAN_POINT ( 'NONE',  ( -4.930366417598831319, -0.8315569663069778406, 42.50000000000000000 ) ) ;
#36 = EDGE_LOOP ( 'NONE', ( #588, #151 ) ) ;
#37 = EDGE_CURVE ( 'NONE', #901, #1, #1063, .T. ) ;
#38 =( LENGTH_UNIT ( ) NAMED_UNIT ( * ) SI_UNIT ( .MILLI., .METRE. ) );
#39 = VECTOR ( 'NONE', #710, 1000.000000000000000 ) ;
#40 = CARTESIAN_POINT ( 'NONE',  ( 5.000000000000000000, 0.000000000000000000, 66.50000000000000000 ) ) ;
#41 = CARTESIAN_POINT ( 'NONE',  ( 7.500000000000000000, 0.000000000000000000, -41.99999999999998579 ) ) ;
#42 = ORIENTED_EDGE ( 'NONE', *, *, #655, .T. ) ;
#43 = APPROVAL_PERSON_ORGANIZATION ( #583, #1048, #331 ) ;
#44 = DIRECTION ( 'NONE',  ( -0.000000000000000000, -0.000000000000000000, 1.000000000000000000 ) ) ;
#45 = ADVANCED_FACE ( 'NONE', ( #91 ), #179, .T. ) ;
#46 = CIRCLE ( 'NONE', #341, 5.000000000000000000 ) ;
#47 = CARTESIAN_POINT ( 'NONE',  ( 0.000000000000000000, 0.000000000000000000, -78.50000000000000000 ) ) ;
#48 = DIRECTION ( 'NONE',  ( 1.000000000000000000, 0.000000000000000000, 0.000000000000000000 ) ) ;
#49 = VERTEX_POINT ( 'NONE', #198 ) ;
#50 = EDGE_LOOP ( 'NONE', ( #569, #231 ) ) ;
#51 = ADVANCED_FACE ( 'NONE', ( #537 ), #885, .T. ) ;
#52 = DIRECTION ( 'NONE',  ( -0.000000000000000000, -0.000000000000000000, 1.000000000000000000 ) ) ;
#53 = FACE_OUTER_BOUND ( 'NONE', #487, .T. ) ;
#54 = VERTEX_POINT ( 'NONE', #875 ) ;
#55 = AXIS2_PLACEMENT_3D ( 'NONE', #87, #518, #176 ) ;
#56 = PERSON_AND_ORGANIZATION_ROLE ( 'design_supplier' ) ;
#57 = ORIENTED_EDGE ( 'NONE', *, *, #1127, .F. ) ;
#58 = DIRECTION ( 'NONE',  ( 1.000000000000000000, 0.000000000000000000, 0.000000000000000000 ) ) ;
#59 = CARTESIAN_POINT ( 'NONE',  ( 0.000000000000000000, 0.000000000000000000, 63.00000000000002842 ) ) ;
#60 = ORIENTED_EDGE ( 'NONE', *, *, #744, .F. ) ;
#61 = CC_DESIGN_PERSON_AND_ORGANIZATION_ASSIGNMENT ( #940, #56, ( #547 ) ) ;
#62 = FACE_OUTER_BOUND ( 'NONE', #983, .T. ) ;
#63 = DIRECTION ( 'NONE',  ( 1.000000000000000000, 0.000000000000000000, 0.000000000000000000 ) ) ;
#64 = VERTEX_POINT ( 'NONE', #438 ) ;
#65 = AXIS2_PLACEMENT_3D ( 'NONE', #770, #958, #181 ) ;
#66 = EDGE_CURVE ( 'NONE', #520, #282, #1054, .T. ) ;
#67 = DIRECTION ( 'NONE',  ( -1.000000000000000000, 0.000000000000000000, 0.000000000000000000 ) ) ;
#68 = APPROVAL_DATE_TIME ( #848, #718 ) ;
#69 = DIRECTION ( 'NONE',  ( 0.000000000000000000, 0.000000000000000000, 1.000000000000000000 ) ) ;
#70 = CARTESIAN_POINT ( 'NONE',  ( -4.930366417598831319, -0.8315569663069778406, 42.50000000000000000 ) ) ;
#71 = CARTESIAN_POINT ( 'NONE',  ( 5.000000000000000000, 0.000000000000000000, 78.00000000000000000 ) ) ;
#72 = CIRCLE ( 'NONE', #398, 6.999999999999977796 ) ;
#73 = CARTESIAN_POINT ( 'NONE',  ( 0.000000000000000000, 0.000000000000000000, 63.50000000000000000 ) ) ;
#74 = DIRECTION ( 'NONE',  ( -0.000000000000000000, -0.000000000000000000, 1.000000000000000000 ) ) ;
#75 = DIRECTION ( 'NONE',  ( -0.000000000000000000, -0.000000000000000000, 1.000000000000000000 ) ) ;
#76 = ORIENTED_EDGE ( 'NONE', *, *, #157, .T. ) ;
#77 = CIRCLE ( 'NONE', #1023, 7.500000000000000000 ) ;
#78 = DIRECTION ( 'NONE',  ( 1.000000000000000000, 0.000000000000000000, 0.000000000000000000 ) ) ;
#79 = EDGE_CURVE ( 'NONE', #1038, #1056, #263, .T. ) ;
#80 = CARTESIAN_POINT ( 'NONE',  ( 5.000000000000000000, 0.000000000000000000, 42.50000000000000000 ) ) ;
#81 = LINE ( 'NONE', #692, #1008 ) ;
#82 = CIRCLE ( 'NONE', #478, 5.000000000000000000 ) ;
#83 = EDGE_LOOP ( 'NONE', ( #873, #224 ) ) ;
#84 = LOCAL_TIME ( 17, 39, 3.000000000000000000, #225 ) ;
#85 = FACE_OUTER_BOUND ( 'NONE', #83, .T. ) ;
#86 = ORIENTED_EDGE ( 'NONE', *, *, #37, .T. ) ;
#87 = CARTESIAN_POINT ( 'NONE',  ( 0.000000000000000000, 0.000000000000000000, 63.50000000000000000 ) ) ;
#88 = EDGE_CURVE ( 'NONE', #847, #267, #990, .T. ) ;
#89 = DIRECTION ( 'NONE',  ( -0.000000000000000000, -0.000000000000000000, 1.000000000000000000 ) ) ;
#90 = DIRECTION ( 'NONE',  ( -0.000000000000000000, -0.000000000000000000, 1.000000000000000000 ) ) ;
#91 = FACE_OUTER_BOUND ( 'NONE', #708, .T. ) ;
#92 = ORIENTED_EDGE ( 'NONE', *, *, #157, .F. ) ;
#93 = CARTESIAN_POINT ( 'NONE',  ( 6.999999999999977796, 8.878689293818297255E-16, 42.50000000000000000 ) ) ;
#94 = DIRECTION ( 'NONE',  ( -0.000000000000000000, -0.000000000000000000, 1.000000000000000000 ) ) ;
#95 = CIRCLE ( 'NONE', #337, 5.000000000000000000 ) ;
#96 = VERTEX_POINT ( 'NONE', #350 ) ;
#97 = ORIENTED_EDGE ( 'NONE', *, *, #215, .F. ) ;
#98 = EDGE_CURVE ( 'NONE', #1056, #109, #896, .T. ) ;
#99 = LINE ( 'NONE', #631, #411 ) ;
#100 = DIRECTION ( 'NONE',  ( 0.000000000000000000, 0.000000000000000000, -1.000000000000000000 ) ) ;
#101 = EDGE_LOOP ( 'NONE', ( #805, #814 ) ) ;
#102 =( NAMED_UNIT ( * ) PLANE_ANGLE_UNIT ( ) SI_UNIT ( $, .RADIAN. ) );
#103 = VECTOR ( 'NONE', #820, 999.9999999999998863 ) ;
#104 = LINE ( 'NONE', #28, #39 ) ;
#105 = DIRECTION ( 'NONE',  ( 0.7071067811865444641, 8.659560562354895880E-17, -0.7071067811865505703 ) ) ;
#106 = AXIS2_PLACEMENT_3D ( 'NONE', #597, #345, #691 ) ;
#107 = ORIENTED_EDGE ( 'NONE', *, *, #131, .F. ) ;
#108 = CIRCLE ( 'NONE', #714, 5.000000000000000000 ) ;
#109 = VERTEX_POINT ( 'NONE', #967 ) ;
#110 = DATE_AND_TIME ( #205, #408 ) ;
#111 = EDGE_CURVE ( 'NONE', #64, #260, #699, .T. ) ;
#112 = CARTESIAN_POINT ( 'NONE',  ( 0.000000000000000000, 0.000000000000000000, -42.50000000000000000 ) ) ;
#113 = DIRECTION ( 'NONE',  ( 1.000000000000000000, 0.000000000000000000, 0.000000000000000000 ) ) ;
#114 = EDGE_LOOP ( 'NONE', ( #544, #521, #390, #925 ) ) ;
#115 = AXIS2_PLACEMENT_3D ( 'NONE', #275, #195, #804 ) ;
#116 = COORDINATED_UNIVERSAL_TIME_OFFSET ( 1, 0, .AHEAD. ) ;
#117 = CIRCLE ( 'NONE', #287, 5.000000000000000000 ) ;
#118 = CIRCLE ( 'NONE', #159, 5.000000000000000000 ) ;
#119 = PERSON ( 'UNSPECIFIED', 'UNSPECIFIED', 'UNSPECIFIED', ('UNSPECIFIED'), ('UNSPECIFIED'), ('UNSPECIFIED') ) ;
#120 = DIRECTION ( 'NONE',  ( 1.000000000000000000, 0.000000000000000000, 0.000000000000000000 ) ) ;
#121 = CARTESIAN_POINT ( 'NONE',  ( -4.930366417598831319, 0.8315569663069778406, -78.49999999999998579 ) ) ;
#122 = EDGE_CURVE ( 'NONE', #282, #682, #757, .T. ) ;
#123 = ORIENTED_EDGE ( 'NONE', *, *, #232, .T. ) ;
#124 = DIRECTION ( 'NONE',  ( -0.000000000000000000, -0.000000000000000000, 1.000000000000000000 ) ) ;
#125 = ORIENTED_EDGE ( 'NONE', *, *, #215, .T. ) ;
#126 = ORIENTED_EDGE ( 'NONE', *, *, #1102, .F. ) ;
#127 = AXIS2_PLACEMENT_3D ( 'NONE', #862, #679, #338 ) ;
#128 = LINE ( 'NONE', #579, #748 ) ;
#129 = CARTESIAN_POINT ( 'NONE',  ( -6.999999999999977796, 8.878689293818297255E-16, -42.50000000000000000 ) ) ;
#130 = EDGE_LOOP ( 'NONE', ( #191, #347, #107, #887 ) ) ;
#131 = EDGE_CURVE ( 'NONE', #639, #756, #461, .T. ) ;
#132 = LINE ( 'NONE', #640, #602 ) ;
#133 = AXIS2_PLACEMENT_3D ( 'NONE', #874, #966, #706 ) ;
#134 = FACE_OUTER_BOUND ( 'NONE', #796, .T. ) ;
#135 = DIRECTION ( 'NONE',  ( 1.000000000000000000, 0.000000000000000000, 0.000000000000000000 ) ) ;
#136 = ORIENTED_EDGE ( 'NONE', *, *, #1122, .T. ) ;
#137 = ADVANCED_FACE ( 'NONE', ( #1042 ), #516, .T. ) ;
#138 = ORIENTED_EDGE ( 'NONE', *, *, #758, .F. ) ;
#139 = DIRECTION ( 'NONE',  ( 1.000000000000000000, 0.000000000000000000, 0.000000000000000000 ) ) ;
#140 = DIRECTION ( 'NONE',  ( -0.000000000000000000, -0.000000000000000000, 1.000000000000000000 ) ) ;
#141 = ORIENTED_EDGE ( 'NONE', *, *, #517, .T. ) ;
#142 = CALENDAR_DATE ( 2023, 3, 12 ) ;
#143 = EDGE_LOOP ( 'NONE', ( #907, #648, #204, #600 ) ) ;
#144 = CARTESIAN_POINT ( 'NONE',  ( 4.930366417598831319, -0.8315569663069778406, 78.00000000000000000 ) ) ;
#145 = CARTESIAN_POINT ( 'NONE',  ( 0.000000000000000000, 0.000000000000000000, -42.50000000000000000 ) ) ;
#146 = ORIENTED_EDGE ( 'NONE', *, *, #603, .T. ) ;
#147 = AXIS2_PLACEMENT_3D ( 'NONE', #773, #1057, #685 ) ;
#148 = CARTESIAN_POINT ( 'NONE',  ( 0.000000000000000000, 0.000000000000000000, 66.50000000000000000 ) ) ;
#149 = DIRECTION ( 'NONE',  ( 0.000000000000000000, 0.000000000000000000, -1.000000000000000000 ) ) ;
#150 = ADVANCED_FACE ( 'NONE', ( #871 ), #613, .F. ) ;
#151 = ORIENTED_EDGE ( 'NONE', *, *, #268, .F. ) ;
#152 = DIRECTION ( 'NONE',  ( -0.000000000000000000, -0.000000000000000000, 1.000000000000000000 ) ) ;
#153 = AXIS2_PLACEMENT_3D ( 'NONE', #567, #918, #912 ) ;
#154 = LINE ( 'NONE', #867, #310 ) ;
#155 = LINE ( 'NONE', #70, #303 ) ;
#156 = AXIS2_PLACEMENT_3D ( 'NONE', #519, #258, #1037 ) ;
#157 = EDGE_CURVE ( 'NONE', #14, #639, #788, .T. ) ;
#158 = EDGE_LOOP ( 'NONE', ( #857, #25 ) ) ;
#159 = AXIS2_PLACEMENT_3D ( 'NONE', #167, #787, #78 ) ;
#160 = CARTESIAN_POINT ( 'NONE',  ( 5.000000000000000000, 0.000000000000000000, 42.50000000000000000 ) ) ;
#161 = SHAPE_DEFINITION_REPRESENTATION ( #387, #578 ) ;
#162 = ORIENTED_EDGE ( 'NONE', *, *, #944, .F. ) ;
#163 = CARTESIAN_POINT ( 'NONE',  ( 3.850000000000000089, 0.000000000000000000, -63.50000000000000000 ) ) ;
#164 = CARTESIAN_POINT ( 'NONE',  ( 5.833310062149575259, -0.8315569663069778406, 78.00000000000000000 ) ) ;
#165 = DIRECTION ( 'NONE',  ( 1.000000000000000000, 0.000000000000000000, 0.000000000000000000 ) ) ;
#166 = VECTOR ( 'NONE', #1009, 1000.000000000000000 ) ;
#167 = CARTESIAN_POINT ( 'NONE',  ( 0.000000000000000000, 0.000000000000000000, 78.50000000000000000 ) ) ;
#168 = EDGE_CURVE ( 'NONE', #920, #1055, #828, .T. ) ;
#169 = ORIENTED_EDGE ( 'NONE', *, *, #220, .F. ) ;
#170 = FACE_OUTER_BOUND ( 'NONE', #1121, .T. ) ;
#171 = PLANE ( 'NONE',  #572 ) ;
#172 = ORIENTED_EDGE ( 'NONE', *, *, #765, .F. ) ;
#173 = DIRECTION ( 'NONE',  ( 1.000000000000000000, 0.000000000000000000, 0.000000000000000000 ) ) ;
#174 = EDGE_CURVE ( 'NONE', #701, #662, #794, .T. ) ;
#175 = ORIENTED_EDGE ( 'NONE', *, *, #758, .T. ) ;
#176 = DIRECTION ( 'NONE',  ( 1.000000000000000000, 0.000000000000000000, 0.000000000000000000 ) ) ;
#177 = PLANE ( 'NONE',  #156 ) ;
#178 = EDGE_LOOP ( 'NONE', ( #1022, #369, #125, #962, #1043, #551, #86, #20 ) ) ;
#179 = CONICAL_SURFACE ( 'NONE', #115, 4.500000000000031974, 0.7853981633974439491 ) ;
#180 = ORIENTED_EDGE ( 'NONE', *, *, #928, .T. ) ;
#181 = DIRECTION ( 'NONE',  ( 1.000000000000000000, 0.000000000000000000, 0.000000000000000000 ) ) ;
#182 = PRODUCT_DEFINITION ( 'UNKNOWN', '', #547, #328 ) ;
#183 = CARTESIAN_POINT ( 'NONE',  ( 5.833310062149575259, -0.8315569663069778406, -78.00000000000000000 ) ) ;
#184 = EDGE_LOOP ( 'NONE', ( #508, #363, #712, #630 ) ) ;
#185 = ORIENTED_EDGE ( 'NONE', *, *, #220, .T. ) ;
#186 = AXIS2_PLACEMENT_3D ( 'NONE', #850, #333, #428 ) ;
#187 = CIRCLE ( 'NONE', #562, 3.850000000000000089 ) ;
#188 = FACE_OUTER_BOUND ( 'NONE', #1006, .T. ) ;
#189 = DIRECTION ( 'NONE',  ( 0.000000000000000000, 0.000000000000000000, -1.000000000000000000 ) ) ;
#190 = ADVANCED_FACE ( 'NONE', ( #389 ), #227, .T. ) ;
#191 = ORIENTED_EDGE ( 'NONE', *, *, #1073, .F. ) ;
#192 = ORIENTED_EDGE ( 'NONE', *, *, #938, .F. ) ;
#193 = CIRCLE ( 'NONE', #913, 4.500000000000017764 ) ;
#194 = DIRECTION ( 'NONE',  ( 1.000000000000000000, 0.000000000000000000, 0.000000000000000000 ) ) ;
#195 = DIRECTION ( 'NONE',  ( 0.000000000000000000, 0.000000000000000000, -1.000000000000000000 ) ) ;
#196 = ORIENTED_EDGE ( 'NONE', *, *, #66, .F. ) ;
#197 = CARTESIAN_POINT ( 'NONE',  ( -3.850000000000000089, 4.714890176717309515E-16, 63.50000000000000000 ) ) ;
#198 = CARTESIAN_POINT ( 'NONE',  ( -4.500000000000017764, 5.817072295949938273E-16, -63.50000000000000000 ) ) ;
#199 = ORIENTED_EDGE ( 'NONE', *, *, #1061, .F. ) ;
#200 = PERSON_AND_ORGANIZATION ( #119, #319 ) ;
#201 = CARTESIAN_POINT ( 'NONE',  ( 0.000000000000000000, 0.000000000000000000, 42.50000000000000000 ) ) ;
#202 = DIRECTION ( 'NONE',  ( 0.7071067811865345831, 0.000000000000000000, 0.7071067811865603403 ) ) ;
#203 = CIRCLE ( 'NONE', #835, 5.000000000000000000 ) ;
#204 = ORIENTED_EDGE ( 'NONE', *, *, #661, .F. ) ;
#205 = CALENDAR_DATE ( 2023, 3, 12 ) ;
#206 = EDGE_CURVE ( 'NONE', #397, #741, #375, .T. ) ;
#207 = DIRECTION ( 'NONE',  ( 1.000000000000000000, 0.000000000000000000, 0.000000000000000000 ) ) ;
#208 = DIRECTION ( 'NONE',  ( -1.000000000000000000, 0.000000000000000000, 0.000000000000000000 ) ) ;
#209 = EDGE_LOOP ( 'NONE', ( #196, #162, #991, #322 ) ) ;
#210 = LOCAL_TIME ( 17, 39, 3.000000000000000000, #116 ) ;
#211 = VECTOR ( 'NONE', #711, 1000.000000000000000 ) ;
#212 = CIRCLE ( 'NONE', #446, 5.000000000000000000 ) ;
#213 = FACE_OUTER_BOUND ( 'NONE', #861, .T. ) ;
#214 = DIRECTION ( 'NONE',  ( -0.000000000000000000, -0.000000000000000000, 1.000000000000000000 ) ) ;
#215 = EDGE_CURVE ( 'NONE', #953, #687, #1011, .T. ) ;
#216 = ORIENTED_EDGE ( 'NONE', *, *, #564, .T. ) ;
#217 = ORIENTED_EDGE ( 'NONE', *, *, #616, .T. ) ;
#218 = CARTESIAN_POINT ( 'NONE',  ( -3.850000000000000089, 4.714890176717309515E-16, -63.50000000000000000 ) ) ;
#219 = DIRECTION ( 'NONE',  ( 0.000000000000000000, -0.000000000000000000, -1.000000000000000000 ) ) ;
#220 = EDGE_CURVE ( 'NONE', #472, #278, #936, .T. ) ;
#221 = ORIENTED_EDGE ( 'NONE', *, *, #314, .T. ) ;
#222 = DIRECTION ( 'NONE',  ( 0.000000000000000000, 0.000000000000000000, -1.000000000000000000 ) ) ;
#223 = DIRECTION ( 'NONE',  ( 1.000000000000000000, 0.000000000000000000, 0.000000000000000000 ) ) ;
#224 = ORIENTED_EDGE ( 'NONE', *, *, #374, .T. ) ;
#225 = COORDINATED_UNIVERSAL_TIME_OFFSET ( 1, 0, .AHEAD. ) ;
#226 = PRODUCT_RELATED_PRODUCT_CATEGORY ( 'detail', '', ( #468 ) ) ;
#227 = CONICAL_SURFACE ( 'NONE', #866, 6.999999999999977796, 0.7853981633974491672 ) ;
#228 = ORIENTED_EDGE ( 'NONE', *, *, #406, .T. ) ;
#229 = CARTESIAN_POINT ( 'NONE',  ( 5.000000000000000000, 0.000000000000000000, -66.50000000000000000 ) ) ;
#230 = PLANE ( 'NONE',  #498 ) ;
#231 = ORIENTED_EDGE ( 'NONE', *, *, #810, .F. ) ;
#232 = EDGE_CURVE ( 'NONE', #1038, #308, #354, .T. ) ;
#233 = CARTESIAN_POINT ( 'NONE',  ( 4.930366417598831319, -0.8315569663069778406, 42.50000000000000000 ) ) ;
#234 = DIRECTION ( 'NONE',  ( -1.000000000000000000, 0.000000000000000000, 0.000000000000000000 ) ) ;
#235 = PLANE ( 'NONE',  #1114 ) ;
#236 = CARTESIAN_POINT ( 'NONE',  ( 7.500000000000000000, 0.000000000000000000, 42.50000000000000000 ) ) ;
#237 = AXIS2_PLACEMENT_3D ( 'NONE', #813, #44, #743 ) ;
#238 = EDGE_CURVE ( 'NONE', #349, #1056, #561, .T. ) ;
#239 = FACE_BOUND ( 'NONE', #420, .T. ) ;
#240 = CARTESIAN_POINT ( 'NONE',  ( 0.000000000000000000, 0.000000000000000000, -41.99999999999998579 ) ) ;
#241 = ORIENTED_EDGE ( 'NONE', *, *, #340, .T. ) ;
#242 = DIRECTION ( 'NONE',  ( 1.000000000000000000, 0.000000000000000000, 0.000000000000000000 ) ) ;
#243 = CARTESIAN_POINT ( 'NONE',  ( 4.930366417598831319, -0.8315569663069778406, 42.50000000000000000 ) ) ;
#244 = CARTESIAN_POINT ( 'NONE',  ( 3.850000000000000089, 0.000000000000000000, 42.50000000000000000 ) ) ;
#245 = AXIS2_PLACEMENT_3D ( 'NONE', #1034, #432, #415 ) ;
#246 = VECTOR ( 'NONE', #384, 1000.000000000000000 ) ;
#247 = PLANE ( 'NONE',  #550 ) ;
#248 = EDGE_CURVE ( 'NONE', #1, #822, #82, .T. ) ;
#249 = DIRECTION ( 'NONE',  ( 1.000000000000000000, 0.000000000000000000, 0.000000000000000000 ) ) ;
#250 = ORIENTED_EDGE ( 'NONE', *, *, #111, .F. ) ;
#251 = DIRECTION ( 'NONE',  ( -1.000000000000000000, 0.000000000000000000, 0.000000000000000000 ) ) ;
#252 = DIRECTION ( 'NONE',  ( 0.000000000000000000, -0.000000000000000000, 1.000000000000000000 ) ) ;
#253 = VERTEX_POINT ( 'NONE', #1003 ) ;
#254 = EDGE_CURVE ( 'NONE', #96, #763, #95, .T. ) ;
#255 = CIRCLE ( 'NONE', #294, 3.850000000000000089 ) ;
#256 = DIRECTION ( 'NONE',  ( -0.000000000000000000, -0.000000000000000000, 1.000000000000000000 ) ) ;
#257 = CARTESIAN_POINT ( 'NONE',  ( 5.833310062149575259, 0.8315569663069778406, 78.00000000000000000 ) ) ;
#258 = DIRECTION ( 'NONE',  ( 0.000000000000000000, -0.000000000000000000, 1.000000000000000000 ) ) ;
#259 = AXIS2_PLACEMENT_3D ( 'NONE', #980, #12, #194 ) ;
#260 = VERTEX_POINT ( 'NONE', #543 ) ;
#261 = DIRECTION ( 'NONE',  ( -0.000000000000000000, -0.000000000000000000, 1.000000000000000000 ) ) ;
#262 = AXIS2_PLACEMENT_3D ( 'NONE', #976, #19, #5 ) ;
#263 = LINE ( 'NONE', #1126, #591 ) ;
#264 = CONICAL_SURFACE ( 'NONE', #897, 7.500000000000000000, 0.7853981633974560506 ) ;
#265 = AXIS2_PLACEMENT_3D ( 'NONE', #351, #90, #776 ) ;
#266 = EDGE_LOOP ( 'NONE', ( #747, #1000 ) ) ;
#267 = VERTEX_POINT ( 'NONE', #129 ) ;
#268 = EDGE_CURVE ( 'NONE', #701, #253, #647, .T. ) ;
#269 = VERTEX_POINT ( 'NONE', #809 ) ;
#270 = CARTESIAN_POINT ( 'NONE',  ( 3.850000000000000089, 0.000000000000000000, -66.50000000000000000 ) ) ;
#271 = CARTESIAN_POINT ( 'NONE',  ( 0.000000000000000000, 0.000000000000000000, -77.99999999999998579 ) ) ;
#272 = ORIENTED_EDGE ( 'NONE', *, *, #206, .F. ) ;
#273 = ORIENTED_EDGE ( 'NONE', *, *, #484, .F. ) ;
#274 = DIRECTION ( 'NONE',  ( 1.000000000000000000, 0.000000000000000000, 0.000000000000000000 ) ) ;
#275 = CARTESIAN_POINT ( 'NONE',  ( 0.000000000000000000, 0.000000000000000000, 63.50000000000000000 ) ) ;
#276 = CC_DESIGN_PERSON_AND_ORGANIZATION_ASSIGNMENT ( #806, #302, ( #182 ) ) ;
#277 = ORIENTED_EDGE ( 'NONE', *, *, #98, .F. ) ;
#278 = VERTEX_POINT ( 'NONE', #1071 ) ;
#279 = AXIS2_PLACEMENT_3D ( 'NONE', #361, #18, #536 ) ;
#280 = DIRECTION ( 'NONE',  ( -0.000000000000000000, -0.000000000000000000, 1.000000000000000000 ) ) ;
#281 = ORIENTED_EDGE ( 'NONE', *, *, #510, .F. ) ;
#282 = VERTEX_POINT ( 'NONE', #892 ) ;
#283 = FACE_BOUND ( 'NONE', #656, .T. ) ;
#284 = DIRECTION ( 'NONE',  ( -0.000000000000000000, -0.000000000000000000, 1.000000000000000000 ) ) ;
#285 = ADVANCED_FACE ( 'NONE', ( #53 ), #481, .T. ) ;
#286 = VERTEX_POINT ( 'NONE', #476 ) ;
#287 = AXIS2_PLACEMENT_3D ( 'NONE', #762, #75, #491 ) ;
#288 = ORIENTED_EDGE ( 'NONE', *, *, #503, .F. ) ;
#289 = CARTESIAN_POINT ( 'NONE',  ( -7.500000000000000000, 9.184850993605147944E-16, 41.99999999999997868 ) ) ;
#290 = DIRECTION ( 'NONE',  ( 1.000000000000000000, 0.000000000000000000, 0.000000000000000000 ) ) ;
#291 = EDGE_LOOP ( 'NONE', ( #447, #1096 ) ) ;
#292 = ADVANCED_FACE ( 'NONE', ( #396 ), #973, .T. ) ;
#293 = DATE_TIME_ROLE ( 'creation_date' ) ;
#294 = AXIS2_PLACEMENT_3D ( 'NONE', #480, #1088, #320 ) ;
#295 = DIRECTION ( 'NONE',  ( 1.000000000000000000, 0.000000000000000000, 0.000000000000000000 ) ) ;
#296 = DIRECTION ( 'NONE',  ( 1.000000000000000000, 0.000000000000000000, 0.000000000000000000 ) ) ;
#297 = ORIENTED_EDGE ( 'NONE', *, *, #248, .F. ) ;
#298 = COORDINATED_UNIVERSAL_TIME_OFFSET ( 1, 0, .AHEAD. ) ;
#299 = CARTESIAN_POINT ( 'NONE',  ( 0.000000000000000000, 0.000000000000000000, 66.50000000000000000 ) ) ;
#300 = CARTESIAN_POINT ( 'NONE',  ( 0.000000000000000000, 0.000000000000000000, 78.00000000000000000 ) ) ;
#301 = ORIENTED_EDGE ( 'NONE', *, *, #98, .T. ) ;
#302 = PERSON_AND_ORGANIZATION_ROLE ( 'creator' ) ;
#303 = VECTOR ( 'NONE', #486, 1000.000000000000000 ) ;
#304 = VERTEX_POINT ( 'NONE', #986 ) ;
#305 = ADVANCED_FACE ( 'NONE', ( #816 ), #751, .T. ) ;
#306 = LINE ( 'NONE', #923, #103 ) ;
#307 = CARTESIAN_POINT ( 'NONE',  ( 5.833310062149575259, 0.8315569663069778406, 78.00000000000000000 ) ) ;
#308 = VERTEX_POINT ( 'NONE', #121 ) ;
#309 = DIRECTION ( 'NONE',  ( -0.000000000000000000, -0.000000000000000000, 1.000000000000000000 ) ) ;
#310 = VECTOR ( 'NONE', #1097, 999.9999999999998863 ) ;
#311 = FACE_OUTER_BOUND ( 'NONE', #101, .T. ) ;
#312 = DIRECTION ( 'NONE',  ( -1.000000000000000000, 0.000000000000000000, 0.000000000000000000 ) ) ;
#313 = ORIENTED_EDGE ( 'NONE', *, *, #546, .F. ) ;
#314 = EDGE_CURVE ( 'NONE', #847, #916, #1089, .T. ) ;
#315 = DIRECTION ( 'NONE',  ( 1.000000000000000000, -0.000000000000000000, -0.000000000000000000 ) ) ;
#316 = DIRECTION ( 'NONE',  ( -0.000000000000000000, -0.000000000000000000, 1.000000000000000000 ) ) ;
#317 = VERTEX_POINT ( 'NONE', #549 ) ;
#318 = EDGE_CURVE ( 'NONE', #670, #472, #466, .T. ) ;
#319 = ORGANIZATION ( 'UNSPECIFIED', 'UNSPECIFIED', '' ) ;
#320 = DIRECTION ( 'NONE',  ( 1.000000000000000000, 0.000000000000000000, 0.000000000000000000 ) ) ;
#321 = DIRECTION ( 'NONE',  ( -0.000000000000000000, -0.000000000000000000, 1.000000000000000000 ) ) ;
#322 = ORIENTED_EDGE ( 'NONE', *, *, #122, .F. ) ;
#323 = ORIENTED_EDGE ( 'NONE', *, *, #992, .F. ) ;
#324 = ADVANCED_FACE ( 'NONE', ( #821 ), #1080, .T. ) ;
#325 = DIRECTION ( 'NONE',  ( 0.000000000000000000, 1.000000000000000000, -0.000000000000000000 ) ) ;
#326 = DIRECTION ( 'NONE',  ( -0.000000000000000000, -0.000000000000000000, 1.000000000000000000 ) ) ;
#327 = CIRCLE ( 'NONE', #834, 5.000000000000000000 ) ;
#328 = DESIGN_CONTEXT ( 'detailed design', #1117, 'design' ) ;
#329 = ORIENTED_EDGE ( 'NONE', *, *, #254, .T. ) ;
#330 = DIRECTION ( 'NONE',  ( -0.000000000000000000, -0.000000000000000000, 1.000000000000000000 ) ) ;
#331 = APPROVAL_ROLE ( '' ) ;
#332 = EDGE_CURVE ( 'NONE', #278, #977, #575, .T. ) ;
#333 = DIRECTION ( 'NONE',  ( -0.000000000000000000, -0.000000000000000000, 1.000000000000000000 ) ) ;
#334 = CARTESIAN_POINT ( 'NONE',  ( -4.930366417598831319, -0.8315569663069778406, -77.99999999999998579 ) ) ;
#335 = EDGE_LOOP ( 'NONE', ( #1091, #1035 ) ) ;
#336 = DIRECTION ( 'NONE',  ( -1.000000000000000000, 0.000000000000000000, 0.000000000000000000 ) ) ;
#337 = AXIS2_PLACEMENT_3D ( 'NONE', #1075, #214, #223 ) ;
#338 = DIRECTION ( 'NONE',  ( -1.000000000000000000, 0.000000000000000000, 0.000000000000000000 ) ) ;
#339 = CARTESIAN_POINT ( 'NONE',  ( 5.833310062149575259, -0.8315569663069778406, 78.00000000000000000 ) ) ;
#340 = EDGE_CURVE ( 'NONE', #682, #282, #46, .T. ) ;
#341 = AXIS2_PLACEMENT_3D ( 'NONE', #59, #149, #1026 ) ;
#342 = EDGE_LOOP ( 'NONE', ( #937, #217, #987, #410, #888, #382, #1062, #893 ) ) ;
#343 = LINE ( 'NONE', #950, #11 ) ;
#344 = ORIENTED_EDGE ( 'NONE', *, *, #1127, .T. ) ;
#345 = DIRECTION ( 'NONE',  ( 0.000000000000000000, -0.000000000000000000, 1.000000000000000000 ) ) ;
#346 = CARTESIAN_POINT ( 'NONE',  ( 0.000000000000000000, 0.000000000000000000, 42.50000000000000000 ) ) ;
#347 = ORIENTED_EDGE ( 'NONE', *, *, #992, .T. ) ;
#348 = LINE ( 'NONE', #437, #393 ) ;
#349 = VERTEX_POINT ( 'NONE', #594 ) ;
#350 = CARTESIAN_POINT ( 'NONE',  ( 5.000000000000000000, 0.000000000000000000, -42.50000000000000000 ) ) ;
#351 = CARTESIAN_POINT ( 'NONE',  ( 0.000000000000000000, 0.000000000000000000, -66.50000000000000000 ) ) ;
#352 = CIRCLE ( 'NONE', #877, 4.500000000000031974 ) ;
#353 = VECTOR ( 'NONE', #316, 1000.000000000000000 ) ;
#354 = CIRCLE ( 'NONE', #1028, 5.000000000000000000 ) ;
#355 = LINE ( 'NONE', #527, #499 ) ;
#356 = CARTESIAN_POINT ( 'NONE',  ( 0.000000000000000000, 0.000000000000000000, 41.99999999999997868 ) ) ;
#357 = AXIS2_PLACEMENT_3D ( 'NONE', #1116, #884, #454 ) ;
#358 = ORIENTED_EDGE ( 'NONE', *, *, #401, .F. ) ;
#359 = EDGE_CURVE ( 'NONE', #822, #726, #841, .T. ) ;
#360 = EDGE_CURVE ( 'NONE', #253, #269, #506, .T. ) ;
#361 = CARTESIAN_POINT ( 'NONE',  ( 0.000000000000000000, 0.000000000000000000, 42.50000000000000000 ) ) ;
#362 = CARTESIAN_POINT ( 'NONE',  ( -7.500000000000000000, 9.184850993605147944E-16, 42.50000000000000000 ) ) ;
#363 = ORIENTED_EDGE ( 'NONE', *, *, #854, .T. ) ;
#364 = AXIS2_PLACEMENT_3D ( 'NONE', #299, #574, #659 ) ;
#365 = DIRECTION ( 'NONE',  ( -0.000000000000000000, -0.000000000000000000, 1.000000000000000000 ) ) ;
#366 = EDGE_CURVE ( 'NONE', #286, #763, #81, .T. ) ;
#367 = CARTESIAN_POINT ( 'NONE',  ( -4.930366417598831319, 0.8315569663069778406, 42.50000000000000000 ) ) ;
#368 = CYLINDRICAL_SURFACE ( 'NONE', #1077, 7.500000000000000000 ) ;
#369 = ORIENTED_EDGE ( 'NONE', *, *, #1113, .T. ) ;
#370 = DIRECTION ( 'NONE',  ( 1.000000000000000000, 0.000000000000000000, 0.000000000000000000 ) ) ;
#371 = APPLICATION_CONTEXT ( 'configuration controlled 3d designs of mechanical parts and assemblies' ) ;
#372 = CARTESIAN_POINT ( 'NONE',  ( -5.000000000000000000, 6.123233995736766282E-16, 63.00000000000002842 ) ) ;
#373 = CARTESIAN_POINT ( 'NONE',  ( 0.000000000000000000, 0.000000000000000000, -42.50000000000000000 ) ) ;
#374 = EDGE_CURVE ( 'NONE', #520, #1072, #352, .T. ) ;
#375 = CIRCLE ( 'NONE', #1044, 6.999999999999977796 ) ;
#376 = EDGE_LOOP ( 'NONE', ( #482, #141, #199, #250 ) ) ;
#377 = DATE_AND_TIME ( #27, #957 ) ;
#378 = CARTESIAN_POINT ( 'NONE',  ( -4.930366417598831319, 0.8315569663069778406, 78.00000000000000000 ) ) ;
#379 = CARTESIAN_POINT ( 'NONE',  ( 0.000000000000000000, 0.000000000000000000, -77.99999999999998579 ) ) ;
#380 = MANIFOLD_SOLID_BREP ( 'Symétrie2', #391 ) ;
#381 = ORIENTED_EDGE ( 'NONE', *, *, #359, .F. ) ;
#382 = ORIENTED_EDGE ( 'NONE', *, *, #586, .F. ) ;
#383 = CARTESIAN_POINT ( 'NONE',  ( -3.850000000000000089, 4.714890176717309515E-16, 42.50000000000000000 ) ) ;
#384 = DIRECTION ( 'NONE',  ( -0.000000000000000000, -0.000000000000000000, 1.000000000000000000 ) ) ;
#385 = ORIENTED_EDGE ( 'NONE', *, *, #810, .T. ) ;
#386 = APPROVAL_ROLE ( '' ) ;
#387 = PRODUCT_DEFINITION_SHAPE ( 'NONE', 'NONE',  #182 ) ;
#388 = CARTESIAN_POINT ( 'NONE',  ( 5.833310062149575259, 0.8315569663069778406, -78.50000000000000000 ) ) ;
#389 = FACE_OUTER_BOUND ( 'NONE', #130, .T. ) ;
#390 = ORIENTED_EDGE ( 'NONE', *, *, #254, .F. ) ;
#391 = CLOSED_SHELL ( 'NONE', ( #190, #292, #824, #45, #1045, #672, #16, #51, #417, #838, #305, #695, #781, #1090, #922, #772, #10, #285, #1040, #965, #3, #725, #731, #460, #435, #535, #556, #494, #960, #137, #448, #609, #150, #1014, #479, #324, #422, #635 ) ) ;
#392 = CYLINDRICAL_SURFACE ( 'NONE', #1103, 5.000000000000000000 ) ;
#393 = VECTOR ( 'NONE', #608, 1000.000000000000114 ) ;
#394 = VECTOR ( 'NONE', #326, 1000.000000000000000 ) ;
#395 = DIRECTION ( 'NONE',  ( 1.000000000000000000, 0.000000000000000000, 0.000000000000000000 ) ) ;
#396 = FACE_OUTER_BOUND ( 'NONE', #143, .T. ) ;
#397 = VERTEX_POINT ( 'NONE', #942 ) ;
#398 = AXIS2_PLACEMENT_3D ( 'NONE', #554, #815, #399 ) ;
#399 = DIRECTION ( 'NONE',  ( 1.000000000000000000, 0.000000000000000000, 0.000000000000000000 ) ) ;
#400 = DIRECTION ( 'NONE',  ( 0.000000000000000000, 0.000000000000000000, -1.000000000000000000 ) ) ;
#401 = EDGE_CURVE ( 'NONE', #670, #665, #117, .T. ) ;
#402 = VERTEX_POINT ( 'NONE', #1111 ) ;
#403 = ORIENTED_EDGE ( 'NONE', *, *, #174, .T. ) ;
#404 = CYLINDRICAL_SURFACE ( 'NONE', #673, 5.000000000000000000 ) ;
#405 = DIRECTION ( 'NONE',  ( -0.000000000000000000, -0.000000000000000000, 1.000000000000000000 ) ) ;
#406 = EDGE_CURVE ( 'NONE', #763, #96, #1013, .T. ) ;
#407 = VERTEX_POINT ( 'NONE', #856 ) ;
#408 = LOCAL_TIME ( 17, 39, 3.000000000000000000, #889 ) ;
#409 = AXIS2_PLACEMENT_3D ( 'NONE', #1050, #100, #618 ) ;
#410 = ORIENTED_EDGE ( 'NONE', *, *, #248, .T. ) ;
#411 = VECTOR ( 'NONE', #628, 1000.000000000000000 ) ;
#412 = CARTESIAN_POINT ( 'NONE',  ( 0.000000000000000000, 0.000000000000000000, 66.50000000000000000 ) ) ;
#413 = CARTESIAN_POINT ( 'NONE',  ( -5.000000000000000000, 6.123233995736766282E-16, 42.50000000000000000 ) ) ;
#414 = ORIENTED_EDGE ( 'NONE', *, *, #931, .T. ) ;
#415 = DIRECTION ( 'NONE',  ( 1.000000000000000000, 0.000000000000000000, 0.000000000000000000 ) ) ;
#416 = DATE_TIME_ROLE ( 'classification_date' ) ;
#417 = ADVANCED_FACE ( 'NONE', ( #424 ), #1098, .T. ) ;
#418 = FACE_OUTER_BOUND ( 'NONE', #209, .T. ) ;
#419 = CYLINDRICAL_SURFACE ( 'NONE', #9, 7.500000000000000000 ) ;
#420 = EDGE_LOOP ( 'NONE', ( #956, #273 ) ) ;
#421 = LINE ( 'NONE', #160, #742 ) ;
#422 = ADVANCED_FACE ( 'NONE', ( #755 ), #171, .T. ) ;
#423 = CARTESIAN_POINT ( 'NONE',  ( -4.500000000000031974, 0.000000000000000000, 63.50000000000000000 ) ) ;
#424 = FACE_OUTER_BOUND ( 'NONE', #184, .T. ) ;
#425 = ORIENTED_EDGE ( 'NONE', *, *, #737, .T. ) ;
#426 = LINE ( 'NONE', #2, #552 ) ;
#427 = EDGE_LOOP ( 'NONE', ( #1095, #425 ) ) ;
#428 = DIRECTION ( 'NONE',  ( 1.000000000000000000, 0.000000000000000000, 0.000000000000000000 ) ) ;
#429 = DIRECTION ( 'NONE',  ( 1.000000000000000000, 0.000000000000000000, 0.000000000000000000 ) ) ;
#430 = APPROVAL ( #988, 'UNSPECIFIED' ) ;
#431 = FACE_BOUND ( 'NONE', #1115, .T. ) ;
#432 = DIRECTION ( 'NONE',  ( -0.000000000000000000, -0.000000000000000000, 1.000000000000000000 ) ) ;
#433 = CARTESIAN_POINT ( 'NONE',  ( 0.000000000000000000, 0.000000000000000000, 41.99999999999997868 ) ) ;
#434 = DIRECTION ( 'NONE',  ( 1.000000000000000000, 0.000000000000000000, 0.000000000000000000 ) ) ;
#435 = ADVANCED_FACE ( 'NONE', ( #1021, #851 ), #230, .T. ) ;
#436 = AXIS2_PLACEMENT_3D ( 'NONE', #47, #917, #395 ) ;
#437 = CARTESIAN_POINT ( 'NONE',  ( -5.000000000000000000, 6.123233995736766282E-16, -63.00000000000000000 ) ) ;
#438 = CARTESIAN_POINT ( 'NONE',  ( 4.500000000000017764, 0.000000000000000000, -63.50000000000000000 ) ) ;
#439 = EDGE_CURVE ( 'NONE', #286, #260, #667, .T. ) ;
#440 = ORIENTED_EDGE ( 'NONE', *, *, #484, .T. ) ;
#441 = CC_DESIGN_PERSON_AND_ORGANIZATION_ASSIGNMENT ( #1101, #497, ( #568 ) ) ;
#442 = AXIS2_PLACEMENT_3D ( 'NONE', #994, #140, #135 ) ;
#443 = DIRECTION ( 'NONE',  ( -0.7071067811865482389, 0.000000000000000000, -0.7071067811865469066 ) ) ;
#444 = DIRECTION ( 'NONE',  ( 1.000000000000000000, 0.000000000000000000, 0.000000000000000000 ) ) ;
#445 = CIRCLE ( 'NONE', #1078, 3.850000000000000089 ) ;
#446 = AXIS2_PLACEMENT_3D ( 'NONE', #582, #846, #242 ) ;
#447 = ORIENTED_EDGE ( 'NONE', *, *, #1102, .T. ) ;
#448 = ADVANCED_FACE ( 'NONE', ( #863 ), #264, .T. ) ;
#449 = FACE_OUTER_BOUND ( 'NONE', #335, .T. ) ;
#450 = CARTESIAN_POINT ( 'NONE',  ( 0.000000000000000000, 0.000000000000000000, -63.00000000000000000 ) ) ;
#451 = ORIENTED_EDGE ( 'NONE', *, *, #318, .T. ) ;
#452 =( NAMED_UNIT ( * ) SI_UNIT ( $, .STERADIAN. ) SOLID_ANGLE_UNIT ( ) );
#453 = EDGE_CURVE ( 'NONE', #726, #407, #155, .T. ) ;
#454 = DIRECTION ( 'NONE',  ( 1.000000000000000000, 0.000000000000000000, 0.000000000000000000 ) ) ;
#455 = CARTESIAN_POINT ( 'NONE',  ( 4.500000000000031974, 5.510910596163128013E-16, 63.50000000000000000 ) ) ;
#456 = ORIENTED_EDGE ( 'NONE', *, *, #978, .T. ) ;
#457 = APPROVAL_DATE_TIME ( #110, #430 ) ;
#458 = DIRECTION ( 'NONE',  ( 0.000000000000000000, -0.000000000000000000, 1.000000000000000000 ) ) ;
#459 = CARTESIAN_POINT ( 'NONE',  ( 5.833310062149575259, 0.8315569663069778406, -78.00000000000000000 ) ) ;
#460 = ADVANCED_FACE ( 'NONE', ( #680 ), #419, .T. ) ;
#461 = CIRCLE ( 'NONE', #684, 7.500000000000000000 ) ;
#462 = VERTEX_POINT ( 'NONE', #1093 ) ;
#463 = DIRECTION ( 'NONE',  ( 1.000000000000000000, 0.000000000000000000, 0.000000000000000000 ) ) ;
#464 = ORIENTED_EDGE ( 'NONE', *, *, #1052, .F. ) ;
#465 = CARTESIAN_POINT ( 'NONE',  ( -3.850000000000000089, 4.714890176717309515E-16, 66.50000000000000000 ) ) ;
#466 = LINE ( 'NONE', #35, #246 ) ;
#467 = EDGE_CURVE ( 'NONE', #676, #526, #811, .T. ) ;
#468 = PRODUCT ( 'Pièce1_arbre_Défaut_sldprt', 'Pièce1_arbre_Défaut_sldprt', '', ( #1064 ) ) ;
#469 = ORIENTED_EDGE ( 'NONE', *, *, #529, .T. ) ;
#470 = PLANE ( 'NONE',  #693 ) ;
#471 = CARTESIAN_POINT ( 'NONE',  ( 0.000000000000000000, 0.000000000000000000, 42.50000000000000000 ) ) ;
#472 = VERTEX_POINT ( 'NONE', #334 ) ;
#473 = AXIS2_PLACEMENT_3D ( 'NONE', #201, #23, #975 ) ;
#474 = CC_DESIGN_DATE_AND_TIME_ASSIGNMENT ( #489, #416, ( #568 ) ) ;
#475 = CARTESIAN_POINT ( 'NONE',  ( 0.000000000000000000, 0.000000000000000000, -63.00000000000000000 ) ) ;
#476 = CARTESIAN_POINT ( 'NONE',  ( -5.000000000000000000, 6.123233995736766282E-16, -63.00000000000000000 ) ) ;
#477 = ORIENTED_EDGE ( 'NONE', *, *, #174, .F. ) ;
#478 = AXIS2_PLACEMENT_3D ( 'NONE', #646, #400, #312 ) ;
#479 = ADVANCED_FACE ( 'NONE', ( #605 ), #177, .F. ) ;
#480 = CARTESIAN_POINT ( 'NONE',  ( 0.000000000000000000, 0.000000000000000000, -63.50000000000000000 ) ) ;
#481 = CYLINDRICAL_SURFACE ( 'NONE', #442, 5.000000000000000000 ) ;
#482 = ORIENTED_EDGE ( 'NONE', *, *, #737, .F. ) ;
#483 = EDGE_LOOP ( 'NONE', ( #172, #700, #221, #1082 ) ) ;
#484 = EDGE_CURVE ( 'NONE', #526, #676, #445, .T. ) ;
#485 = DIRECTION ( 'NONE',  ( -0.000000000000000000, -0.000000000000000000, 1.000000000000000000 ) ) ;
#486 = DIRECTION ( 'NONE',  ( -0.000000000000000000, -0.000000000000000000, 1.000000000000000000 ) ) ;
#487 = EDGE_LOOP ( 'NONE', ( #852, #169, #715, #587, #1086, #138, #652, #698 ) ) ;
#488 = VERTEX_POINT ( 'NONE', #697 ) ;
#489 = DATE_AND_TIME ( #1001, #84 ) ;
#490 = LINE ( 'NONE', #840, #946 ) ;
#491 = DIRECTION ( 'NONE',  ( 1.000000000000000000, 0.000000000000000000, 0.000000000000000000 ) ) ;
#492 = ORIENTED_EDGE ( 'NONE', *, *, #374, .F. ) ;
#493 = ORIENTED_EDGE ( 'NONE', *, *, #978, .F. ) ;
#494 = ADVANCED_FACE ( 'NONE', ( #858 ), #683, .T. ) ;
#495 = VECTOR ( 'NONE', #234, 1000.000000000000000 ) ;
#496 = DIRECTION ( 'NONE',  ( -0.000000000000000000, -0.000000000000000000, 1.000000000000000000 ) ) ;
#497 = PERSON_AND_ORGANIZATION_ROLE ( 'classification_officer' ) ;
#498 = AXIS2_PLACEMENT_3D ( 'NONE', #346, #252, #669 ) ;
#499 = VECTOR ( 'NONE', #443, 999.9999999999998863 ) ;
#500 = CARTESIAN_POINT ( 'NONE',  ( 4.930366417598831319, 0.8315569663069778406, -78.49999999999998579 ) ) ;
#501 = DIRECTION ( 'NONE',  ( -0.000000000000000000, -0.000000000000000000, 1.000000000000000000 ) ) ;
#502 = ORIENTED_EDGE ( 'NONE', *, *, #406, .F. ) ;
#503 = EDGE_CURVE ( 'NONE', #317, #282, #421, .T. ) ;
#504 = FACE_BOUND ( 'NONE', #36, .T. ) ;
#505 = CARTESIAN_POINT ( 'NONE',  ( 4.930366417598831319, 0.8315569663069778406, -77.99999999999998579 ) ) ;
#506 = LINE ( 'NONE', #244, #790 ) ;
#507 = VECTOR ( 'NONE', #280, 1000.000000000000000 ) ;
#508 = ORIENTED_EDGE ( 'NONE', *, *, #467, .T. ) ;
#509 = CARTESIAN_POINT ( 'NONE',  ( 0.000000000000000000, 0.000000000000000000, 42.50000000000000000 ) ) ;
#510 = EDGE_CURVE ( 'NONE', #916, #756, #783, .T. ) ;
#511 = ORIENTED_EDGE ( 'NONE', *, *, #661, .T. ) ;
#512 = FACE_OUTER_BOUND ( 'NONE', #949, .T. ) ;
#513 = DIRECTION ( 'NONE',  ( -0.000000000000000000, -0.000000000000000000, 1.000000000000000000 ) ) ;
#514 = ORIENTED_EDGE ( 'NONE', *, *, #890, .T. ) ;
#515 = CARTESIAN_POINT ( 'NONE',  ( 0.000000000000000000, 0.000000000000000000, 78.50000000000000000 ) ) ;
#516 = CONICAL_SURFACE ( 'NONE', #791, 5.000000000000000000, 0.7853981633974300713 ) ;
#517 = EDGE_CURVE ( 'NONE', #49, #286, #348, .T. ) ;
#518 = DIRECTION ( 'NONE',  ( -0.000000000000000000, -0.000000000000000000, 1.000000000000000000 ) ) ;
#519 = CARTESIAN_POINT ( 'NONE',  ( 0.000000000000000000, 0.000000000000000000, -78.00000000000000000 ) ) ;
#520 = VERTEX_POINT ( 'NONE', #1018 ) ;
#521 = ORIENTED_EDGE ( 'NONE', *, *, #366, .T. ) ;
#522 = PLANE ( 'NONE',  #65 ) ;
#523 = EDGE_CURVE ( 'NONE', #54, #402, #118, .T. ) ;
#524 = DIRECTION ( 'NONE',  ( 0.000000000000000000, -1.000000000000000000, 0.000000000000000000 ) ) ;
#525 = EDGE_LOOP ( 'NONE', ( #843, #403, #126, #752 ) ) ;
#526 = VERTEX_POINT ( 'NONE', #939 ) ;
#527 = CARTESIAN_POINT ( 'NONE',  ( -6.999999999999977796, 0.000000000000000000, 42.50000000000000000 ) ) ;
#528 = DIRECTION ( 'NONE',  ( 0.000000000000000000, -0.000000000000000000, -1.000000000000000000 ) ) ;
#529 = EDGE_CURVE ( 'NONE', #488, #682, #1123, .T. ) ;
#530 = ORIENTED_EDGE ( 'NONE', *, *, #439, .T. ) ;
#531 = AXIS2_PLACEMENT_3D ( 'NONE', #183, #524, #528 ) ;
#532 = CYLINDRICAL_SURFACE ( 'NONE', #473, 5.000000000000000000 ) ;
#533 = FACE_OUTER_BOUND ( 'NONE', #539, .T. ) ;
#534 = ORIENTED_EDGE ( 'NONE', *, *, #860, .T. ) ;
#535 = ADVANCED_FACE ( 'NONE', ( #865 ), #1100, .T. ) ;
#536 = DIRECTION ( 'NONE',  ( 1.000000000000000000, 0.000000000000000000, 0.000000000000000000 ) ) ;
#537 = FACE_OUTER_BOUND ( 'NONE', #114, .T. ) ;
#538 = ORIENTED_EDGE ( 'NONE', *, *, #655, .F. ) ;
#539 = EDGE_LOOP ( 'NONE', ( #511, #76, #636, #281 ) ) ;
#540 = VECTOR ( 'NONE', #222, 1000.000000000000000 ) ;
#541 = FACE_OUTER_BOUND ( 'NONE', #342, .T. ) ;
#542 = DIRECTION ( 'NONE',  ( -0.000000000000000000, -0.000000000000000000, 1.000000000000000000 ) ) ;
#543 = CARTESIAN_POINT ( 'NONE',  ( 5.000000000000000000, 0.000000000000000000, -63.00000000000000000 ) ) ;
#544 = ORIENTED_EDGE ( 'NONE', *, *, #1061, .T. ) ;
#545 = CARTESIAN_POINT ( 'NONE',  ( 0.000000000000000000, 0.000000000000000000, 0.000000000000000000 ) ) ;
#546 = EDGE_CURVE ( 'NONE', #665, #670, #343, .T. ) ;
#547 = PRODUCT_DEFINITION_FORMATION_WITH_SPECIFIED_SOURCE ( 'ANY', '', #468, .NOT_KNOWN. ) ;
#548 = CARTESIAN_POINT ( 'NONE',  ( 0.000000000000000000, 0.000000000000000000, -77.99999999999998579 ) ) ;
#549 = CARTESIAN_POINT ( 'NONE',  ( 5.000000000000000000, 0.000000000000000000, 42.50000000000000000 ) ) ;
#550 = AXIS2_PLACEMENT_3D ( 'NONE', #943, #595, #165 ) ;
#551 = ORIENTED_EDGE ( 'NONE', *, *, #906, .F. ) ;
#552 = VECTOR ( 'NONE', #869, 1000.000000000000000 ) ;
#553 = DIRECTION ( 'NONE',  ( -0.000000000000000000, -0.000000000000000000, 1.000000000000000000 ) ) ;
#554 = CARTESIAN_POINT ( 'NONE',  ( 0.000000000000000000, 0.000000000000000000, -42.50000000000000000 ) ) ;
#555 = DIRECTION ( 'NONE',  ( -1.000000000000000000, 0.000000000000000000, 0.000000000000000000 ) ) ;
#556 = ADVANCED_FACE ( 'NONE', ( #85, #504 ), #522, .T. ) ;
#557 = ORIENTED_EDGE ( 'NONE', *, *, #340, .F. ) ;
#558 = CC_DESIGN_PERSON_AND_ORGANIZATION_ASSIGNMENT ( #671, #666, ( #547 ) ) ;
#559 = EDGE_LOOP ( 'NONE', ( #690, #97, #719, #381, #297, #1017 ) ) ;
#560 = DIRECTION ( 'NONE',  ( 0.000000000000000000, -0.000000000000000000, 1.000000000000000000 ) ) ;
#561 = LINE ( 'NONE', #459, #7 ) ;
#562 = AXIS2_PLACEMENT_3D ( 'NONE', #883, #309, #463 ) ;
#563 = EDGE_LOOP ( 'NONE', ( #749, #514 ) ) ;
#564 = EDGE_CURVE ( 'NONE', #676, #1055, #426, .T. ) ;
#565 = CIRCLE ( 'NONE', #859, 4.500000000000017764 ) ;
#566 = LINE ( 'NONE', #243, #17 ) ;
#567 = CARTESIAN_POINT ( 'NONE',  ( 0.000000000000000000, 0.000000000000000000, 63.50000000000000000 ) ) ;
#568 = SECURITY_CLASSIFICATION ( '', '', #570 ) ;
#569 = ORIENTED_EDGE ( 'NONE', *, *, #232, .F. ) ;
#570 = SECURITY_CLASSIFICATION_LEVEL ( 'unclassified' ) ;
#571 = EDGE_CURVE ( 'NONE', #977, #775, #760, .T. ) ;
#572 = AXIS2_PLACEMENT_3D ( 'NONE', #164, #686, #1032 ) ;
#573 = ORIENTED_EDGE ( 'NONE', *, *, #644, .T. ) ;
#574 = DIRECTION ( 'NONE',  ( -0.000000000000000000, -0.000000000000000000, 1.000000000000000000 ) ) ;
#575 = LINE ( 'NONE', #413, #394 ) ;
#576 = ORIENTED_EDGE ( 'NONE', *, *, #359, .T. ) ;
#577 = AXIS2_PLACEMENT_3D ( 'NONE', #148, #929, #836 ) ;
#578 = ADVANCED_BREP_SHAPE_REPRESENTATION ( 'PiÞce1_arbre_DÚfaut_sldprt', ( #380, #724 ), #702 ) ;
#579 = CARTESIAN_POINT ( 'NONE',  ( 5.833310062149575259, 0.8315569663069778406, 78.50000000000000000 ) ) ;
#580 = DIRECTION ( 'NONE',  ( -0.000000000000000000, -0.000000000000000000, 1.000000000000000000 ) ) ;
#581 = DIRECTION ( 'NONE',  ( 0.000000000000000000, -0.000000000000000000, 1.000000000000000000 ) ) ;
#582 = CARTESIAN_POINT ( 'NONE',  ( 0.000000000000000000, 0.000000000000000000, -77.99999999999998579 ) ) ;
#583 = PERSON_AND_ORGANIZATION ( #119, #319 ) ;
#584 = PLANE ( 'NONE',  #106 ) ;
#585 = CARTESIAN_POINT ( 'NONE',  ( 0.000000000000000000, 0.000000000000000000, 42.50000000000000000 ) ) ;
#586 = EDGE_CURVE ( 'NONE', #407, #462, #705, .T. ) ;
#587 = ORIENTED_EDGE ( 'NONE', *, *, #401, .T. ) ;
#588 = ORIENTED_EDGE ( 'NONE', *, *, #623, .F. ) ;
#589 = DIRECTION ( 'NONE',  ( 0.000000000000000000, 0.000000000000000000, -1.000000000000000000 ) ) ;
#590 = CALENDAR_DATE ( 2023, 3, 12 ) ;
#591 = VECTOR ( 'NONE', #24, 1000.000000000000000 ) ;
#592 = CIRCLE ( 'NONE', #900, 5.000000000000000000 ) ;
#593 = DIRECTION ( 'NONE',  ( 0.000000000000000000, 0.000000000000000000, -1.000000000000000000 ) ) ;
#594 = CARTESIAN_POINT ( 'NONE',  ( -4.930366417598831319, 0.8315569663069778406, -77.99999999999998579 ) ) ;
#595 = DIRECTION ( 'NONE',  ( 0.000000000000000000, -0.000000000000000000, 1.000000000000000000 ) ) ;
#596 = FACE_OUTER_BOUND ( 'NONE', #559, .T. ) ;
#597 = CARTESIAN_POINT ( 'NONE',  ( 0.000000000000000000, 0.000000000000000000, -66.50000000000000000 ) ) ;
#598 = CARTESIAN_POINT ( 'NONE',  ( 0.000000000000000000, 0.000000000000000000, -63.00000000000000000 ) ) ;
#599 = VECTOR ( 'NONE', #1020, 1000.000000000000000 ) ;
#600 = ORIENTED_EDGE ( 'NONE', *, *, #314, .F. ) ;
#601 = DIRECTION ( 'NONE',  ( 1.000000000000000000, 0.000000000000000000, 0.000000000000000000 ) ) ;
#602 = VECTOR ( 'NONE', #124, 1000.000000000000000 ) ;
#603 = EDGE_CURVE ( 'NONE', #278, #349, #212, .T. ) ;
#604 = FACE_OUTER_BOUND ( 'NONE', #525, .T. ) ;
#605 = FACE_OUTER_BOUND ( 'NONE', #1118, .T. ) ;
#606 = ORIENTED_EDGE ( 'NONE', *, *, #802, .F. ) ;
#607 = ORIENTED_EDGE ( 'NONE', *, *, #1005, .F. ) ;
#608 = DIRECTION ( 'NONE',  ( -0.7071067811865345831, 8.659560562354775086E-17, 0.7071067811865603403 ) ) ;
#609 = ADVANCED_FACE ( 'NONE', ( #933 ), #1081, .T. ) ;
#610 = VECTOR ( 'NONE', #961, 1000.000000000000000 ) ;
#611 = CIRCLE ( 'NONE', #849, 3.850000000000000089 ) ;
#612 = UNCERTAINTY_MEASURE_WITH_UNIT (LENGTH_MEASURE( 1.000000000000000082E-05 ), #38, 'distance_accuracy_value', 'NONE');
#613 = PLANE ( 'NONE',  #531 ) ;
#614 = ORIENTED_EDGE ( 'NONE', *, *, #872, .F. ) ;
#615 = ORIENTED_EDGE ( 'NONE', *, *, #439, .F. ) ;
#616 = EDGE_CURVE ( 'NONE', #963, #829, #592, .T. ) ;
#617 = DIRECTION ( 'NONE',  ( -0.000000000000000000, -0.000000000000000000, 1.000000000000000000 ) ) ;
#618 = DIRECTION ( 'NONE',  ( 1.000000000000000000, 0.000000000000000000, 0.000000000000000000 ) ) ;
#619 = CONICAL_SURFACE ( 'NONE', #658, 5.000000000000000000, 0.7853981633974300713 ) ;
#620 = ORIENTED_EDGE ( 'NONE', *, *, #1027, .T. ) ;
#621 = CARTESIAN_POINT ( 'NONE',  ( 7.500000000000000000, 0.000000000000000000, 41.99999999999997868 ) ) ;
#622 = DIRECTION ( 'NONE',  ( -0.000000000000000000, -0.000000000000000000, 1.000000000000000000 ) ) ;
#623 = EDGE_CURVE ( 'NONE', #253, #701, #611, .T. ) ;
#624 = EDGE_LOOP ( 'NONE', ( #477, #1033, #864, #606 ) ) ;
#625 = CARTESIAN_POINT ( 'NONE',  ( 5.833310062149575259, 0.8315569663069778406, -78.00000000000000000 ) ) ;
#626 = EDGE_LOOP ( 'NONE', ( #323, #272, #633, #493 ) ) ;
#627 = AXIS2_PLACEMENT_3D ( 'NONE', #300, #999, #208 ) ;
#628 = DIRECTION ( 'NONE',  ( -1.000000000000000000, 0.000000000000000000, 0.000000000000000000 ) ) ;
#629 = CARTESIAN_POINT ( 'NONE',  ( 5.000000000000000000, 0.000000000000000000, 42.50000000000000000 ) ) ;
#630 = ORIENTED_EDGE ( 'NONE', *, *, #564, .F. ) ;
#631 = CARTESIAN_POINT ( 'NONE',  ( 5.833310062149575259, -0.8315569663069778406, -78.00000000000000000 ) ) ;
#632 = DIRECTION ( 'NONE',  ( -0.000000000000000000, 0.000000000000000000, -1.000000000000000000 ) ) ;
#633 = ORIENTED_EDGE ( 'NONE', *, *, #641, .T. ) ;
#634 = PERSON_AND_ORGANIZATION ( #119, #319 ) ;
#635 = ADVANCED_FACE ( 'NONE', ( #596 ), #945, .F. ) ;
#636 = ORIENTED_EDGE ( 'NONE', *, *, #131, .T. ) ;
#637 = CARTESIAN_POINT ( 'NONE',  ( -4.930366417598831319, -0.8315569663069778406, -78.49999999999998579 ) ) ;
#638 = DIRECTION ( 'NONE',  ( 0.7071067811865531239, 0.000000000000000000, 0.7071067811865420216 ) ) ;
#639 = VERTEX_POINT ( 'NONE', #289 ) ;
#640 = CARTESIAN_POINT ( 'NONE',  ( -5.000000000000000000, 6.123233995736766282E-16, 42.50000000000000000 ) ) ;
#641 = EDGE_CURVE ( 'NONE', #397, #639, #355, .T. ) ;
#642 = ORIENTED_EDGE ( 'NONE', *, *, #906, .T. ) ;
#643 = CC_DESIGN_APPROVAL ( #1048, ( #568 ) ) ;
#644 = EDGE_CURVE ( 'NONE', #304, #472, #99, .T. ) ;
#645 = PLANE ( 'NONE',  #577 ) ;
#646 = CARTESIAN_POINT ( 'NONE',  ( 0.000000000000000000, 0.000000000000000000, 78.00000000000000000 ) ) ;
#647 = CIRCLE ( 'NONE', #153, 3.850000000000000089 ) ;
#648 = ORIENTED_EDGE ( 'NONE', *, *, #765, .T. ) ;
#649 = AXIS2_PLACEMENT_3D ( 'NONE', #768, #321, #930 ) ;
#650 = AXIS2_PLACEMENT_3D ( 'NONE', #509, #589, #336 ) ;
#651 = CARTESIAN_POINT ( 'NONE',  ( 0.000000000000000000, 0.000000000000000000, -66.50000000000000000 ) ) ;
#652 = ORIENTED_EDGE ( 'NONE', *, *, #30, .T. ) ;
#653 = DIRECTION ( 'NONE',  ( -0.000000000000000000, -0.000000000000000000, 1.000000000000000000 ) ) ;
#654 = DIRECTION ( 'NONE',  ( 0.000000000000000000, -1.000000000000000000, 0.000000000000000000 ) ) ;
#655 = EDGE_CURVE ( 'NONE', #349, #308, #793, .T. ) ;
#656 = EDGE_LOOP ( 'NONE', ( #329, #228 ) ) ;
#657 = CARTESIAN_POINT ( 'NONE',  ( 0.000000000000000000, 0.000000000000000000, 42.50000000000000000 ) ) ;
#658 = AXIS2_PLACEMENT_3D ( 'NONE', #475, #485, #58 ) ;
#659 = DIRECTION ( 'NONE',  ( 1.000000000000000000, 0.000000000000000000, 0.000000000000000000 ) ) ;
#660 = CARTESIAN_POINT ( 'NONE',  ( 0.000000000000000000, 0.000000000000000000, -78.49999999999998579 ) ) ;
#661 = EDGE_CURVE ( 'NONE', #916, #14, #951, .T. ) ;
#662 = VERTEX_POINT ( 'NONE', #465 ) ;
#663 = DIRECTION ( 'NONE',  ( -0.000000000000000000, -0.000000000000000000, 1.000000000000000000 ) ) ;
#664 = DIRECTION ( 'NONE',  ( 1.000000000000000000, 8.881784197001252323E-15, 0.000000000000000000 ) ) ;
#665 = VERTEX_POINT ( 'NONE', #716 ) ;
#666 = PERSON_AND_ORGANIZATION_ROLE ( 'creator' ) ;
#667 = CIRCLE ( 'NONE', #845, 5.000000000000000000 ) ;
#668 = CARTESIAN_POINT ( 'NONE',  ( 6.999999999999977796, 0.000000000000000000, -42.50000000000000000 ) ) ;
#669 = DIRECTION ( 'NONE',  ( 1.000000000000000000, 0.000000000000000000, 0.000000000000000000 ) ) ;
#670 = VERTEX_POINT ( 'NONE', #637 ) ;
#671 = PERSON_AND_ORGANIZATION ( #119, #319 ) ;
#672 = ADVANCED_FACE ( 'NONE', ( #880 ), #532, .T. ) ;
#673 = AXIS2_PLACEMENT_3D ( 'NONE', #754, #52, #998 ) ;
#674 = LINE ( 'NONE', #257, #599 ) ;
#675 = DIRECTION ( 'NONE',  ( -0.000000000000000000, -0.000000000000000000, 1.000000000000000000 ) ) ;
#676 = VERTEX_POINT ( 'NONE', #270 ) ;
#677 = DIRECTION ( 'NONE',  ( -0.000000000000000000, -0.000000000000000000, 1.000000000000000000 ) ) ;
#678 = AXIS2_PLACEMENT_3D ( 'NONE', #112, #458, #808 ) ;
#679 = DIRECTION ( 'NONE',  ( 0.000000000000000000, 0.000000000000000000, -1.000000000000000000 ) ) ;
#680 = FACE_OUTER_BOUND ( 'NONE', #8, .T. ) ;
#681 = EDGE_CURVE ( 'NONE', #14, #916, #77, .T. ) ;
#682 = VERTEX_POINT ( 'NONE', #372 ) ;
#683 = CYLINDRICAL_SURFACE ( 'NONE', #245, 3.850000000000000089 ) ;
#684 = AXIS2_PLACEMENT_3D ( 'NONE', #356, #189, #868 ) ;
#685 = DIRECTION ( 'NONE',  ( -1.000000000000000000, 0.000000000000000000, 0.000000000000000000 ) ) ;
#686 = DIRECTION ( 'NONE',  ( 0.000000000000000000, 1.000000000000000000, 0.000000000000000000 ) ) ;
#687 = VERTEX_POINT ( 'NONE', #378 ) ;
#688 = EDGE_CURVE ( 'NONE', #829, #1, #104, .T. ) ;
#689 = CARTESIAN_POINT ( 'NONE',  ( 0.000000000000000000, 0.000000000000000000, 66.50000000000000000 ) ) ;
#690 = ORIENTED_EDGE ( 'NONE', *, *, #1027, .F. ) ;
#691 = DIRECTION ( 'NONE',  ( 1.000000000000000000, 0.000000000000000000, 0.000000000000000000 ) ) ;
#692 = CARTESIAN_POINT ( 'NONE',  ( -5.000000000000000000, 6.123233995736766282E-16, 42.50000000000000000 ) ) ;
#693 = AXIS2_PLACEMENT_3D ( 'NONE', #831, #560, #139 ) ;
#694 = EDGE_LOOP ( 'NONE', ( #31, #469, #241, #288 ) ) ;
#695 = ADVANCED_FACE ( 'NONE', ( #449 ), #722, .T. ) ;
#696 = VECTOR ( 'NONE', #947, 1000.000000000000227 ) ;
#697 = CARTESIAN_POINT ( 'NONE',  ( -5.000000000000000000, 6.123233995736766282E-16, 42.50000000000000000 ) ) ;
#698 = ORIENTED_EDGE ( 'NONE', *, *, #571, .F. ) ;
#699 = LINE ( 'NONE', #981, #703 ) ;
#700 = ORIENTED_EDGE ( 'NONE', *, *, #88, .F. ) ;
#701 = VERTEX_POINT ( 'NONE', #197 ) ;
#702 =( GEOMETRIC_REPRESENTATION_CONTEXT ( 3 ) GLOBAL_UNCERTAINTY_ASSIGNED_CONTEXT ( ( #612 ) ) GLOBAL_UNIT_ASSIGNED_CONTEXT ( ( #38, #102, #452 ) ) REPRESENTATION_CONTEXT ( 'NONE', 'WORKASPACE' ) );
#703 = VECTOR ( 'NONE', #202, 1000.000000000000114 ) ;
#704 = AXIS2_PLACEMENT_3D ( 'NONE', #585, #774, #780 ) ;
#705 = CIRCLE ( 'NONE', #1046, 5.000000000000000000 ) ;
#706 = DIRECTION ( 'NONE',  ( 1.000000000000000000, 0.000000000000000000, 0.000000000000000000 ) ) ;
#707 = CARTESIAN_POINT ( 'NONE',  ( 0.000000000000000000, 0.000000000000000000, -63.50000000000000000 ) ) ;
#708 = EDGE_LOOP ( 'NONE', ( #492, #1109, #557, #464 ) ) ;
#709 = EDGE_CURVE ( 'NONE', #317, #488, #771, .T. ) ;
#710 = DIRECTION ( 'NONE',  ( -0.000000000000000000, -0.000000000000000000, 1.000000000000000000 ) ) ;
#711 = DIRECTION ( 'NONE',  ( -0.000000000000000000, -0.000000000000000000, 1.000000000000000000 ) ) ;
#712 = ORIENTED_EDGE ( 'NONE', *, *, #842, .F. ) ;
#713 = DIRECTION ( 'NONE',  ( 1.000000000000000000, 0.000000000000000000, 0.000000000000000000 ) ) ;
#714 = AXIS2_PLACEMENT_3D ( 'NONE', #657, #33, #727 ) ;
#715 = ORIENTED_EDGE ( 'NONE', *, *, #318, .F. ) ;
#716 = CARTESIAN_POINT ( 'NONE',  ( 4.930366417598831319, -0.8315569663069778406, -78.49999999999998579 ) ) ;
#717 = CARTESIAN_POINT ( 'NONE',  ( 0.000000000000000000, 0.000000000000000000, 42.50000000000000000 ) ) ;
#718 = APPROVAL ( #984, 'UNSPECIFIED' ) ;
#719 = ORIENTED_EDGE ( 'NONE', *, *, #952, .F. ) ;
#720 = APPLICATION_PROTOCOL_DEFINITION ( 'international standard', 'config_control_design', 1994, #371 ) ;
#721 = AXIS2_PLACEMENT_3D ( 'NONE', #373, #13, #723 ) ;
#722 = PLANE ( 'NONE',  #133 ) ;
#723 = DIRECTION ( 'NONE',  ( 1.000000000000000000, 0.000000000000000000, 0.000000000000000000 ) ) ;
#724 = AXIS2_PLACEMENT_3D ( 'NONE', #545, #22, #370 ) ;
#725 = ADVANCED_FACE ( 'NONE', ( #188 ), #1049, .T. ) ;
#726 = VERTEX_POINT ( 'NONE', #803 ) ;
#727 = DIRECTION ( 'NONE',  ( 1.000000000000000000, 0.000000000000000000, 0.000000000000000000 ) ) ;
#728 = CARTESIAN_POINT ( 'NONE',  ( 0.000000000000000000, 0.000000000000000000, -63.50000000000000000 ) ) ;
#729 = DIRECTION ( 'NONE',  ( 0.000000000000000000, 0.000000000000000000, -1.000000000000000000 ) ) ;
#730 = ORIENTED_EDGE ( 'NONE', *, *, #332, .T. ) ;
#731 = ADVANCED_FACE ( 'NONE', ( #1066, #283 ), #891, .F. ) ;
#732 = PERSON_AND_ORGANIZATION_ROLE ( 'design_owner' ) ;
#733 = CARTESIAN_POINT ( 'NONE',  ( 7.500000000000000000, 0.000000000000000000, -41.99999999999998579 ) ) ;
#734 = CARTESIAN_POINT ( 'NONE',  ( 0.000000000000000000, 0.000000000000000000, 42.50000000000000000 ) ) ;
#735 = ORIENTED_EDGE ( 'NONE', *, *, #238, .T. ) ;
#736 = PERSON_AND_ORGANIZATION ( #119, #319 ) ;
#737 = EDGE_CURVE ( 'NONE', #49, #64, #193, .T. ) ;
#738 = APPROVAL_PERSON_ORGANIZATION ( #634, #718, #894 ) ;
#739 = DIRECTION ( 'NONE',  ( 1.000000000000000000, 0.000000000000000000, 0.000000000000000000 ) ) ;
#740 = CARTESIAN_POINT ( 'NONE',  ( 0.000000000000000000, 0.000000000000000000, -41.99999999999998579 ) ) ;
#741 = VERTEX_POINT ( 'NONE', #93 ) ;
#742 = VECTOR ( 'NONE', #256, 1000.000000000000000 ) ;
#743 = DIRECTION ( 'NONE',  ( 1.000000000000000000, 0.000000000000000000, 0.000000000000000000 ) ) ;
#744 = EDGE_CURVE ( 'NONE', #64, #49, #565, .T. ) ;
#745 = LINE ( 'NONE', #1079, #818 ) ;
#746 = DIRECTION ( 'NONE',  ( -0.000000000000000000, -0.000000000000000000, 1.000000000000000000 ) ) ;
#747 = ORIENTED_EDGE ( 'NONE', *, *, #709, .F. ) ;
#748 = VECTOR ( 'NONE', #739, 1000.000000000000000 ) ;
#749 = ORIENTED_EDGE ( 'NONE', *, *, #88, .T. ) ;
#750 = LINE ( 'NONE', #1084, #540 ) ;
#751 = CYLINDRICAL_SURFACE ( 'NONE', #919, 5.000000000000000000 ) ;
#752 = ORIENTED_EDGE ( 'NONE', *, *, #360, .F. ) ;
#753 = CC_DESIGN_DATE_AND_TIME_ASSIGNMENT ( #377, #293, ( #182 ) ) ;
#754 = CARTESIAN_POINT ( 'NONE',  ( 0.000000000000000000, 0.000000000000000000, 42.50000000000000000 ) ) ;
#755 = FACE_OUTER_BOUND ( 'NONE', #876, .T. ) ;
#756 = VERTEX_POINT ( 'NONE', #621 ) ;
#757 = CIRCLE ( 'NONE', #409, 5.000000000000000000 ) ;
#758 = EDGE_CURVE ( 'NONE', #109, #304, #327, .T. ) ;
#759 = ORIENTED_EDGE ( 'NONE', *, *, #616, .F. ) ;
#760 = CIRCLE ( 'NONE', #265, 5.000000000000000000 ) ;
#761 = DIRECTION ( 'NONE',  ( -0.000000000000000000, -0.000000000000000000, 1.000000000000000000 ) ) ;
#762 = CARTESIAN_POINT ( 'NONE',  ( 0.000000000000000000, 0.000000000000000000, -78.49999999999998579 ) ) ;
#763 = VERTEX_POINT ( 'NONE', #993 ) ;
#764 = CARTESIAN_POINT ( 'NONE',  ( -5.000000000000000000, 6.123233995736766282E-16, 42.50000000000000000 ) ) ;
#765 = EDGE_CURVE ( 'NONE', #267, #14, #306, .T. ) ;
#766 = AXIS2_PLACEMENT_3D ( 'NONE', #779, #365, #713 ) ;
#767 = DIRECTION ( 'NONE',  ( 1.000000000000000000, 0.000000000000000000, 0.000000000000000000 ) ) ;
#768 = CARTESIAN_POINT ( 'NONE',  ( 0.000000000000000000, 0.000000000000000000, -66.50000000000000000 ) ) ;
#769 = FACE_OUTER_BOUND ( 'NONE', #427, .T. ) ;
#770 = CARTESIAN_POINT ( 'NONE',  ( 0.000000000000000000, 0.000000000000000000, 63.50000000000000000 ) ) ;
#771 = CIRCLE ( 'NONE', #1058, 5.000000000000000000 ) ;
#772 = ADVANCED_FACE ( 'NONE', ( #904, #1074 ), #645, .F. ) ;
#773 = CARTESIAN_POINT ( 'NONE',  ( 0.000000000000000000, 0.000000000000000000, 78.00000000000000000 ) ) ;
#774 = DIRECTION ( 'NONE',  ( -0.000000000000000000, -0.000000000000000000, 1.000000000000000000 ) ) ;
#775 = VERTEX_POINT ( 'NONE', #229 ) ;
#776 = DIRECTION ( 'NONE',  ( 1.000000000000000000, 0.000000000000000000, 0.000000000000000000 ) ) ;
#777 = AXIS2_PLACEMENT_3D ( 'NONE', #740, #832, #113 ) ;
#778 = ORIENTED_EDGE ( 'NONE', *, *, #529, .F. ) ;
#779 = CARTESIAN_POINT ( 'NONE',  ( 0.000000000000000000, 0.000000000000000000, 42.50000000000000000 ) ) ;
#780 = DIRECTION ( 'NONE',  ( 1.000000000000000000, 0.000000000000000000, 0.000000000000000000 ) ) ;
#781 = ADVANCED_FACE ( 'NONE', ( #311 ), #470, .T. ) ;
#782 = ORIENTED_EDGE ( 'NONE', *, *, #366, .F. ) ;
#783 = LINE ( 'NONE', #236, #879 ) ;
#784 = CONICAL_SURFACE ( 'NONE', #127, 4.500000000000031974, 0.7853981633974439491 ) ;
#785 = DIRECTION ( 'NONE',  ( 0.000000000000000000, 0.000000000000000000, -1.000000000000000000 ) ) ;
#786 = CARTESIAN_POINT ( 'NONE',  ( 0.000000000000000000, 0.000000000000000000, 42.50000000000000000 ) ) ;
#787 = DIRECTION ( 'NONE',  ( -0.000000000000000000, -0.000000000000000000, 1.000000000000000000 ) ) ;
#788 = LINE ( 'NONE', #362, #211 ) ;
#789 = ORIENTED_EDGE ( 'NONE', *, *, #238, .F. ) ;
#790 = VECTOR ( 'NONE', #501, 1000.000000000000000 ) ;
#791 = AXIS2_PLACEMENT_3D ( 'NONE', #450, #89, #434 ) ;
#792 = VECTOR ( 'NONE', #677, 1000.000000000000000 ) ;
#793 = LINE ( 'NONE', #367, #801 ) ;
#794 = LINE ( 'NONE', #970, #353 ) ;
#795 = ORIENTED_EDGE ( 'NONE', *, *, #111, .T. ) ;
#796 = EDGE_LOOP ( 'NONE', ( #358, #313 ) ) ;
#797 = CARTESIAN_POINT ( 'NONE',  ( 0.000000000000000000, 0.000000000000000000, 42.50000000000000000 ) ) ;
#798 = CARTESIAN_POINT ( 'NONE',  ( -7.500000000000000000, 9.184850993605147944E-16, -41.99999999999998579 ) ) ;
#799 = AXIS2_PLACEMENT_3D ( 'NONE', #412, #761, #1036 ) ;
#800 = ORIENTED_EDGE ( 'NONE', *, *, #517, .F. ) ;
#801 = VECTOR ( 'NONE', #969, 1000.000000000000000 ) ;
#802 = EDGE_CURVE ( 'NONE', #662, #269, #926, .T. ) ;
#803 = CARTESIAN_POINT ( 'NONE',  ( -4.930366417598831319, -0.8315569663069778406, 78.00000000000000000 ) ) ;
#804 = DIRECTION ( 'NONE',  ( -1.000000000000000000, 0.000000000000000000, 0.000000000000000000 ) ) ;
#805 = ORIENTED_EDGE ( 'NONE', *, *, #586, .T. ) ;
#806 = PERSON_AND_ORGANIZATION ( #119, #319 ) ;
#807 = VECTOR ( 'NONE', #105, 1000.000000000000227 ) ;
#808 = DIRECTION ( 'NONE',  ( 1.000000000000000000, 0.000000000000000000, 0.000000000000000000 ) ) ;
#809 = CARTESIAN_POINT ( 'NONE',  ( 3.850000000000000089, 0.000000000000000000, 66.50000000000000000 ) ) ;
#810 = EDGE_CURVE ( 'NONE', #308, #1038, #911, .T. ) ;
#811 = CIRCLE ( 'NONE', #649, 3.850000000000000089 ) ;
#812 = ORIENTED_EDGE ( 'NONE', *, *, #168, .T. ) ;
#813 = CARTESIAN_POINT ( 'NONE',  ( 0.000000000000000000, 0.000000000000000000, 42.50000000000000000 ) ) ;
#814 = ORIENTED_EDGE ( 'NONE', *, *, #1005, .T. ) ;
#815 = DIRECTION ( 'NONE',  ( 0.000000000000000000, 0.000000000000000000, -1.000000000000000000 ) ) ;
#816 = FACE_OUTER_BOUND ( 'NONE', #178, .T. ) ;
#817 = ORIENTED_EDGE ( 'NONE', *, *, #503, .T. ) ;
#818 = VECTOR ( 'NONE', #653, 1000.000000000000000 ) ;
#819 = CIRCLE ( 'NONE', #21, 5.000000000000000000 ) ;
#820 = DIRECTION ( 'NONE',  ( -0.7071067811865531239, 8.659560562355001884E-17, 0.7071067811865420216 ) ) ;
#821 = FACE_OUTER_BOUND ( 'NONE', #910, .T. ) ;
#822 = VERTEX_POINT ( 'NONE', #144 ) ;
#823 = CARTESIAN_POINT ( 'NONE',  ( 0.000000000000000000, 0.000000000000000000, 42.50000000000000000 ) ) ;
#824 = ADVANCED_FACE ( 'NONE', ( #1002 ), #619, .T. ) ;
#825 = LOCAL_TIME ( 17, 39, 3.000000000000000000, #830 ) ;
#826 = PLANE ( 'NONE',  #436 ) ;
#827 = CARTESIAN_POINT ( 'NONE',  ( 0.000000000000000000, 0.000000000000000000, 42.50000000000000000 ) ) ;
#828 = CIRCLE ( 'NONE', #1094, 3.850000000000000089 ) ;
#829 = VERTEX_POINT ( 'NONE', #40 ) ;
#830 = COORDINATED_UNIVERSAL_TIME_OFFSET ( 1, 0, .AHEAD. ) ;
#831 = CARTESIAN_POINT ( 'NONE',  ( 0.000000000000000000, 0.000000000000000000, 78.50000000000000000 ) ) ;
#832 = DIRECTION ( 'NONE',  ( -0.000000000000000000, -0.000000000000000000, 1.000000000000000000 ) ) ;
#833 = ORIENTED_EDGE ( 'NONE', *, *, #453, .T. ) ;
#834 = AXIS2_PLACEMENT_3D ( 'NONE', #548, #898, #120 ) ;
#835 = AXIS2_PLACEMENT_3D ( 'NONE', #855, #74, #1110 ) ;
#836 = DIRECTION ( 'NONE',  ( 1.000000000000000000, 0.000000000000000000, 0.000000000000000000 ) ) ;
#837 = CARTESIAN_POINT ( 'NONE',  ( 0.000000000000000000, 0.000000000000000000, 42.50000000000000000 ) ) ;
#838 = ADVANCED_FACE ( 'NONE', ( #213 ), #404, .T. ) ;
#839 = EDGE_LOOP ( 'NONE', ( #414, #972, #451, #1099 ) ) ;
#840 = CARTESIAN_POINT ( 'NONE',  ( 5.833310062149575259, -0.8315569663069778406, 78.50000000000000000 ) ) ;
#841 = LINE ( 'NONE', #339, #495 ) ;
#842 = EDGE_CURVE ( 'NONE', #1055, #920, #255, .T. ) ;
#843 = ORIENTED_EDGE ( 'NONE', *, *, #623, .T. ) ;
#844 = AXIS2_PLACEMENT_3D ( 'NONE', #379, #1010, #664 ) ;
#845 = AXIS2_PLACEMENT_3D ( 'NONE', #598, #948, #1120 ) ;
#846 = DIRECTION ( 'NONE',  ( -0.000000000000000000, 0.000000000000000000, -1.000000000000000000 ) ) ;
#847 = VERTEX_POINT ( 'NONE', #668 ) ;
#848 = DATE_AND_TIME ( #590, #210 ) ;
#849 = AXIS2_PLACEMENT_3D ( 'NONE', #73, #1107, #249 ) ;
#850 = CARTESIAN_POINT ( 'NONE',  ( 0.000000000000000000, 0.000000000000000000, 42.50000000000000000 ) ) ;
#851 = FACE_BOUND ( 'NONE', #266, .T. ) ;
#852 = ORIENTED_EDGE ( 'NONE', *, *, #332, .F. ) ;
#853 = DIRECTION ( 'NONE',  ( 1.000000000000000000, 0.000000000000000000, 0.000000000000000000 ) ) ;
#854 = EDGE_CURVE ( 'NONE', #526, #920, #1092, .T. ) ;
#855 = CARTESIAN_POINT ( 'NONE',  ( 0.000000000000000000, 0.000000000000000000, -63.00000000000000000 ) ) ;
#856 = CARTESIAN_POINT ( 'NONE',  ( -4.930366417598831319, -0.8315569663069778406, 78.50000000000000000 ) ) ;
#857 = ORIENTED_EDGE ( 'NONE', *, *, #206, .T. ) ;
#858 = FACE_OUTER_BOUND ( 'NONE', #624, .T. ) ;
#859 = AXIS2_PLACEMENT_3D ( 'NONE', #1053, #985, #207 ) ;
#860 = EDGE_CURVE ( 'NONE', #462, #822, #1015, .T. ) ;
#861 = EDGE_LOOP ( 'NONE', ( #903, #730, #57, #1076, #277, #1047, #123, #538 ) ) ;
#862 = CARTESIAN_POINT ( 'NONE',  ( 0.000000000000000000, 0.000000000000000000, 63.50000000000000000 ) ) ;
#863 = FACE_OUTER_BOUND ( 'NONE', #483, .T. ) ;
#864 = ORIENTED_EDGE ( 'NONE', *, *, #360, .T. ) ;
#865 = FACE_OUTER_BOUND ( 'NONE', #15, .T. ) ;
#866 = AXIS2_PLACEMENT_3D ( 'NONE', #827, #729, #555 ) ;
#867 = CARTESIAN_POINT ( 'NONE',  ( 6.999999999999977796, 8.572527594031444594E-16, 42.50000000000000000 ) ) ;
#868 = DIRECTION ( 'NONE',  ( 1.000000000000000000, 0.000000000000000000, 0.000000000000000000 ) ) ;
#869 = DIRECTION ( 'NONE',  ( -0.000000000000000000, -0.000000000000000000, 1.000000000000000000 ) ) ;
#870 = CIRCLE ( 'NONE', #799, 5.000000000000000000 ) ;
#871 = FACE_OUTER_BOUND ( 'NONE', #839, .T. ) ;
#872 = EDGE_CURVE ( 'NONE', #402, #54, #128, .T. ) ;
#873 = ORIENTED_EDGE ( 'NONE', *, *, #944, .T. ) ;
#874 = CARTESIAN_POINT ( 'NONE',  ( 0.000000000000000000, 0.000000000000000000, 78.50000000000000000 ) ) ;
#875 = CARTESIAN_POINT ( 'NONE',  ( 4.930366417598831319, 0.8315569663069778406, 78.50000000000000000 ) ) ;
#876 = EDGE_LOOP ( 'NONE', ( #833, #607, #534, #576 ) ) ;
#877 = AXIS2_PLACEMENT_3D ( 'NONE', #924, #580, #63 ) ;
#878 = VECTOR ( 'NONE', #638, 999.9999999999998863 ) ;
#879 = VECTOR ( 'NONE', #496, 1000.000000000000000 ) ;
#880 = FACE_OUTER_BOUND ( 'NONE', #694, .T. ) ;
#881 = DIRECTION ( 'NONE',  ( 1.000000000000000000, -1.421085471520200372E-14, 0.000000000000000000 ) ) ;
#882 = ORIENTED_EDGE ( 'NONE', *, *, #79, .T. ) ;
#883 = CARTESIAN_POINT ( 'NONE',  ( 0.000000000000000000, 0.000000000000000000, 66.50000000000000000 ) ) ;
#884 = DIRECTION ( 'NONE',  ( 0.000000000000000000, 0.000000000000000000, -1.000000000000000000 ) ) ;
#885 = CYLINDRICAL_SURFACE ( 'NONE', #26, 5.000000000000000000 ) ;
#886 = VECTOR ( 'NONE', #315, 1000.000000000000000 ) ;
#887 = ORIENTED_EDGE ( 'NONE', *, *, #641, .F. ) ;
#888 = ORIENTED_EDGE ( 'NONE', *, *, #860, .F. ) ;
#889 = COORDINATED_UNIVERSAL_TIME_OFFSET ( 1, 0, .AHEAD. ) ;
#890 = EDGE_CURVE ( 'NONE', #267, #847, #72, .T. ) ;
#891 = PLANE ( 'NONE',  #678 ) ;
#892 = CARTESIAN_POINT ( 'NONE',  ( 5.000000000000000000, 0.000000000000000000, 63.00000000000002842 ) ) ;
#893 = ORIENTED_EDGE ( 'NONE', *, *, #952, .T. ) ;
#894 = APPROVAL_ROLE ( '' ) ;
#895 = APPROVAL_PERSON_ORGANIZATION ( #200, #430, #386 ) ;
#896 = CIRCLE ( 'NONE', #959, 5.000000000000000000 ) ;
#897 = AXIS2_PLACEMENT_3D ( 'NONE', #240, #513, #935 ) ;
#898 = DIRECTION ( 'NONE',  ( -0.000000000000000000, 0.000000000000000000, -1.000000000000000000 ) ) ;
#899 = DIRECTION ( 'NONE',  ( 1.000000000000000000, -0.000000000000000000, -0.000000000000000000 ) ) ;
#900 = AXIS2_PLACEMENT_3D ( 'NONE', #689, #261, #853 ) ;
#901 = VERTEX_POINT ( 'NONE', #34 ) ;
#902 = DIRECTION ( 'NONE',  ( 1.000000000000000000, 0.000000000000000000, 0.000000000000000000 ) ) ;
#903 = ORIENTED_EDGE ( 'NONE', *, *, #603, .F. ) ;
#904 = FACE_BOUND ( 'NONE', #291, .T. ) ;
#905 = DIRECTION ( 'NONE',  ( -0.000000000000000000, -0.000000000000000000, 1.000000000000000000 ) ) ;
#906 = EDGE_CURVE ( 'NONE', #901, #54, #745, .T. ) ;
#907 = ORIENTED_EDGE ( 'NONE', *, *, #890, .F. ) ;
#908 = CIRCLE ( 'NONE', #964, 7.500000000000000000 ) ;
#909 = CIRCLE ( 'NONE', #237, 6.999999999999977796 ) ;
#910 = EDGE_LOOP ( 'NONE', ( #642, #614, #180, #620 ) ) ;
#911 = LINE ( 'NONE', #388, #886 ) ;
#912 = DIRECTION ( 'NONE',  ( 1.000000000000000000, 0.000000000000000000, 0.000000000000000000 ) ) ;
#913 = AXIS2_PLACEMENT_3D ( 'NONE', #728, #1070, #295 ) ;
#914 = EDGE_LOOP ( 'NONE', ( #192, #759 ) ) ;
#915 = CC_DESIGN_PERSON_AND_ORGANIZATION_ASSIGNMENT ( #736, #732, ( #468 ) ) ;
#916 = VERTEX_POINT ( 'NONE', #733 ) ;
#917 = DIRECTION ( 'NONE',  ( 0.000000000000000000, -0.000000000000000000, 1.000000000000000000 ) ) ;
#918 = DIRECTION ( 'NONE',  ( -0.000000000000000000, -0.000000000000000000, 1.000000000000000000 ) ) ;
#919 = AXIS2_PLACEMENT_3D ( 'NONE', #471, #29, #296 ) ;
#920 = VERTEX_POINT ( 'NONE', #218 ) ;
#921 = APPROVAL_STATUS ( 'not_yet_approved' ) ;
#922 = ADVANCED_FACE ( 'NONE', ( #134 ), #826, .F. ) ;
#923 = CARTESIAN_POINT ( 'NONE',  ( -7.500000000000000000, 9.184850993605147944E-16, -41.99999999999998579 ) ) ;
#924 = CARTESIAN_POINT ( 'NONE',  ( 0.000000000000000000, 0.000000000000000000, 63.50000000000000000 ) ) ;
#925 = ORIENTED_EDGE ( 'NONE', *, *, #971, .F. ) ;
#926 = CIRCLE ( 'NONE', #364, 3.850000000000000089 ) ;
#927 = ORIENTED_EDGE ( 'NONE', *, *, #854, .F. ) ;
#928 = EDGE_CURVE ( 'NONE', #402, #687, #750, .T. ) ;
#929 = DIRECTION ( 'NONE',  ( 0.000000000000000000, -0.000000000000000000, 1.000000000000000000 ) ) ;
#930 = DIRECTION ( 'NONE',  ( 1.000000000000000000, 0.000000000000000000, 0.000000000000000000 ) ) ;
#931 = EDGE_CURVE ( 'NONE', #304, #665, #566, .T. ) ;
#932 = FACE_OUTER_BOUND ( 'NONE', #50, .T. ) ;
#933 = FACE_OUTER_BOUND ( 'NONE', #626, .T. ) ;
#934 = CARTESIAN_POINT ( 'NONE',  ( -5.000000000000000000, 6.123233995736766282E-16, 78.00000000000000000 ) ) ;
#935 = DIRECTION ( 'NONE',  ( 1.000000000000000000, 0.000000000000000000, 0.000000000000000000 ) ) ;
#936 = CIRCLE ( 'NONE', #844, 5.000000000000000000 ) ;
#937 = ORIENTED_EDGE ( 'NONE', *, *, #1113, .F. ) ;
#938 = EDGE_CURVE ( 'NONE', #829, #963, #870, .T. ) ;
#939 = CARTESIAN_POINT ( 'NONE',  ( -3.850000000000000089, 4.714890176717309515E-16, -66.50000000000000000 ) ) ;
#940 = PERSON_AND_ORGANIZATION ( #119, #319 ) ;
#941 = CARTESIAN_POINT ( 'NONE',  ( -4.500000000000031974, 0.000000000000000000, 63.50000000000000000 ) ) ;
#942 = CARTESIAN_POINT ( 'NONE',  ( -6.999999999999977796, 0.000000000000000000, 42.50000000000000000 ) ) ;
#943 = CARTESIAN_POINT ( 'NONE',  ( 0.000000000000000000, 0.000000000000000000, -78.50000000000000000 ) ) ;
#944 = EDGE_CURVE ( 'NONE', #1072, #520, #1124, .T. ) ;
#945 = PLANE ( 'NONE',  #357 ) ;
#946 = VECTOR ( 'NONE', #251, 1000.000000000000000 ) ;
#947 = DIRECTION ( 'NONE',  ( -0.7071067811865444641, 0.000000000000000000, -0.7071067811865505703 ) ) ;
#948 = DIRECTION ( 'NONE',  ( -0.000000000000000000, -0.000000000000000000, 1.000000000000000000 ) ) ;
#949 = EDGE_LOOP ( 'NONE', ( #344, #996 ) ) ;
#950 = CARTESIAN_POINT ( 'NONE',  ( 5.833310062149575259, -0.8315569663069778406, -78.50000000000000000 ) ) ;
#951 = CIRCLE ( 'NONE', #259, 7.500000000000000000 ) ;
#952 = EDGE_CURVE ( 'NONE', #726, #953, #1069, .T. ) ;
#953 = VERTEX_POINT ( 'NONE', #934 ) ;
#954 = CYLINDRICAL_SURFACE ( 'NONE', #186, 3.850000000000000089 ) ;
#955 = CARTESIAN_POINT ( 'NONE',  ( 0.000000000000000000, 0.000000000000000000, -66.50000000000000000 ) ) ;
#956 = ORIENTED_EDGE ( 'NONE', *, *, #467, .F. ) ;
#957 = LOCAL_TIME ( 17, 39, 3.000000000000000000, #298 ) ;
#958 = DIRECTION ( 'NONE',  ( 0.000000000000000000, -0.000000000000000000, 1.000000000000000000 ) ) ;
#959 = AXIS2_PLACEMENT_3D ( 'NONE', #271, #632, #881 ) ;
#960 = ADVANCED_FACE ( 'NONE', ( #418 ), #784, .T. ) ;
#961 = DIRECTION ( 'NONE',  ( -0.000000000000000000, -0.000000000000000000, 1.000000000000000000 ) ) ;
#962 = ORIENTED_EDGE ( 'NONE', *, *, #928, .F. ) ;
#963 = VERTEX_POINT ( 'NONE', #1104 ) ;
#964 = AXIS2_PLACEMENT_3D ( 'NONE', #433, #785, #767 ) ;
#965 = ADVANCED_FACE ( 'NONE', ( #62 ), #974, .T. ) ;
#966 = DIRECTION ( 'NONE',  ( 0.000000000000000000, -0.000000000000000000, 1.000000000000000000 ) ) ;
#967 = CARTESIAN_POINT ( 'NONE',  ( 5.000000000000000000, 0.000000000000000000, -77.99999999999998579 ) ) ;
#968 = EDGE_LOOP ( 'NONE', ( #800, #60, #795, #615 ) ) ;
#969 = DIRECTION ( 'NONE',  ( 0.000000000000000000, 0.000000000000000000, -1.000000000000000000 ) ) ;
#970 = CARTESIAN_POINT ( 'NONE',  ( -3.850000000000000089, 4.714890176717309515E-16, 42.50000000000000000 ) ) ;
#971 = EDGE_CURVE ( 'NONE', #260, #96, #1031, .T. ) ;
#972 = ORIENTED_EDGE ( 'NONE', *, *, #546, .T. ) ;
#973 = CONICAL_SURFACE ( 'NONE', #777, 7.500000000000000000, 0.7853981633974560506 ) ;
#974 = CYLINDRICAL_SURFACE ( 'NONE', #766, 3.850000000000000089 ) ;
#975 = DIRECTION ( 'NONE',  ( 1.000000000000000000, 0.000000000000000000, 0.000000000000000000 ) ) ;
#976 = CARTESIAN_POINT ( 'NONE',  ( 0.000000000000000000, 0.000000000000000000, 78.00000000000000000 ) ) ;
#977 = VERTEX_POINT ( 'NONE', #1119 ) ;
#978 = EDGE_CURVE ( 'NONE', #756, #639, #908, .T. ) ;
#979 = APPLICATION_PROTOCOL_DEFINITION ( 'international standard', 'config_control_design', 1994, #1117 ) ;
#980 = CARTESIAN_POINT ( 'NONE',  ( 0.000000000000000000, 0.000000000000000000, -41.99999999999998579 ) ) ;
#981 = CARTESIAN_POINT ( 'NONE',  ( 5.000000000000000000, 0.000000000000000000, -63.00000000000000000 ) ) ;
#982 = VECTOR ( 'NONE', #663, 1000.000000000000000 ) ;
#983 = EDGE_LOOP ( 'NONE', ( #927, #440, #216, #1051 ) ) ;
#984 = APPROVAL_STATUS ( 'not_yet_approved' ) ;
#985 = DIRECTION ( 'NONE',  ( 0.000000000000000000, 0.000000000000000000, -1.000000000000000000 ) ) ;
#986 = CARTESIAN_POINT ( 'NONE',  ( 4.930366417598831319, -0.8315569663069778406, -77.99999999999998579 ) ) ;
#987 = ORIENTED_EDGE ( 'NONE', *, *, #688, .T. ) ;
#988 = APPROVAL_STATUS ( 'not_yet_approved' ) ;
#989 = CC_DESIGN_APPROVAL ( #430, ( #182 ) ) ;
#990 = CIRCLE ( 'NONE', #721, 6.999999999999977796 ) ;
#991 = ORIENTED_EDGE ( 'NONE', *, *, #1052, .T. ) ;
#992 = EDGE_CURVE ( 'NONE', #741, #756, #154, .T. ) ;
#993 = CARTESIAN_POINT ( 'NONE',  ( -5.000000000000000000, 6.123233995736766282E-16, -42.50000000000000000 ) ) ;
#994 = CARTESIAN_POINT ( 'NONE',  ( 0.000000000000000000, 0.000000000000000000, 42.50000000000000000 ) ) ;
#995 = AXIS2_PLACEMENT_3D ( 'NONE', #1030, #330, #601 ) ;
#996 = ORIENTED_EDGE ( 'NONE', *, *, #571, .T. ) ;
#997 = DIRECTION ( 'NONE',  ( -0.000000000000000000, -0.000000000000000000, 1.000000000000000000 ) ) ;
#998 = DIRECTION ( 'NONE',  ( 1.000000000000000000, 0.000000000000000000, 0.000000000000000000 ) ) ;
#999 = DIRECTION ( 'NONE',  ( 0.000000000000000000, 0.000000000000000000, -1.000000000000000000 ) ) ;
#1000 = ORIENTED_EDGE ( 'NONE', *, *, #1122, .F. ) ;
#1001 = CALENDAR_DATE ( 2023, 3, 12 ) ;
#1002 = FACE_OUTER_BOUND ( 'NONE', #376, .T. ) ;
#1003 = CARTESIAN_POINT ( 'NONE',  ( 3.850000000000000089, 0.000000000000000000, 63.50000000000000000 ) ) ;
#1004 = ORIENTED_EDGE ( 'NONE', *, *, #122, .T. ) ;
#1005 = EDGE_CURVE ( 'NONE', #462, #407, #490, .T. ) ;
#1006 = EDGE_LOOP ( 'NONE', ( #782, #530, #1012, #502 ) ) ;
#1007 = CC_DESIGN_SECURITY_CLASSIFICATION ( #568, ( #547 ) ) ;
#1008 = VECTOR ( 'NONE', #675, 1000.000000000000000 ) ;
#1009 = DIRECTION ( 'NONE',  ( 0.000000000000000000, 0.000000000000000000, -1.000000000000000000 ) ) ;
#1010 = DIRECTION ( 'NONE',  ( -0.000000000000000000, 0.000000000000000000, -1.000000000000000000 ) ) ;
#1011 = CIRCLE ( 'NONE', #627, 5.000000000000000000 ) ;
#1012 = ORIENTED_EDGE ( 'NONE', *, *, #971, .T. ) ;
#1013 = CIRCLE ( 'NONE', #1065, 5.000000000000000000 ) ;
#1014 = ADVANCED_FACE ( 'NONE', ( #170 ), #1125, .F. ) ;
#1015 = LINE ( 'NONE', #233, #166 ) ;
#1016 = DIRECTION ( 'NONE',  ( 1.000000000000000000, 0.000000000000000000, 0.000000000000000000 ) ) ;
#1017 = ORIENTED_EDGE ( 'NONE', *, *, #37, .F. ) ;
#1018 = CARTESIAN_POINT ( 'NONE',  ( 4.500000000000031974, 5.817072295949947147E-16, 63.50000000000000000 ) ) ;
#1019 = APPROVAL_DATE_TIME ( #1108, #1048 ) ;
#1020 = DIRECTION ( 'NONE',  ( 1.000000000000000000, 0.000000000000000000, 0.000000000000000000 ) ) ;
#1021 = FACE_OUTER_BOUND ( 'NONE', #158, .T. ) ;
#1022 = ORIENTED_EDGE ( 'NONE', *, *, #938, .T. ) ;
#1023 = AXIS2_PLACEMENT_3D ( 'NONE', #1059, #617, #4 ) ;
#1024 = DIRECTION ( 'NONE',  ( 1.000000000000000000, 0.000000000000000000, 0.000000000000000000 ) ) ;
#1025 = LINE ( 'NONE', #941, #696 ) ;
#1026 = DIRECTION ( 'NONE',  ( 1.000000000000000000, 0.000000000000000000, 0.000000000000000000 ) ) ;
#1027 = EDGE_CURVE ( 'NONE', #687, #901, #674, .T. ) ;
#1028 = AXIS2_PLACEMENT_3D ( 'NONE', #660, #746, #48 ) ;
#1029 = DIRECTION ( 'NONE',  ( 1.000000000000000000, 0.000000000000000000, 0.000000000000000000 ) ) ;
#1030 = CARTESIAN_POINT ( 'NONE',  ( 0.000000000000000000, 0.000000000000000000, 42.50000000000000000 ) ) ;
#1031 = LINE ( 'NONE', #80, #507 ) ;
#1032 = DIRECTION ( 'NONE',  ( 0.000000000000000000, -0.000000000000000000, 1.000000000000000000 ) ) ;
#1033 = ORIENTED_EDGE ( 'NONE', *, *, #268, .T. ) ;
#1034 = CARTESIAN_POINT ( 'NONE',  ( 0.000000000000000000, 0.000000000000000000, 42.50000000000000000 ) ) ;
#1035 = ORIENTED_EDGE ( 'NONE', *, *, #872, .T. ) ;
#1036 = DIRECTION ( 'NONE',  ( 1.000000000000000000, 0.000000000000000000, 0.000000000000000000 ) ) ;
#1037 = DIRECTION ( 'NONE',  ( 1.000000000000000000, 0.000000000000000000, -0.000000000000000000 ) ) ;
#1038 = VERTEX_POINT ( 'NONE', #500 ) ;
#1039 = DIRECTION ( 'NONE',  ( -0.000000000000000000, -0.000000000000000000, 1.000000000000000000 ) ) ;
#1040 = ADVANCED_FACE ( 'NONE', ( #512, #239 ), #584, .T. ) ;
#1041 = ORIENTED_EDGE ( 'NONE', *, *, #842, .T. ) ;
#1042 = FACE_OUTER_BOUND ( 'NONE', #968, .T. ) ;
#1043 = ORIENTED_EDGE ( 'NONE', *, *, #523, .F. ) ;
#1044 = AXIS2_PLACEMENT_3D ( 'NONE', #734, #905, #1085 ) ;
#1045 = ADVANCED_FACE ( 'NONE', ( #604 ), #954, .T. ) ;
#1046 = AXIS2_PLACEMENT_3D ( 'NONE', #515, #1039, #1024 ) ;
#1047 = ORIENTED_EDGE ( 'NONE', *, *, #79, .F. ) ;
#1048 = APPROVAL ( #921, 'UNSPECIFIED' ) ;
#1049 = CYLINDRICAL_SURFACE ( 'NONE', #279, 5.000000000000000000 ) ;
#1050 = CARTESIAN_POINT ( 'NONE',  ( 0.000000000000000000, 0.000000000000000000, 63.00000000000002842 ) ) ;
#1051 = ORIENTED_EDGE ( 'NONE', *, *, #168, .F. ) ;
#1052 = EDGE_CURVE ( 'NONE', #1072, #682, #1025, .T. ) ;
#1053 = CARTESIAN_POINT ( 'NONE',  ( 0.000000000000000000, 0.000000000000000000, -63.50000000000000000 ) ) ;
#1054 = LINE ( 'NONE', #455, #807 ) ;
#1055 = VERTEX_POINT ( 'NONE', #163 ) ;
#1056 = VERTEX_POINT ( 'NONE', #505 ) ;
#1057 = DIRECTION ( 'NONE',  ( 0.000000000000000000, 0.000000000000000000, -1.000000000000000000 ) ) ;
#1058 = AXIS2_PLACEMENT_3D ( 'NONE', #797, #542, #274 ) ;
#1059 = CARTESIAN_POINT ( 'NONE',  ( 0.000000000000000000, 0.000000000000000000, -41.99999999999998579 ) ) ;
#1060 = LINE ( 'NONE', #629, #610 ) ;
#1061 = EDGE_CURVE ( 'NONE', #260, #286, #203, .T. ) ;
#1062 = ORIENTED_EDGE ( 'NONE', *, *, #453, .F. ) ;
#1063 = CIRCLE ( 'NONE', #262, 5.000000000000000000 ) ;
#1064 = MECHANICAL_CONTEXT ( 'NONE', #371, 'mechanical' ) ;
#1065 = AXIS2_PLACEMENT_3D ( 'NONE', #145, #1105, #429 ) ;
#1066 = FACE_OUTER_BOUND ( 'NONE', #563, .T. ) ;
#1067 = DIRECTION ( 'NONE',  ( 1.000000000000000000, 0.000000000000000000, 0.000000000000000000 ) ) ;
#1068 = ORIENTED_EDGE ( 'NONE', *, *, #510, .T. ) ;
#1069 = CIRCLE ( 'NONE', #147, 5.000000000000000000 ) ;
#1070 = DIRECTION ( 'NONE',  ( 0.000000000000000000, 0.000000000000000000, -1.000000000000000000 ) ) ;
#1071 = CARTESIAN_POINT ( 'NONE',  ( -5.000000000000000000, 6.123233995736766282E-16, -77.99999999999998579 ) ) ;
#1072 = VERTEX_POINT ( 'NONE', #423 ) ;
#1073 = EDGE_CURVE ( 'NONE', #741, #397, #909, .T. ) ;
#1074 = FACE_OUTER_BOUND ( 'NONE', #914, .T. ) ;
#1075 = CARTESIAN_POINT ( 'NONE',  ( 0.000000000000000000, 0.000000000000000000, -42.50000000000000000 ) ) ;
#1076 = ORIENTED_EDGE ( 'NONE', *, *, #30, .F. ) ;
#1077 = AXIS2_PLACEMENT_3D ( 'NONE', #717, #284, #1067 ) ;
#1078 = AXIS2_PLACEMENT_3D ( 'NONE', #955, #152, #173 ) ;
#1079 = CARTESIAN_POINT ( 'NONE',  ( 4.930366417598831319, 0.8315569663069778406, 42.50000000000000000 ) ) ;
#1080 = PLANE ( 'NONE',  #1112 ) ;
#1081 = CONICAL_SURFACE ( 'NONE', #650, 6.999999999999977796, 0.7853981633974491672 ) ;
#1082 = ORIENTED_EDGE ( 'NONE', *, *, #681, .F. ) ;
#1083 = DIRECTION ( 'NONE',  ( 1.000000000000000000, 0.000000000000000000, 0.000000000000000000 ) ) ;
#1084 = CARTESIAN_POINT ( 'NONE',  ( -4.930366417598831319, 0.8315569663069778406, 42.50000000000000000 ) ) ;
#1085 = DIRECTION ( 'NONE',  ( 1.000000000000000000, 0.000000000000000000, 0.000000000000000000 ) ) ;
#1086 = ORIENTED_EDGE ( 'NONE', *, *, #931, .F. ) ;
#1087 = AXIS2_PLACEMENT_3D ( 'NONE', #625, #325, #69 ) ;
#1088 = DIRECTION ( 'NONE',  ( -0.000000000000000000, -0.000000000000000000, 1.000000000000000000 ) ) ;
#1089 = LINE ( 'NONE', #41, #878 ) ;
#1090 = ADVANCED_FACE ( 'NONE', ( #541 ), #392, .T. ) ;
#1091 = ORIENTED_EDGE ( 'NONE', *, *, #523, .T. ) ;
#1092 = LINE ( 'NONE', #383, #982 ) ;
#1093 = CARTESIAN_POINT ( 'NONE',  ( 4.930366417598831319, -0.8315569663069778406, 78.50000000000000000 ) ) ;
#1094 = AXIS2_PLACEMENT_3D ( 'NONE', #707, #94, #444 ) ;
#1095 = ORIENTED_EDGE ( 'NONE', *, *, #744, .T. ) ;
#1096 = ORIENTED_EDGE ( 'NONE', *, *, #802, .T. ) ;
#1097 = DIRECTION ( 'NONE',  ( 0.7071067811865482389, 8.659560562354941486E-17, -0.7071067811865469066 ) ) ;
#1098 = CYLINDRICAL_SURFACE ( 'NONE', #704, 3.850000000000000089 ) ;
#1099 = ORIENTED_EDGE ( 'NONE', *, *, #644, .F. ) ;
#1100 = CYLINDRICAL_SURFACE ( 'NONE', #995, 5.000000000000000000 ) ;
#1101 = PERSON_AND_ORGANIZATION ( #119, #319 ) ;
#1102 = EDGE_CURVE ( 'NONE', #269, #662, #187, .T. ) ;
#1103 = AXIS2_PLACEMENT_3D ( 'NONE', #823, #553, #1083 ) ;
#1104 = CARTESIAN_POINT ( 'NONE',  ( -5.000000000000000000, 6.123233995736766282E-16, 66.50000000000000000 ) ) ;
#1105 = DIRECTION ( 'NONE',  ( -0.000000000000000000, -0.000000000000000000, 1.000000000000000000 ) ) ;
#1106 = CARTESIAN_POINT ( 'NONE',  ( 0.000000000000000000, 0.000000000000000000, -63.50000000000000000 ) ) ;
#1107 = DIRECTION ( 'NONE',  ( -0.000000000000000000, -0.000000000000000000, 1.000000000000000000 ) ) ;
#1108 = DATE_AND_TIME ( #142, #825 ) ;
#1109 = ORIENTED_EDGE ( 'NONE', *, *, #66, .T. ) ;
#1110 = DIRECTION ( 'NONE',  ( 1.000000000000000000, 0.000000000000000000, 0.000000000000000000 ) ) ;
#1111 = CARTESIAN_POINT ( 'NONE',  ( -4.930366417598831319, 0.8315569663069778406, 78.50000000000000000 ) ) ;
#1112 = AXIS2_PLACEMENT_3D ( 'NONE', #307, #654, #219 ) ;
#1113 = EDGE_CURVE ( 'NONE', #963, #953, #132, .T. ) ;
#1114 = AXIS2_PLACEMENT_3D ( 'NONE', #1106, #581, #1029 ) ;
#1115 = EDGE_LOOP ( 'NONE', ( #1041, #812 ) ) ;
#1116 = CARTESIAN_POINT ( 'NONE',  ( 0.000000000000000000, 0.000000000000000000, 78.00000000000000000 ) ) ;
#1117 = APPLICATION_CONTEXT ( 'configuration controlled 3d designs of mechanical parts and assemblies' ) ;
#1118 = EDGE_LOOP ( 'NONE', ( #185, #146, #735, #301, #175, #573 ) ) ;
#1119 = CARTESIAN_POINT ( 'NONE',  ( -5.000000000000000000, 6.123233995736766282E-16, -66.50000000000000000 ) ) ;
#1120 = DIRECTION ( 'NONE',  ( 1.000000000000000000, 0.000000000000000000, 0.000000000000000000 ) ) ;
#1121 = EDGE_LOOP ( 'NONE', ( #42, #385, #882, #789 ) ) ;
#1122 = EDGE_CURVE ( 'NONE', #488, #317, #108, .T. ) ;
#1123 = LINE ( 'NONE', #764, #792 ) ;
#1124 = CIRCLE ( 'NONE', #55, 4.500000000000031974 ) ;
#1125 = PLANE ( 'NONE',  #1087 ) ;
#1126 = CARTESIAN_POINT ( 'NONE',  ( 4.930366417598831319, 0.8315569663069778406, 42.50000000000000000 ) ) ;
#1127 = EDGE_CURVE ( 'NONE', #775, #977, #819, .T. ) ;
ENDSEC;
END-ISO-10303-21;
