ISO-10303-21;
HEADER;
FILE_DESCRIPTION (( 'STEP AP203' ),
    '1' );
FILE_NAME ('Pièce5_RaccordCardon_Défaut_sldprt.STEP',
    '2023-12-03T16:39:24',
    ( 'LIA INFO' ),
    ( '' ),
    'SwSTEP 2.0',
    'SolidWorks 2022',
    '' );
FILE_SCHEMA (( 'CONFIG_CONTROL_DESIGN' ));
ENDSEC;

DATA;
#1 = DIRECTION ( 'NONE',  ( 0.000000000000000000, 0.000000000000000000, 1.000000000000000000 ) ) ;
#2 = CIRCLE ( 'NONE', #212, 6.000000000000000888 ) ;
#3 = CC_DESIGN_DATE_AND_TIME_ASSIGNMENT ( #114, #79, ( #39 ) ) ;
#4 = PERSON_AND_ORGANIZATION_ROLE ( 'classification_officer' ) ;
#5 = CIRCLE ( 'NONE', #10, 3.000000000000000444 ) ;
#6 = FACE_OUTER_BOUND ( 'NONE', #57, .T. ) ;
#7 = PERSON_AND_ORGANIZATION ( #257, #90 ) ;
#8 = ADVANCED_FACE ( 'NONE', ( #6, #147 ), #405, .T. ) ;
#9 = COORDINATED_UNIVERSAL_TIME_OFFSET ( 1, 0, .AHEAD. ) ;
#10 = AXIS2_PLACEMENT_3D ( 'NONE', #228, #349, #49 ) ;
#11 = ADVANCED_FACE ( 'NONE', ( #220 ), #438, .T. ) ;
#12 = CARTESIAN_POINT ( 'NONE',  ( -0.7989248838730164115, 2.893196282169685496, 8.384793181692167252 ) ) ;
#13 = AXIS2_PLACEMENT_3D ( 'NONE', #19, #160, #315 ) ;
#14 = DIRECTION ( 'NONE',  ( 0.000000000000000000, -1.000000000000000000, 0.000000000000000000 ) ) ;
#15 = B_SPLINE_CURVE_WITH_KNOTS ( 'NONE', 3,
 ( #119, #193, #183, #105, #248, #202, #421, #287, #28, #96, #424, #293, #171, #382, #61, #164, #430, #108 ),
 .UNSPECIFIED., .F., .F.,
 ( 4, 2, 2, 2, 2, 2, 2, 2, 4 ),
 ( 0.003149157204913743176, 0.003542701630937583526, 0.003936246056961423441, 0.004329790482985263790, 0.004723334909009104139, 0.005116879335032943621, 0.005510423761056783970, 0.005903968187080624319, 0.006297512613104464668 ),
 .UNSPECIFIED. ) ;
#16 = DIRECTION ( 'NONE',  ( -1.000000000000000000, 0.000000000000000000, 0.000000000000000000 ) ) ;
#17 = CARTESIAN_POINT ( 'NONE',  ( 1.500000000000000222, 1.836970198721030181E-16, 5.000000000000000000 ) ) ;
#18 = EDGE_CURVE ( 'NONE', #291, #139, #72, .T. ) ;
#19 = CARTESIAN_POINT ( 'NONE',  ( 0.000000000000000000, 0.000000000000000000, 11.00000000000000000 ) ) ;
#20 = CARTESIAN_POINT ( 'NONE',  ( 1.578031511427397118E-15, -3.000000000000000444, 7.999999999999998224 ) ) ;
#21 = CARTESIAN_POINT ( 'NONE',  ( 3.000000000000000444, 3.673940397442060361E-16, 6.000000000000000000 ) ) ;
#22 = VECTOR ( 'NONE', #34, 1000.000000000000000 ) ;
#23 = ORIENTED_EDGE ( 'NONE', *, *, #348, .T. ) ;
#24 = MECHANICAL_CONTEXT ( 'NONE', #433, 'mechanical' ) ;
#25 = ORIENTED_EDGE ( 'NONE', *, *, #337, .T. ) ;
#26 = CARTESIAN_POINT ( 'NONE',  ( 0.000000000000000000, 0.000000000000000000, 6.000000000000000000 ) ) ;
#27 = DIRECTION ( 'NONE',  ( 0.000000000000000000, -1.000000000000000000, 0.000000000000000000 ) ) ;
#28 = CARTESIAN_POINT ( 'NONE',  ( 1.000015691822938813, 2.828421576849029950, 9.131670952813827569 ) ) ;
#29 = LOCAL_TIME ( 17, 39, 24.00000000000000000, #261 ) ;
#30 = VERTEX_POINT ( 'NONE', #431 ) ;
#31 =( LENGTH_UNIT ( ) NAMED_UNIT ( * ) SI_UNIT ( .MILLI., .METRE. ) );
#32 = EDGE_CURVE ( 'NONE', #51, #401, #82, .T. ) ;
#33 = CARTESIAN_POINT ( 'NONE',  ( 0.5056087024404416486, -2.959598800735079749, 8.127348779231828857 ) ) ;
#34 = DIRECTION ( 'NONE',  ( -0.000000000000000000, -0.000000000000000000, -1.000000000000000000 ) ) ;
#35 = APPLICATION_PROTOCOL_DEFINITION ( 'international standard', 'config_control_design', 1994, #433 ) ;
#36 = CARTESIAN_POINT ( 'NONE',  ( 1.423464049739828666E-15, -3.000000000000000444, 10.00000000000000000 ) ) ;
#37 = DIRECTION ( 'NONE',  ( 0.000000000000000000, 0.000000000000000000, 1.000000000000000000 ) ) ;
#38 = PERSON_AND_ORGANIZATION ( #257, #90 ) ;
#39 = PRODUCT_DEFINITION ( 'UNKNOWN', '', #67, #77 ) ;
#40 = PERSON_AND_ORGANIZATION_ROLE ( 'design_owner' ) ;
#41 = EDGE_LOOP ( 'NONE', ( #185, #88 ) ) ;
#42 = PERSON_AND_ORGANIZATION_ROLE ( 'creator' ) ;
#43 = ADVANCED_FACE ( 'NONE', ( #109, #395 ), #71, .F. ) ;
#44 = DATE_TIME_ROLE ( 'classification_date' ) ;
#45 = DATE_AND_TIME ( #259, #232 ) ;
#46 = CIRCLE ( 'NONE', #13, 3.000000000000000444 ) ;
#47 = CLOSED_SHELL ( 'NONE', ( #118, #133, #436, #304, #8, #379, #107, #464, #385, #43, #11, #62 ) ) ;
#48 = AXIS2_PLACEMENT_3D ( 'NONE', #369, #116, #332 ) ;
#49 = DIRECTION ( 'NONE',  ( 1.000000000000000000, 0.000000000000000000, 0.000000000000000000 ) ) ;
#50 = CARTESIAN_POINT ( 'NONE',  ( -1.000065112068120099, 2.828404104156926113, 9.131028051652421595 ) ) ;
#51 = VERTEX_POINT ( 'NONE', #298 ) ;
#52 = DIRECTION ( 'NONE',  ( 1.000000000000000000, 0.000000000000000000, 0.000000000000000000 ) ) ;
#53 = CARTESIAN_POINT ( 'NONE',  ( -1.000015691822936148, -2.828421576849031727, 9.131670952813827569 ) ) ;
#54 = CARTESIAN_POINT ( 'NONE',  ( 1.423464049739828666E-15, -3.000000000000000444, 10.00000000000000000 ) ) ;
#55 = CARTESIAN_POINT ( 'NONE',  ( 1.423550524066413818E-15, 3.000000000000000444, 10.00000000000000000 ) ) ;
#56 = APPROVAL ( #339, 'UNSPECIFIED' ) ;
#57 = EDGE_LOOP ( 'NONE', ( #196, #149, #128, #242 ) ) ;
#58 = CARTESIAN_POINT ( 'NONE',  ( -0.9999842939873355707, -2.828432677660176253, 8.868090805909298879 ) ) ;
#59 = VERTEX_POINT ( 'NONE', #130 ) ;
#60 = FACE_OUTER_BOUND ( 'NONE', #112, .T. ) ;
#61 = CARTESIAN_POINT ( 'NONE',  ( 0.5055463730062521588, 2.959608675216975904, 8.127316047744329808 ) ) ;
#62 = ADVANCED_FACE ( 'NONE', ( #323 ), #201, .F. ) ;
#63 = ORIENTED_EDGE ( 'NONE', *, *, #32, .T. ) ;
#64 = CARTESIAN_POINT ( 'NONE',  ( 1.500000000000000222, 1.836970198721030181E-16, 5.000000000000000000 ) ) ;
#65 = CARTESIAN_POINT ( 'NONE',  ( 0.1331724280847658148, -2.999999999999999556, 7.999999999999998224 ) ) ;
#66 = B_SPLINE_CURVE_WITH_KNOTS ( 'NONE', 3,
 ( #36, #131, #320, #178, #451, #283, #99, #241, #53, #58, #463, #387, #173, #136, #103, #317, #142, #20 ),
 .UNSPECIFIED., .F., .F.,
 ( 4, 2, 2, 2, 2, 2, 2, 2, 4 ),
 ( 0.003149157204913741442, 0.003542701630937581791, 0.003936246056961421706, 0.004329790482985262055, 0.004723334909009102404, 0.005116879335032941886, 0.005510423761056782235, 0.005903968187080622584, 0.006297512613104462934 ),
 .UNSPECIFIED. ) ;
#67 = PRODUCT_DEFINITION_FORMATION_WITH_SPECIFIED_SOURCE ( 'ANY', '', #342, .NOT_KNOWN. ) ;
#68 = ORIENTED_EDGE ( 'NONE', *, *, #200, .T. ) ;
#69 = FACE_OUTER_BOUND ( 'NONE', #41, .T. ) ;
#70 = CARTESIAN_POINT ( 'NONE',  ( 0.000000000000000000, 0.000000000000000000, 6.000000000000000000 ) ) ;
#71 = PLANE ( 'NONE',  #318 ) ;
#72 = CIRCLE ( 'NONE', #340, 6.000000000000000888 ) ;
#73 = DIRECTION ( 'NONE',  ( 0.000000000000000000, 0.000000000000000000, 1.000000000000000000 ) ) ;
#74 = CARTESIAN_POINT ( 'NONE',  ( 0.9731960446474747783, -2.838248092230704955, 8.735765314593296083 ) ) ;
#75 = EDGE_LOOP ( 'NONE', ( #425, #229, #300, #141 ) ) ;
#76 = PERSON_AND_ORGANIZATION ( #257, #90 ) ;
#77 = DESIGN_CONTEXT ( 'detailed design', #456, 'design' ) ;
#78 = ORIENTED_EDGE ( 'NONE', *, *, #272, .F. ) ;
#79 = DATE_TIME_ROLE ( 'creation_date' ) ;
#80 = VECTOR ( 'NONE', #447, 1000.000000000000000 ) ;
#81 = DIRECTION ( 'NONE',  ( -1.000000000000000000, 0.000000000000000000, 0.000000000000000000 ) ) ;
#82 = LINE ( 'NONE', #179, #22 ) ;
#83 = APPROVAL_DATE_TIME ( #219, #177 ) ;
#84 =( GEOMETRIC_REPRESENTATION_CONTEXT ( 3 ) GLOBAL_UNCERTAINTY_ASSIGNED_CONTEXT ( ( #148 ) ) GLOBAL_UNIT_ASSIGNED_CONTEXT ( ( #31, #101, #243 ) ) REPRESENTATION_CONTEXT ( 'NONE', 'WORKASPACE' ) );
#85 = CC_DESIGN_PERSON_AND_ORGANIZATION_ASSIGNMENT ( #146, #40, ( #342 ) ) ;
#86 = CIRCLE ( 'NONE', #145, 1.500000000000000222 ) ;
#87 = LINE ( 'NONE', #269, #80 ) ;
#88 = ORIENTED_EDGE ( 'NONE', *, *, #200, .F. ) ;
#89 = CARTESIAN_POINT ( 'NONE',  ( -0.9738938205569851458, 2.838020848055397227, 9.262487300482417751 ) ) ;
#90 = ORGANIZATION ( 'UNSPECIFIED', 'UNSPECIFIED', '' ) ;
#91 = CARTESIAN_POINT ( 'NONE',  ( 1.105540918334818015E-15, 3.000000000000000444, 7.999999999999998224 ) ) ;
#92 = VECTOR ( 'NONE', #93, 1000.000000000000000 ) ;
#93 = DIRECTION ( 'NONE',  ( -0.000000000000000000, -0.000000000000000000, -1.000000000000000000 ) ) ;
#94 = EDGE_CURVE ( 'NONE', #102, #139, #388, .T. ) ;
#95 = CARTESIAN_POINT ( 'NONE',  ( 1.301042606982605321E-15, 5.000000000000000000, 9.000000000000000000 ) ) ;
#96 = CARTESIAN_POINT ( 'NONE',  ( 0.9999842939873379022, 2.828432677660175365, 8.868090805909298879 ) ) ;
#97 = ORIENTED_EDGE ( 'NONE', *, *, #208, .F. ) ;
#98 = AXIS2_PLACEMENT_3D ( 'NONE', #417, #346, #16 ) ;
#99 = CARTESIAN_POINT ( 'NONE',  ( -0.8727711819437009577, -2.870730265142595439, 9.505559090155328406 ) ) ;
#100 = ORIENTED_EDGE ( 'NONE', *, *, #123, .T. ) ;
#101 =( NAMED_UNIT ( * ) PLANE_ANGLE_UNIT ( ) SI_UNIT ( $, .RADIAN. ) );
#102 = VERTEX_POINT ( 'NONE', #319 ) ;
#103 = CARTESIAN_POINT ( 'NONE',  ( -0.5055463730062488281, -2.959608675216975460, 8.127316047744329808 ) ) ;
#104 = CYLINDRICAL_SURFACE ( 'NONE', #412, 1.000000000000000888 ) ;
#105 = CARTESIAN_POINT ( 'NONE',  ( 0.5048818755377064704, 2.959712371732154068, 9.873027021578623774 ) ) ;
#106 = EDGE_LOOP ( 'NONE', ( #132, #23 ) ) ;
#107 = ADVANCED_FACE ( 'NONE', ( #69 ), #295, .F. ) ;
#108 = CARTESIAN_POINT ( 'NONE',  ( 1.105540918334818015E-15, 3.000000000000000444, 7.999999999999998224 ) ) ;
#109 = FACE_BOUND ( 'NONE', #106, .T. ) ;
#110 = CARTESIAN_POINT ( 'NONE',  ( 0.8726352009032819490, -2.870773295448569851, 9.505842428803797262 ) ) ;
#111 = APPLICATION_PROTOCOL_DEFINITION ( 'international standard', 'config_control_design', 1994, #456 ) ;
#112 = EDGE_LOOP ( 'NONE', ( #284, #203, #63, #155 ) ) ;
#113 = CALENDAR_DATE ( 2023, 3, 12 ) ;
#114 = DATE_AND_TIME ( #366, #310 ) ;
#115 = CIRCLE ( 'NONE', #134, 1.500000000000000222 ) ;
#116 = DIRECTION ( 'NONE',  ( 0.000000000000000000, 0.000000000000000000, 1.000000000000000000 ) ) ;
#117 = SECURITY_CLASSIFICATION_LEVEL ( 'unclassified' ) ;
#118 = ADVANCED_FACE ( 'NONE', ( #381 ), #104, .F. ) ;
#119 = CARTESIAN_POINT ( 'NONE',  ( 1.423550524066413818E-15, 3.000000000000000444, 10.00000000000000000 ) ) ;
#120 = CARTESIAN_POINT ( 'NONE',  ( -0.2635765232843300665, 2.990864999518386469, 9.973417013471303605 ) ) ;
#121 = VERTEX_POINT ( 'NONE', #21 ) ;
#122 = CARTESIAN_POINT ( 'NONE',  ( -0.2637757798543124976, 2.990867359021172955, 8.026561429234522649 ) ) ;
#123 = EDGE_CURVE ( 'NONE', #271, #400, #373, .T. ) ;
#124 = CARTESIAN_POINT ( 'NONE',  ( -3.000000000000000444, 0.000000000000000000, 11.00000000000000000 ) ) ;
#125 = CARTESIAN_POINT ( 'NONE',  ( 0.6147613726084349972, -2.937864098093798670, 9.799382906928800097 ) ) ;
#126 = AXIS2_PLACEMENT_3D ( 'NONE', #386, #137, #211 ) ;
#127 = CYLINDRICAL_SURFACE ( 'NONE', #98, 3.000000000000000444 ) ;
#128 = ORIENTED_EDGE ( 'NONE', *, *, #265, .T. ) ;
#129 = DIRECTION ( 'NONE',  ( -1.000000000000000000, 0.000000000000000000, 0.000000000000000000 ) ) ;
#130 = CARTESIAN_POINT ( 'NONE',  ( 6.000000000000000888, 7.347880794884120722E-16, 6.000000000000000000 ) ) ;
#131 = CARTESIAN_POINT ( 'NONE',  ( -0.1311535745634508643, -3.000000000000001332, 9.999999999999998224 ) ) ;
#132 = ORIENTED_EDGE ( 'NONE', *, *, #409, .T. ) ;
#133 = ADVANCED_FACE ( 'NONE', ( #328 ), #240, .T. ) ;
#134 = AXIS2_PLACEMENT_3D ( 'NONE', #157, #313, #274 ) ;
#135 = EDGE_LOOP ( 'NONE', ( #443, #354 ) ) ;
#136 = CARTESIAN_POINT ( 'NONE',  ( -0.6155931879056322220, -2.937675415082904973, 8.201347210304726687 ) ) ;
#137 = DIRECTION ( 'NONE',  ( -0.000000000000000000, -0.000000000000000000, -1.000000000000000000 ) ) ;
#138 = DIRECTION ( 'NONE',  ( 1.000000000000000000, 0.000000000000000000, 0.000000000000000000 ) ) ;
#139 = VERTEX_POINT ( 'NONE', #459 ) ;
#140 = DIRECTION ( 'NONE',  ( -0.000000000000000000, -0.000000000000000000, -1.000000000000000000 ) ) ;
#141 = ORIENTED_EDGE ( 'NONE', *, *, #265, .F. ) ;
#142 = CARTESIAN_POINT ( 'NONE',  ( -0.1331385214838896047, -3.000000000000001776, 7.999999999999998224 ) ) ;
#143 = CC_DESIGN_PERSON_AND_ORGANIZATION_ASSIGNMENT ( #368, #150, ( #67 ) ) ;
#144 = DIRECTION ( 'NONE',  ( 1.000000000000000000, 0.000000000000000000, -0.000000000000000000 ) ) ;
#145 = AXIS2_PLACEMENT_3D ( 'NONE', #341, #198, #233 ) ;
#146 = PERSON_AND_ORGANIZATION ( #257, #90 ) ;
#147 = FACE_BOUND ( 'NONE', #161, .T. ) ;
#148 = UNCERTAINTY_MEASURE_WITH_UNIT (LENGTH_MEASURE( 1.000000000000000082E-05 ), #31, 'distance_accuracy_value', 'NONE');
#149 = ORIENTED_EDGE ( 'NONE', *, *, #123, .F. ) ;
#150 = PERSON_AND_ORGANIZATION_ROLE ( 'design_supplier' ) ;
#151 = DATE_AND_TIME ( #188, #29 ) ;
#152 = EDGE_CURVE ( 'NONE', #139, #291, #191, .T. ) ;
#153 = CARTESIAN_POINT ( 'NONE',  ( -0.8726352009032792845, 2.870773295448570295, 9.505842428803793709 ) ) ;
#154 = APPROVAL_PERSON_ORGANIZATION ( #76, #56, #186 ) ;
#155 = ORIENTED_EDGE ( 'NONE', *, *, #307, .T. ) ;
#156 = CARTESIAN_POINT ( 'NONE',  ( 1.423507286897340666E-15, 5.000000000000000000, 10.00000000000000000 ) ) ;
#157 = CARTESIAN_POINT ( 'NONE',  ( 0.000000000000000000, 0.000000000000000000, 0.000000000000000000 ) ) ;
#158 = APPROVAL ( #402, 'UNSPECIFIED' ) ;
#159 = CARTESIAN_POINT ( 'NONE',  ( -0.7989206136896844779, 2.893216697231921763, 9.615362031785382513 ) ) ;
#160 = DIRECTION ( 'NONE',  ( 0.000000000000000000, 0.000000000000000000, 1.000000000000000000 ) ) ;
#161 = EDGE_LOOP ( 'NONE', ( #389, #209 ) ) ;
#162 = CYLINDRICAL_SURFACE ( 'NONE', #275, 1.500000000000000222 ) ;
#163 = AXIS2_PLACEMENT_3D ( 'NONE', #286, #290, #247 ) ;
#164 = CARTESIAN_POINT ( 'NONE',  ( 0.2637502104041444251, 2.990868849045562605, 8.026557530053201717 ) ) ;
#165 = EDGE_CURVE ( 'NONE', #30, #324, #224, .T. ) ;
#166 = ORIENTED_EDGE ( 'NONE', *, *, #404, .F. ) ;
#167 = CARTESIAN_POINT ( 'NONE',  ( -6.000000000000000888, 0.000000000000000000, 6.000000000000000000 ) ) ;
#168 = CARTESIAN_POINT ( 'NONE',  ( -3.000000000000000444, 0.000000000000000000, 6.000000000000000000 ) ) ;
#169 = ORIENTED_EDGE ( 'NONE', *, *, #32, .F. ) ;
#170 = DIRECTION ( 'NONE',  ( -0.000000000000000000, -0.000000000000000000, -1.000000000000000000 ) ) ;
#171 = CARTESIAN_POINT ( 'NONE',  ( 0.7988706027417821209, 2.893215784806470126, 8.384689499879250718 ) ) ;
#172 = ORIENTED_EDGE ( 'NONE', *, *, #190, .T. ) ;
#173 = CARTESIAN_POINT ( 'NONE',  ( -0.7988706027417796784, -2.893215784806470570, 8.384689499879250718 ) ) ;
#174 = CARTESIAN_POINT ( 'NONE',  ( 0.6159197602761824486, -2.937602516701899980, 8.201624619451919784 ) ) ;
#175 = EDGE_LOOP ( 'NONE', ( #97, #166, #250, #345 ) ) ;
#176 = PLANE ( 'NONE',  #267 ) ;
#177 = APPROVAL ( #435, 'UNSPECIFIED' ) ;
#178 = CARTESIAN_POINT ( 'NONE',  ( -0.5048818755377035838, -2.959712371732154068, 9.873027021578623774 ) ) ;
#179 = CARTESIAN_POINT ( 'NONE',  ( -1.500000000000000222, 0.000000000000000000, 5.000000000000000000 ) ) ;
#180 = PERSON_AND_ORGANIZATION ( #257, #90 ) ;
#181 = ADVANCED_BREP_SHAPE_REPRESENTATION ( 'PiÞce5_RaccordCardon_DÚfaut_sldprt', ( #309, #260 ), #84 ) ;
#182 = AXIS2_PLACEMENT_3D ( 'NONE', #330, #289, #246 ) ;
#183 = CARTESIAN_POINT ( 'NONE',  ( 0.2635503551046920467, 2.990876834969142806, 9.973459346340208143 ) ) ;
#184 = CC_DESIGN_DATE_AND_TIME_ASSIGNMENT ( #45, #44, ( #338 ) ) ;
#185 = ORIENTED_EDGE ( 'NONE', *, *, #307, .F. ) ;
#186 = APPROVAL_ROLE ( '' ) ;
#187 = APPROVAL_ROLE ( '' ) ;
#188 = CALENDAR_DATE ( 2023, 3, 12 ) ;
#189 = CC_DESIGN_SECURITY_CLASSIFICATION ( #338, ( #67 ) ) ;
#190 = EDGE_CURVE ( 'NONE', #316, #324, #347, .T. ) ;
#191 = CIRCLE ( 'NONE', #163, 6.000000000000000888 ) ;
#192 = LINE ( 'NONE', #17, #92 ) ;
#193 = CARTESIAN_POINT ( 'NONE',  ( 0.1311535745634539729, 3.000000000000000000, 9.999999999999998224 ) ) ;
#194 = CARTESIAN_POINT ( 'NONE',  ( -0.5044450885602765888, 2.959777218237580332, 9.873240183666242231 ) ) ;
#195 = CIRCLE ( 'NONE', #182, 1.500000000000000222 ) ;
#196 = ORIENTED_EDGE ( 'NONE', *, *, #231, .F. ) ;
#197 = CARTESIAN_POINT ( 'NONE',  ( 6.000000000000000888, 7.347880794884120722E-16, 5.000000000000000000 ) ) ;
#198 = DIRECTION ( 'NONE',  ( 0.000000000000000000, 0.000000000000000000, 1.000000000000000000 ) ) ;
#199 = CARTESIAN_POINT ( 'NONE',  ( 1.301042606982605321E-15, 5.000000000000000000, 7.999999999999998224 ) ) ;
#200 = EDGE_CURVE ( 'NONE', #413, #401, #86, .T. ) ;
#201 = CYLINDRICAL_SURFACE ( 'NONE', #398, 1.000000000000000888 ) ;
#202 = CARTESIAN_POINT ( 'NONE',  ( 0.7995630649473690621, 2.893047721466609712, 9.614617129537023743 ) ) ;
#203 = ORIENTED_EDGE ( 'NONE', *, *, #409, .F. ) ;
#204 = FACE_OUTER_BOUND ( 'NONE', #288, .T. ) ;
#205 = VECTOR ( 'NONE', #444, 1000.000000000000000 ) ;
#206 = ORIENTED_EDGE ( 'NONE', *, *, #272, .T. ) ;
#207 = DIRECTION ( 'NONE',  ( 1.000000000000000000, 0.000000000000000000, -0.000000000000000000 ) ) ;
#208 = EDGE_CURVE ( 'NONE', #59, #291, #312, .T. ) ;
#209 = ORIENTED_EDGE ( 'NONE', *, *, #376, .F. ) ;
#210 = CARTESIAN_POINT ( 'NONE',  ( 0.000000000000000000, 0.000000000000000000, 5.000000000000000000 ) ) ;
#211 = DIRECTION ( 'NONE',  ( -1.000000000000000000, 0.000000000000000000, 0.000000000000000000 ) ) ;
#212 = AXIS2_PLACEMENT_3D ( 'NONE', #26, #292, #465 ) ;
#213 = ORIENTED_EDGE ( 'NONE', *, *, #262, .F. ) ;
#214 = CARTESIAN_POINT ( 'NONE',  ( 0.000000000000000000, 0.000000000000000000, 0.000000000000000000 ) ) ;
#215 = DIRECTION ( 'NONE',  ( 0.000000000000000000, 0.000000000000000000, 1.000000000000000000 ) ) ;
#216 = CARTESIAN_POINT ( 'NONE',  ( 0.000000000000000000, 0.000000000000000000, 5.000000000000000000 ) ) ;
#217 = CARTESIAN_POINT ( 'NONE',  ( 0.9999346419223633653, -2.828450232312946788, 8.867979961448074988 ) ) ;
#218 = EDGE_CURVE ( 'NONE', #121, #363, #5, .T. ) ;
#219 = DATE_AND_TIME ( #113, #377 ) ;
#220 = FACE_OUTER_BOUND ( 'NONE', #422, .T. ) ;
#221 = CARTESIAN_POINT ( 'NONE',  ( 0.7989206136896866983, -2.893216697231922652, 9.615362031785387842 ) ) ;
#222 = EDGE_CURVE ( 'NONE', #434, #413, #192, .T. ) ;
#223 = PERSON_AND_ORGANIZATION ( #257, #90 ) ;
#224 = B_SPLINE_CURVE_WITH_KNOTS ( 'NONE', 3,
 ( #391, #65, #362, #33, #174, #331, #254, #74, #217, #399, #432, #110, #221, #125, #277, #236, #442, #270 ),
 .UNSPECIFIED., .F., .F.,
 ( 4, 2, 2, 2, 2, 2, 2, 2, 4 ),
 ( 2.689056546689865371E-19, 0.0003936446506142178971, 0.0007872893012284354688, 0.001180933951842652986, 0.001574578602456870721, 0.001968223253071088672, 0.002361867903685305973, 0.002755512554299523707, 0.003149157204913741442 ),
 .UNSPECIFIED. ) ;
#225 = CIRCLE ( 'NONE', #410, 6.000000000000000888 ) ;
#226 = CC_DESIGN_PERSON_AND_ORGANIZATION_ASSIGNMENT ( #180, #42, ( #67 ) ) ;
#227 = CARTESIAN_POINT ( 'NONE',  ( 1.423550524066413818E-15, 3.000000000000000444, 10.00000000000000000 ) ) ;
#228 = CARTESIAN_POINT ( 'NONE',  ( 0.000000000000000000, 0.000000000000000000, 6.000000000000000000 ) ) ;
#229 = ORIENTED_EDGE ( 'NONE', *, *, #231, .T. ) ;
#230 = DIRECTION ( 'NONE',  ( 0.000000000000000000, -1.000000000000000000, 0.000000000000000000 ) ) ;
#231 = EDGE_CURVE ( 'NONE', #400, #121, #87, .T. ) ;
#232 = LOCAL_TIME ( 17, 39, 24.00000000000000000, #439 ) ;
#233 = DIRECTION ( 'NONE',  ( 1.000000000000000000, 0.000000000000000000, 0.000000000000000000 ) ) ;
#234 = CARTESIAN_POINT ( 'NONE',  ( -0.5056087024404395391, 2.959598800735081081, 8.127348779231825304 ) ) ;
#235 = DIRECTION ( 'NONE',  ( 1.000000000000000000, 0.000000000000000000, -0.000000000000000000 ) ) ;
#236 = CARTESIAN_POINT ( 'NONE',  ( 0.2635765232843326200, -2.990864999518386025, 9.973417013471303605 ) ) ;
#237 = EDGE_LOOP ( 'NONE', ( #322, #256 ) ) ;
#238 = LOCAL_TIME ( 17, 39, 24.00000000000000000, #301 ) ;
#239 = B_SPLINE_CURVE_WITH_KNOTS ( 'NONE', 3,
 ( #414, #446, #122, #234, #273, #12, #374, #276, #314, #50, #89, #153, #159, #378, #194, #120, #380, #55 ),
 .UNSPECIFIED., .F., .F.,
 ( 4, 2, 2, 2, 2, 2, 2, 2, 4 ),
 ( 1.897964457460928733E-19, 0.0003936446506142182765, 0.0007872893012284362278, 0.001180933951842654071, 0.001574578602456871805, 0.001968223253071089539, 0.002361867903685307708, 0.002755512554299525442, 0.003149157204913743176 ),
 .UNSPECIFIED. ) ;
#240 = CYLINDRICAL_SURFACE ( 'NONE', #126, 6.000000000000000888 ) ;
#241 = CARTESIAN_POINT ( 'NONE',  ( -0.9738553564176380961, -2.838032335265713080, 9.262536234540611702 ) ) ;
#242 = ORIENTED_EDGE ( 'NONE', *, *, #371, .T. ) ;
#243 =( NAMED_UNIT ( * ) SI_UNIT ( $, .STERADIAN. ) SOLID_ANGLE_UNIT ( ) );
#244 = DIRECTION ( 'NONE',  ( 0.000000000000000000, 0.000000000000000000, -1.000000000000000000 ) ) ;
#245 = ORIENTED_EDGE ( 'NONE', *, *, #18, .T. ) ;
#246 = DIRECTION ( 'NONE',  ( 1.000000000000000000, 0.000000000000000000, 0.000000000000000000 ) ) ;
#247 = DIRECTION ( 'NONE',  ( 1.000000000000000000, 0.000000000000000000, 0.000000000000000000 ) ) ;
#248 = CARTESIAN_POINT ( 'NONE',  ( 0.6149058025954731166, 2.937842246861731343, 9.799341081568300638 ) ) ;
#249 = EDGE_CURVE ( 'NONE', #311, #316, #239, .T. ) ;
#250 = ORIENTED_EDGE ( 'NONE', *, *, #94, .T. ) ;
#251 = FACE_OUTER_BOUND ( 'NONE', #175, .T. ) ;
#252 = DIRECTION ( 'NONE',  ( 0.000000000000000000, 0.000000000000000000, 1.000000000000000000 ) ) ;
#253 = CARTESIAN_POINT ( 'NONE',  ( 0.000000000000000000, 0.000000000000000000, 5.000000000000000000 ) ) ;
#254 = CARTESIAN_POINT ( 'NONE',  ( 0.8731730686977328126, -2.870597771626967276, 8.495520761189865766 ) ) ;
#255 = AXIS2_PLACEMENT_3D ( 'NONE', #214, #252, #235 ) ;
#256 = ORIENTED_EDGE ( 'NONE', *, *, #18, .F. ) ;
#257 = PERSON ( 'UNSPECIFIED', 'UNSPECIFIED', 'UNSPECIFIED', ('UNSPECIFIED'), ('UNSPECIFIED'), ('UNSPECIFIED') ) ;
#258 = ORIENTED_EDGE ( 'NONE', *, *, #262, .T. ) ;
#259 = CALENDAR_DATE ( 2023, 3, 12 ) ;
#260 = AXIS2_PLACEMENT_3D ( 'NONE', #396, #73, #355 ) ;
#261 = COORDINATED_UNIVERSAL_TIME_OFFSET ( 1, 0, .AHEAD. ) ;
#262 = EDGE_CURVE ( 'NONE', #311, #30, #415, .T. ) ;
#263 = CARTESIAN_POINT ( 'NONE',  ( 0.000000000000000000, 0.000000000000000000, 5.000000000000000000 ) ) ;
#264 = COORDINATED_UNIVERSAL_TIME_OFFSET ( 1, 0, .AHEAD. ) ;
#265 = EDGE_CURVE ( 'NONE', #271, #363, #350, .T. ) ;
#266 = APPROVAL_DATE_TIME ( #336, #158 ) ;
#267 = AXIS2_PLACEMENT_3D ( 'NONE', #426, #458, #207 ) ;
#268 = PRODUCT_DEFINITION_SHAPE ( 'NONE', 'NONE',  #39 ) ;
#269 = CARTESIAN_POINT ( 'NONE',  ( 3.000000000000000444, 3.673940397442060361E-16, 11.00000000000000000 ) ) ;
#270 = CARTESIAN_POINT ( 'NONE',  ( 1.423464049739828666E-15, -3.000000000000000444, 10.00000000000000000 ) ) ;
#271 = VERTEX_POINT ( 'NONE', #124 ) ;
#272 = EDGE_CURVE ( 'NONE', #59, #102, #225, .T. ) ;
#273 = CARTESIAN_POINT ( 'NONE',  ( -0.6159197602761806722, 2.937602516701899091, 8.201624619451918008 ) ) ;
#274 = DIRECTION ( 'NONE',  ( 1.000000000000000000, 0.000000000000000000, 0.000000000000000000 ) ) ;
#275 = AXIS2_PLACEMENT_3D ( 'NONE', #454, #140, #129 ) ;
#276 = CARTESIAN_POINT ( 'NONE',  ( -0.9731960446474717807, 2.838248092230705399, 8.735765314593297859 ) ) ;
#277 = CARTESIAN_POINT ( 'NONE',  ( 0.5044450885602790313, -2.959777218237579888, 9.873240183666242231 ) ) ;
#278 = AXIS2_PLACEMENT_3D ( 'NONE', #302, #437, #81 ) ;
#279 = DIRECTION ( 'NONE',  ( -0.000000000000000000, -0.000000000000000000, -1.000000000000000000 ) ) ;
#280 = ORIENTED_EDGE ( 'NONE', *, *, #249, .T. ) ;
#281 = FACE_OUTER_BOUND ( 'NONE', #460, .T. ) ;
#282 = CARTESIAN_POINT ( 'NONE',  ( 0.000000000000000000, 0.000000000000000000, 11.00000000000000000 ) ) ;
#283 = CARTESIAN_POINT ( 'NONE',  ( -0.7995630649473666196, -2.893047721466611044, 9.614617129537023743 ) ) ;
#284 = ORIENTED_EDGE ( 'NONE', *, *, #222, .F. ) ;
#285 = FACE_BOUND ( 'NONE', #135, .T. ) ;
#286 = CARTESIAN_POINT ( 'NONE',  ( 0.000000000000000000, 0.000000000000000000, 5.000000000000000000 ) ) ;
#287 = CARTESIAN_POINT ( 'NONE',  ( 0.9738553564176406496, 2.838032335265711747, 9.262536234540611702 ) ) ;
#288 = EDGE_LOOP ( 'NONE', ( #418, #206 ) ) ;
#289 = DIRECTION ( 'NONE',  ( 0.000000000000000000, 0.000000000000000000, 1.000000000000000000 ) ) ;
#290 = DIRECTION ( 'NONE',  ( 0.000000000000000000, 0.000000000000000000, 1.000000000000000000 ) ) ;
#291 = VERTEX_POINT ( 'NONE', #197 ) ;
#292 = DIRECTION ( 'NONE',  ( 0.000000000000000000, 0.000000000000000000, 1.000000000000000000 ) ) ;
#293 = CARTESIAN_POINT ( 'NONE',  ( 0.8730844665418074912, 2.870626768165734699, 8.495292444544610078 ) ) ;
#294 = CYLINDRICAL_SURFACE ( 'NONE', #440, 1.500000000000000222 ) ;
#295 = PLANE ( 'NONE',  #255 ) ;
#296 = AXIS2_PLACEMENT_3D ( 'NONE', #423, #461, #429 ) ;
#297 = EDGE_CURVE ( 'NONE', #400, #271, #46, .T. ) ;
#298 = CARTESIAN_POINT ( 'NONE',  ( -1.500000000000000222, 0.000000000000000000, 5.000000000000000000 ) ) ;
#299 = AXIS2_PLACEMENT_3D ( 'NONE', #282, #364, #455 ) ;
#300 = ORIENTED_EDGE ( 'NONE', *, *, #218, .T. ) ;
#301 = COORDINATED_UNIVERSAL_TIME_OFFSET ( 1, 0, .AHEAD. ) ;
#302 = CARTESIAN_POINT ( 'NONE',  ( 0.000000000000000000, 0.000000000000000000, 11.00000000000000000 ) ) ;
#303 = APPROVAL_ROLE ( '' ) ;
#304 = ADVANCED_FACE ( 'NONE', ( #450, #411 ), #127, .T. ) ;
#305 = CC_DESIGN_APPROVAL ( #56, ( #338 ) ) ;
#306 = PERSON_AND_ORGANIZATION_ROLE ( 'creator' ) ;
#307 = EDGE_CURVE ( 'NONE', #401, #413, #115, .T. ) ;
#308 = CARTESIAN_POINT ( 'NONE',  ( 0.000000000000000000, 0.000000000000000000, 6.000000000000000000 ) ) ;
#309 = MANIFOLD_SOLID_BREP ( 'Enlèv. mat.-Extru.1', #47 ) ;
#310 = LOCAL_TIME ( 17, 39, 24.00000000000000000, #9 ) ;
#311 = VERTEX_POINT ( 'NONE', #91 ) ;
#312 = LINE ( 'NONE', #372, #205 ) ;
#313 = DIRECTION ( 'NONE',  ( 0.000000000000000000, 0.000000000000000000, 1.000000000000000000 ) ) ;
#314 = CARTESIAN_POINT ( 'NONE',  ( -0.9999346419223608118, 2.828450232312947676, 8.867979961448074988 ) ) ;
#315 = DIRECTION ( 'NONE',  ( 1.000000000000000000, 0.000000000000000000, 0.000000000000000000 ) ) ;
#316 = VERTEX_POINT ( 'NONE', #227 ) ;
#317 = CARTESIAN_POINT ( 'NONE',  ( -0.2637502104041409834, -2.990868849045562605, 8.026557530053199940 ) ) ;
#318 = AXIS2_PLACEMENT_3D ( 'NONE', #216, #1, #144 ) ;
#319 = CARTESIAN_POINT ( 'NONE',  ( -6.000000000000000888, 0.000000000000000000, 6.000000000000000000 ) ) ;
#320 = CARTESIAN_POINT ( 'NONE',  ( -0.2635503551046891602, -2.990876834969143250, 9.973459346340208143 ) ) ;
#321 = ORIENTED_EDGE ( 'NONE', *, *, #376, .T. ) ;
#322 = ORIENTED_EDGE ( 'NONE', *, *, #152, .F. ) ;
#323 = FACE_OUTER_BOUND ( 'NONE', #375, .T. ) ;
#324 = VERTEX_POINT ( 'NONE', #54 ) ;
#325 = CYLINDRICAL_SURFACE ( 'NONE', #296, 6.000000000000000888 ) ;
#326 = PRODUCT_RELATED_PRODUCT_CATEGORY ( 'detail', '', ( #342 ) ) ;
#327 = CC_DESIGN_APPROVAL ( #158, ( #39 ) ) ;
#328 = FACE_OUTER_BOUND ( 'NONE', #392, .T. ) ;
#329 = ORIENTED_EDGE ( 'NONE', *, *, #190, .F. ) ;
#330 = CARTESIAN_POINT ( 'NONE',  ( 0.000000000000000000, 0.000000000000000000, 5.000000000000000000 ) ) ;
#331 = CARTESIAN_POINT ( 'NONE',  ( 0.7989248838730181879, -2.893196282169685940, 8.384793181692161923 ) ) ;
#332 = DIRECTION ( 'NONE',  ( 1.000000000000000000, 0.000000000000000000, -0.000000000000000000 ) ) ;
#333 = APPROVAL_PERSON_ORGANIZATION ( #38, #158, #187 ) ;
#334 = ORIENTED_EDGE ( 'NONE', *, *, #222, .T. ) ;
#335 = SHAPE_DEFINITION_REPRESENTATION ( #268, #181 ) ;
#336 = DATE_AND_TIME ( #408, #238 ) ;
#337 = EDGE_CURVE ( 'NONE', #316, #311, #15, .T. ) ;
#338 = SECURITY_CLASSIFICATION ( '', '', #117 ) ;
#339 = APPROVAL_STATUS ( 'not_yet_approved' ) ;
#340 = AXIS2_PLACEMENT_3D ( 'NONE', #263, #37, #407 ) ;
#341 = CARTESIAN_POINT ( 'NONE',  ( 0.000000000000000000, 0.000000000000000000, 0.000000000000000000 ) ) ;
#342 = PRODUCT ( 'Pièce5_RaccordCardon_Défaut_sldprt', 'Pièce5_RaccordCardon_Défaut_sldprt', '', ( #24 ) ) ;
#343 = CARTESIAN_POINT ( 'NONE',  ( -3.000000000000000444, 0.000000000000000000, 11.00000000000000000 ) ) ;
#344 = VECTOR ( 'NONE', #279, 1000.000000000000000 ) ;
#345 = ORIENTED_EDGE ( 'NONE', *, *, #152, .T. ) ;
#346 = DIRECTION ( 'NONE',  ( -0.000000000000000000, -0.000000000000000000, -1.000000000000000000 ) ) ;
#347 = LINE ( 'NONE', #156, #356 ) ;
#348 = EDGE_CURVE ( 'NONE', #434, #51, #403, .T. ) ;
#349 = DIRECTION ( 'NONE',  ( 0.000000000000000000, 0.000000000000000000, 1.000000000000000000 ) ) ;
#350 = LINE ( 'NONE', #343, #344 ) ;
#351 = CARTESIAN_POINT ( 'NONE',  ( 3.000000000000000444, 3.673940397442060361E-16, 11.00000000000000000 ) ) ;
#352 = DIRECTION ( 'NONE',  ( 0.000000000000000000, 0.000000000000000000, -1.000000000000000000 ) ) ;
#353 = ORIENTED_EDGE ( 'NONE', *, *, #337, .F. ) ;
#354 = ORIENTED_EDGE ( 'NONE', *, *, #218, .F. ) ;
#355 = DIRECTION ( 'NONE',  ( 1.000000000000000000, 0.000000000000000000, 0.000000000000000000 ) ) ;
#356 = VECTOR ( 'NONE', #230, 1000.000000000000000 ) ;
#357 = ORIENTED_EDGE ( 'NONE', *, *, #348, .F. ) ;
#358 = CARTESIAN_POINT ( 'NONE',  ( -1.500000000000000222, 0.000000000000000000, 0.000000000000000000 ) ) ;
#359 = DIRECTION ( 'NONE',  ( -0.000000000000000000, -0.000000000000000000, -1.000000000000000000 ) ) ;
#360 = ORIENTED_EDGE ( 'NONE', *, *, #94, .F. ) ;
#361 = APPROVAL_PERSON_ORGANIZATION ( #370, #177, #303 ) ;
#362 = CARTESIAN_POINT ( 'NONE',  ( 0.2637757798543151622, -2.990867359021171623, 8.026561429234522649 ) ) ;
#363 = VERTEX_POINT ( 'NONE', #168 ) ;
#364 = DIRECTION ( 'NONE',  ( 0.000000000000000000, 0.000000000000000000, 1.000000000000000000 ) ) ;
#365 = DIRECTION ( 'NONE',  ( 1.000000000000000000, 0.000000000000000000, 0.000000000000000000 ) ) ;
#366 = CALENDAR_DATE ( 2023, 3, 12 ) ;
#367 = CC_DESIGN_APPROVAL ( #177, ( #67 ) ) ;
#368 = PERSON_AND_ORGANIZATION ( #257, #90 ) ;
#369 = CARTESIAN_POINT ( 'NONE',  ( 0.000000000000000000, 0.000000000000000000, 11.00000000000000000 ) ) ;
#370 = PERSON_AND_ORGANIZATION ( #257, #90 ) ;
#371 = EDGE_CURVE ( 'NONE', #363, #121, #416, .T. ) ;
#372 = CARTESIAN_POINT ( 'NONE',  ( 6.000000000000000888, 7.347880794884120722E-16, 6.000000000000000000 ) ) ;
#373 = CIRCLE ( 'NONE', #299, 3.000000000000000444 ) ;
#374 = CARTESIAN_POINT ( 'NONE',  ( -0.8731730686977304812, 2.870597771626968608, 8.495520761189867542 ) ) ;
#375 = EDGE_LOOP ( 'NONE', ( #329, #25, #258, #452 ) ) ;
#376 = EDGE_CURVE ( 'NONE', #324, #30, #66, .T. ) ;
#377 = LOCAL_TIME ( 17, 39, 24.00000000000000000, #264 ) ;
#378 = CARTESIAN_POINT ( 'NONE',  ( -0.6147613726084331098, 2.937864098093799115, 9.799382906928796544 ) ) ;
#379 = ADVANCED_FACE ( 'NONE', ( #60 ), #162, .T. ) ;
#380 = CARTESIAN_POINT ( 'NONE',  ( -0.1311869756547076327, 3.000000000000001776, 10.00000000000000178 ) ) ;
#381 = FACE_OUTER_BOUND ( 'NONE', #457, .T. ) ;
#382 = CARTESIAN_POINT ( 'NONE',  ( 0.6155931879056348865, 2.937675415082904085, 8.201347210304724911 ) ) ;
#383 = AXIS2_PLACEMENT_3D ( 'NONE', #253, #394, #138 ) ;
#384 = ORIENTED_EDGE ( 'NONE', *, *, #249, .F. ) ;
#385 = ADVANCED_FACE ( 'NONE', ( #285, #204 ), #176, .T. ) ;
#386 = CARTESIAN_POINT ( 'NONE',  ( 0.000000000000000000, 0.000000000000000000, 6.000000000000000000 ) ) ;
#387 = CARTESIAN_POINT ( 'NONE',  ( -0.8730844665418048267, -2.870626768165735143, 8.495292444544610078 ) ) ;
#388 = LINE ( 'NONE', #167, #453 ) ;
#389 = ORIENTED_EDGE ( 'NONE', *, *, #165, .F. ) ;
#390 = CARTESIAN_POINT ( 'NONE',  ( 1.500000000000000222, 1.836970198721030181E-16, 0.000000000000000000 ) ) ;
#391 = CARTESIAN_POINT ( 'NONE',  ( 1.578031511427397118E-15, -3.000000000000000444, 7.999999999999998224 ) ) ;
#392 = EDGE_LOOP ( 'NONE', ( #78, #462, #245, #360 ) ) ;
#393 = AXIS2_PLACEMENT_3D ( 'NONE', #70, #215, #365 ) ;
#394 = DIRECTION ( 'NONE',  ( 0.000000000000000000, 0.000000000000000000, 1.000000000000000000 ) ) ;
#395 = FACE_OUTER_BOUND ( 'NONE', #237, .T. ) ;
#396 = CARTESIAN_POINT ( 'NONE',  ( 0.000000000000000000, 0.000000000000000000, 0.000000000000000000 ) ) ;
#397 = CC_DESIGN_PERSON_AND_ORGANIZATION_ASSIGNMENT ( #223, #4, ( #338 ) ) ;
#398 = AXIS2_PLACEMENT_3D ( 'NONE', #427, #420, #244 ) ;
#399 = CARTESIAN_POINT ( 'NONE',  ( 1.000065112068122541, -2.828404104156925669, 9.131028051652423372 ) ) ;
#400 = VERTEX_POINT ( 'NONE', #351 ) ;
#401 = VERTEX_POINT ( 'NONE', #358 ) ;
#402 = APPROVAL_STATUS ( 'not_yet_approved' ) ;
#403 = CIRCLE ( 'NONE', #383, 1.500000000000000222 ) ;
#404 = EDGE_CURVE ( 'NONE', #102, #59, #2, .T. ) ;
#405 = CYLINDRICAL_SURFACE ( 'NONE', #278, 3.000000000000000444 ) ;
#406 = APPROVAL_DATE_TIME ( #151, #56 ) ;
#407 = DIRECTION ( 'NONE',  ( 1.000000000000000000, 0.000000000000000000, 0.000000000000000000 ) ) ;
#408 = CALENDAR_DATE ( 2023, 3, 12 ) ;
#409 = EDGE_CURVE ( 'NONE', #51, #434, #195, .T. ) ;
#410 = AXIS2_PLACEMENT_3D ( 'NONE', #308, #441, #52 ) ;
#411 = FACE_OUTER_BOUND ( 'NONE', #75, .T. ) ;
#412 = AXIS2_PLACEMENT_3D ( 'NONE', #95, #27, #352 ) ;
#413 = VERTEX_POINT ( 'NONE', #390 ) ;
#414 = CARTESIAN_POINT ( 'NONE',  ( 1.105540918334818015E-15, 3.000000000000000444, 7.999999999999998224 ) ) ;
#415 = LINE ( 'NONE', #199, #448 ) ;
#416 = CIRCLE ( 'NONE', #393, 3.000000000000000444 ) ;
#417 = CARTESIAN_POINT ( 'NONE',  ( 0.000000000000000000, 0.000000000000000000, 11.00000000000000000 ) ) ;
#418 = ORIENTED_EDGE ( 'NONE', *, *, #404, .T. ) ;
#419 = DIRECTION ( 'NONE',  ( -1.000000000000000000, 0.000000000000000000, 0.000000000000000000 ) ) ;
#420 = DIRECTION ( 'NONE',  ( 0.000000000000000000, -1.000000000000000000, 0.000000000000000000 ) ) ;
#421 = CARTESIAN_POINT ( 'NONE',  ( 0.8727711819437034002, 2.870730265142594551, 9.505559090155328406 ) ) ;
#422 = EDGE_LOOP ( 'NONE', ( #100, #449 ) ) ;
#423 = CARTESIAN_POINT ( 'NONE',  ( 0.000000000000000000, 0.000000000000000000, 6.000000000000000000 ) ) ;
#424 = CARTESIAN_POINT ( 'NONE',  ( 0.9733197772037790463, 2.838207733611164851, 8.736078016159442683 ) ) ;
#425 = ORIENTED_EDGE ( 'NONE', *, *, #297, .F. ) ;
#426 = CARTESIAN_POINT ( 'NONE',  ( 0.000000000000000000, 0.000000000000000000, 6.000000000000000000 ) ) ;
#427 = CARTESIAN_POINT ( 'NONE',  ( 1.301042606982605321E-15, 5.000000000000000000, 9.000000000000000000 ) ) ;
#428 = EDGE_LOOP ( 'NONE', ( #384, #353 ) ) ;
#429 = DIRECTION ( 'NONE',  ( -1.000000000000000000, 0.000000000000000000, 0.000000000000000000 ) ) ;
#430 = CARTESIAN_POINT ( 'NONE',  ( 0.1331385214838921860, 3.000000000000000444, 7.999999999999998224 ) ) ;
#431 = CARTESIAN_POINT ( 'NONE',  ( 1.578031511427397118E-15, -3.000000000000000444, 7.999999999999998224 ) ) ;
#432 = CARTESIAN_POINT ( 'NONE',  ( 0.9738938205569875883, -2.838020848055395451, 9.262487300482415975 ) ) ;
#433 = APPLICATION_CONTEXT ( 'configuration controlled 3d designs of mechanical parts and assemblies' ) ;
#434 = VERTEX_POINT ( 'NONE', #64 ) ;
#435 = APPROVAL_STATUS ( 'not_yet_approved' ) ;
#436 = ADVANCED_FACE ( 'NONE', ( #281 ), #294, .T. ) ;
#437 = DIRECTION ( 'NONE',  ( -0.000000000000000000, -0.000000000000000000, -1.000000000000000000 ) ) ;
#438 = PLANE ( 'NONE',  #48 ) ;
#439 = COORDINATED_UNIVERSAL_TIME_OFFSET ( 1, 0, .AHEAD. ) ;
#440 = AXIS2_PLACEMENT_3D ( 'NONE', #210, #170, #419 ) ;
#441 = DIRECTION ( 'NONE',  ( 0.000000000000000000, 0.000000000000000000, 1.000000000000000000 ) ) ;
#442 = CARTESIAN_POINT ( 'NONE',  ( 0.1311869756547106858, -3.000000000000000444, 10.00000000000000000 ) ) ;
#443 = ORIENTED_EDGE ( 'NONE', *, *, #371, .F. ) ;
#444 = DIRECTION ( 'NONE',  ( -0.000000000000000000, -0.000000000000000000, -1.000000000000000000 ) ) ;
#445 = CC_DESIGN_PERSON_AND_ORGANIZATION_ASSIGNMENT ( #7, #306, ( #39 ) ) ;
#446 = CARTESIAN_POINT ( 'NONE',  ( -0.1331724280847632336, 3.000000000000001332, 8.000000000000000000 ) ) ;
#447 = DIRECTION ( 'NONE',  ( -0.000000000000000000, -0.000000000000000000, -1.000000000000000000 ) ) ;
#448 = VECTOR ( 'NONE', #14, 1000.000000000000000 ) ;
#449 = ORIENTED_EDGE ( 'NONE', *, *, #297, .T. ) ;
#450 = FACE_BOUND ( 'NONE', #428, .T. ) ;
#451 = CARTESIAN_POINT ( 'NONE',  ( -0.6149058025954704521, -2.937842246861731788, 9.799341081568300638 ) ) ;
#452 = ORIENTED_EDGE ( 'NONE', *, *, #165, .T. ) ;
#453 = VECTOR ( 'NONE', #359, 1000.000000000000000 ) ;
#454 = CARTESIAN_POINT ( 'NONE',  ( 0.000000000000000000, 0.000000000000000000, 5.000000000000000000 ) ) ;
#455 = DIRECTION ( 'NONE',  ( 1.000000000000000000, 0.000000000000000000, 0.000000000000000000 ) ) ;
#456 = APPLICATION_CONTEXT ( 'configuration controlled 3d designs of mechanical parts and assemblies' ) ;
#457 = EDGE_LOOP ( 'NONE', ( #280, #172, #321, #213 ) ) ;
#458 = DIRECTION ( 'NONE',  ( 0.000000000000000000, 0.000000000000000000, 1.000000000000000000 ) ) ;
#459 = CARTESIAN_POINT ( 'NONE',  ( -6.000000000000000888, 0.000000000000000000, 5.000000000000000000 ) ) ;
#460 = EDGE_LOOP ( 'NONE', ( #357, #334, #68, #169 ) ) ;
#461 = DIRECTION ( 'NONE',  ( -0.000000000000000000, -0.000000000000000000, -1.000000000000000000 ) ) ;
#462 = ORIENTED_EDGE ( 'NONE', *, *, #208, .T. ) ;
#463 = CARTESIAN_POINT ( 'NONE',  ( -0.9733197772037763817, -2.838207733611165740, 8.736078016159442683 ) ) ;
#464 = ADVANCED_FACE ( 'NONE', ( #251 ), #325, .T. ) ;
#465 = DIRECTION ( 'NONE',  ( 1.000000000000000000, 0.000000000000000000, 0.000000000000000000 ) ) ;
ENDSEC;
END-ISO-10303-21;
